%TF.GenerationSoftware,KiCad,Pcbnew,9.0.7*%
%TF.CreationDate,2026-03-06T19:20:16+01:00*%
%TF.ProjectId,movement-tracker,6d6f7665-6d65-46e7-942d-747261636b65,rev?*%
%TF.SameCoordinates,Original*%
%TF.FileFunction,Copper,L3,Inr*%
%TF.FilePolarity,Positive*%
%FSLAX45Y45*%
G04 Gerber Fmt 4.5, Leading zero omitted, Abs format (unit mm)*
G04 Created by KiCad (PCBNEW 9.0.7) date 2026-03-06 19:20:16*
%MOMM*%
%LPD*%
G01*
G04 APERTURE LIST*
%TA.AperFunction,ComponentPad*%
%ADD10C,0.700000*%
%TD*%
%TA.AperFunction,ComponentPad*%
%ADD11C,4.400000*%
%TD*%
%TA.AperFunction,ComponentPad*%
%ADD12C,1.200000*%
%TD*%
%TA.AperFunction,ViaPad*%
%ADD13C,0.600000*%
%TD*%
%TA.AperFunction,Conductor*%
%ADD14C,0.200000*%
%TD*%
%TA.AperFunction,Conductor*%
%ADD15C,0.300000*%
%TD*%
G04 APERTURE END LIST*
D10*
%TO.N,GND*%
%TO.C,H2*%
X6247532Y-5625000D03*
X6199204Y-5741673D03*
X6199204Y-5508327D03*
X6082532Y-5790000D03*
D11*
X6082532Y-5625000D03*
D10*
X6082532Y-5460000D03*
X5965859Y-5741673D03*
X5965859Y-5508327D03*
X5917532Y-5625000D03*
%TD*%
%TO.N,GND*%
%TO.C,H1*%
X5165000Y-3750000D03*
X5116673Y-3866673D03*
X5116673Y-3633327D03*
X5000000Y-3915000D03*
D11*
X5000000Y-3750000D03*
D10*
X5000000Y-3585000D03*
X4883327Y-3866673D03*
X4883327Y-3633327D03*
X4835000Y-3750000D03*
%TD*%
%TO.N,GND*%
%TO.C,H3*%
X4082468Y-5625000D03*
X4034141Y-5741673D03*
X4034141Y-5508327D03*
X3917468Y-5790000D03*
D11*
X3917468Y-5625000D03*
D10*
X3917468Y-5460000D03*
X3800796Y-5741673D03*
X3800796Y-5508327D03*
X3752468Y-5625000D03*
%TD*%
D12*
%TO.N,GND*%
%TO.C,J1*%
X5935000Y-5130000D03*
X6365000Y-5130000D03*
X5935000Y-4650000D03*
X6365000Y-4650000D03*
%TD*%
D13*
%TO.N,GND*%
X5604794Y-3814132D03*
X3950000Y-4060000D03*
X4700000Y-3937400D03*
X5450100Y-4921225D03*
X4154500Y-4905353D03*
X3800000Y-4830000D03*
X4812333Y-5620451D03*
X6178750Y-4211250D03*
X6070000Y-4050000D03*
X3820000Y-4230000D03*
X5441894Y-4135933D03*
X4170000Y-5250000D03*
X4725000Y-4072500D03*
X3730000Y-4400000D03*
X4400000Y-6270000D03*
X4572500Y-5255500D03*
X3650000Y-4590000D03*
X5680000Y-5190000D03*
X4350000Y-3730000D03*
X4530000Y-5790000D03*
X5525000Y-4600000D03*
X3740000Y-5260000D03*
X4070000Y-4370000D03*
X5010000Y-6420000D03*
X5152397Y-5247848D03*
X4940000Y-6020000D03*
X4070000Y-3940000D03*
X4690000Y-4780000D03*
X5575000Y-6275000D03*
X4330000Y-4120000D03*
X3590000Y-4870000D03*
X5330000Y-5650000D03*
X5960000Y-6050000D03*
%TO.N,/MISO*%
X5088824Y-4776176D03*
%TO.N,/MOSI*%
X5364625Y-5035943D03*
%TO.N,/SCK*%
X5010823Y-4793953D03*
X5412500Y-5112500D03*
%TO.N,+5V*%
X4400000Y-4577215D03*
X5580000Y-5550000D03*
%TO.N,/~{INT_IMU}*%
X5150162Y-4289110D03*
X4864099Y-4801474D03*
%TO.N,/~{CS_IMU}*%
X5150000Y-5100000D03*
X5030476Y-4320000D03*
%TO.N,/~{RST}*%
X4850000Y-4278655D03*
X4030000Y-4660000D03*
X4180000Y-5700000D03*
X5830000Y-4119732D03*
%TO.N,VBUS*%
X5675000Y-4597500D03*
X5675000Y-5000000D03*
%TO.N,/SDA*%
X4993447Y-5417599D03*
X5150795Y-4415748D03*
%TO.N,/SCL*%
X5327500Y-4409762D03*
X5164180Y-5450000D03*
%TO.N,/RST*%
X4934500Y-6275000D03*
%TO.N,/CANL*%
X4325000Y-5675000D03*
%TO.N,/CANH*%
X4550953Y-5627190D03*
%TO.N,/USB_D-*%
X5625000Y-4825000D03*
X5975000Y-4855000D03*
X6325000Y-4915000D03*
%TO.N,/SWDIO*%
X5335407Y-4128270D03*
X3990786Y-4504067D03*
%TO.N,/SWCLK*%
X5246312Y-4065000D03*
X3985000Y-4365000D03*
%TO.N,/VCP_RX*%
X4090000Y-5050000D03*
X4687500Y-4545926D03*
%TO.N,/CAN_RX*%
X4231853Y-4749031D03*
X4895000Y-4200000D03*
%TO.N,/CAN_TX*%
X4615429Y-4751031D03*
X4975000Y-4200000D03*
%TO.N,Net-(D6-K)*%
X4125557Y-5913578D03*
%TO.N,/~{INT_PAA}*%
X5442702Y-5018508D03*
%TO.N,+3.3V*%
X5525000Y-4375000D03*
X4612500Y-4660000D03*
X5875000Y-6050000D03*
X3900000Y-4275000D03*
X4575000Y-5050000D03*
X4170000Y-4010000D03*
X4523548Y-4304615D03*
X5000000Y-5253000D03*
X3750000Y-5050000D03*
X4575000Y-5550000D03*
X5450100Y-4834953D03*
X5905000Y-4325000D03*
X4856697Y-4881131D03*
%TO.N,/~{CS_PAA}*%
X5072851Y-4443331D03*
%TO.N,/~{RST_PAA}*%
X4996565Y-4467427D03*
%TO.N,Net-(D5-K)*%
X4730000Y-3640000D03*
X5324100Y-4010753D03*
%TO.N,Net-(JP1-A)*%
X4480000Y-5975000D03*
%TO.N,Net-(JP2-B)*%
X4492613Y-5681931D03*
%TO.N,Net-(J4-Pin_5)*%
X5245000Y-5975000D03*
%TO.N,Net-(J4-Pin_6)*%
X5325000Y-5975000D03*
%TO.N,Net-(J1-CC2)*%
X6270000Y-4500000D03*
X6325000Y-4835000D03*
%TO.N,unconnected-(U3-PB3-Pad26)*%
X5300000Y-3930000D03*
%TO.N,unconnected-(U3-PB4-Pad27)*%
X5218431Y-3918431D03*
%TD*%
D14*
%TO.N,GND*%
X5604794Y-3795206D02*
X5650000Y-3750000D01*
X6420000Y-5180000D02*
X6420000Y-5260000D01*
X6440000Y-5055000D02*
X6440000Y-4760000D01*
X6365000Y-4685000D02*
X6365000Y-4650000D01*
X6370000Y-5130000D02*
X6410000Y-5170000D01*
X6365000Y-5130000D02*
X6440000Y-5055000D01*
X6410000Y-5170000D02*
X6420000Y-5180000D01*
X6440000Y-4760000D02*
X6365000Y-4685000D01*
X6365000Y-5130000D02*
X6370000Y-5130000D01*
X5604794Y-3814132D02*
X5604794Y-3795206D01*
%TO.N,/SCK*%
X5051971Y-4835100D02*
X5072600Y-4835100D01*
X5072600Y-4835100D02*
X5350000Y-5112500D01*
X5010823Y-4793953D02*
X5051971Y-4835100D01*
X5350000Y-5112500D02*
X5412500Y-5112500D01*
D15*
%TO.N,+5V*%
X4700000Y-5550000D02*
X5580000Y-5550000D01*
X4400000Y-5250000D02*
X4700000Y-5550000D01*
X4400000Y-4577215D02*
X4400000Y-5250000D01*
D14*
%TO.N,/~{CS_IMU}*%
X4750000Y-4900000D02*
X4950000Y-5100000D01*
X5030476Y-4320000D02*
X4750000Y-4600476D01*
X4950000Y-5100000D02*
X5150000Y-5100000D01*
X4750000Y-4600476D02*
X4750000Y-4900000D01*
D15*
%TO.N,VBUS*%
X5675000Y-4600000D02*
X5750000Y-4675000D01*
X5750000Y-4675000D02*
X5750000Y-4925000D01*
X5750000Y-4925000D02*
X5675000Y-5000000D01*
X5675000Y-4597500D02*
X5675000Y-4600000D01*
%TD*%
%TA.AperFunction,Conductor*%
%TO.N,GND*%
G36*
X5038803Y-3530571D02*
G01*
X5115009Y-3534564D01*
X5115650Y-3534615D01*
X5191547Y-3542592D01*
X5192187Y-3542676D01*
X5255791Y-3552750D01*
X5267556Y-3554614D01*
X5268195Y-3554732D01*
X5287894Y-3558919D01*
X5342836Y-3570597D01*
X5343464Y-3570748D01*
X5417177Y-3590499D01*
X5417797Y-3590683D01*
X5490371Y-3614264D01*
X5490981Y-3614480D01*
X5552686Y-3638166D01*
X5562222Y-3641827D01*
X5562822Y-3642075D01*
X5632535Y-3673113D01*
X5633117Y-3673391D01*
X5690018Y-3702384D01*
X5701111Y-3708036D01*
X5701681Y-3708345D01*
X5767768Y-3746500D01*
X5768317Y-3746837D01*
X5832318Y-3788400D01*
X5832850Y-3788765D01*
X5894585Y-3833619D01*
X5895100Y-3834014D01*
X5906436Y-3843193D01*
X5954404Y-3882037D01*
X5954898Y-3882459D01*
X6011606Y-3933519D01*
X6012077Y-3933966D01*
X6066034Y-3987923D01*
X6066481Y-3988394D01*
X6117541Y-4045102D01*
X6117963Y-4045596D01*
X6165986Y-4104899D01*
X6166381Y-4105414D01*
X6209680Y-4165011D01*
X6211233Y-4167148D01*
X6211600Y-4167682D01*
X6251657Y-4229364D01*
X6253161Y-4231681D01*
X6253500Y-4232233D01*
X6264302Y-4250943D01*
X6291654Y-4298319D01*
X6291964Y-4298889D01*
X6326608Y-4366881D01*
X6326887Y-4367467D01*
X6357925Y-4437178D01*
X6358173Y-4437778D01*
X6385520Y-4509018D01*
X6385736Y-4509630D01*
X6392485Y-4530399D01*
X6392684Y-4537384D01*
X6390000Y-4541835D01*
X6390000Y-4625503D01*
X6386490Y-4621993D01*
X6378509Y-4617385D01*
X6369608Y-4615000D01*
X6360392Y-4615000D01*
X6351490Y-4617385D01*
X6343509Y-4621993D01*
X6340000Y-4625503D01*
X6340000Y-4592310D01*
X6341142Y-4587682D01*
X6340994Y-4587630D01*
X6341290Y-4586794D01*
X6341291Y-4586794D01*
X6343092Y-4577828D01*
X6342909Y-4570843D01*
X6341925Y-4565077D01*
X6341860Y-4564874D01*
X6340598Y-4560957D01*
X6340000Y-4557154D01*
X6340000Y-4542588D01*
X6338429Y-4541247D01*
X6337029Y-4541066D01*
X6335925Y-4540219D01*
X6334920Y-4539882D01*
X6333230Y-4538151D01*
X6332343Y-4537470D01*
X6331684Y-4536649D01*
X6331493Y-4536280D01*
X6328421Y-4532579D01*
X6328356Y-4532497D01*
X6328355Y-4532494D01*
X6328283Y-4532406D01*
X6327785Y-4531773D01*
X6327786Y-4531773D01*
X6326515Y-4530157D01*
X6324843Y-4528280D01*
X6324843Y-4528280D01*
X6323549Y-4527473D01*
X6318902Y-4522255D01*
X6317814Y-4515353D01*
X6318133Y-4513743D01*
X6320050Y-4506589D01*
X6320050Y-4493411D01*
X6316639Y-4480681D01*
X6310050Y-4469269D01*
X6300731Y-4459950D01*
X6296300Y-4457391D01*
X6291478Y-4452335D01*
X6290138Y-4445683D01*
X6290800Y-4437245D01*
X6289783Y-4430332D01*
X6289783Y-4430332D01*
X6289783Y-4430331D01*
X6288117Y-4424726D01*
X6288117Y-4424726D01*
X6274336Y-4394810D01*
X6274230Y-4394583D01*
X6274229Y-4394581D01*
X6274102Y-4394312D01*
X6273993Y-4394087D01*
X6259453Y-4364417D01*
X6259344Y-4364197D01*
X6259210Y-4363932D01*
X6259097Y-4363711D01*
X6243850Y-4334398D01*
X6243735Y-4334180D01*
X6243595Y-4333918D01*
X6243477Y-4333701D01*
X6227532Y-4304763D01*
X6227409Y-4304543D01*
X6227401Y-4304529D01*
X6227266Y-4304291D01*
X6227262Y-4304285D01*
X6227142Y-4304075D01*
X6210505Y-4275523D01*
X6210379Y-4275309D01*
X6210226Y-4275054D01*
X6210218Y-4275042D01*
X6210101Y-4274849D01*
X6201008Y-4260070D01*
X6198714Y-4256341D01*
X6197335Y-4254422D01*
X6197226Y-4254271D01*
X6197225Y-4254269D01*
X6197003Y-4253960D01*
X6194745Y-4251248D01*
X6194744Y-4251248D01*
X6194744Y-4251247D01*
X6194734Y-4251237D01*
X6194469Y-4250957D01*
X6194244Y-4250747D01*
X6194243Y-4250746D01*
X6191367Y-4248610D01*
X6191141Y-4248439D01*
X6187852Y-4245875D01*
X6187851Y-4245874D01*
X6187369Y-4245643D01*
X6186972Y-4245347D01*
X6184250Y-4244144D01*
X6184076Y-4244060D01*
X6184076Y-4244060D01*
X6182141Y-4243130D01*
X6182140Y-4243129D01*
X6180876Y-4242522D01*
X6180501Y-4242184D01*
X6179791Y-4241921D01*
X6179206Y-4241861D01*
X6179094Y-4241867D01*
X6178973Y-4241838D01*
X6178504Y-4241721D01*
X6178158Y-4241630D01*
X6174093Y-4240491D01*
X6173605Y-4240412D01*
X6168940Y-4239162D01*
X6165950Y-4237923D01*
X6162050Y-4235672D01*
X6159482Y-4233701D01*
X6156298Y-4230518D01*
X6154328Y-4227950D01*
X6152076Y-4224050D01*
X6150838Y-4221060D01*
X6149672Y-4216711D01*
X6149250Y-4213501D01*
X6149250Y-4208999D01*
X6149672Y-4205789D01*
X6150167Y-4203943D01*
X6150755Y-4200772D01*
X6151160Y-4196915D01*
X6150111Y-4187954D01*
X6147794Y-4181362D01*
X6147699Y-4181180D01*
X6145090Y-4176177D01*
X6145089Y-4176176D01*
X6137363Y-4165433D01*
X6135550Y-4162913D01*
X6135403Y-4162711D01*
X6135226Y-4162472D01*
X6135081Y-4162277D01*
X6135081Y-4162277D01*
X6135074Y-4162268D01*
X6115157Y-4135932D01*
X6115009Y-4135739D01*
X6114992Y-4135716D01*
X6114825Y-4135501D01*
X6114670Y-4135304D01*
X6107375Y-4126123D01*
X6094114Y-4109436D01*
X6093960Y-4109245D01*
X6093912Y-4109186D01*
X6093772Y-4109014D01*
X6093614Y-4108822D01*
X6076702Y-4088558D01*
X6076616Y-4088458D01*
X6076417Y-4088224D01*
X6076074Y-4087830D01*
X6076074Y-4087830D01*
X6071276Y-4083782D01*
X6071275Y-4083782D01*
X6071275Y-4083782D01*
X6068860Y-4082310D01*
X6065309Y-4080146D01*
X6065309Y-4080145D01*
X6059933Y-4077843D01*
X6059932Y-4077843D01*
X6059932Y-4077843D01*
X6059932Y-4077843D01*
X6059513Y-4077698D01*
X6059533Y-4077640D01*
X6057199Y-4076673D01*
X6053300Y-4074422D01*
X6050732Y-4072451D01*
X6047548Y-4069268D01*
X6045578Y-4066700D01*
X6043327Y-4062801D01*
X6042088Y-4059810D01*
X6042058Y-4059699D01*
X6040174Y-4052669D01*
X6038333Y-4048088D01*
X6035484Y-4042905D01*
X6032603Y-4038896D01*
X6032603Y-4038895D01*
X6032603Y-4038895D01*
X6027262Y-4033087D01*
X6027098Y-4032910D01*
X6026899Y-4032699D01*
X6026898Y-4032698D01*
X6026894Y-4032693D01*
X6026724Y-4032515D01*
X6003784Y-4008735D01*
X6003611Y-4008558D01*
X6003402Y-4008346D01*
X6003401Y-4008345D01*
X6003237Y-4008181D01*
X6003229Y-4008173D01*
X5979725Y-3984949D01*
X5979664Y-3984890D01*
X5979549Y-3984778D01*
X5979346Y-3984581D01*
X5979341Y-3984577D01*
X5979340Y-3984576D01*
X5979253Y-3984493D01*
X5979157Y-3984401D01*
X5957942Y-3964422D01*
X5955103Y-3961748D01*
X5955098Y-3961743D01*
X5954931Y-3961587D01*
X5954736Y-3961408D01*
X5954705Y-3961380D01*
X5954523Y-3961215D01*
X5929931Y-3939143D01*
X5929743Y-3938977D01*
X5929520Y-3938781D01*
X5929495Y-3938760D01*
X5929339Y-3938624D01*
X5908378Y-3920700D01*
X5904224Y-3917148D01*
X5904037Y-3916990D01*
X5904033Y-3916987D01*
X5903808Y-3916799D01*
X5903624Y-3916647D01*
X5878013Y-3895789D01*
X5878006Y-3895783D01*
X5878001Y-3895779D01*
X5877813Y-3895628D01*
X5877811Y-3895626D01*
X5877800Y-3895618D01*
X5877586Y-3895448D01*
X5877396Y-3895298D01*
X5877384Y-3895289D01*
X5851268Y-3875041D01*
X5851068Y-3874888D01*
X5850831Y-3874709D01*
X5850637Y-3874565D01*
X5844194Y-3869812D01*
X5824050Y-3854954D01*
X5823860Y-3854815D01*
X5823857Y-3854813D01*
X5823849Y-3854807D01*
X5823607Y-3854634D01*
X5823407Y-3854492D01*
X5823407Y-3854491D01*
X5823404Y-3854489D01*
X5796360Y-3835526D01*
X5796359Y-3835525D01*
X5796353Y-3835521D01*
X5796150Y-3835381D01*
X5795910Y-3835216D01*
X5795706Y-3835079D01*
X5795700Y-3835075D01*
X5768209Y-3816766D01*
X5767989Y-3816621D01*
X5767748Y-3816465D01*
X5767548Y-3816336D01*
X5739605Y-3798678D01*
X5739517Y-3798623D01*
X5739397Y-3798549D01*
X5739157Y-3798401D01*
X5739147Y-3798395D01*
X5739111Y-3798373D01*
X5738936Y-3798267D01*
X5726011Y-3790526D01*
X5710591Y-3781292D01*
X5710382Y-3781168D01*
X5710116Y-3781013D01*
X5709907Y-3780894D01*
X5682342Y-3765271D01*
X5680892Y-3764523D01*
X5679112Y-3763694D01*
X5679113Y-3763694D01*
X5672975Y-3762102D01*
X5671894Y-3761821D01*
X5671894Y-3761821D01*
X5671893Y-3761821D01*
X5664928Y-3761323D01*
X5664926Y-3761323D01*
X5662411Y-3761298D01*
X5653611Y-3763785D01*
X5653611Y-3763785D01*
X5653611Y-3763785D01*
X5652116Y-3764601D01*
X5647479Y-3767133D01*
X5642797Y-3770638D01*
X5642796Y-3770639D01*
X5641172Y-3772262D01*
X5641170Y-3772265D01*
X5639681Y-3773983D01*
X5639681Y-3773984D01*
X5639250Y-3774481D01*
X5637136Y-3777306D01*
X5635913Y-3779983D01*
X5635822Y-3779927D01*
X5635112Y-3781092D01*
X5634362Y-3782432D01*
X5633823Y-3784560D01*
X5633507Y-3785252D01*
X5633289Y-3786254D01*
X5633352Y-3786268D01*
X5633237Y-3786491D01*
X5632701Y-3788956D01*
X5632605Y-3789366D01*
X5632115Y-3791296D01*
X5632021Y-3791986D01*
X5632016Y-3791985D01*
X5631988Y-3792295D01*
X5631639Y-3794563D01*
X5631639Y-3794564D01*
X5631849Y-3796137D01*
X5631954Y-3798069D01*
X5631949Y-3798282D01*
X5631949Y-3798283D01*
X5632643Y-3804090D01*
X5633871Y-3808672D01*
X5634293Y-3811881D01*
X5634294Y-3811881D01*
X5634294Y-3816383D01*
X5633871Y-3819593D01*
X5632706Y-3823942D01*
X5631467Y-3826932D01*
X5629215Y-3830832D01*
X5627245Y-3833400D01*
X5624061Y-3836583D01*
X5621493Y-3838554D01*
X5617594Y-3840805D01*
X5614603Y-3842044D01*
X5613717Y-3842282D01*
X5610254Y-3843210D01*
X5607045Y-3843632D01*
X5602542Y-3843632D01*
X5599333Y-3843210D01*
X5594984Y-3842044D01*
X5591993Y-3840806D01*
X5588093Y-3838554D01*
X5585526Y-3836584D01*
X5582342Y-3833400D01*
X5580371Y-3830832D01*
X5578120Y-3826932D01*
X5576881Y-3823942D01*
X5575716Y-3819593D01*
X5575294Y-3816383D01*
X5575294Y-3811881D01*
X5575716Y-3808672D01*
X5576882Y-3804321D01*
X5578120Y-3801332D01*
X5580372Y-3797431D01*
X5582341Y-3794865D01*
X5585526Y-3791680D01*
X5588093Y-3789710D01*
X5592370Y-3787241D01*
X5593822Y-3786525D01*
X5598736Y-3784490D01*
X5604294Y-3781280D01*
X5608550Y-3778015D01*
X5609865Y-3776700D01*
X5611236Y-3775185D01*
X5612796Y-3773280D01*
X5616521Y-3766353D01*
X5618591Y-3759680D01*
X5619188Y-3757238D01*
X5618768Y-3748102D01*
X5616902Y-3741369D01*
X5616084Y-3738992D01*
X5610791Y-3731533D01*
X5609304Y-3730205D01*
X5605581Y-3726878D01*
X5600709Y-3723641D01*
X5594476Y-3720678D01*
X5590594Y-3718833D01*
X5590571Y-3718823D01*
X5590421Y-3718757D01*
X5590012Y-3718565D01*
X5590011Y-3718567D01*
X5589877Y-3718503D01*
X5559704Y-3705040D01*
X5559483Y-3704943D01*
X5559211Y-3704825D01*
X5559075Y-3704768D01*
X5558978Y-3704727D01*
X5558971Y-3704724D01*
X5558968Y-3704723D01*
X5528487Y-3691990D01*
X5528258Y-3691896D01*
X5528000Y-3691791D01*
X5527764Y-3691698D01*
X5527760Y-3691696D01*
X5496969Y-3679693D01*
X5496740Y-3679605D01*
X5496734Y-3679603D01*
X5496725Y-3679599D01*
X5496473Y-3679504D01*
X5496240Y-3679419D01*
X5496238Y-3679418D01*
X5480268Y-3673629D01*
X5465180Y-3668160D01*
X5465104Y-3668133D01*
X5464943Y-3668076D01*
X5464938Y-3668074D01*
X5464936Y-3668074D01*
X5464669Y-3667980D01*
X5464433Y-3667899D01*
X5464426Y-3667897D01*
X5433095Y-3657384D01*
X5433041Y-3657366D01*
X5432852Y-3657304D01*
X5432583Y-3657217D01*
X5432351Y-3657144D01*
X5400781Y-3647386D01*
X5400550Y-3647316D01*
X5400548Y-3647315D01*
X5400543Y-3647314D01*
X5400444Y-3647285D01*
X5400258Y-3647230D01*
X5400014Y-3647159D01*
X5368235Y-3638166D01*
X5367988Y-3638097D01*
X5367705Y-3638021D01*
X5367704Y-3638021D01*
X5367701Y-3638020D01*
X5367466Y-3637958D01*
X5367460Y-3637957D01*
X5367452Y-3637955D01*
X5335471Y-3629727D01*
X5335251Y-3629672D01*
X5335248Y-3629671D01*
X5335239Y-3629668D01*
X5334957Y-3629599D01*
X5334947Y-3629597D01*
X5334946Y-3629597D01*
X5334711Y-3629541D01*
X5302505Y-3622074D01*
X5302272Y-3622021D01*
X5301995Y-3621961D01*
X5301747Y-3621908D01*
X5269385Y-3615218D01*
X5269139Y-3615169D01*
X5268942Y-3615131D01*
X5268851Y-3615113D01*
X5268610Y-3615067D01*
X5264189Y-3614264D01*
X5236091Y-3609155D01*
X5235847Y-3609112D01*
X5235638Y-3609076D01*
X5235564Y-3609064D01*
X5235483Y-3609051D01*
X5235320Y-3609024D01*
X5232917Y-3608646D01*
X5229368Y-3608503D01*
X5228186Y-3608455D01*
X5228186Y-3608455D01*
X5228185Y-3608455D01*
X5222526Y-3608881D01*
X5221141Y-3609032D01*
X5212606Y-3612315D01*
X5212605Y-3612316D01*
X5206807Y-3616211D01*
X5206807Y-3616212D01*
X5204809Y-3617739D01*
X5199404Y-3625116D01*
X5199403Y-3625116D01*
X5196631Y-3631530D01*
X5195777Y-3633893D01*
X5195217Y-3643022D01*
X5195217Y-3643022D01*
X5196352Y-3649916D01*
X5197586Y-3653819D01*
X5198115Y-3655493D01*
X5201264Y-3662033D01*
X5202809Y-3665241D01*
X5203341Y-3666526D01*
X5211023Y-3688481D01*
X5211408Y-3689817D01*
X5216585Y-3712496D01*
X5216818Y-3713867D01*
X5219422Y-3736981D01*
X5219500Y-3738369D01*
X5219500Y-3761630D01*
X5219422Y-3763019D01*
X5216818Y-3786133D01*
X5216585Y-3787504D01*
X5211409Y-3810182D01*
X5211024Y-3811518D01*
X5203341Y-3833474D01*
X5202809Y-3834759D01*
X5201374Y-3837738D01*
X5199185Y-3842283D01*
X5198994Y-3842692D01*
X5198766Y-3843193D01*
X5197070Y-3849256D01*
X5196241Y-3856192D01*
X5196241Y-3856193D01*
X5196096Y-3858702D01*
X5197054Y-3862836D01*
X5196650Y-3869812D01*
X5192539Y-3875461D01*
X5191174Y-3876375D01*
X5187700Y-3878381D01*
X5187700Y-3878381D01*
X5178382Y-3887700D01*
X5178381Y-3887700D01*
X5171792Y-3899112D01*
X5170890Y-3902479D01*
X5167254Y-3908445D01*
X5160969Y-3911498D01*
X5160945Y-3911502D01*
X5152225Y-3912938D01*
X5152225Y-3912938D01*
X5152225Y-3912938D01*
X5145757Y-3915578D01*
X5145756Y-3915579D01*
X5140712Y-3918537D01*
X5127763Y-3928863D01*
X5126629Y-3929668D01*
X5126629Y-3929668D01*
X5106932Y-3942044D01*
X5105715Y-3942717D01*
X5084759Y-3952809D01*
X5083474Y-3953341D01*
X5061519Y-3961023D01*
X5060183Y-3961408D01*
X5037504Y-3966585D01*
X5036133Y-3966817D01*
X5013019Y-3969422D01*
X5011630Y-3969500D01*
X4988370Y-3969500D01*
X4986982Y-3969422D01*
X4963867Y-3966817D01*
X4962496Y-3966585D01*
X4939817Y-3961408D01*
X4938480Y-3961023D01*
X4916526Y-3953341D01*
X4915241Y-3952809D01*
X4894285Y-3942717D01*
X4893068Y-3942044D01*
X4873370Y-3929668D01*
X4872236Y-3928863D01*
X4854050Y-3914360D01*
X4853014Y-3913433D01*
X4836566Y-3896986D01*
X4835640Y-3895949D01*
X4835512Y-3895789D01*
X4821137Y-3877763D01*
X4820332Y-3876629D01*
X4819236Y-3874885D01*
X4807956Y-3856932D01*
X4807283Y-3855716D01*
X4806917Y-3854954D01*
X4797191Y-3834758D01*
X4796660Y-3833477D01*
X4788976Y-3811517D01*
X4788591Y-3810183D01*
X4783415Y-3787504D01*
X4783182Y-3786133D01*
X4780578Y-3763019D01*
X4780500Y-3761631D01*
X4780500Y-3738369D01*
X4780578Y-3736980D01*
X4780890Y-3734215D01*
X4783182Y-3713865D01*
X4783415Y-3712495D01*
X4784926Y-3705877D01*
X4784926Y-3705875D01*
X4784926Y-3705875D01*
X4785413Y-3702385D01*
X4785636Y-3698153D01*
X4785645Y-3697979D01*
X4784006Y-3688981D01*
X4781255Y-3682558D01*
X4780126Y-3680312D01*
X4779290Y-3679417D01*
X4776750Y-3676698D01*
X4773612Y-3670455D01*
X4774347Y-3663507D01*
X4775072Y-3662033D01*
X4776639Y-3659319D01*
X4780050Y-3646589D01*
X4780050Y-3633411D01*
X4776639Y-3620681D01*
X4770050Y-3609269D01*
X4760731Y-3599950D01*
X4755025Y-3596655D01*
X4749319Y-3593361D01*
X4738951Y-3590583D01*
X4736589Y-3589950D01*
X4723411Y-3589950D01*
X4710681Y-3593361D01*
X4699269Y-3599950D01*
X4699268Y-3599950D01*
X4689950Y-3609268D01*
X4689950Y-3609269D01*
X4683361Y-3620681D01*
X4683050Y-3621432D01*
X4682847Y-3621348D01*
X4679807Y-3626332D01*
X4673522Y-3629384D01*
X4671049Y-3629548D01*
X4668852Y-3629474D01*
X4663038Y-3630110D01*
X4663037Y-3630111D01*
X4632544Y-3637955D01*
X4632301Y-3638019D01*
X4632016Y-3638096D01*
X4631763Y-3638166D01*
X4599975Y-3647163D01*
X4599746Y-3647229D01*
X4599462Y-3647313D01*
X4599218Y-3647386D01*
X4567648Y-3657144D01*
X4567426Y-3657214D01*
X4567146Y-3657304D01*
X4566902Y-3657385D01*
X4535567Y-3667899D01*
X4535345Y-3667976D01*
X4535064Y-3668074D01*
X4534818Y-3668161D01*
X4503762Y-3679418D01*
X4503535Y-3679501D01*
X4503261Y-3679604D01*
X4503045Y-3679687D01*
X4472223Y-3691703D01*
X4472017Y-3691785D01*
X4471731Y-3691900D01*
X4471513Y-3691989D01*
X4441029Y-3704724D01*
X4440779Y-3704830D01*
X4440520Y-3704942D01*
X4440302Y-3705037D01*
X4410121Y-3718504D01*
X4409901Y-3718603D01*
X4409628Y-3718729D01*
X4409400Y-3718836D01*
X4393855Y-3726224D01*
X4393854Y-3726224D01*
X4392625Y-3726809D01*
X4392322Y-3726956D01*
X4391967Y-3727132D01*
X4389608Y-3728782D01*
X4389507Y-3728630D01*
X4387137Y-3730205D01*
X4383390Y-3734068D01*
X4383295Y-3734139D01*
X4383285Y-3734128D01*
X4383195Y-3734214D01*
X4383194Y-3734215D01*
X4381853Y-3735493D01*
X4381853Y-3735494D01*
X4381590Y-3735828D01*
X4381590Y-3735828D01*
X4381192Y-3736334D01*
X4381055Y-3736475D01*
X4380958Y-3736631D01*
X4380537Y-3737167D01*
X4380536Y-3737168D01*
X4379592Y-3738369D01*
X4378237Y-3740092D01*
X4374422Y-3746700D01*
X4372451Y-3749268D01*
X4369268Y-3752451D01*
X4366700Y-3754422D01*
X4362800Y-3756673D01*
X4359810Y-3757912D01*
X4357989Y-3758400D01*
X4355461Y-3759077D01*
X4352251Y-3759500D01*
X4347264Y-3759500D01*
X4345158Y-3759320D01*
X4343752Y-3759077D01*
X4342812Y-3758915D01*
X4342812Y-3758915D01*
X4335117Y-3759051D01*
X4335116Y-3759051D01*
X4328279Y-3760480D01*
X4325117Y-3761630D01*
X4322949Y-3762419D01*
X4322781Y-3762480D01*
X4319537Y-3764217D01*
X4319291Y-3764351D01*
X4319060Y-3764478D01*
X4318841Y-3764601D01*
X4290088Y-3780896D01*
X4289883Y-3781013D01*
X4289638Y-3781156D01*
X4289618Y-3781168D01*
X4289413Y-3781290D01*
X4280671Y-3786525D01*
X4261063Y-3798267D01*
X4260842Y-3798401D01*
X4260599Y-3798551D01*
X4260406Y-3798671D01*
X4260392Y-3798680D01*
X4232455Y-3816335D01*
X4232452Y-3816336D01*
X4232443Y-3816342D01*
X4232257Y-3816461D01*
X4232009Y-3816622D01*
X4231807Y-3816755D01*
X4204285Y-3835085D01*
X4204082Y-3835222D01*
X4203864Y-3835371D01*
X4203857Y-3835376D01*
X4203855Y-3835377D01*
X4203651Y-3835518D01*
X4176588Y-3854495D01*
X4176467Y-3854581D01*
X4176386Y-3854638D01*
X4176161Y-3854800D01*
X4175944Y-3854958D01*
X4149365Y-3874563D01*
X4149175Y-3874705D01*
X4148935Y-3874886D01*
X4148727Y-3875045D01*
X4122616Y-3895289D01*
X4122418Y-3895444D01*
X4122413Y-3895448D01*
X4122187Y-3895628D01*
X4122177Y-3895636D01*
X4122000Y-3895778D01*
X4113028Y-3903086D01*
X4113019Y-3903093D01*
X4111200Y-3904574D01*
X4111156Y-3904610D01*
X4111090Y-3904664D01*
X4110977Y-3904788D01*
X4110028Y-3905575D01*
X4109969Y-3905601D01*
X4109481Y-3906130D01*
X4108997Y-3906628D01*
X4108482Y-3907127D01*
X4108108Y-3907564D01*
X4108103Y-3907560D01*
X4107671Y-3908095D01*
X4106673Y-3909178D01*
X4105165Y-3911749D01*
X4104883Y-3912206D01*
X4104744Y-3912422D01*
X4104100Y-3913334D01*
X4103977Y-3913604D01*
X4103979Y-3913605D01*
X4103486Y-3914369D01*
X4103469Y-3914383D01*
X4103343Y-3914585D01*
X4103175Y-3914833D01*
X4103174Y-3914834D01*
X4101897Y-3916995D01*
X4101897Y-3916996D01*
X4101430Y-3918839D01*
X4101300Y-3919312D01*
X4101160Y-3919786D01*
X4100293Y-3922040D01*
X4100220Y-3922929D01*
X4100081Y-3923355D01*
X4099912Y-3924003D01*
X4099911Y-3924007D01*
X4099447Y-3925785D01*
X4099447Y-3925785D01*
X4099511Y-3927879D01*
X4099517Y-3928313D01*
X4099500Y-3932099D01*
X4099499Y-3932101D01*
X4099497Y-3932319D01*
X4099484Y-3932889D01*
X4099484Y-3932907D01*
X4099408Y-3936108D01*
X4099500Y-3937069D01*
X4099500Y-3942251D01*
X4099077Y-3945461D01*
X4098609Y-3947210D01*
X4097912Y-3949810D01*
X4096673Y-3952800D01*
X4094422Y-3956700D01*
X4092451Y-3959268D01*
X4089268Y-3962451D01*
X4086700Y-3964422D01*
X4082800Y-3966673D01*
X4079810Y-3967912D01*
X4079067Y-3968111D01*
X4075461Y-3969077D01*
X4072251Y-3969500D01*
X4067749Y-3969500D01*
X4064540Y-3969077D01*
X4060933Y-3968111D01*
X4056411Y-3967426D01*
X4050929Y-3967214D01*
X4049702Y-3967203D01*
X4049701Y-3967203D01*
X4040830Y-3969425D01*
X4040830Y-3969425D01*
X4034601Y-3972588D01*
X4034600Y-3972589D01*
X4029816Y-3975951D01*
X4029814Y-3975952D01*
X4020844Y-3984400D01*
X4020659Y-3984577D01*
X4020457Y-3984771D01*
X4020292Y-3984932D01*
X3996754Y-4008189D01*
X3996591Y-4008352D01*
X3996387Y-4008559D01*
X3996227Y-4008722D01*
X3986132Y-4019188D01*
X3984253Y-4021437D01*
X3982188Y-4024301D01*
X3981794Y-4025207D01*
X3981133Y-4026726D01*
X3981038Y-4026670D01*
X3980392Y-4027752D01*
X3979738Y-4028933D01*
X3979133Y-4031322D01*
X3978730Y-4032247D01*
X3978730Y-4032247D01*
X3978704Y-4032309D01*
X3978703Y-4032310D01*
X3978112Y-4035281D01*
X3978052Y-4035589D01*
X3977492Y-4037799D01*
X3977475Y-4038488D01*
X3977341Y-4039165D01*
X3977326Y-4039270D01*
X3977326Y-4039270D01*
X3977002Y-4041656D01*
X3977183Y-4042848D01*
X3977278Y-4044343D01*
X3977304Y-4044342D01*
X3977325Y-4044784D01*
X3977325Y-4044784D01*
X3978020Y-4050591D01*
X3979077Y-4054539D01*
X3979500Y-4057748D01*
X3979500Y-4062251D01*
X3979077Y-4065461D01*
X3978232Y-4068616D01*
X3978232Y-4068617D01*
X3977912Y-4069811D01*
X3976673Y-4072801D01*
X3974422Y-4076700D01*
X3972451Y-4079268D01*
X3969268Y-4082451D01*
X3966700Y-4084422D01*
X3962800Y-4086673D01*
X3959810Y-4087912D01*
X3958661Y-4088220D01*
X3955461Y-4089077D01*
X3952251Y-4089500D01*
X3945592Y-4089500D01*
X3944104Y-4089410D01*
X3943633Y-4089353D01*
X3941407Y-4089084D01*
X3941406Y-4089084D01*
X3941406Y-4089084D01*
X3934488Y-4089231D01*
X3934486Y-4089231D01*
X3934485Y-4089231D01*
X3932034Y-4089430D01*
X3923491Y-4092697D01*
X3918060Y-4096332D01*
X3918060Y-4096332D01*
X3917687Y-4096582D01*
X3917686Y-4096582D01*
X3917686Y-4096582D01*
X3913336Y-4100495D01*
X3913336Y-4100495D01*
X3913335Y-4100496D01*
X3906390Y-4108817D01*
X3906219Y-4109024D01*
X3906046Y-4109237D01*
X3905886Y-4109436D01*
X3900578Y-4116116D01*
X3900578Y-4116116D01*
X3885335Y-4135298D01*
X3885183Y-4135490D01*
X3885006Y-4135718D01*
X3884849Y-4135924D01*
X3864903Y-4162298D01*
X3864772Y-4162473D01*
X3864593Y-4162716D01*
X3864459Y-4162899D01*
X3849597Y-4183563D01*
X3846860Y-4188841D01*
X3846860Y-4188842D01*
X3844576Y-4195442D01*
X3844575Y-4195443D01*
X3844165Y-4196915D01*
X3843900Y-4197865D01*
X3843940Y-4200772D01*
X3844024Y-4207010D01*
X3845671Y-4213799D01*
X3845672Y-4213800D01*
X3846994Y-4217103D01*
X3847460Y-4218502D01*
X3849077Y-4224539D01*
X3849500Y-4227749D01*
X3849500Y-4232251D01*
X3849077Y-4235461D01*
X3847912Y-4239810D01*
X3846673Y-4242800D01*
X3844422Y-4246700D01*
X3842451Y-4249268D01*
X3839268Y-4252451D01*
X3836699Y-4254422D01*
X3832800Y-4256673D01*
X3829810Y-4257912D01*
X3828676Y-4258216D01*
X3825461Y-4259077D01*
X3822251Y-4259500D01*
X3817767Y-4259500D01*
X3812962Y-4260070D01*
X3807324Y-4261425D01*
X3805884Y-4261828D01*
X3798008Y-4266477D01*
X3798008Y-4266477D01*
X3792932Y-4271278D01*
X3792932Y-4271278D01*
X3790163Y-4274771D01*
X3790162Y-4274771D01*
X3789298Y-4275861D01*
X3772861Y-4304069D01*
X3772733Y-4304291D01*
X3772599Y-4304529D01*
X3772474Y-4304751D01*
X3756512Y-4333720D01*
X3756399Y-4333929D01*
X3756268Y-4334174D01*
X3756151Y-4334395D01*
X3750173Y-4345889D01*
X3749009Y-4348580D01*
X3748273Y-4350682D01*
X3748273Y-4350683D01*
X3747946Y-4351616D01*
X3747844Y-4351907D01*
X3747388Y-4355602D01*
X3747327Y-4355940D01*
X3747317Y-4355961D01*
X3747281Y-4356186D01*
X3746901Y-4358077D01*
X3746900Y-4358081D01*
X3746564Y-4360485D01*
X3746564Y-4360486D01*
X3746656Y-4361116D01*
X3747063Y-4363911D01*
X3747140Y-4364563D01*
X3747413Y-4367537D01*
X3747638Y-4368999D01*
X3747796Y-4370022D01*
X3747796Y-4370022D01*
X3747796Y-4370023D01*
X3747796Y-4370023D01*
X3749177Y-4372970D01*
X3749508Y-4373741D01*
X3749778Y-4374436D01*
X3749777Y-4374437D01*
X3750402Y-4376053D01*
X3750416Y-4376079D01*
X3750584Y-4376510D01*
X3750598Y-4376676D01*
X3752253Y-4379544D01*
X3752253Y-4379544D01*
X3754750Y-4383868D01*
X3756673Y-4387200D01*
X3757912Y-4390190D01*
X3759077Y-4394539D01*
X3759500Y-4397749D01*
X3759500Y-4402251D01*
X3759077Y-4405461D01*
X3757912Y-4409810D01*
X3756673Y-4412800D01*
X3754422Y-4416700D01*
X3752451Y-4419268D01*
X3749268Y-4422451D01*
X3746700Y-4424422D01*
X3742800Y-4426673D01*
X3739810Y-4427912D01*
X3737989Y-4428400D01*
X3735461Y-4429077D01*
X3732251Y-4429500D01*
X3731459Y-4429500D01*
X3731259Y-4429501D01*
X3730997Y-4429504D01*
X3730996Y-4429504D01*
X3725017Y-4430459D01*
X3725016Y-4430459D01*
X3718356Y-4432565D01*
X3716008Y-4433469D01*
X3708745Y-4439026D01*
X3704280Y-4444400D01*
X3704279Y-4444401D01*
X3701220Y-4449385D01*
X3698422Y-4455864D01*
X3698319Y-4456106D01*
X3698214Y-4456357D01*
X3698120Y-4456587D01*
X3685747Y-4487234D01*
X3685659Y-4487455D01*
X3685552Y-4487729D01*
X3685465Y-4487957D01*
X3684480Y-4490576D01*
X3680867Y-4500183D01*
X3673834Y-4518885D01*
X3673746Y-4519121D01*
X3673646Y-4519397D01*
X3673562Y-4519632D01*
X3666871Y-4538808D01*
X3666871Y-4538809D01*
X3666377Y-4541265D01*
X3666377Y-4541267D01*
X3666177Y-4542262D01*
X3665571Y-4544323D01*
X3665570Y-4547852D01*
X3665524Y-4548226D01*
X3665353Y-4551050D01*
X3665353Y-4551051D01*
X3665341Y-4553347D01*
X3666286Y-4556691D01*
X3666286Y-4556691D01*
X3666417Y-4557154D01*
X3666788Y-4558467D01*
X3666712Y-4558484D01*
X3667121Y-4560281D01*
X3667799Y-4562043D01*
X3667828Y-4562148D01*
X3667960Y-4562470D01*
X3668054Y-4562707D01*
X3669219Y-4565740D01*
X3669219Y-4565740D01*
X3670058Y-4567241D01*
X3673252Y-4571463D01*
X3674100Y-4572743D01*
X3674440Y-4573331D01*
X3674440Y-4573331D01*
X3676673Y-4577200D01*
X3677912Y-4580190D01*
X3679077Y-4584539D01*
X3679500Y-4587749D01*
X3679500Y-4592251D01*
X3679077Y-4595461D01*
X3677912Y-4599810D01*
X3676673Y-4602800D01*
X3674422Y-4606700D01*
X3672451Y-4609268D01*
X3669268Y-4612451D01*
X3666700Y-4614422D01*
X3662801Y-4616673D01*
X3659810Y-4617912D01*
X3658952Y-4618142D01*
X3658952Y-4618142D01*
X3658952Y-4618142D01*
X3654439Y-4619946D01*
X3649327Y-4622731D01*
X3648022Y-4623505D01*
X3641631Y-4630046D01*
X3641631Y-4630047D01*
X3637983Y-4636005D01*
X3635669Y-4641378D01*
X3633839Y-4648156D01*
X3633836Y-4648169D01*
X3633788Y-4648350D01*
X3633712Y-4648645D01*
X3633648Y-4648900D01*
X3631883Y-4656116D01*
X3625802Y-4680986D01*
X3625748Y-4681213D01*
X3625678Y-4681517D01*
X3625628Y-4681736D01*
X3618545Y-4714043D01*
X3618495Y-4714276D01*
X3618434Y-4714573D01*
X3618391Y-4714788D01*
X3613780Y-4738523D01*
X3612494Y-4745147D01*
X3612089Y-4747229D01*
X3612041Y-4747484D01*
X3611990Y-4747767D01*
X3611948Y-4748006D01*
X3606425Y-4780593D01*
X3606388Y-4780822D01*
X3606343Y-4781108D01*
X3606342Y-4781113D01*
X3606304Y-4781367D01*
X3604945Y-4790747D01*
X3601563Y-4814083D01*
X3601532Y-4814309D01*
X3601491Y-4814615D01*
X3601463Y-4814840D01*
X3600726Y-4820953D01*
X3600726Y-4820953D01*
X3600703Y-4821150D01*
X3600703Y-4821151D01*
X3600703Y-4821152D01*
X3600703Y-4821152D01*
X3600560Y-4824085D01*
X3600572Y-4824602D01*
X3600572Y-4824609D01*
X3600606Y-4826116D01*
X3600606Y-4826116D01*
X3600641Y-4827614D01*
X3600700Y-4828070D01*
X3600750Y-4828627D01*
X3600775Y-4828781D01*
X3601724Y-4832137D01*
X3601845Y-4832598D01*
X3602691Y-4836102D01*
X3603059Y-4836861D01*
X3603262Y-4837582D01*
X3604552Y-4839944D01*
X3604684Y-4840216D01*
X3604684Y-4840216D01*
X3605023Y-4840916D01*
X3605027Y-4840922D01*
X3605739Y-4842392D01*
X3605740Y-4842393D01*
X3606975Y-4844588D01*
X3607354Y-4844957D01*
X3608008Y-4845645D01*
X3608333Y-4846014D01*
X3610116Y-4848397D01*
X3612730Y-4851011D01*
X3612992Y-4851308D01*
X3613144Y-4851634D01*
X3614422Y-4853300D01*
X3616673Y-4857200D01*
X3617912Y-4860190D01*
X3619077Y-4864539D01*
X3619500Y-4867749D01*
X3619500Y-4872251D01*
X3619077Y-4875461D01*
X3618547Y-4877441D01*
X3617912Y-4879810D01*
X3616673Y-4882800D01*
X3614422Y-4886700D01*
X3612451Y-4889268D01*
X3608870Y-4892849D01*
X3607414Y-4894096D01*
X3604433Y-4896272D01*
X3600532Y-4899817D01*
X3599780Y-4900536D01*
X3599780Y-4900536D01*
X3599198Y-4901469D01*
X3596102Y-4906430D01*
X3594938Y-4908295D01*
X3592650Y-4914896D01*
X3592650Y-4914896D01*
X3592077Y-4917865D01*
X3591739Y-4919618D01*
X3591541Y-4920640D01*
X3590177Y-4949054D01*
X3590177Y-4949060D01*
X3590176Y-4949077D01*
X3590176Y-4949077D01*
X3589991Y-4952930D01*
X3590057Y-4953840D01*
X3589682Y-4969494D01*
X3589365Y-4982708D01*
X3589361Y-4982924D01*
X3589361Y-4982941D01*
X3589358Y-4983171D01*
X3589356Y-4983409D01*
X3589306Y-4999888D01*
X3589306Y-4999888D01*
X3589306Y-4999968D01*
X3589306Y-5000043D01*
X3589306Y-5000108D01*
X3589356Y-5016590D01*
X3589357Y-5016806D01*
X3589361Y-5017067D01*
X3589365Y-5017290D01*
X3589919Y-5040392D01*
X3589999Y-5043737D01*
X3590003Y-5043904D01*
X3590003Y-5043905D01*
X3590056Y-5046116D01*
X3590158Y-5050339D01*
X3590165Y-5050580D01*
X3590175Y-5050872D01*
X3590186Y-5051137D01*
X3591769Y-5084120D01*
X3591784Y-5084383D01*
X3591800Y-5084658D01*
X3591818Y-5084927D01*
X3594193Y-5117879D01*
X3594211Y-5118115D01*
X3594236Y-5118408D01*
X3594258Y-5118661D01*
X3597424Y-5151557D01*
X3597447Y-5151783D01*
X3597448Y-5151794D01*
X3597479Y-5152085D01*
X3597508Y-5152336D01*
X3599725Y-5170732D01*
X3601463Y-5185156D01*
X3601491Y-5185377D01*
X3601530Y-5185674D01*
X3601564Y-5185920D01*
X3602497Y-5192359D01*
X3606303Y-5218629D01*
X3606340Y-5218870D01*
X3606372Y-5219077D01*
X3606388Y-5219176D01*
X3606423Y-5219395D01*
X3609441Y-5237200D01*
X3611903Y-5251732D01*
X3611946Y-5251985D01*
X3611989Y-5252227D01*
X3612040Y-5252510D01*
X3612089Y-5252767D01*
X3612739Y-5256116D01*
X3612739Y-5256117D01*
X3612861Y-5256745D01*
X3618387Y-5285195D01*
X3618389Y-5285203D01*
X3618437Y-5285443D01*
X3618494Y-5285720D01*
X3618497Y-5285732D01*
X3618545Y-5285958D01*
X3625625Y-5318250D01*
X3625677Y-5318481D01*
X3625746Y-5318778D01*
X3625804Y-5319023D01*
X3633650Y-5351109D01*
X3633710Y-5351348D01*
X3633784Y-5351635D01*
X3633847Y-5351874D01*
X3642459Y-5383762D01*
X3642527Y-5384008D01*
X3642604Y-5384280D01*
X3642675Y-5384524D01*
X3652057Y-5416222D01*
X3652122Y-5416437D01*
X3652200Y-5416687D01*
X3652213Y-5416728D01*
X3652288Y-5416967D01*
X3662425Y-5448423D01*
X3662502Y-5448657D01*
X3662509Y-5448676D01*
X3662595Y-5448932D01*
X3662678Y-5449176D01*
X3673561Y-5480364D01*
X3673641Y-5480589D01*
X3673645Y-5480600D01*
X3673645Y-5480600D01*
X3673746Y-5480879D01*
X3673749Y-5480886D01*
X3673833Y-5481114D01*
X3677148Y-5489929D01*
X3678455Y-5493402D01*
X3678455Y-5493402D01*
X3678455Y-5493403D01*
X3679679Y-5496064D01*
X3679680Y-5496066D01*
X3681379Y-5499158D01*
X3681379Y-5499158D01*
X3681379Y-5499158D01*
X3681532Y-5499334D01*
X3682595Y-5500554D01*
X3682598Y-5500558D01*
X3683665Y-5501781D01*
X3683587Y-5501836D01*
X3684466Y-5503085D01*
X3685604Y-5504555D01*
X3686976Y-5505582D01*
X3687119Y-5505746D01*
X3687426Y-5505974D01*
X3687426Y-5505975D01*
X3690983Y-5508622D01*
X3690983Y-5508623D01*
X3692724Y-5509918D01*
X3694829Y-5511293D01*
X3698054Y-5512266D01*
X3698036Y-5512307D01*
X3699309Y-5512873D01*
X3701665Y-5513752D01*
X3703386Y-5513875D01*
X3703584Y-5513935D01*
X3704974Y-5514030D01*
X3704974Y-5514030D01*
X3708390Y-5514265D01*
X3708390Y-5514265D01*
X3710554Y-5514414D01*
X3713068Y-5514433D01*
X3716309Y-5513508D01*
X3716316Y-5513552D01*
X3717692Y-5513340D01*
X3720150Y-5512805D01*
X3721664Y-5511978D01*
X3721863Y-5511922D01*
X3723083Y-5511251D01*
X3723083Y-5511251D01*
X3725977Y-5509660D01*
X3725978Y-5509660D01*
X3726083Y-5509602D01*
X3727984Y-5508557D01*
X3730111Y-5507213D01*
X3731586Y-5505535D01*
X3732683Y-5504436D01*
X3733408Y-5503795D01*
X3737195Y-5499334D01*
X3737800Y-5498371D01*
X3738604Y-5497237D01*
X3753109Y-5479049D01*
X3754033Y-5478015D01*
X3770482Y-5461566D01*
X3771516Y-5460641D01*
X3789708Y-5446134D01*
X3790837Y-5445333D01*
X3810537Y-5432955D01*
X3811751Y-5432284D01*
X3832709Y-5422191D01*
X3833993Y-5421659D01*
X3855950Y-5413976D01*
X3857284Y-5413592D01*
X3879966Y-5408415D01*
X3881333Y-5408182D01*
X3904449Y-5405578D01*
X3905837Y-5405500D01*
X3929099Y-5405500D01*
X3930487Y-5405578D01*
X3953602Y-5408182D01*
X3954970Y-5408415D01*
X3977651Y-5413592D01*
X3978985Y-5413976D01*
X4000945Y-5421660D01*
X4002226Y-5422191D01*
X4023183Y-5432283D01*
X4024400Y-5432956D01*
X4044098Y-5445332D01*
X4045231Y-5446137D01*
X4049032Y-5449168D01*
X4063418Y-5460640D01*
X4064454Y-5461566D01*
X4080902Y-5478014D01*
X4081828Y-5479050D01*
X4096331Y-5497236D01*
X4097136Y-5498370D01*
X4109512Y-5518068D01*
X4110185Y-5519285D01*
X4120277Y-5540241D01*
X4120809Y-5541526D01*
X4128491Y-5563481D01*
X4128876Y-5564817D01*
X4134053Y-5587496D01*
X4134286Y-5588867D01*
X4134286Y-5588867D01*
X4136890Y-5611981D01*
X4136968Y-5613370D01*
X4136968Y-5638049D01*
X4137004Y-5639269D01*
X4137092Y-5640741D01*
X4138715Y-5647609D01*
X4138715Y-5647609D01*
X4141465Y-5654031D01*
X4142032Y-5655160D01*
X4143284Y-5662034D01*
X4140621Y-5668494D01*
X4140090Y-5669086D01*
X4139950Y-5669268D01*
X4133361Y-5680681D01*
X4129950Y-5693411D01*
X4129950Y-5707402D01*
X4129660Y-5707402D01*
X4129922Y-5708748D01*
X4129125Y-5710752D01*
X4128793Y-5712883D01*
X4127809Y-5714064D01*
X4127341Y-5715241D01*
X4125304Y-5717069D01*
X4124792Y-5717682D01*
X4124463Y-5717918D01*
X4118484Y-5721633D01*
X4116432Y-5723665D01*
X4116363Y-5723715D01*
X4113521Y-5726548D01*
X4113492Y-5726576D01*
X4111930Y-5728122D01*
X4111796Y-5728255D01*
X4111773Y-5728334D01*
X4110636Y-5730144D01*
X4110630Y-5730153D01*
X4107909Y-5734475D01*
X4107889Y-5734516D01*
X4097136Y-5751629D01*
X4096331Y-5752763D01*
X4081828Y-5770949D01*
X4080902Y-5771986D01*
X4066772Y-5786116D01*
X4066772Y-5786116D01*
X4064454Y-5788434D01*
X4063418Y-5789360D01*
X4045232Y-5803863D01*
X4044098Y-5804668D01*
X4024400Y-5817044D01*
X4023183Y-5817717D01*
X4002227Y-5827809D01*
X4000942Y-5828341D01*
X3978987Y-5836023D01*
X3977651Y-5836408D01*
X3954972Y-5841585D01*
X3953601Y-5841817D01*
X3933625Y-5844068D01*
X3933625Y-5844068D01*
X3929219Y-5845064D01*
X3924099Y-5846832D01*
X3923001Y-5847246D01*
X3915525Y-5852515D01*
X3910853Y-5857709D01*
X3909289Y-5859677D01*
X3905849Y-5868150D01*
X3904726Y-5875048D01*
X3904475Y-5877548D01*
X3906161Y-5886537D01*
X3908945Y-5892945D01*
X3908946Y-5892946D01*
X3912016Y-5897924D01*
X3912016Y-5897924D01*
X3921839Y-5909694D01*
X3927557Y-5916545D01*
X3927558Y-5916547D01*
X3927718Y-5916736D01*
X3927722Y-5916740D01*
X3927907Y-5916957D01*
X3928077Y-5917154D01*
X3931036Y-5920531D01*
X3931036Y-5920531D01*
X3949841Y-5941996D01*
X3950014Y-5942190D01*
X3950199Y-5942396D01*
X3950370Y-5942585D01*
X3959518Y-5952535D01*
X3972734Y-5966910D01*
X3972902Y-5967090D01*
X3973106Y-5967307D01*
X3973276Y-5967485D01*
X3973279Y-5967488D01*
X3976779Y-5971116D01*
X3987932Y-5982678D01*
X3996216Y-5991265D01*
X3996389Y-5991442D01*
X3996390Y-5991444D01*
X3996591Y-5991647D01*
X3996597Y-5991653D01*
X3996598Y-5991654D01*
X3996771Y-5991827D01*
X4001393Y-5996394D01*
X4020269Y-6015045D01*
X4020272Y-6015048D01*
X4020447Y-6015219D01*
X4020661Y-6015425D01*
X4020840Y-6015596D01*
X4021392Y-6016116D01*
X4044895Y-6038250D01*
X4045074Y-6038417D01*
X4045292Y-6038617D01*
X4045475Y-6038783D01*
X4070069Y-6060857D01*
X4070256Y-6061023D01*
X4070263Y-6061029D01*
X4070479Y-6061218D01*
X4070665Y-6061379D01*
X4095779Y-6082855D01*
X4095909Y-6082964D01*
X4095963Y-6083010D01*
X4096191Y-6083200D01*
X4096380Y-6083356D01*
X4121996Y-6104219D01*
X4122184Y-6104370D01*
X4122417Y-6104555D01*
X4122615Y-6104710D01*
X4148732Y-6124959D01*
X4148932Y-6125111D01*
X4149169Y-6125291D01*
X4149362Y-6125435D01*
X4175951Y-6145047D01*
X4176151Y-6145193D01*
X4176393Y-6145366D01*
X4176494Y-6145439D01*
X4176596Y-6145511D01*
X4203640Y-6164474D01*
X4203843Y-6164615D01*
X4203847Y-6164617D01*
X4204092Y-6164785D01*
X4204297Y-6164923D01*
X4231797Y-6183238D01*
X4232002Y-6183373D01*
X4232251Y-6183535D01*
X4232460Y-6183668D01*
X4260391Y-6201319D01*
X4260599Y-6201449D01*
X4260853Y-6201605D01*
X4261064Y-6201733D01*
X4277246Y-6211424D01*
X4289409Y-6218708D01*
X4289411Y-6218709D01*
X4289622Y-6218834D01*
X4289879Y-6218984D01*
X4290093Y-6219107D01*
X4301592Y-6225624D01*
X4318842Y-6235400D01*
X4319051Y-6235517D01*
X4319312Y-6235660D01*
X4319416Y-6235717D01*
X4319525Y-6235776D01*
X4345494Y-6249682D01*
X4346717Y-6250286D01*
X4348216Y-6250964D01*
X4355190Y-6252739D01*
X4362158Y-6253251D01*
X4364672Y-6253281D01*
X4364672Y-6253281D01*
X4364672Y-6253281D01*
X4368286Y-6252267D01*
X4373477Y-6250810D01*
X4378230Y-6248226D01*
X4378227Y-6248220D01*
X4379436Y-6247560D01*
X4379543Y-6247747D01*
X4387327Y-6243253D01*
X4387458Y-6243181D01*
X4387651Y-6243139D01*
X4390190Y-6242088D01*
X4394540Y-6240922D01*
X4397749Y-6240500D01*
X4402251Y-6240500D01*
X4405460Y-6240922D01*
X4409810Y-6242088D01*
X4412800Y-6243326D01*
X4416700Y-6245578D01*
X4419268Y-6247548D01*
X4422451Y-6250732D01*
X4424422Y-6253300D01*
X4426673Y-6257199D01*
X4427912Y-6260190D01*
X4429077Y-6264539D01*
X4429500Y-6267748D01*
X4429500Y-6268515D01*
X4429503Y-6268855D01*
X4429509Y-6269254D01*
X4429509Y-6269255D01*
X4429557Y-6269539D01*
X4429824Y-6271116D01*
X4430539Y-6275351D01*
X4430615Y-6275582D01*
X4430615Y-6275583D01*
X4430850Y-6276297D01*
X4431119Y-6277234D01*
X4431339Y-6278134D01*
X4431615Y-6278859D01*
X4431611Y-6278861D01*
X4431978Y-6279721D01*
X4432725Y-6281986D01*
X4432727Y-6281990D01*
X4433657Y-6284322D01*
X4433657Y-6284322D01*
X4439178Y-6291362D01*
X4439301Y-6291518D01*
X4439301Y-6291519D01*
X4444728Y-6295919D01*
X4449749Y-6298918D01*
X4449749Y-6298919D01*
X4454976Y-6301102D01*
X4471510Y-6308009D01*
X4471738Y-6308102D01*
X4472014Y-6308214D01*
X4472242Y-6308304D01*
X4503027Y-6320305D01*
X4503257Y-6320394D01*
X4503535Y-6320498D01*
X4503766Y-6320584D01*
X4503772Y-6320585D01*
X4503778Y-6320588D01*
X4534815Y-6331838D01*
X4534825Y-6331841D01*
X4534828Y-6331842D01*
X4535057Y-6331924D01*
X4535338Y-6332022D01*
X4535574Y-6332103D01*
X4561346Y-6340751D01*
X4566907Y-6342617D01*
X4567132Y-6342691D01*
X4567138Y-6342693D01*
X4567421Y-6342784D01*
X4567653Y-6342857D01*
X4586587Y-6348709D01*
X4599223Y-6352615D01*
X4599447Y-6352683D01*
X4599450Y-6352683D01*
X4599454Y-6352685D01*
X4599739Y-6352769D01*
X4599977Y-6352838D01*
X4599987Y-6352841D01*
X4599991Y-6352842D01*
X4614297Y-6356890D01*
X4631771Y-6361836D01*
X4631956Y-6361887D01*
X4632015Y-6361903D01*
X4632261Y-6361970D01*
X4632299Y-6361980D01*
X4632534Y-6362042D01*
X4664528Y-6370273D01*
X4664762Y-6370331D01*
X4665051Y-6370402D01*
X4665216Y-6370442D01*
X4665292Y-6370460D01*
X4665296Y-6370461D01*
X4697486Y-6377924D01*
X4697726Y-6377978D01*
X4697959Y-6378029D01*
X4698018Y-6378042D01*
X4698093Y-6378058D01*
X4698258Y-6378093D01*
X4730615Y-6384782D01*
X4730856Y-6384830D01*
X4731148Y-6384887D01*
X4731155Y-6384888D01*
X4731161Y-6384889D01*
X4731376Y-6384930D01*
X4731386Y-6384931D01*
X4731390Y-6384932D01*
X4763898Y-6390843D01*
X4764143Y-6390886D01*
X4764435Y-6390936D01*
X4764676Y-6390975D01*
X4797319Y-6396105D01*
X4797566Y-6396142D01*
X4797860Y-6396185D01*
X4797871Y-6396186D01*
X4797873Y-6396187D01*
X4798094Y-6396217D01*
X4805888Y-6397251D01*
X4830852Y-6400563D01*
X4831094Y-6400594D01*
X4831390Y-6400630D01*
X4831522Y-6400645D01*
X4831628Y-6400657D01*
X4831633Y-6400657D01*
X4831637Y-6400658D01*
X4864490Y-6404217D01*
X4864496Y-6404218D01*
X4864501Y-6404218D01*
X4864588Y-6404227D01*
X4864741Y-6404243D01*
X4865037Y-6404271D01*
X4865277Y-6404293D01*
X4865280Y-6404293D01*
X4865288Y-6404294D01*
X4887690Y-6406179D01*
X4898197Y-6407063D01*
X4898441Y-6407082D01*
X4898737Y-6407103D01*
X4898985Y-6407119D01*
X4931966Y-6409099D01*
X4932209Y-6409112D01*
X4932506Y-6409126D01*
X4932755Y-6409137D01*
X4963194Y-6410232D01*
X4963194Y-6410232D01*
X4963194Y-6410232D01*
X4963707Y-6410219D01*
X4965762Y-6410164D01*
X4968844Y-6409889D01*
X4976863Y-6407457D01*
X4982995Y-6404108D01*
X4987678Y-6400603D01*
X4990732Y-6397548D01*
X4993300Y-6395578D01*
X4997200Y-6393326D01*
X5000191Y-6392088D01*
X5004539Y-6390922D01*
X5007749Y-6390500D01*
X5012251Y-6390500D01*
X5015460Y-6390922D01*
X5019810Y-6392088D01*
X5022800Y-6393326D01*
X5026700Y-6395578D01*
X5029268Y-6397548D01*
X5031628Y-6399908D01*
X5031630Y-6399910D01*
X5033551Y-6401605D01*
X5033555Y-6401608D01*
X5035304Y-6402967D01*
X5035998Y-6403505D01*
X5043352Y-6407103D01*
X5043525Y-6407188D01*
X5043526Y-6407188D01*
X5050295Y-6408914D01*
X5050296Y-6408914D01*
X5056112Y-6409538D01*
X5067245Y-6409137D01*
X5067494Y-6409126D01*
X5067791Y-6409112D01*
X5068034Y-6409099D01*
X5101015Y-6407119D01*
X5101263Y-6407103D01*
X5101559Y-6407082D01*
X5101803Y-6407063D01*
X5116134Y-6405857D01*
X5134712Y-6404294D01*
X5134719Y-6404293D01*
X5134723Y-6404293D01*
X5134963Y-6404271D01*
X5135259Y-6404243D01*
X5135444Y-6404224D01*
X5135499Y-6404218D01*
X5135502Y-6404218D01*
X5135510Y-6404217D01*
X5168363Y-6400658D01*
X5168369Y-6400657D01*
X5168372Y-6400657D01*
X5168439Y-6400649D01*
X5168610Y-6400630D01*
X5168906Y-6400594D01*
X5169148Y-6400563D01*
X5197718Y-6396773D01*
X5201906Y-6396217D01*
X5202127Y-6396187D01*
X5202140Y-6396185D01*
X5202434Y-6396142D01*
X5202681Y-6396105D01*
X5235323Y-6390975D01*
X5235567Y-6390935D01*
X5235860Y-6390886D01*
X5236102Y-6390843D01*
X5268610Y-6384932D01*
X5268617Y-6384931D01*
X5268624Y-6384930D01*
X5268839Y-6384889D01*
X5268842Y-6384889D01*
X5268852Y-6384887D01*
X5269144Y-6384830D01*
X5269385Y-6384782D01*
X5301742Y-6378093D01*
X5301957Y-6378047D01*
X5301982Y-6378042D01*
X5301984Y-6378042D01*
X5302274Y-6377978D01*
X5302514Y-6377924D01*
X5334704Y-6370461D01*
X5334949Y-6370402D01*
X5335238Y-6370331D01*
X5335472Y-6370273D01*
X5367466Y-6362042D01*
X5367701Y-6361980D01*
X5367879Y-6361932D01*
X5367984Y-6361903D01*
X5367988Y-6361902D01*
X5368229Y-6361836D01*
X5400023Y-6352838D01*
X5400261Y-6352769D01*
X5400546Y-6352685D01*
X5400781Y-6352614D01*
X5432347Y-6342857D01*
X5432579Y-6342784D01*
X5432862Y-6342693D01*
X5432977Y-6342655D01*
X5433093Y-6342617D01*
X5433099Y-6342615D01*
X5464426Y-6332103D01*
X5464662Y-6332022D01*
X5464943Y-6331924D01*
X5465172Y-6331842D01*
X5465180Y-6331839D01*
X5465185Y-6331838D01*
X5496222Y-6320588D01*
X5496223Y-6320587D01*
X5496234Y-6320584D01*
X5496465Y-6320498D01*
X5496743Y-6320394D01*
X5496973Y-6320305D01*
X5524518Y-6309567D01*
X5525058Y-6309348D01*
X5525705Y-6309074D01*
X5531159Y-6305678D01*
X5536439Y-6301102D01*
X5538234Y-6299343D01*
X5542699Y-6291362D01*
X5544668Y-6284658D01*
X5545500Y-6278868D01*
X5545500Y-6272748D01*
X5545922Y-6269540D01*
X5547088Y-6265189D01*
X5548326Y-6262200D01*
X5550578Y-6258299D01*
X5552548Y-6255733D01*
X5555732Y-6252548D01*
X5558300Y-6250578D01*
X5562200Y-6248326D01*
X5565191Y-6247088D01*
X5569539Y-6245922D01*
X5572749Y-6245500D01*
X5577251Y-6245500D01*
X5580460Y-6245922D01*
X5584810Y-6247088D01*
X5587800Y-6248326D01*
X5590148Y-6249682D01*
X5591700Y-6250578D01*
X5594268Y-6252548D01*
X5595783Y-6254064D01*
X5596606Y-6254842D01*
X5596607Y-6254843D01*
X5596609Y-6254845D01*
X5597630Y-6255759D01*
X5603539Y-6259461D01*
X5610004Y-6262112D01*
X5612384Y-6262922D01*
X5621521Y-6263309D01*
X5628393Y-6262044D01*
X5628393Y-6262044D01*
X5633935Y-6260177D01*
X5633935Y-6260177D01*
X5633936Y-6260177D01*
X5650643Y-6251740D01*
X5650856Y-6251631D01*
X5650859Y-6251629D01*
X5650863Y-6251627D01*
X5651117Y-6251495D01*
X5651120Y-6251493D01*
X5651344Y-6251375D01*
X5680471Y-6235778D01*
X5680687Y-6235661D01*
X5680944Y-6235519D01*
X5681160Y-6235399D01*
X5709907Y-6219107D01*
X5710121Y-6218984D01*
X5710377Y-6218834D01*
X5710589Y-6218709D01*
X5738936Y-6201733D01*
X5739147Y-6201605D01*
X5739400Y-6201449D01*
X5739609Y-6201319D01*
X5767540Y-6183668D01*
X5767749Y-6183535D01*
X5767998Y-6183373D01*
X5768203Y-6183238D01*
X5795703Y-6164923D01*
X5795908Y-6164785D01*
X5796153Y-6164617D01*
X5796355Y-6164477D01*
X5823407Y-6145508D01*
X5823607Y-6145366D01*
X5823849Y-6145193D01*
X5824049Y-6145047D01*
X5850637Y-6125435D01*
X5850831Y-6125291D01*
X5851068Y-6125111D01*
X5851268Y-6124959D01*
X5877385Y-6104710D01*
X5877583Y-6104555D01*
X5877816Y-6104370D01*
X5878004Y-6104219D01*
X5881816Y-6101114D01*
X5886436Y-6098751D01*
X5894319Y-6096639D01*
X5905731Y-6090050D01*
X5915050Y-6080731D01*
X5921639Y-6069319D01*
X5921639Y-6069318D01*
X5921880Y-6068737D01*
X5922826Y-6066429D01*
X5923245Y-6065688D01*
X5923380Y-6065535D01*
X5923419Y-6065465D01*
X5923423Y-6065468D01*
X5923459Y-6065427D01*
X5925357Y-6061966D01*
X5927621Y-6057882D01*
X5927621Y-6057881D01*
X5927628Y-6057868D01*
X5927698Y-6057699D01*
X5927699Y-6057698D01*
X5928642Y-6054486D01*
X5928665Y-6054408D01*
X5929629Y-6051204D01*
X5930210Y-6048726D01*
X5930209Y-6048725D01*
X5930287Y-6047840D01*
X5930378Y-6047848D01*
X5930653Y-6045544D01*
X5930954Y-6044422D01*
X5932088Y-6040189D01*
X5933326Y-6037200D01*
X5935578Y-6033299D01*
X5937548Y-6030733D01*
X5940732Y-6027548D01*
X5943300Y-6025578D01*
X5947200Y-6023326D01*
X5950190Y-6022088D01*
X5954539Y-6020922D01*
X5957748Y-6020500D01*
X5960677Y-6020500D01*
X5962813Y-6020389D01*
X5965376Y-6020121D01*
X5972981Y-6017777D01*
X5977332Y-6015435D01*
X5979133Y-6014466D01*
X5979134Y-6014465D01*
X5983836Y-6010989D01*
X5983836Y-6010988D01*
X5983836Y-6010988D01*
X6003229Y-5991827D01*
X6003402Y-5991654D01*
X6003611Y-5991442D01*
X6003784Y-5991265D01*
X6026724Y-5967485D01*
X6026894Y-5967307D01*
X6027098Y-5967090D01*
X6027266Y-5966910D01*
X6049629Y-5942586D01*
X6049795Y-5942403D01*
X6049795Y-5942403D01*
X6049799Y-5942398D01*
X6049990Y-5942186D01*
X6049994Y-5942181D01*
X6050157Y-5941998D01*
X6071928Y-5917147D01*
X6072088Y-5916962D01*
X6072281Y-5916736D01*
X6072442Y-5916546D01*
X6087984Y-5897924D01*
X6089697Y-5895544D01*
X6089971Y-5895101D01*
X6091550Y-5892541D01*
X6091550Y-5892541D01*
X6091550Y-5892540D01*
X6091829Y-5891748D01*
X6092332Y-5890317D01*
X6092430Y-5890368D01*
X6092957Y-5889343D01*
X6093464Y-5888284D01*
X6093989Y-5885610D01*
X6094287Y-5884762D01*
X6094287Y-5884762D01*
X6094288Y-5884761D01*
X6094451Y-5884298D01*
X6094549Y-5883510D01*
X6094549Y-5883510D01*
X6094754Y-5881866D01*
X6094755Y-5881865D01*
X6094808Y-5881438D01*
X6095226Y-5879310D01*
X6095196Y-5878335D01*
X6095315Y-5877379D01*
X6095315Y-5877379D01*
X6095315Y-5877377D01*
X6095317Y-5877367D01*
X6095475Y-5874856D01*
X6095266Y-5873932D01*
X6095012Y-5872330D01*
X6095012Y-5872329D01*
X6095012Y-5872329D01*
X6094781Y-5869823D01*
X6093743Y-5867204D01*
X6093456Y-5865936D01*
X6093032Y-5865052D01*
X6092913Y-5865110D01*
X6091411Y-5861321D01*
X6091403Y-5861309D01*
X6090531Y-5859802D01*
X6090524Y-5859806D01*
X6090446Y-5859655D01*
X6090442Y-5859649D01*
X6090437Y-5859638D01*
X6090437Y-5859637D01*
X6089214Y-5857442D01*
X6088539Y-5856778D01*
X6087461Y-5855569D01*
X6087456Y-5855562D01*
X6087455Y-5855561D01*
X6085909Y-5853581D01*
X6085909Y-5853581D01*
X6085908Y-5853581D01*
X6084402Y-5852501D01*
X6084402Y-5852500D01*
X6083620Y-5851939D01*
X6082694Y-5851029D01*
X6081860Y-5850514D01*
X6081790Y-5850627D01*
X6078477Y-5848251D01*
X6078477Y-5848251D01*
X6078477Y-5848250D01*
X6078477Y-5848250D01*
X6078462Y-5848244D01*
X6076914Y-5847448D01*
X6076913Y-5847449D01*
X6076911Y-5847448D01*
X6076908Y-5847453D01*
X6076772Y-5847375D01*
X6076761Y-5847369D01*
X6076746Y-5847360D01*
X6076746Y-5847360D01*
X6076745Y-5847359D01*
X6074532Y-5846174D01*
X6074531Y-5846174D01*
X6073610Y-5845982D01*
X6072172Y-5845590D01*
X6072035Y-5845543D01*
X6068430Y-5844604D01*
X6066375Y-5844068D01*
X6066375Y-5844068D01*
X6066374Y-5844068D01*
X6046399Y-5841817D01*
X6045028Y-5841585D01*
X6022348Y-5836408D01*
X6021012Y-5836023D01*
X5999058Y-5828341D01*
X5997773Y-5827809D01*
X5976816Y-5817717D01*
X5975599Y-5817044D01*
X5955902Y-5804668D01*
X5954768Y-5803863D01*
X5953436Y-5802800D01*
X5936582Y-5789360D01*
X5935545Y-5788433D01*
X5919098Y-5771986D01*
X5918172Y-5770949D01*
X5915459Y-5767548D01*
X5903668Y-5752763D01*
X5902864Y-5751629D01*
X5892085Y-5734475D01*
X5890488Y-5731932D01*
X5889815Y-5730716D01*
X5889497Y-5730055D01*
X5879722Y-5709758D01*
X5879192Y-5708477D01*
X5871508Y-5686517D01*
X5871123Y-5685183D01*
X5865947Y-5662504D01*
X5865714Y-5661133D01*
X5863110Y-5638019D01*
X5863032Y-5636631D01*
X5863032Y-5613369D01*
X5863110Y-5611981D01*
X5865714Y-5588867D01*
X5865947Y-5587496D01*
X5871123Y-5564817D01*
X5871508Y-5563481D01*
X5871508Y-5563481D01*
X5879191Y-5541525D01*
X5879723Y-5540241D01*
X5889815Y-5519285D01*
X5889816Y-5519283D01*
X5890487Y-5518069D01*
X5902865Y-5498369D01*
X5903666Y-5497240D01*
X5918173Y-5479048D01*
X5919097Y-5478014D01*
X5935546Y-5461566D01*
X5936580Y-5460641D01*
X5954772Y-5446134D01*
X5955901Y-5445333D01*
X5975600Y-5432955D01*
X5976814Y-5432284D01*
X5997773Y-5422191D01*
X5999056Y-5421659D01*
X6021013Y-5413976D01*
X6022348Y-5413592D01*
X6045029Y-5408415D01*
X6046397Y-5408182D01*
X6069512Y-5405578D01*
X6070901Y-5405500D01*
X6094162Y-5405500D01*
X6095551Y-5405578D01*
X6118666Y-5408182D01*
X6120034Y-5408415D01*
X6142715Y-5413592D01*
X6144049Y-5413976D01*
X6166008Y-5421660D01*
X6167290Y-5422191D01*
X6188247Y-5432283D01*
X6189464Y-5432956D01*
X6209161Y-5445332D01*
X6210295Y-5446137D01*
X6214096Y-5449168D01*
X6228481Y-5460640D01*
X6229518Y-5461566D01*
X6245965Y-5478014D01*
X6246892Y-5479050D01*
X6261395Y-5497237D01*
X6262199Y-5498370D01*
X6262805Y-5499334D01*
X6262805Y-5499334D01*
X6262806Y-5499335D01*
X6266105Y-5503350D01*
X6266105Y-5503350D01*
X6266105Y-5503350D01*
X6270632Y-5507620D01*
X6272040Y-5508832D01*
X6280309Y-5512739D01*
X6287132Y-5514242D01*
X6289616Y-5514632D01*
X6298684Y-5513448D01*
X6305237Y-5511024D01*
X6307537Y-5510009D01*
X6307951Y-5509660D01*
X6314526Y-5504110D01*
X6314526Y-5504110D01*
X6318253Y-5499159D01*
X6318728Y-5498528D01*
X6318728Y-5498528D01*
X6321545Y-5493402D01*
X6326169Y-5481108D01*
X6326253Y-5480879D01*
X6326355Y-5480600D01*
X6326438Y-5480366D01*
X6337325Y-5449168D01*
X6337403Y-5448939D01*
X6337498Y-5448657D01*
X6337576Y-5448419D01*
X6347711Y-5416970D01*
X6347785Y-5416734D01*
X6347873Y-5416450D01*
X6347944Y-5416215D01*
X6357323Y-5384531D01*
X6357393Y-5384290D01*
X6357473Y-5384003D01*
X6357538Y-5383770D01*
X6366153Y-5351875D01*
X6366215Y-5351637D01*
X6366289Y-5351349D01*
X6366349Y-5351110D01*
X6374197Y-5319016D01*
X6374253Y-5318780D01*
X6374321Y-5318490D01*
X6374376Y-5318246D01*
X6381452Y-5285971D01*
X6381504Y-5285728D01*
X6381564Y-5285437D01*
X6381612Y-5285197D01*
X6387912Y-5252762D01*
X6387958Y-5252520D01*
X6388011Y-5252228D01*
X6388054Y-5251984D01*
X6389277Y-5244767D01*
X6392337Y-5238486D01*
X6397670Y-5235046D01*
X6407225Y-5231941D01*
X6422652Y-5224080D01*
X6431905Y-5217358D01*
X6438486Y-5215010D01*
X6445291Y-5216593D01*
X6450160Y-5221603D01*
X6451548Y-5228451D01*
X6451441Y-5229330D01*
X6445386Y-5267556D01*
X6445268Y-5268195D01*
X6429403Y-5342834D01*
X6429251Y-5343466D01*
X6409501Y-5417175D01*
X6409316Y-5417798D01*
X6385736Y-5490370D01*
X6385520Y-5490982D01*
X6358173Y-5562222D01*
X6357925Y-5562822D01*
X6326887Y-5632533D01*
X6326608Y-5633119D01*
X6291964Y-5701111D01*
X6291654Y-5701681D01*
X6253501Y-5767766D01*
X6253161Y-5768319D01*
X6211601Y-5832316D01*
X6211233Y-5832851D01*
X6166381Y-5894585D01*
X6165986Y-5895101D01*
X6117963Y-5954404D01*
X6117541Y-5954898D01*
X6066481Y-6011606D01*
X6066034Y-6012077D01*
X6012077Y-6066034D01*
X6011606Y-6066481D01*
X5954898Y-6117541D01*
X5954404Y-6117963D01*
X5895101Y-6165986D01*
X5894585Y-6166381D01*
X5832851Y-6211233D01*
X5832316Y-6211601D01*
X5768319Y-6253161D01*
X5767766Y-6253501D01*
X5701681Y-6291654D01*
X5701111Y-6291964D01*
X5633119Y-6326608D01*
X5632533Y-6326887D01*
X5562822Y-6357925D01*
X5562222Y-6358173D01*
X5490982Y-6385520D01*
X5490370Y-6385736D01*
X5417798Y-6409316D01*
X5417175Y-6409501D01*
X5343466Y-6429251D01*
X5342834Y-6429403D01*
X5268195Y-6445268D01*
X5267556Y-6445386D01*
X5192189Y-6457323D01*
X5191545Y-6457408D01*
X5115653Y-6465385D01*
X5115006Y-6465436D01*
X5038803Y-6469429D01*
X5038154Y-6469446D01*
X4961846Y-6469446D01*
X4961197Y-6469429D01*
X4884994Y-6465436D01*
X4884347Y-6465385D01*
X4808455Y-6457408D01*
X4807811Y-6457323D01*
X4732444Y-6445386D01*
X4731805Y-6445268D01*
X4657166Y-6429403D01*
X4656534Y-6429251D01*
X4582825Y-6409501D01*
X4582202Y-6409316D01*
X4509630Y-6385736D01*
X4509018Y-6385520D01*
X4437778Y-6358173D01*
X4437178Y-6357925D01*
X4367467Y-6326887D01*
X4366881Y-6326608D01*
X4298889Y-6291964D01*
X4298319Y-6291654D01*
X4252481Y-6265190D01*
X4232233Y-6253500D01*
X4231681Y-6253161D01*
X4167682Y-6211600D01*
X4167148Y-6211233D01*
X4153896Y-6201605D01*
X4105414Y-6166381D01*
X4104899Y-6165986D01*
X4045596Y-6117963D01*
X4045102Y-6117541D01*
X3988394Y-6066481D01*
X3987923Y-6066034D01*
X3933966Y-6012077D01*
X3933519Y-6011606D01*
X3882459Y-5954898D01*
X3882037Y-5954404D01*
X3834373Y-5895544D01*
X3834014Y-5895100D01*
X3833619Y-5894585D01*
X3832428Y-5892946D01*
X3788765Y-5832850D01*
X3788400Y-5832318D01*
X3746837Y-5768317D01*
X3746500Y-5767768D01*
X3708345Y-5701681D01*
X3708036Y-5701111D01*
X3673391Y-5633117D01*
X3673113Y-5632535D01*
X3642075Y-5562822D01*
X3641827Y-5562222D01*
X3637451Y-5550823D01*
X3614480Y-5490981D01*
X3614264Y-5490370D01*
X3611256Y-5481114D01*
X3590683Y-5417797D01*
X3590499Y-5417175D01*
X3590443Y-5416967D01*
X3570748Y-5343464D01*
X3570597Y-5342834D01*
X3565535Y-5319020D01*
X3557703Y-5282173D01*
X3554732Y-5268195D01*
X3554614Y-5267556D01*
X3550877Y-5243964D01*
X3542676Y-5192187D01*
X3542592Y-5191547D01*
X3534615Y-5115650D01*
X3534564Y-5115009D01*
X3530571Y-5038803D01*
X3530554Y-5038154D01*
X3530554Y-4961846D01*
X3530571Y-4961197D01*
X3530931Y-4954318D01*
X3534564Y-4884991D01*
X3534615Y-4884350D01*
X3542592Y-4808452D01*
X3542676Y-4807814D01*
X3554614Y-4732443D01*
X3554732Y-4731805D01*
X3558347Y-4714795D01*
X3570597Y-4657164D01*
X3570748Y-4656537D01*
X3590500Y-4582822D01*
X3590683Y-4582204D01*
X3614264Y-4509627D01*
X3614479Y-4509020D01*
X3641827Y-4437776D01*
X3642074Y-4437180D01*
X3673114Y-4367464D01*
X3673390Y-4366884D01*
X3708036Y-4298888D01*
X3708345Y-4298320D01*
X3746501Y-4232231D01*
X3746836Y-4231684D01*
X3788401Y-4167680D01*
X3788764Y-4167152D01*
X3833621Y-4105412D01*
X3834012Y-4104902D01*
X3882038Y-4045595D01*
X3882459Y-4045102D01*
X3933521Y-3988392D01*
X3933964Y-3987925D01*
X3987925Y-3933964D01*
X3988392Y-3933521D01*
X4045103Y-3882458D01*
X4045596Y-3882037D01*
X4104902Y-3834012D01*
X4105412Y-3833621D01*
X4167152Y-3788764D01*
X4167680Y-3788401D01*
X4231684Y-3746836D01*
X4232231Y-3746501D01*
X4298320Y-3708345D01*
X4298888Y-3708036D01*
X4366884Y-3673390D01*
X4367464Y-3673114D01*
X4437180Y-3642074D01*
X4437776Y-3641827D01*
X4509020Y-3614479D01*
X4509627Y-3614264D01*
X4582204Y-3590683D01*
X4582822Y-3590500D01*
X4656537Y-3570748D01*
X4657164Y-3570597D01*
X4731806Y-3554732D01*
X4732444Y-3554614D01*
X4807814Y-3542676D01*
X4808452Y-3542592D01*
X4884350Y-3534615D01*
X4884991Y-3534564D01*
X4961197Y-3530571D01*
X4961846Y-3530554D01*
X5038154Y-3530554D01*
X5038803Y-3530571D01*
G37*
%TD.AperFunction*%
%TA.AperFunction,Conductor*%
G36*
X4945460Y-5990922D02*
G01*
X4948189Y-5991654D01*
X4949810Y-5992088D01*
X4952800Y-5993326D01*
X4956700Y-5995578D01*
X4959268Y-5997548D01*
X4962451Y-6000732D01*
X4964422Y-6003300D01*
X4966673Y-6007199D01*
X4967912Y-6010190D01*
X4969077Y-6014539D01*
X4969500Y-6017748D01*
X4969500Y-6022251D01*
X4969078Y-6025460D01*
X4968827Y-6026394D01*
X4967912Y-6029810D01*
X4966673Y-6032800D01*
X4964422Y-6036700D01*
X4962451Y-6039268D01*
X4959268Y-6042451D01*
X4956700Y-6044422D01*
X4952800Y-6046673D01*
X4949810Y-6047912D01*
X4947989Y-6048400D01*
X4945461Y-6049077D01*
X4942251Y-6049500D01*
X4937749Y-6049500D01*
X4934540Y-6049077D01*
X4930190Y-6047912D01*
X4927200Y-6046673D01*
X4923300Y-6044422D01*
X4920732Y-6042451D01*
X4917549Y-6039268D01*
X4915578Y-6036700D01*
X4913327Y-6032800D01*
X4912088Y-6029810D01*
X4910923Y-6025460D01*
X4910500Y-6022251D01*
X4910500Y-6017748D01*
X4910922Y-6014540D01*
X4912088Y-6010189D01*
X4913326Y-6007200D01*
X4915578Y-6003299D01*
X4917548Y-6000733D01*
X4920732Y-5997548D01*
X4923300Y-5995578D01*
X4927200Y-5993326D01*
X4930191Y-5992088D01*
X4934539Y-5990922D01*
X4937749Y-5990500D01*
X4942251Y-5990500D01*
X4945460Y-5990922D01*
G37*
%TD.AperFunction*%
%TA.AperFunction,Conductor*%
G36*
X4525277Y-5758693D02*
G01*
X4525685Y-5758641D01*
X4526233Y-5758766D01*
X4526397Y-5758778D01*
X4526799Y-5758868D01*
X4529522Y-5759667D01*
X4531967Y-5760019D01*
X4532430Y-5760122D01*
X4532943Y-5760248D01*
X4536307Y-5761149D01*
X4539810Y-5762088D01*
X4542800Y-5763326D01*
X4546700Y-5765578D01*
X4549268Y-5767548D01*
X4552451Y-5770732D01*
X4554422Y-5773300D01*
X4556673Y-5777199D01*
X4557912Y-5780190D01*
X4559077Y-5784539D01*
X4559500Y-5787748D01*
X4559500Y-5792251D01*
X4559077Y-5795461D01*
X4557912Y-5799810D01*
X4556673Y-5802800D01*
X4554422Y-5806700D01*
X4552451Y-5809268D01*
X4549268Y-5812451D01*
X4546700Y-5814422D01*
X4542800Y-5816673D01*
X4539810Y-5817912D01*
X4537989Y-5818400D01*
X4535461Y-5819077D01*
X4532251Y-5819500D01*
X4527749Y-5819500D01*
X4524540Y-5819077D01*
X4520190Y-5817912D01*
X4517200Y-5816673D01*
X4513300Y-5814422D01*
X4510732Y-5812451D01*
X4507549Y-5809268D01*
X4505578Y-5806700D01*
X4503327Y-5802800D01*
X4502088Y-5799810D01*
X4500923Y-5795460D01*
X4500500Y-5792251D01*
X4500500Y-5787748D01*
X4500923Y-5784539D01*
X4502088Y-5780190D01*
X4503327Y-5777200D01*
X4505578Y-5773300D01*
X4507549Y-5770732D01*
X4510600Y-5767680D01*
X4511109Y-5767153D01*
X4511712Y-5766506D01*
X4513391Y-5763992D01*
X4515031Y-5762622D01*
X4516320Y-5760918D01*
X4517658Y-5760427D01*
X4518752Y-5759512D01*
X4520872Y-5759246D01*
X4522878Y-5758509D01*
X4525277Y-5758693D01*
G37*
%TD.AperFunction*%
%TA.AperFunction,Conductor*%
G36*
X5338860Y-5618231D02*
G01*
X5338978Y-5618353D01*
X5341893Y-5621410D01*
X5342808Y-5622369D01*
X5347406Y-5625985D01*
X5347754Y-5626259D01*
X5347743Y-5626272D01*
X5349169Y-5627450D01*
X5352451Y-5630732D01*
X5354422Y-5633300D01*
X5356673Y-5637199D01*
X5357912Y-5640190D01*
X5359077Y-5644539D01*
X5359500Y-5647748D01*
X5359500Y-5652251D01*
X5359078Y-5655460D01*
X5359077Y-5655461D01*
X5357912Y-5659810D01*
X5356673Y-5662800D01*
X5354422Y-5666700D01*
X5352451Y-5669268D01*
X5349268Y-5672451D01*
X5346700Y-5674422D01*
X5342800Y-5676673D01*
X5339810Y-5677912D01*
X5337989Y-5678400D01*
X5335461Y-5679077D01*
X5332251Y-5679500D01*
X5327749Y-5679500D01*
X5324540Y-5679077D01*
X5320190Y-5677912D01*
X5317200Y-5676673D01*
X5313300Y-5674422D01*
X5310732Y-5672451D01*
X5307549Y-5669268D01*
X5305578Y-5666700D01*
X5303326Y-5662800D01*
X5302088Y-5659810D01*
X5300922Y-5655460D01*
X5300500Y-5652251D01*
X5300500Y-5647748D01*
X5300922Y-5644540D01*
X5302088Y-5640189D01*
X5303326Y-5637200D01*
X5305578Y-5633299D01*
X5307548Y-5630733D01*
X5310831Y-5627449D01*
X5312527Y-5626032D01*
X5312593Y-5625986D01*
X5312594Y-5625985D01*
X5315403Y-5624035D01*
X5318575Y-5621417D01*
X5318628Y-5621372D01*
X5320153Y-5619378D01*
X5325788Y-5615248D01*
X5332762Y-5614821D01*
X5338860Y-5618231D01*
G37*
%TD.AperFunction*%
%TA.AperFunction,Conductor*%
G36*
X4832666Y-5587019D02*
G01*
X4837242Y-5592299D01*
X4838359Y-5597745D01*
X4838301Y-5600170D01*
X4838301Y-5600171D01*
X4838927Y-5605405D01*
X4838996Y-5605978D01*
X4839927Y-5609455D01*
X4841411Y-5614991D01*
X4841833Y-5618200D01*
X4841833Y-5622703D01*
X4841411Y-5625912D01*
X4840998Y-5627450D01*
X4840245Y-5630261D01*
X4839006Y-5633252D01*
X4836755Y-5637151D01*
X4834784Y-5639719D01*
X4831601Y-5642903D01*
X4829033Y-5644873D01*
X4825133Y-5647125D01*
X4822143Y-5648363D01*
X4820322Y-5648851D01*
X4817794Y-5649529D01*
X4814584Y-5649951D01*
X4810082Y-5649951D01*
X4806873Y-5649529D01*
X4802523Y-5648363D01*
X4799533Y-5647125D01*
X4795633Y-5644873D01*
X4793065Y-5642903D01*
X4789882Y-5639719D01*
X4787911Y-5637151D01*
X4785659Y-5633251D01*
X4784421Y-5630262D01*
X4783255Y-5625911D01*
X4782833Y-5622703D01*
X4782833Y-5618200D01*
X4783256Y-5614991D01*
X4784062Y-5611981D01*
X4785671Y-5605978D01*
X4785952Y-5604788D01*
X4786248Y-5603344D01*
X4786434Y-5597081D01*
X4788601Y-5590439D01*
X4794015Y-5586022D01*
X4798829Y-5585050D01*
X4825963Y-5585050D01*
X4832666Y-5587019D01*
G37*
%TD.AperFunction*%
%TA.AperFunction,Conductor*%
G36*
X3745460Y-5230922D02*
G01*
X3749810Y-5232088D01*
X3752800Y-5233326D01*
X3756700Y-5235578D01*
X3759268Y-5237549D01*
X3762451Y-5240732D01*
X3764422Y-5243300D01*
X3766048Y-5246116D01*
X3766673Y-5247199D01*
X3767912Y-5250190D01*
X3768902Y-5253884D01*
X3769077Y-5254540D01*
X3769500Y-5257748D01*
X3769500Y-5257749D01*
X3769500Y-5262251D01*
X3769077Y-5265460D01*
X3768695Y-5266887D01*
X3767912Y-5269810D01*
X3766673Y-5272800D01*
X3764422Y-5276700D01*
X3762451Y-5279268D01*
X3759268Y-5282451D01*
X3756700Y-5284422D01*
X3752800Y-5286673D01*
X3749810Y-5287912D01*
X3747989Y-5288400D01*
X3745461Y-5289077D01*
X3742251Y-5289500D01*
X3737749Y-5289500D01*
X3734540Y-5289078D01*
X3730190Y-5287912D01*
X3727200Y-5286673D01*
X3723300Y-5284422D01*
X3720732Y-5282451D01*
X3717548Y-5279268D01*
X3715578Y-5276700D01*
X3715035Y-5275760D01*
X3713326Y-5272800D01*
X3712088Y-5269810D01*
X3710922Y-5265460D01*
X3710500Y-5262251D01*
X3710500Y-5257748D01*
X3710922Y-5254540D01*
X3712088Y-5250189D01*
X3713326Y-5247200D01*
X3715578Y-5243299D01*
X3717548Y-5240733D01*
X3720732Y-5237548D01*
X3723300Y-5235578D01*
X3727200Y-5233326D01*
X3730190Y-5232088D01*
X3734539Y-5230923D01*
X3737748Y-5230500D01*
X3742251Y-5230500D01*
X3745460Y-5230922D01*
G37*
%TD.AperFunction*%
%TA.AperFunction,Conductor*%
G36*
X4577960Y-5226422D02*
G01*
X4582310Y-5227588D01*
X4585300Y-5228826D01*
X4589200Y-5231078D01*
X4591768Y-5233049D01*
X4594951Y-5236232D01*
X4596922Y-5238800D01*
X4599173Y-5242700D01*
X4600167Y-5245100D01*
X4600226Y-5245081D01*
X4600226Y-5245081D01*
X4600402Y-5245669D01*
X4600414Y-5245697D01*
X4600439Y-5245792D01*
X4600440Y-5245793D01*
X4600650Y-5246577D01*
X4600650Y-5246578D01*
X4601578Y-5250040D01*
X4602000Y-5253249D01*
X4602000Y-5257751D01*
X4601577Y-5260961D01*
X4600412Y-5265310D01*
X4599173Y-5268300D01*
X4596922Y-5272200D01*
X4594951Y-5274768D01*
X4591768Y-5277951D01*
X4589200Y-5279922D01*
X4585300Y-5282173D01*
X4582310Y-5283412D01*
X4581587Y-5283606D01*
X4577961Y-5284578D01*
X4574751Y-5285000D01*
X4570249Y-5285000D01*
X4567040Y-5284578D01*
X4562690Y-5283412D01*
X4559700Y-5282174D01*
X4555800Y-5279922D01*
X4553232Y-5277952D01*
X4550049Y-5274768D01*
X4548078Y-5272200D01*
X4545826Y-5268300D01*
X4544588Y-5265310D01*
X4543422Y-5260960D01*
X4543000Y-5257751D01*
X4543000Y-5253249D01*
X4543422Y-5250040D01*
X4544588Y-5245689D01*
X4545826Y-5242700D01*
X4548078Y-5238799D01*
X4550048Y-5236233D01*
X4553232Y-5233048D01*
X4555800Y-5231078D01*
X4559700Y-5228826D01*
X4562691Y-5227588D01*
X4567039Y-5226423D01*
X4570249Y-5226000D01*
X4574751Y-5226000D01*
X4577960Y-5226422D01*
G37*
%TD.AperFunction*%
%TA.AperFunction,Conductor*%
G36*
X4175460Y-5220922D02*
G01*
X4179810Y-5222088D01*
X4182800Y-5223326D01*
X4186700Y-5225578D01*
X4189268Y-5227549D01*
X4192451Y-5230732D01*
X4194422Y-5233300D01*
X4196673Y-5237200D01*
X4197912Y-5240190D01*
X4199077Y-5244539D01*
X4199500Y-5247749D01*
X4199500Y-5252251D01*
X4199077Y-5255460D01*
X4198489Y-5257657D01*
X4197912Y-5259810D01*
X4196673Y-5262800D01*
X4194422Y-5266700D01*
X4192451Y-5269268D01*
X4189268Y-5272451D01*
X4186700Y-5274422D01*
X4182800Y-5276673D01*
X4179810Y-5277912D01*
X4179058Y-5278114D01*
X4175461Y-5279077D01*
X4172251Y-5279500D01*
X4167749Y-5279500D01*
X4164540Y-5279078D01*
X4160190Y-5277912D01*
X4157200Y-5276673D01*
X4153300Y-5274422D01*
X4150732Y-5272451D01*
X4147548Y-5269268D01*
X4145578Y-5266700D01*
X4145152Y-5265962D01*
X4143326Y-5262800D01*
X4142088Y-5259810D01*
X4140922Y-5255460D01*
X4140500Y-5252251D01*
X4140500Y-5247748D01*
X4140922Y-5244540D01*
X4142088Y-5240190D01*
X4143326Y-5237200D01*
X4145578Y-5233299D01*
X4147548Y-5230733D01*
X4150732Y-5227548D01*
X4153300Y-5225578D01*
X4157200Y-5223326D01*
X4160190Y-5222088D01*
X4164539Y-5220923D01*
X4167748Y-5220500D01*
X4172251Y-5220500D01*
X4175460Y-5220922D01*
G37*
%TD.AperFunction*%
%TA.AperFunction,Conductor*%
G36*
X5157857Y-5218770D02*
G01*
X5162207Y-5219936D01*
X5165197Y-5221174D01*
X5169097Y-5223426D01*
X5171665Y-5225397D01*
X5174848Y-5228580D01*
X5176819Y-5231148D01*
X5179070Y-5235048D01*
X5180309Y-5238038D01*
X5181474Y-5242387D01*
X5181897Y-5245597D01*
X5181897Y-5250099D01*
X5181474Y-5253308D01*
X5180309Y-5257658D01*
X5179070Y-5260648D01*
X5179070Y-5260649D01*
X5176819Y-5264548D01*
X5174848Y-5267116D01*
X5171665Y-5270299D01*
X5169097Y-5272270D01*
X5165197Y-5274521D01*
X5162207Y-5275760D01*
X5160386Y-5276248D01*
X5157858Y-5276925D01*
X5154648Y-5277348D01*
X5150146Y-5277348D01*
X5146937Y-5276926D01*
X5142587Y-5275760D01*
X5139597Y-5274521D01*
X5135697Y-5272270D01*
X5133129Y-5270299D01*
X5129945Y-5267116D01*
X5127975Y-5264548D01*
X5125723Y-5260648D01*
X5124485Y-5257658D01*
X5123319Y-5253308D01*
X5122897Y-5250099D01*
X5122897Y-5245596D01*
X5123319Y-5242388D01*
X5124485Y-5238037D01*
X5125723Y-5235048D01*
X5127975Y-5231147D01*
X5129944Y-5228581D01*
X5133129Y-5225396D01*
X5135696Y-5223426D01*
X5139597Y-5221174D01*
X5142587Y-5219936D01*
X5146936Y-5218771D01*
X5150145Y-5218348D01*
X5154648Y-5218348D01*
X5157857Y-5218770D01*
G37*
%TD.AperFunction*%
%TA.AperFunction,Conductor*%
G36*
X5685460Y-5160922D02*
G01*
X5689810Y-5162088D01*
X5692800Y-5163326D01*
X5696700Y-5165578D01*
X5699268Y-5167549D01*
X5702451Y-5170732D01*
X5704422Y-5173300D01*
X5706673Y-5177200D01*
X5707912Y-5180190D01*
X5709077Y-5184539D01*
X5709500Y-5187749D01*
X5709500Y-5192251D01*
X5709077Y-5195461D01*
X5707912Y-5199810D01*
X5706673Y-5202800D01*
X5704422Y-5206700D01*
X5702451Y-5209268D01*
X5699268Y-5212451D01*
X5696700Y-5214422D01*
X5692800Y-5216673D01*
X5689810Y-5217912D01*
X5688183Y-5218348D01*
X5685461Y-5219077D01*
X5682251Y-5219500D01*
X5677749Y-5219500D01*
X5674540Y-5219078D01*
X5670190Y-5217912D01*
X5667200Y-5216673D01*
X5663300Y-5214422D01*
X5660732Y-5212451D01*
X5657548Y-5209268D01*
X5655578Y-5206700D01*
X5653326Y-5202800D01*
X5652088Y-5199810D01*
X5650922Y-5195461D01*
X5650500Y-5192251D01*
X5650500Y-5187748D01*
X5650922Y-5184540D01*
X5652088Y-5180190D01*
X5653326Y-5177200D01*
X5655578Y-5173299D01*
X5657548Y-5170733D01*
X5660732Y-5167548D01*
X5663300Y-5165578D01*
X5667200Y-5163326D01*
X5670190Y-5162088D01*
X5674539Y-5160923D01*
X5677748Y-5160500D01*
X5682251Y-5160500D01*
X5685460Y-5160922D01*
G37*
%TD.AperFunction*%
%TA.AperFunction,Conductor*%
G36*
X6441709Y-4739195D02*
G01*
X6446578Y-4744206D01*
X6447859Y-4748053D01*
X6457323Y-4807811D01*
X6457408Y-4808455D01*
X6465385Y-4884347D01*
X6465436Y-4884994D01*
X6469429Y-4961197D01*
X6469446Y-4961846D01*
X6469446Y-5038154D01*
X6469429Y-5038803D01*
X6468892Y-5049058D01*
X6466575Y-5055650D01*
X6461062Y-5059943D01*
X6454104Y-5060574D01*
X6447909Y-5057343D01*
X6447741Y-5057177D01*
X6436660Y-5046097D01*
X6422652Y-5035919D01*
X6417292Y-5033188D01*
X6412213Y-5028391D01*
X6410526Y-5021843D01*
X6410634Y-5017312D01*
X6410639Y-5017068D01*
X6410642Y-5016771D01*
X6410644Y-5016522D01*
X6410644Y-4983478D01*
X6410642Y-4983229D01*
X6410639Y-4982932D01*
X6410634Y-4982688D01*
X6410261Y-4967132D01*
X6409842Y-4949662D01*
X6409835Y-4949411D01*
X6409824Y-4949115D01*
X6409814Y-4948866D01*
X6409794Y-4948456D01*
X6409761Y-4948186D01*
X6409449Y-4945576D01*
X6409445Y-4945549D01*
X6408778Y-4942088D01*
X6405952Y-4935506D01*
X6405333Y-4934050D01*
X6403203Y-4931061D01*
X6403202Y-4931061D01*
X6402872Y-4930597D01*
X6402871Y-4930596D01*
X6401287Y-4928371D01*
X6401286Y-4928370D01*
X6399792Y-4926496D01*
X6399696Y-4926407D01*
X6396224Y-4924007D01*
X6396223Y-4924006D01*
X6396039Y-4923879D01*
X6392451Y-4921321D01*
X6392448Y-4921320D01*
X6392423Y-4921380D01*
X6392173Y-4921207D01*
X6391682Y-4921010D01*
X6391644Y-4920985D01*
X6388362Y-4919618D01*
X6387781Y-4919450D01*
X6385698Y-4918616D01*
X6383308Y-4917815D01*
X6377577Y-4913820D01*
X6375569Y-4909113D01*
X6375260Y-4909196D01*
X6374834Y-4907604D01*
X6371639Y-4895681D01*
X6365050Y-4884269D01*
X6364549Y-4883768D01*
X6361201Y-4877636D01*
X6361699Y-4870666D01*
X6364550Y-4866231D01*
X6365050Y-4865731D01*
X6371639Y-4854318D01*
X6375050Y-4841589D01*
X6375050Y-4828411D01*
X6373830Y-4823859D01*
X6373997Y-4816874D01*
X6377913Y-4811088D01*
X6378227Y-4810836D01*
X6383468Y-4806790D01*
X6383794Y-4806394D01*
X6385418Y-4804422D01*
X6387910Y-4801397D01*
X6389386Y-4799362D01*
X6392454Y-4790747D01*
X6393275Y-4783808D01*
X6393128Y-4777961D01*
X6391473Y-4768196D01*
X6392294Y-4761258D01*
X6396736Y-4755865D01*
X6399867Y-4754332D01*
X6407225Y-4751941D01*
X6422652Y-4744080D01*
X6428323Y-4739961D01*
X6434903Y-4737613D01*
X6441709Y-4739195D01*
G37*
%TD.AperFunction*%
%TA.AperFunction,Conductor*%
G36*
X5455560Y-4892147D02*
G01*
X5459910Y-4893313D01*
X5462900Y-4894551D01*
X5466800Y-4896803D01*
X5469368Y-4898773D01*
X5472551Y-4901957D01*
X5474522Y-4904525D01*
X5476773Y-4908424D01*
X5478012Y-4911414D01*
X5479177Y-4915764D01*
X5479600Y-4918973D01*
X5479600Y-4923476D01*
X5479177Y-4926686D01*
X5478012Y-4931035D01*
X5476773Y-4934025D01*
X5474522Y-4937924D01*
X5472551Y-4940493D01*
X5469050Y-4943994D01*
X5467111Y-4945576D01*
X5466695Y-4945850D01*
X5466695Y-4945851D01*
X5461560Y-4950689D01*
X5458072Y-4955348D01*
X5452479Y-4959535D01*
X5445510Y-4960033D01*
X5439377Y-4956685D01*
X5437262Y-4953859D01*
X5437252Y-4953840D01*
X5434164Y-4948185D01*
X5432191Y-4945549D01*
X5430660Y-4943504D01*
X5430660Y-4943504D01*
X5430659Y-4943503D01*
X5427649Y-4940493D01*
X5425678Y-4937924D01*
X5423427Y-4934025D01*
X5422188Y-4931034D01*
X5421023Y-4926685D01*
X5420600Y-4923476D01*
X5420600Y-4918973D01*
X5421022Y-4915764D01*
X5422188Y-4911414D01*
X5423426Y-4908425D01*
X5425678Y-4904524D01*
X5427648Y-4901958D01*
X5430832Y-4898773D01*
X5433400Y-4896803D01*
X5437300Y-4894551D01*
X5440291Y-4893312D01*
X5444639Y-4892147D01*
X5447849Y-4891725D01*
X5452351Y-4891725D01*
X5455560Y-4892147D01*
G37*
%TD.AperFunction*%
%TA.AperFunction,Conductor*%
G36*
X4159960Y-4876275D02*
G01*
X4164310Y-4877441D01*
X4167300Y-4878679D01*
X4171200Y-4880931D01*
X4173768Y-4882901D01*
X4176951Y-4886085D01*
X4178922Y-4888653D01*
X4181173Y-4892552D01*
X4182412Y-4895543D01*
X4183578Y-4899892D01*
X4184000Y-4903101D01*
X4184000Y-4907604D01*
X4183578Y-4910813D01*
X4183578Y-4910814D01*
X4182412Y-4915163D01*
X4181173Y-4918153D01*
X4178922Y-4922053D01*
X4176951Y-4924621D01*
X4173768Y-4927804D01*
X4171200Y-4929775D01*
X4167300Y-4932026D01*
X4164310Y-4933265D01*
X4162489Y-4933753D01*
X4159961Y-4934430D01*
X4156751Y-4934853D01*
X4152249Y-4934853D01*
X4149040Y-4934430D01*
X4144690Y-4933265D01*
X4141700Y-4932026D01*
X4137800Y-4929775D01*
X4135232Y-4927804D01*
X4132049Y-4924621D01*
X4130078Y-4922053D01*
X4129690Y-4921380D01*
X4127826Y-4918153D01*
X4126588Y-4915163D01*
X4125422Y-4910813D01*
X4125000Y-4907604D01*
X4125000Y-4903101D01*
X4125422Y-4899893D01*
X4126588Y-4895542D01*
X4127826Y-4892553D01*
X4130078Y-4888652D01*
X4132048Y-4886086D01*
X4135233Y-4882901D01*
X4137800Y-4880931D01*
X4141700Y-4878679D01*
X4144691Y-4877441D01*
X4149040Y-4876275D01*
X4152249Y-4875853D01*
X4156751Y-4875853D01*
X4159960Y-4876275D01*
G37*
%TD.AperFunction*%
%TA.AperFunction,Conductor*%
G36*
X3805460Y-4800922D02*
G01*
X3809810Y-4802088D01*
X3812800Y-4803326D01*
X3816700Y-4805578D01*
X3819268Y-4807549D01*
X3822451Y-4810732D01*
X3824422Y-4813300D01*
X3826673Y-4817200D01*
X3827912Y-4820190D01*
X3829077Y-4824539D01*
X3829500Y-4827749D01*
X3829500Y-4832251D01*
X3829077Y-4835460D01*
X3828509Y-4837582D01*
X3827912Y-4839810D01*
X3826673Y-4842800D01*
X3824422Y-4846700D01*
X3822451Y-4849268D01*
X3819268Y-4852451D01*
X3816700Y-4854422D01*
X3812800Y-4856673D01*
X3809810Y-4857912D01*
X3807989Y-4858400D01*
X3805461Y-4859077D01*
X3802251Y-4859500D01*
X3797749Y-4859500D01*
X3794540Y-4859078D01*
X3790190Y-4857912D01*
X3787200Y-4856673D01*
X3783300Y-4854422D01*
X3780732Y-4852451D01*
X3777548Y-4849268D01*
X3775578Y-4846700D01*
X3773326Y-4842800D01*
X3772088Y-4839810D01*
X3770922Y-4835460D01*
X3770500Y-4832251D01*
X3770500Y-4827748D01*
X3770922Y-4824540D01*
X3772088Y-4820190D01*
X3773326Y-4817200D01*
X3775578Y-4813299D01*
X3777548Y-4810733D01*
X3780732Y-4807548D01*
X3783300Y-4805578D01*
X3787200Y-4803326D01*
X3790190Y-4802088D01*
X3794539Y-4800923D01*
X3797748Y-4800500D01*
X3802251Y-4800500D01*
X3805460Y-4800922D01*
G37*
%TD.AperFunction*%
%TA.AperFunction,Conductor*%
G36*
X4693180Y-4750622D02*
G01*
X4693965Y-4750619D01*
X4694722Y-4750725D01*
X4699022Y-4751877D01*
X4700212Y-4752158D01*
X4701656Y-4752454D01*
X4708595Y-4752661D01*
X4709264Y-4752754D01*
X4711857Y-4753925D01*
X4714561Y-4754807D01*
X4714999Y-4755345D01*
X4715631Y-4755630D01*
X4717179Y-4758017D01*
X4718978Y-4760222D01*
X4719056Y-4760911D01*
X4719433Y-4761492D01*
X4719950Y-4765035D01*
X4719950Y-4795090D01*
X4717982Y-4801794D01*
X4712701Y-4806369D01*
X4707255Y-4807486D01*
X4704830Y-4807429D01*
X4704830Y-4807429D01*
X4699022Y-4808123D01*
X4695460Y-4809078D01*
X4692251Y-4809500D01*
X4687749Y-4809500D01*
X4684540Y-4809078D01*
X4680190Y-4807912D01*
X4677200Y-4806673D01*
X4673300Y-4804422D01*
X4670732Y-4802451D01*
X4667549Y-4799268D01*
X4665578Y-4796700D01*
X4663937Y-4793858D01*
X4663020Y-4792411D01*
X4661843Y-4790717D01*
X4661309Y-4790189D01*
X4657924Y-4784076D01*
X4658381Y-4777104D01*
X4659286Y-4775169D01*
X4662068Y-4770350D01*
X4664284Y-4762079D01*
X4667921Y-4756113D01*
X4674205Y-4753060D01*
X4674787Y-4752976D01*
X4678556Y-4752526D01*
X4684540Y-4750922D01*
X4687749Y-4750500D01*
X4692251Y-4750500D01*
X4693180Y-4750622D01*
G37*
%TD.AperFunction*%
%TA.AperFunction,Conductor*%
G36*
X5530460Y-4570922D02*
G01*
X5534810Y-4572088D01*
X5537800Y-4573326D01*
X5541700Y-4575578D01*
X5544268Y-4577549D01*
X5547451Y-4580732D01*
X5549422Y-4583300D01*
X5551673Y-4587199D01*
X5552912Y-4590190D01*
X5553829Y-4593614D01*
X5553830Y-4593616D01*
X5554077Y-4594539D01*
X5554500Y-4597749D01*
X5554500Y-4602251D01*
X5554077Y-4605461D01*
X5552912Y-4609810D01*
X5551673Y-4612800D01*
X5549422Y-4616700D01*
X5547451Y-4619268D01*
X5544268Y-4622451D01*
X5541700Y-4624422D01*
X5537800Y-4626673D01*
X5534810Y-4627912D01*
X5532989Y-4628400D01*
X5530461Y-4629077D01*
X5527251Y-4629500D01*
X5522749Y-4629500D01*
X5519540Y-4629078D01*
X5515190Y-4627912D01*
X5512200Y-4626673D01*
X5508300Y-4624422D01*
X5505732Y-4622451D01*
X5502549Y-4619268D01*
X5500578Y-4616700D01*
X5498327Y-4612800D01*
X5497088Y-4609810D01*
X5495923Y-4605461D01*
X5495500Y-4602251D01*
X5495500Y-4597748D01*
X5495922Y-4594540D01*
X5497088Y-4590189D01*
X5498326Y-4587200D01*
X5500578Y-4583299D01*
X5502548Y-4580733D01*
X5505732Y-4577548D01*
X5508300Y-4575578D01*
X5512200Y-4573326D01*
X5515191Y-4572088D01*
X5519539Y-4570923D01*
X5522749Y-4570500D01*
X5527251Y-4570500D01*
X5530460Y-4570922D01*
G37*
%TD.AperFunction*%
%TA.AperFunction,Conductor*%
G36*
X4075460Y-4340922D02*
G01*
X4079810Y-4342088D01*
X4082800Y-4343326D01*
X4086700Y-4345578D01*
X4089268Y-4347549D01*
X4092451Y-4350732D01*
X4094422Y-4353300D01*
X4096673Y-4357200D01*
X4097912Y-4360190D01*
X4099077Y-4364539D01*
X4099500Y-4367749D01*
X4099500Y-4372251D01*
X4099077Y-4375461D01*
X4097912Y-4379810D01*
X4096673Y-4382800D01*
X4094422Y-4386700D01*
X4092451Y-4389268D01*
X4089268Y-4392451D01*
X4086700Y-4394422D01*
X4082800Y-4396673D01*
X4079810Y-4397912D01*
X4077989Y-4398400D01*
X4075461Y-4399077D01*
X4072251Y-4399500D01*
X4067749Y-4399500D01*
X4064540Y-4399078D01*
X4060190Y-4397912D01*
X4057200Y-4396673D01*
X4053300Y-4394422D01*
X4050732Y-4392451D01*
X4048299Y-4390019D01*
X4048298Y-4390018D01*
X4044878Y-4387262D01*
X4044878Y-4387262D01*
X4040528Y-4384466D01*
X4035953Y-4379186D01*
X4034835Y-4373785D01*
X4034865Y-4372280D01*
X4035050Y-4371589D01*
X4035050Y-4363076D01*
X4035052Y-4362952D01*
X4036068Y-4359733D01*
X4037018Y-4356498D01*
X4037116Y-4356413D01*
X4037155Y-4356289D01*
X4039751Y-4354130D01*
X4041918Y-4352252D01*
X4041873Y-4352169D01*
X4042254Y-4351961D01*
X4042299Y-4351922D01*
X4042426Y-4351867D01*
X4044505Y-4350732D01*
X4048617Y-4348487D01*
X4049221Y-4348035D01*
X4050451Y-4347223D01*
X4057200Y-4343326D01*
X4060189Y-4342088D01*
X4064540Y-4340922D01*
X4067748Y-4340500D01*
X4072251Y-4340500D01*
X4075460Y-4340922D01*
G37*
%TD.AperFunction*%
%TA.AperFunction,Conductor*%
G36*
X5447355Y-4106856D02*
G01*
X5451705Y-4108021D01*
X5454694Y-4109260D01*
X5458594Y-4111511D01*
X5461162Y-4113482D01*
X5464346Y-4116665D01*
X5466316Y-4119233D01*
X5468568Y-4123133D01*
X5469806Y-4126123D01*
X5470972Y-4130473D01*
X5471394Y-4133682D01*
X5471394Y-4138185D01*
X5470972Y-4141394D01*
X5470689Y-4142451D01*
X5469806Y-4145743D01*
X5468568Y-4148734D01*
X5466316Y-4152633D01*
X5464346Y-4155201D01*
X5461162Y-4158385D01*
X5458594Y-4160355D01*
X5454695Y-4162607D01*
X5451704Y-4163845D01*
X5449883Y-4164333D01*
X5447355Y-4165011D01*
X5444146Y-4165433D01*
X5439643Y-4165433D01*
X5436434Y-4165011D01*
X5432085Y-4163845D01*
X5429094Y-4162607D01*
X5425194Y-4160355D01*
X5422626Y-4158385D01*
X5419443Y-4155201D01*
X5417472Y-4152633D01*
X5414974Y-4148305D01*
X5412707Y-4145123D01*
X5412707Y-4145122D01*
X5410156Y-4142178D01*
X5409953Y-4141735D01*
X5409565Y-4141441D01*
X5408516Y-4138587D01*
X5407253Y-4135823D01*
X5407323Y-4135340D01*
X5407155Y-4134883D01*
X5407815Y-4131916D01*
X5408248Y-4128907D01*
X5408596Y-4128408D01*
X5408673Y-4128062D01*
X5410399Y-4125825D01*
X5410802Y-4125247D01*
X5410885Y-4125165D01*
X5415781Y-4120497D01*
X5416406Y-4119702D01*
X5422626Y-4113482D01*
X5425195Y-4111511D01*
X5429094Y-4109260D01*
X5432085Y-4108021D01*
X5436434Y-4106856D01*
X5439643Y-4106433D01*
X5444146Y-4106433D01*
X5447355Y-4106856D01*
G37*
%TD.AperFunction*%
%TA.AperFunction,Conductor*%
G36*
X4335460Y-4090922D02*
G01*
X4339810Y-4092088D01*
X4342800Y-4093326D01*
X4343332Y-4093633D01*
X4343332Y-4093634D01*
X4343716Y-4093855D01*
X4343717Y-4093856D01*
X4346699Y-4095577D01*
X4349267Y-4097548D01*
X4352452Y-4100732D01*
X4354422Y-4103300D01*
X4354422Y-4103301D01*
X4356673Y-4107199D01*
X4357912Y-4110190D01*
X4359077Y-4114539D01*
X4359500Y-4117748D01*
X4359500Y-4122251D01*
X4359078Y-4125460D01*
X4358400Y-4127989D01*
X4357912Y-4129810D01*
X4356673Y-4132800D01*
X4354422Y-4136700D01*
X4352451Y-4139268D01*
X4349268Y-4142451D01*
X4346700Y-4144422D01*
X4342800Y-4146673D01*
X4339810Y-4147912D01*
X4338343Y-4148305D01*
X4335461Y-4149077D01*
X4332251Y-4149500D01*
X4327749Y-4149500D01*
X4324540Y-4149077D01*
X4320190Y-4147912D01*
X4317200Y-4146673D01*
X4313300Y-4144422D01*
X4310732Y-4142451D01*
X4307549Y-4139268D01*
X4305578Y-4136700D01*
X4303327Y-4132800D01*
X4302088Y-4129810D01*
X4300923Y-4125460D01*
X4300500Y-4122251D01*
X4300500Y-4117748D01*
X4300922Y-4114540D01*
X4302088Y-4110189D01*
X4303326Y-4107200D01*
X4305578Y-4103299D01*
X4307548Y-4100733D01*
X4310732Y-4097548D01*
X4313300Y-4095578D01*
X4317200Y-4093326D01*
X4320191Y-4092088D01*
X4324539Y-4090922D01*
X4327749Y-4090500D01*
X4332252Y-4090500D01*
X4335460Y-4090922D01*
G37*
%TD.AperFunction*%
%TA.AperFunction,Conductor*%
G36*
X4730460Y-4043422D02*
G01*
X4734810Y-4044588D01*
X4737800Y-4045826D01*
X4741700Y-4048078D01*
X4744268Y-4050048D01*
X4747451Y-4053232D01*
X4749422Y-4055800D01*
X4751673Y-4059699D01*
X4752912Y-4062690D01*
X4754077Y-4067039D01*
X4754500Y-4070248D01*
X4754500Y-4074751D01*
X4754077Y-4077960D01*
X4753727Y-4079268D01*
X4752912Y-4082310D01*
X4751673Y-4085300D01*
X4749422Y-4089200D01*
X4747451Y-4091768D01*
X4744268Y-4094951D01*
X4741700Y-4096922D01*
X4737800Y-4099173D01*
X4734810Y-4100412D01*
X4732989Y-4100900D01*
X4730461Y-4101577D01*
X4727251Y-4102000D01*
X4722749Y-4102000D01*
X4719540Y-4101577D01*
X4715190Y-4100412D01*
X4712200Y-4099173D01*
X4708300Y-4096922D01*
X4705732Y-4094951D01*
X4702549Y-4091768D01*
X4700578Y-4089200D01*
X4698326Y-4085300D01*
X4697088Y-4082310D01*
X4695922Y-4077960D01*
X4695500Y-4074751D01*
X4695500Y-4070248D01*
X4695922Y-4067040D01*
X4697088Y-4062689D01*
X4698326Y-4059700D01*
X4700578Y-4055799D01*
X4702548Y-4053233D01*
X4705732Y-4050048D01*
X4708300Y-4048078D01*
X4712200Y-4045826D01*
X4715191Y-4044588D01*
X4719539Y-4043422D01*
X4722749Y-4043000D01*
X4727251Y-4043000D01*
X4730460Y-4043422D01*
G37*
%TD.AperFunction*%
%TA.AperFunction,Conductor*%
G36*
X4705460Y-3908322D02*
G01*
X4709810Y-3909488D01*
X4712800Y-3910726D01*
X4716700Y-3912978D01*
X4719268Y-3914948D01*
X4722451Y-3918132D01*
X4724422Y-3920700D01*
X4726673Y-3924599D01*
X4727912Y-3927590D01*
X4729077Y-3931939D01*
X4729500Y-3935148D01*
X4729500Y-3939651D01*
X4729078Y-3942860D01*
X4729077Y-3942861D01*
X4727912Y-3947210D01*
X4726673Y-3950200D01*
X4724422Y-3954100D01*
X4722451Y-3956668D01*
X4719268Y-3959851D01*
X4716700Y-3961822D01*
X4712800Y-3964073D01*
X4709810Y-3965312D01*
X4707989Y-3965800D01*
X4705461Y-3966477D01*
X4702251Y-3966900D01*
X4697749Y-3966900D01*
X4694540Y-3966477D01*
X4690190Y-3965312D01*
X4687200Y-3964073D01*
X4683300Y-3961822D01*
X4680732Y-3959851D01*
X4677549Y-3956668D01*
X4675578Y-3954100D01*
X4673326Y-3950200D01*
X4672088Y-3947210D01*
X4670922Y-3942860D01*
X4670500Y-3939651D01*
X4670500Y-3935148D01*
X4670922Y-3931940D01*
X4672088Y-3927589D01*
X4673326Y-3924600D01*
X4675578Y-3920699D01*
X4677548Y-3918133D01*
X4680732Y-3914948D01*
X4683300Y-3912978D01*
X4687200Y-3910726D01*
X4690191Y-3909488D01*
X4694539Y-3908322D01*
X4697749Y-3907900D01*
X4702251Y-3907900D01*
X4705460Y-3908322D01*
G37*
%TD.AperFunction*%
%TD*%
%TA.AperFunction,Conductor*%
%TO.N,+3.3V*%
G36*
X5232134Y-3629326D02*
G01*
X5232418Y-3629374D01*
X5264107Y-3635136D01*
X5264933Y-3635286D01*
X5265225Y-3635343D01*
X5297586Y-3642032D01*
X5297869Y-3642094D01*
X5330067Y-3649559D01*
X5330348Y-3649628D01*
X5356569Y-3656374D01*
X5362346Y-3657860D01*
X5362633Y-3657938D01*
X5376383Y-3661829D01*
X5394429Y-3666936D01*
X5394711Y-3667019D01*
X5426282Y-3676777D01*
X5426558Y-3676866D01*
X5452145Y-3685452D01*
X5457889Y-3687380D01*
X5458169Y-3687478D01*
X5489235Y-3698738D01*
X5489505Y-3698839D01*
X5520296Y-3710843D01*
X5520567Y-3710952D01*
X5551057Y-3723689D01*
X5551330Y-3723807D01*
X5581503Y-3737270D01*
X5581600Y-3737324D01*
X5581773Y-3737394D01*
X5591888Y-3742201D01*
X5597098Y-3746857D01*
X5598964Y-3753590D01*
X5596894Y-3760263D01*
X5595334Y-3762169D01*
X5594019Y-3763484D01*
X5588461Y-3766693D01*
X5585475Y-3767493D01*
X5585475Y-3767493D01*
X5574062Y-3774082D01*
X5574062Y-3774082D01*
X5564744Y-3783400D01*
X5564744Y-3783401D01*
X5558154Y-3794813D01*
X5554744Y-3807543D01*
X5554744Y-3820721D01*
X5558154Y-3833451D01*
X5561449Y-3839157D01*
X5564744Y-3844864D01*
X5574062Y-3854182D01*
X5585475Y-3860771D01*
X5598204Y-3864182D01*
X5598205Y-3864182D01*
X5611383Y-3864182D01*
X5611383Y-3864182D01*
X5624112Y-3860771D01*
X5635525Y-3854182D01*
X5644844Y-3844864D01*
X5651433Y-3833451D01*
X5654844Y-3820721D01*
X5654844Y-3807543D01*
X5652493Y-3798771D01*
X5652522Y-3797572D01*
X5652102Y-3796447D01*
X5652603Y-3794144D01*
X5652660Y-3791787D01*
X5653369Y-3790622D01*
X5653587Y-3789620D01*
X5655702Y-3786795D01*
X5657328Y-3785169D01*
X5663459Y-3781821D01*
X5670429Y-3782319D01*
X5672209Y-3783149D01*
X5685395Y-3790622D01*
X5699774Y-3798771D01*
X5700031Y-3798921D01*
X5728378Y-3815897D01*
X5728630Y-3816052D01*
X5736019Y-3820721D01*
X5756562Y-3833704D01*
X5756811Y-3833865D01*
X5784314Y-3852182D01*
X5784555Y-3852347D01*
X5802482Y-3864917D01*
X5811609Y-3871317D01*
X5811851Y-3871491D01*
X5838439Y-3891103D01*
X5838676Y-3891282D01*
X5848978Y-3899268D01*
X5864796Y-3911532D01*
X5865024Y-3911713D01*
X5890645Y-3932580D01*
X5890868Y-3932766D01*
X5903992Y-3943989D01*
X5915981Y-3954241D01*
X5916205Y-3954437D01*
X5923241Y-3960752D01*
X5934360Y-3970731D01*
X5940797Y-3976509D01*
X5941014Y-3976708D01*
X5965070Y-3999363D01*
X5965281Y-3999567D01*
X5970471Y-4004695D01*
X5988785Y-4022791D01*
X5988994Y-4023002D01*
X6011934Y-4046783D01*
X6012138Y-4046999D01*
X6017475Y-4052804D01*
X6020325Y-4057987D01*
X6023361Y-4069319D01*
X6029950Y-4080731D01*
X6039269Y-4090050D01*
X6050681Y-4096639D01*
X6054614Y-4097693D01*
X6060579Y-4101329D01*
X6060924Y-4101725D01*
X6077837Y-4121990D01*
X6078024Y-4122220D01*
X6098582Y-4148089D01*
X6098764Y-4148324D01*
X6118691Y-4174673D01*
X6118867Y-4174912D01*
X6128406Y-4188175D01*
X6130723Y-4194767D01*
X6130317Y-4198624D01*
X6128700Y-4204661D01*
X6128700Y-4204661D01*
X6128700Y-4217839D01*
X6132111Y-4230569D01*
X6132946Y-4232016D01*
X6138700Y-4241981D01*
X6148019Y-4251300D01*
X6159431Y-4257889D01*
X6172161Y-4261300D01*
X6172161Y-4261300D01*
X6172269Y-4261314D01*
X6172353Y-4261351D01*
X6172499Y-4261391D01*
X6172655Y-4261371D01*
X6172943Y-4261510D01*
X6172946Y-4261510D01*
X6172946Y-4261511D01*
X6175635Y-4262803D01*
X6178658Y-4264141D01*
X6178828Y-4264338D01*
X6178953Y-4264398D01*
X6181211Y-4267110D01*
X6192596Y-4285614D01*
X6192749Y-4285869D01*
X6209386Y-4314421D01*
X6209533Y-4314680D01*
X6225478Y-4343618D01*
X6225619Y-4343880D01*
X6240866Y-4373194D01*
X6241000Y-4373460D01*
X6255540Y-4403130D01*
X6255667Y-4403399D01*
X6269452Y-4433324D01*
X6270469Y-4440236D01*
X6267587Y-4446601D01*
X6261722Y-4450398D01*
X6261399Y-4450489D01*
X6250681Y-4453361D01*
X6239269Y-4459950D01*
X6239268Y-4459950D01*
X6229950Y-4469268D01*
X6229950Y-4469269D01*
X6223361Y-4480681D01*
X6222821Y-4482694D01*
X6219185Y-4488660D01*
X6212900Y-4491713D01*
X6205963Y-4490884D01*
X6200575Y-4486435D01*
X6200105Y-4485685D01*
X6198775Y-4483381D01*
X6196452Y-4479357D01*
X6185643Y-4468548D01*
X6174765Y-4462268D01*
X6172407Y-4460906D01*
X6172407Y-4460906D01*
X6172406Y-4460906D01*
X6157642Y-4456950D01*
X6142358Y-4456950D01*
X6127593Y-4460906D01*
X6127593Y-4460906D01*
X6114357Y-4468548D01*
X6114356Y-4468549D01*
X6103549Y-4479356D01*
X6103548Y-4479357D01*
X6095906Y-4492593D01*
X6095906Y-4492594D01*
X6091950Y-4507358D01*
X6091950Y-4522642D01*
X6095841Y-4537165D01*
X6095906Y-4537406D01*
X6095906Y-4537407D01*
X6097432Y-4540050D01*
X6103548Y-4550644D01*
X6114356Y-4561452D01*
X6127593Y-4569094D01*
X6142358Y-4573050D01*
X6142358Y-4573050D01*
X6157642Y-4573050D01*
X6157642Y-4573050D01*
X6172406Y-4569094D01*
X6185643Y-4561452D01*
X6196452Y-4550644D01*
X6204094Y-4537407D01*
X6205764Y-4531175D01*
X6209400Y-4525210D01*
X6215685Y-4522157D01*
X6222622Y-4522986D01*
X6228010Y-4527434D01*
X6228479Y-4528184D01*
X6229950Y-4530731D01*
X6239269Y-4540050D01*
X6250681Y-4546639D01*
X6263411Y-4550050D01*
X6263411Y-4550050D01*
X6276589Y-4550050D01*
X6276589Y-4550050D01*
X6289319Y-4546639D01*
X6296969Y-4542222D01*
X6298967Y-4541738D01*
X6300791Y-4540791D01*
X6302293Y-4540931D01*
X6303759Y-4540575D01*
X6305701Y-4541247D01*
X6307748Y-4541437D01*
X6308936Y-4542367D01*
X6310362Y-4542860D01*
X6311632Y-4544476D01*
X6313251Y-4545743D01*
X6314459Y-4548070D01*
X6314681Y-4548352D01*
X6314876Y-4548874D01*
X6317263Y-4555714D01*
X6317921Y-4557600D01*
X6318016Y-4557882D01*
X6322366Y-4571381D01*
X6322549Y-4578365D01*
X6318926Y-4584340D01*
X6317453Y-4585494D01*
X6313971Y-4587821D01*
X6302821Y-4598971D01*
X6302821Y-4598971D01*
X6294061Y-4612081D01*
X6294060Y-4612083D01*
X6288026Y-4626650D01*
X6288026Y-4626651D01*
X6284950Y-4642115D01*
X6284950Y-4657885D01*
X6288026Y-4673349D01*
X6288026Y-4673350D01*
X6294060Y-4687917D01*
X6294061Y-4687919D01*
X6302821Y-4701029D01*
X6302821Y-4701029D01*
X6313971Y-4712179D01*
X6313971Y-4712179D01*
X6327081Y-4720939D01*
X6327083Y-4720940D01*
X6339605Y-4726126D01*
X6341650Y-4726974D01*
X6355736Y-4729776D01*
X6357531Y-4730715D01*
X6359501Y-4731190D01*
X6360564Y-4732301D01*
X6361927Y-4733014D01*
X6362930Y-4734775D01*
X6364330Y-4736239D01*
X6365218Y-4738794D01*
X6365384Y-4739086D01*
X6365489Y-4739573D01*
X6367739Y-4751157D01*
X6367792Y-4751449D01*
X6372867Y-4781394D01*
X6372046Y-4788333D01*
X6367605Y-4793726D01*
X6360952Y-4795862D01*
X6354441Y-4794205D01*
X6344319Y-4788361D01*
X6344319Y-4788361D01*
X6331589Y-4784950D01*
X6318411Y-4784950D01*
X6305681Y-4788361D01*
X6294269Y-4794950D01*
X6294268Y-4794950D01*
X6284950Y-4804268D01*
X6284950Y-4804268D01*
X6278361Y-4815681D01*
X6276290Y-4823411D01*
X6274950Y-4828411D01*
X6274950Y-4841589D01*
X6276124Y-4845971D01*
X6278361Y-4854318D01*
X6280898Y-4858714D01*
X6284950Y-4865731D01*
X6284950Y-4865731D01*
X6285451Y-4866232D01*
X6288799Y-4872364D01*
X6288301Y-4879333D01*
X6285451Y-4883768D01*
X6284950Y-4884268D01*
X6284950Y-4884268D01*
X6284950Y-4884269D01*
X6283137Y-4887409D01*
X6278361Y-4895681D01*
X6276764Y-4901639D01*
X6274950Y-4908411D01*
X6274950Y-4921589D01*
X6278361Y-4934319D01*
X6284950Y-4945731D01*
X6294269Y-4955050D01*
X6305681Y-4961639D01*
X6318411Y-4965050D01*
X6318411Y-4965050D01*
X6331589Y-4965050D01*
X6331589Y-4965050D01*
X6344319Y-4961639D01*
X6355731Y-4955050D01*
X6365050Y-4945731D01*
X6366143Y-4943838D01*
X6368611Y-4941485D01*
X6371195Y-4939019D01*
X6371198Y-4939018D01*
X6371200Y-4939016D01*
X6374659Y-4938350D01*
X6378055Y-4937694D01*
X6378058Y-4937694D01*
X6378060Y-4937694D01*
X6381369Y-4939019D01*
X6384543Y-4940288D01*
X6384544Y-4940290D01*
X6384547Y-4940291D01*
X6386468Y-4942988D01*
X6388598Y-4945977D01*
X6388599Y-4945981D01*
X6388600Y-4945982D01*
X6389268Y-4949443D01*
X6389287Y-4949853D01*
X6389298Y-4950150D01*
X6390090Y-4983181D01*
X6390094Y-4983478D01*
X6390094Y-5016522D01*
X6390090Y-5016819D01*
X6389571Y-5038458D01*
X6387443Y-5045113D01*
X6382054Y-5049560D01*
X6375116Y-5050388D01*
X6374756Y-5050322D01*
X6372884Y-5049950D01*
X6372884Y-5049950D01*
X6357116Y-5049950D01*
X6357115Y-5049950D01*
X6341651Y-5053026D01*
X6341650Y-5053026D01*
X6327083Y-5059060D01*
X6327081Y-5059061D01*
X6313971Y-5067821D01*
X6313971Y-5067821D01*
X6302821Y-5078971D01*
X6302821Y-5078971D01*
X6294061Y-5092081D01*
X6294060Y-5092083D01*
X6288026Y-5106650D01*
X6288026Y-5106651D01*
X6284950Y-5122115D01*
X6284950Y-5137885D01*
X6288026Y-5153349D01*
X6288026Y-5153350D01*
X6294060Y-5167917D01*
X6294061Y-5167919D01*
X6302821Y-5181029D01*
X6302821Y-5181029D01*
X6313971Y-5192179D01*
X6313971Y-5192179D01*
X6327081Y-5200939D01*
X6327083Y-5200940D01*
X6340050Y-5206311D01*
X6341650Y-5206974D01*
X6356613Y-5209950D01*
X6357115Y-5210050D01*
X6357116Y-5210050D01*
X6359639Y-5210050D01*
X6361495Y-5210595D01*
X6363430Y-5210644D01*
X6364779Y-5211559D01*
X6366343Y-5212019D01*
X6367610Y-5213481D01*
X6369211Y-5214567D01*
X6369851Y-5216067D01*
X6370918Y-5217299D01*
X6371194Y-5219214D01*
X6371953Y-5220994D01*
X6371878Y-5223975D01*
X6371913Y-5224215D01*
X6371865Y-5224522D01*
X6367792Y-5248551D01*
X6367739Y-5248843D01*
X6361439Y-5281278D01*
X6361379Y-5281569D01*
X6354302Y-5313845D01*
X6354235Y-5314134D01*
X6346388Y-5346229D01*
X6346313Y-5346517D01*
X6337699Y-5378412D01*
X6337618Y-5378698D01*
X6328239Y-5410382D01*
X6328152Y-5410666D01*
X6318017Y-5442115D01*
X6317922Y-5442397D01*
X6307035Y-5473595D01*
X6306934Y-5473875D01*
X6302311Y-5486168D01*
X6298108Y-5491750D01*
X6291555Y-5494174D01*
X6284732Y-5492670D01*
X6280205Y-5488401D01*
X6278616Y-5485871D01*
X6278616Y-5485871D01*
X6278616Y-5485871D01*
X6261805Y-5464792D01*
X6242740Y-5445727D01*
X6221661Y-5428916D01*
X6198831Y-5414572D01*
X6198831Y-5414571D01*
X6174540Y-5402873D01*
X6149092Y-5393969D01*
X6149091Y-5393968D01*
X6129376Y-5389469D01*
X6122805Y-5387969D01*
X6122805Y-5387969D01*
X6122804Y-5387969D01*
X6096013Y-5384950D01*
X6096013Y-5384950D01*
X6069051Y-5384950D01*
X6069050Y-5384950D01*
X6042260Y-5387969D01*
X6042259Y-5387969D01*
X6015972Y-5393968D01*
X6015971Y-5393969D01*
X5990523Y-5402873D01*
X5966232Y-5414571D01*
X5943403Y-5428916D01*
X5922323Y-5445727D01*
X5903258Y-5464792D01*
X5886448Y-5485871D01*
X5872103Y-5508701D01*
X5860405Y-5532992D01*
X5851500Y-5558440D01*
X5851500Y-5558441D01*
X5845501Y-5584727D01*
X5845500Y-5584728D01*
X5842482Y-5611519D01*
X5842482Y-5638481D01*
X5845500Y-5665272D01*
X5845500Y-5665273D01*
X5845501Y-5665273D01*
X5846217Y-5668411D01*
X5851500Y-5691559D01*
X5851500Y-5691560D01*
X5860405Y-5717008D01*
X5872103Y-5741299D01*
X5872103Y-5741300D01*
X5886448Y-5764129D01*
X5903258Y-5785208D01*
X5922323Y-5804273D01*
X5943403Y-5821084D01*
X5966232Y-5835428D01*
X5966232Y-5835428D01*
X5974329Y-5839328D01*
X5990524Y-5847127D01*
X6009637Y-5853814D01*
X6015971Y-5856031D01*
X6015972Y-5856031D01*
X6015973Y-5856031D01*
X6015973Y-5856032D01*
X6042259Y-5862031D01*
X6042259Y-5862031D01*
X6042260Y-5862031D01*
X6064074Y-5864489D01*
X6064978Y-5864869D01*
X6065959Y-5864851D01*
X6068146Y-5866200D01*
X6070516Y-5867196D01*
X6071071Y-5868004D01*
X6071905Y-5868519D01*
X6073016Y-5870836D01*
X6074471Y-5872955D01*
X6074501Y-5873935D01*
X6074925Y-5874819D01*
X6074606Y-5877370D01*
X6074685Y-5879939D01*
X6074158Y-5880964D01*
X6074059Y-5881752D01*
X6072206Y-5884756D01*
X6056665Y-5903379D01*
X6056471Y-5903605D01*
X6034700Y-5928456D01*
X6034501Y-5928677D01*
X6012138Y-5953001D01*
X6011934Y-5953217D01*
X5988994Y-5976998D01*
X5988785Y-5977209D01*
X5969393Y-5996370D01*
X5963241Y-5999682D01*
X5960677Y-5999950D01*
X5953411Y-5999950D01*
X5940681Y-6003361D01*
X5929269Y-6009950D01*
X5929268Y-6009950D01*
X5919950Y-6019268D01*
X5919950Y-6019269D01*
X5913361Y-6030681D01*
X5909950Y-6043411D01*
X5909950Y-6045205D01*
X5909938Y-6045245D01*
X5909950Y-6045286D01*
X5908954Y-6048597D01*
X5907981Y-6051908D01*
X5907946Y-6051950D01*
X5907937Y-6051977D01*
X5905609Y-6054629D01*
X5890871Y-6067232D01*
X5890642Y-6067422D01*
X5865026Y-6088284D01*
X5864794Y-6088470D01*
X5838676Y-6108718D01*
X5838439Y-6108897D01*
X5811851Y-6128509D01*
X5811609Y-6128682D01*
X5784557Y-6147651D01*
X5784312Y-6147819D01*
X5756812Y-6166134D01*
X5756562Y-6166296D01*
X5728631Y-6183947D01*
X5728378Y-6184103D01*
X5700031Y-6201079D01*
X5699774Y-6201228D01*
X5671027Y-6217520D01*
X5670770Y-6217662D01*
X5643538Y-6232244D01*
X5641643Y-6233259D01*
X5641379Y-6233396D01*
X5624672Y-6241833D01*
X5617801Y-6243098D01*
X5611336Y-6240447D01*
X5610314Y-6239533D01*
X5605732Y-6234950D01*
X5605731Y-6234950D01*
X5597928Y-6230445D01*
X5594319Y-6228361D01*
X5587954Y-6226655D01*
X5581589Y-6224950D01*
X5568411Y-6224950D01*
X5555681Y-6228361D01*
X5544269Y-6234950D01*
X5544268Y-6234950D01*
X5534950Y-6244268D01*
X5534950Y-6244269D01*
X5528361Y-6255681D01*
X5524950Y-6268411D01*
X5524950Y-6278868D01*
X5522982Y-6285572D01*
X5517701Y-6290147D01*
X5517054Y-6290421D01*
X5489509Y-6301159D01*
X5489231Y-6301264D01*
X5458169Y-6312522D01*
X5457889Y-6312620D01*
X5426561Y-6323132D01*
X5426278Y-6323224D01*
X5394712Y-6332980D01*
X5394427Y-6333064D01*
X5362633Y-6342062D01*
X5362346Y-6342140D01*
X5330352Y-6350371D01*
X5330063Y-6350442D01*
X5297873Y-6357905D01*
X5297582Y-6357969D01*
X5265225Y-6364657D01*
X5264933Y-6364714D01*
X5232426Y-6370625D01*
X5232133Y-6370674D01*
X5199490Y-6375804D01*
X5199196Y-6375847D01*
X5166445Y-6380192D01*
X5166150Y-6380227D01*
X5133296Y-6383787D01*
X5133000Y-6383815D01*
X5100080Y-6386585D01*
X5099784Y-6386606D01*
X5066803Y-6388586D01*
X5066506Y-6388600D01*
X5055373Y-6389001D01*
X5048602Y-6387275D01*
X5046159Y-6385377D01*
X5040732Y-6379950D01*
X5040731Y-6379950D01*
X5035025Y-6376655D01*
X5029319Y-6373361D01*
X5022954Y-6371655D01*
X5016589Y-6369950D01*
X5003411Y-6369950D01*
X4990681Y-6373361D01*
X4979269Y-6379950D01*
X4973147Y-6386072D01*
X4967014Y-6389420D01*
X4963933Y-6389696D01*
X4933494Y-6388600D01*
X4933197Y-6388586D01*
X4900216Y-6386606D01*
X4899920Y-6386585D01*
X4867000Y-6383815D01*
X4866704Y-6383787D01*
X4833850Y-6380227D01*
X4833555Y-6380192D01*
X4800804Y-6375847D01*
X4800510Y-6375804D01*
X4771450Y-6371237D01*
X4767866Y-6370674D01*
X4767575Y-6370625D01*
X4763863Y-6369950D01*
X4735067Y-6364714D01*
X4734775Y-6364657D01*
X4702418Y-6357969D01*
X4702127Y-6357905D01*
X4669937Y-6350442D01*
X4669648Y-6350371D01*
X4637654Y-6342140D01*
X4637367Y-6342062D01*
X4605573Y-6333064D01*
X4605288Y-6332980D01*
X4573722Y-6323224D01*
X4573439Y-6323132D01*
X4542111Y-6312620D01*
X4541831Y-6312522D01*
X4510769Y-6301264D01*
X4510491Y-6301159D01*
X4479706Y-6289158D01*
X4479431Y-6289047D01*
X4457670Y-6279957D01*
X4452243Y-6275556D01*
X4451409Y-6273024D01*
X4451171Y-6272749D01*
X4450884Y-6271431D01*
X4450057Y-6268920D01*
X4450050Y-6268515D01*
X4450050Y-6268411D01*
X4884450Y-6268411D01*
X4884450Y-6281589D01*
X4887861Y-6294319D01*
X4891156Y-6300025D01*
X4894450Y-6305731D01*
X4903769Y-6315050D01*
X4915182Y-6321639D01*
X4927911Y-6325050D01*
X4927911Y-6325050D01*
X4941089Y-6325050D01*
X4941089Y-6325050D01*
X4953819Y-6321639D01*
X4965232Y-6315050D01*
X4974550Y-6305731D01*
X4981139Y-6294319D01*
X4984550Y-6281589D01*
X4984550Y-6268411D01*
X4981139Y-6255681D01*
X4974550Y-6244269D01*
X4965232Y-6234950D01*
X4957428Y-6230445D01*
X4953819Y-6228361D01*
X4947454Y-6226655D01*
X4941089Y-6224950D01*
X4927911Y-6224950D01*
X4915181Y-6228361D01*
X4903769Y-6234950D01*
X4903769Y-6234950D01*
X4894450Y-6244268D01*
X4894450Y-6244269D01*
X4887861Y-6255681D01*
X4884450Y-6268411D01*
X4450050Y-6268411D01*
X4450050Y-6263411D01*
X4450050Y-6263411D01*
X4446639Y-6250681D01*
X4440050Y-6239269D01*
X4430731Y-6229950D01*
X4422071Y-6224950D01*
X4419319Y-6223361D01*
X4412954Y-6221655D01*
X4406589Y-6219950D01*
X4393411Y-6219950D01*
X4380681Y-6223361D01*
X4380681Y-6223361D01*
X4380681Y-6223361D01*
X4380681Y-6223361D01*
X4369268Y-6229950D01*
X4368624Y-6230445D01*
X4368414Y-6230172D01*
X4363662Y-6232756D01*
X4356693Y-6232244D01*
X4355195Y-6231566D01*
X4329226Y-6217660D01*
X4328972Y-6217520D01*
X4300226Y-6201228D01*
X4299969Y-6201079D01*
X4271622Y-6184103D01*
X4271369Y-6183947D01*
X4243437Y-6166296D01*
X4243188Y-6166134D01*
X4215688Y-6147819D01*
X4215443Y-6147651D01*
X4188391Y-6128682D01*
X4188149Y-6128509D01*
X4161561Y-6108897D01*
X4161323Y-6108718D01*
X4135206Y-6088470D01*
X4134973Y-6088284D01*
X4109357Y-6067422D01*
X4109129Y-6067232D01*
X4084019Y-6045759D01*
X4083795Y-6045563D01*
X4062654Y-6026589D01*
X4059201Y-6023490D01*
X4058984Y-6023290D01*
X4057231Y-6021639D01*
X4034929Y-6000636D01*
X4034716Y-6000430D01*
X4011215Y-5977209D01*
X4011006Y-5976998D01*
X4002722Y-5968411D01*
X4429950Y-5968411D01*
X4429950Y-5981589D01*
X4433361Y-5994319D01*
X4436458Y-5999682D01*
X4439950Y-6005731D01*
X4449269Y-6015050D01*
X4460681Y-6021639D01*
X4473411Y-6025050D01*
X4473411Y-6025050D01*
X4486589Y-6025050D01*
X4486589Y-6025050D01*
X4499319Y-6021639D01*
X4510731Y-6015050D01*
X4512371Y-6013411D01*
X4889950Y-6013411D01*
X4889950Y-6026589D01*
X4893361Y-6039319D01*
X4895723Y-6043411D01*
X4899950Y-6050731D01*
X4909269Y-6060050D01*
X4920681Y-6066639D01*
X4933411Y-6070050D01*
X4933411Y-6070050D01*
X4946589Y-6070050D01*
X4946589Y-6070050D01*
X4959319Y-6066639D01*
X4970731Y-6060050D01*
X4980050Y-6050731D01*
X4986639Y-6039319D01*
X4990050Y-6026589D01*
X4990050Y-6013411D01*
X4986639Y-6000681D01*
X4986613Y-6000636D01*
X4982966Y-5994319D01*
X4980050Y-5989269D01*
X4970731Y-5979950D01*
X4967937Y-5978337D01*
X4967937Y-5978337D01*
X4959319Y-5973361D01*
X4959319Y-5973361D01*
X4959319Y-5973361D01*
X4946589Y-5969950D01*
X4933411Y-5969950D01*
X4920681Y-5973361D01*
X4909269Y-5979950D01*
X4909268Y-5979950D01*
X4899950Y-5989268D01*
X4899950Y-5989269D01*
X4893361Y-6000681D01*
X4889950Y-6013411D01*
X4512371Y-6013411D01*
X4520050Y-6005731D01*
X4526639Y-5994319D01*
X4530050Y-5981589D01*
X4530050Y-5968411D01*
X5194950Y-5968411D01*
X5194950Y-5981589D01*
X5198361Y-5994319D01*
X5201457Y-5999682D01*
X5204950Y-6005731D01*
X5214268Y-6015050D01*
X5225681Y-6021639D01*
X5238411Y-6025050D01*
X5238411Y-6025050D01*
X5251589Y-6025050D01*
X5251589Y-6025050D01*
X5264318Y-6021639D01*
X5275731Y-6015050D01*
X5276231Y-6014550D01*
X5282363Y-6011201D01*
X5289332Y-6011699D01*
X5293768Y-6014549D01*
X5294269Y-6015050D01*
X5305681Y-6021639D01*
X5318411Y-6025050D01*
X5318411Y-6025050D01*
X5331589Y-6025050D01*
X5331589Y-6025050D01*
X5344319Y-6021639D01*
X5355731Y-6015050D01*
X5365050Y-6005731D01*
X5371639Y-5994319D01*
X5375050Y-5981589D01*
X5375050Y-5968411D01*
X5371639Y-5955681D01*
X5365050Y-5944269D01*
X5355731Y-5934950D01*
X5350025Y-5931655D01*
X5344319Y-5928361D01*
X5337954Y-5926655D01*
X5331589Y-5924950D01*
X5318411Y-5924950D01*
X5305681Y-5928361D01*
X5300484Y-5931361D01*
X5294269Y-5934950D01*
X5294268Y-5934950D01*
X5294268Y-5934950D01*
X5293768Y-5935451D01*
X5287635Y-5938799D01*
X5280666Y-5938300D01*
X5276232Y-5935451D01*
X5275731Y-5934950D01*
X5275731Y-5934950D01*
X5270025Y-5931655D01*
X5264318Y-5928361D01*
X5257954Y-5926655D01*
X5251589Y-5924950D01*
X5238411Y-5924950D01*
X5225681Y-5928361D01*
X5214268Y-5934950D01*
X5214268Y-5934950D01*
X5204950Y-5944268D01*
X5204950Y-5944269D01*
X5198361Y-5955681D01*
X5194950Y-5968411D01*
X4530050Y-5968411D01*
X4526639Y-5955681D01*
X4520050Y-5944269D01*
X4510731Y-5934950D01*
X4505025Y-5931655D01*
X4499319Y-5928361D01*
X4492954Y-5926655D01*
X4486589Y-5924950D01*
X4473411Y-5924950D01*
X4460681Y-5928361D01*
X4449269Y-5934950D01*
X4449268Y-5934950D01*
X4439950Y-5944268D01*
X4439950Y-5944269D01*
X4433361Y-5955681D01*
X4429950Y-5968411D01*
X4002722Y-5968411D01*
X3988066Y-5953217D01*
X3987862Y-5953001D01*
X3979833Y-5944269D01*
X3965498Y-5928677D01*
X3965300Y-5928456D01*
X3952940Y-5914348D01*
X3946493Y-5906989D01*
X4075507Y-5906989D01*
X4075507Y-5920167D01*
X4078918Y-5932897D01*
X4080103Y-5934950D01*
X4085507Y-5944310D01*
X4094826Y-5953628D01*
X4106239Y-5960217D01*
X4118968Y-5963628D01*
X4118968Y-5963628D01*
X4132146Y-5963628D01*
X4132146Y-5963628D01*
X4144876Y-5960217D01*
X4156289Y-5953628D01*
X4165607Y-5944310D01*
X4172196Y-5932897D01*
X4175607Y-5920167D01*
X4175607Y-5906989D01*
X4172196Y-5894260D01*
X4165607Y-5882847D01*
X4156289Y-5873528D01*
X4150582Y-5870234D01*
X4144876Y-5866939D01*
X4137150Y-5864869D01*
X4132146Y-5863528D01*
X4118968Y-5863528D01*
X4106238Y-5866939D01*
X4094826Y-5873528D01*
X4094825Y-5873528D01*
X4085507Y-5882847D01*
X4085507Y-5882847D01*
X4078918Y-5894259D01*
X4075507Y-5906989D01*
X3946493Y-5906989D01*
X3943529Y-5903605D01*
X3943335Y-5903379D01*
X3927793Y-5884756D01*
X3925009Y-5878348D01*
X3926132Y-5871452D01*
X3930804Y-5866257D01*
X3935925Y-5864489D01*
X3957740Y-5862031D01*
X3957740Y-5862031D01*
X3957741Y-5862031D01*
X3984027Y-5856032D01*
X4009476Y-5847127D01*
X4033768Y-5835428D01*
X4056597Y-5821084D01*
X4077677Y-5804273D01*
X4096742Y-5785208D01*
X4113552Y-5764129D01*
X4127897Y-5741300D01*
X4127897Y-5741298D01*
X4127978Y-5741152D01*
X4128007Y-5741123D01*
X4128082Y-5741005D01*
X4128109Y-5741022D01*
X4132943Y-5736236D01*
X4139778Y-5734785D01*
X4146312Y-5737259D01*
X4147600Y-5738381D01*
X4149269Y-5740050D01*
X4160681Y-5746639D01*
X4173411Y-5750050D01*
X4173411Y-5750050D01*
X4186589Y-5750050D01*
X4186589Y-5750050D01*
X4199319Y-5746639D01*
X4210731Y-5740050D01*
X4220050Y-5730731D01*
X4226639Y-5719319D01*
X4230050Y-5706589D01*
X4230050Y-5693411D01*
X4226639Y-5680681D01*
X4220050Y-5669269D01*
X4219192Y-5668411D01*
X4274950Y-5668411D01*
X4274950Y-5681589D01*
X4276655Y-5687954D01*
X4278361Y-5694319D01*
X4279701Y-5696639D01*
X4284950Y-5705731D01*
X4294269Y-5715050D01*
X4305681Y-5721639D01*
X4318411Y-5725050D01*
X4318411Y-5725050D01*
X4331589Y-5725050D01*
X4331589Y-5725050D01*
X4344319Y-5721639D01*
X4355731Y-5715050D01*
X4365050Y-5705731D01*
X4371639Y-5694319D01*
X4375050Y-5681589D01*
X4375050Y-5675342D01*
X4442563Y-5675342D01*
X4442563Y-5688520D01*
X4445974Y-5701250D01*
X4448562Y-5705732D01*
X4452563Y-5712663D01*
X4461882Y-5721981D01*
X4473295Y-5728570D01*
X4486024Y-5731981D01*
X4486024Y-5731981D01*
X4487301Y-5731981D01*
X4494005Y-5733950D01*
X4498581Y-5739230D01*
X4499575Y-5746146D01*
X4496673Y-5752501D01*
X4496069Y-5753149D01*
X4489950Y-5759268D01*
X4489950Y-5759269D01*
X4483361Y-5770681D01*
X4479950Y-5783411D01*
X4479950Y-5796589D01*
X4483361Y-5809319D01*
X4486655Y-5815025D01*
X4489950Y-5820731D01*
X4499269Y-5830050D01*
X4510681Y-5836639D01*
X4523411Y-5840050D01*
X4523411Y-5840050D01*
X4536589Y-5840050D01*
X4536589Y-5840050D01*
X4549319Y-5836639D01*
X4560731Y-5830050D01*
X4570050Y-5820731D01*
X4576639Y-5809319D01*
X4580050Y-5796589D01*
X4580050Y-5783411D01*
X4576639Y-5770681D01*
X4570050Y-5759269D01*
X4560731Y-5749950D01*
X4554143Y-5746146D01*
X4549319Y-5743361D01*
X4541625Y-5741299D01*
X4536589Y-5739950D01*
X4535312Y-5739950D01*
X4528608Y-5737981D01*
X4524033Y-5732701D01*
X4523038Y-5725785D01*
X4525941Y-5719430D01*
X4526544Y-5718782D01*
X4528318Y-5717008D01*
X4532663Y-5712663D01*
X4539252Y-5701250D01*
X4542663Y-5688520D01*
X4542663Y-5688520D01*
X4542729Y-5688022D01*
X4545555Y-5681632D01*
X4551388Y-5677785D01*
X4555023Y-5677240D01*
X4557542Y-5677240D01*
X4557542Y-5677240D01*
X4570271Y-5673830D01*
X4581684Y-5667240D01*
X4591003Y-5657922D01*
X4597592Y-5646509D01*
X4601003Y-5633780D01*
X4601003Y-5620601D01*
X4597592Y-5607872D01*
X4591003Y-5596459D01*
X4581684Y-5587141D01*
X4573926Y-5582661D01*
X4570271Y-5580551D01*
X4563907Y-5578846D01*
X4557542Y-5577141D01*
X4544364Y-5577141D01*
X4531634Y-5580551D01*
X4520221Y-5587141D01*
X4520221Y-5587141D01*
X4510903Y-5596459D01*
X4510903Y-5596459D01*
X4504314Y-5607872D01*
X4500903Y-5620601D01*
X4500837Y-5621100D01*
X4498011Y-5627489D01*
X4492178Y-5631336D01*
X4488543Y-5631881D01*
X4486024Y-5631881D01*
X4473294Y-5635292D01*
X4461882Y-5641881D01*
X4461882Y-5641881D01*
X4452563Y-5651199D01*
X4452563Y-5651200D01*
X4445974Y-5662612D01*
X4442563Y-5675342D01*
X4375050Y-5675342D01*
X4375050Y-5668411D01*
X4371639Y-5655681D01*
X4365050Y-5644269D01*
X4355731Y-5634950D01*
X4348338Y-5630681D01*
X4344319Y-5628361D01*
X4337954Y-5626655D01*
X4331589Y-5624950D01*
X4318411Y-5624950D01*
X4305681Y-5628361D01*
X4294269Y-5634950D01*
X4294268Y-5634950D01*
X4284950Y-5644268D01*
X4284950Y-5644269D01*
X4278361Y-5655681D01*
X4275791Y-5665273D01*
X4274950Y-5668411D01*
X4219192Y-5668411D01*
X4210731Y-5659950D01*
X4203338Y-5655681D01*
X4199319Y-5653361D01*
X4192954Y-5651655D01*
X4186589Y-5649950D01*
X4173411Y-5649950D01*
X4173410Y-5649950D01*
X4173127Y-5650026D01*
X4172879Y-5650020D01*
X4172605Y-5650056D01*
X4172599Y-5650013D01*
X4166142Y-5649859D01*
X4160356Y-5645943D01*
X4157606Y-5639520D01*
X4157518Y-5638048D01*
X4157518Y-5611519D01*
X4157518Y-5611519D01*
X4157107Y-5607872D01*
X4154499Y-5584727D01*
X4148500Y-5558441D01*
X4139595Y-5532992D01*
X4127897Y-5508700D01*
X4113552Y-5485871D01*
X4096742Y-5464792D01*
X4077677Y-5445727D01*
X4056597Y-5428916D01*
X4033768Y-5414572D01*
X4033768Y-5414571D01*
X4009476Y-5402873D01*
X3984028Y-5393969D01*
X3984028Y-5393968D01*
X3964313Y-5389469D01*
X3957741Y-5387969D01*
X3957741Y-5387969D01*
X3957740Y-5387969D01*
X3930949Y-5384950D01*
X3930949Y-5384950D01*
X3903987Y-5384950D01*
X3903987Y-5384950D01*
X3877196Y-5387969D01*
X3877195Y-5387969D01*
X3850909Y-5393968D01*
X3850908Y-5393969D01*
X3825460Y-5402873D01*
X3801169Y-5414571D01*
X3778339Y-5428916D01*
X3757260Y-5445727D01*
X3738195Y-5464792D01*
X3721384Y-5485871D01*
X3719795Y-5488401D01*
X3718751Y-5489323D01*
X3718087Y-5490547D01*
X3716186Y-5491592D01*
X3714561Y-5493030D01*
X3713185Y-5493242D01*
X3711964Y-5493913D01*
X3709800Y-5493764D01*
X3707656Y-5494094D01*
X3706383Y-5493529D01*
X3704994Y-5493433D01*
X3703254Y-5492138D01*
X3701271Y-5491257D01*
X3700392Y-5490008D01*
X3699389Y-5489261D01*
X3697689Y-5486168D01*
X3697578Y-5485871D01*
X3693066Y-5473875D01*
X3692965Y-5473595D01*
X3682078Y-5442397D01*
X3681985Y-5442120D01*
X3671847Y-5410663D01*
X3671760Y-5410382D01*
X3671632Y-5409950D01*
X3662382Y-5378697D01*
X3662301Y-5378412D01*
X3662068Y-5377549D01*
X3653686Y-5346514D01*
X3653612Y-5346229D01*
X3647945Y-5323050D01*
X3645764Y-5314132D01*
X3645697Y-5313845D01*
X3638619Y-5281561D01*
X3638562Y-5281285D01*
X3633148Y-5253411D01*
X3689950Y-5253411D01*
X3689950Y-5266589D01*
X3690295Y-5267877D01*
X3693361Y-5279319D01*
X3694177Y-5280732D01*
X3699950Y-5290731D01*
X3709269Y-5300050D01*
X3720681Y-5306639D01*
X3733411Y-5310050D01*
X3733411Y-5310050D01*
X3746589Y-5310050D01*
X3746589Y-5310050D01*
X3759319Y-5306639D01*
X3770731Y-5300050D01*
X3780050Y-5290731D01*
X3786639Y-5279319D01*
X3790050Y-5266589D01*
X3790050Y-5253411D01*
X3787370Y-5243411D01*
X4119950Y-5243411D01*
X4119950Y-5256589D01*
X4121071Y-5260773D01*
X4123361Y-5269319D01*
X4126655Y-5275025D01*
X4129950Y-5280731D01*
X4139269Y-5290050D01*
X4150681Y-5296639D01*
X4163411Y-5300050D01*
X4163411Y-5300050D01*
X4176589Y-5300050D01*
X4176589Y-5300050D01*
X4189319Y-5296639D01*
X4200731Y-5290050D01*
X4210050Y-5280731D01*
X4216639Y-5269319D01*
X4220050Y-5256589D01*
X4220050Y-5243411D01*
X4216639Y-5230681D01*
X4210050Y-5219269D01*
X4200731Y-5209950D01*
X4192937Y-5205450D01*
X4189319Y-5203361D01*
X4182954Y-5201655D01*
X4176589Y-5199950D01*
X4163411Y-5199950D01*
X4150681Y-5203361D01*
X4139269Y-5209950D01*
X4139268Y-5209950D01*
X4129950Y-5219268D01*
X4129950Y-5219269D01*
X4123361Y-5230681D01*
X4120850Y-5240050D01*
X4119950Y-5243411D01*
X3787370Y-5243411D01*
X3786639Y-5240681D01*
X3780050Y-5229269D01*
X3770731Y-5219950D01*
X3762937Y-5215450D01*
X3759319Y-5213361D01*
X3750157Y-5210906D01*
X3746589Y-5209950D01*
X3733411Y-5209950D01*
X3720681Y-5213361D01*
X3709269Y-5219950D01*
X3709268Y-5219950D01*
X3699950Y-5229268D01*
X3699950Y-5229269D01*
X3693361Y-5240681D01*
X3691174Y-5248843D01*
X3689950Y-5253411D01*
X3633148Y-5253411D01*
X3632260Y-5248843D01*
X3632207Y-5248551D01*
X3626687Y-5215973D01*
X3626641Y-5215682D01*
X3626607Y-5215450D01*
X3621902Y-5182976D01*
X3621864Y-5182690D01*
X3617911Y-5149877D01*
X3617879Y-5149586D01*
X3617391Y-5144519D01*
X3614714Y-5116695D01*
X3614690Y-5116400D01*
X3613033Y-5093411D01*
X3612314Y-5083443D01*
X3612297Y-5083148D01*
X3611991Y-5076777D01*
X3610712Y-5050143D01*
X3610702Y-5049849D01*
X3610547Y-5043411D01*
X4039950Y-5043411D01*
X4039950Y-5056589D01*
X4040612Y-5059060D01*
X4043361Y-5069319D01*
X4045169Y-5072450D01*
X4049950Y-5080731D01*
X4059269Y-5090050D01*
X4070681Y-5096639D01*
X4083411Y-5100050D01*
X4083411Y-5100050D01*
X4096589Y-5100050D01*
X4096589Y-5100050D01*
X4109319Y-5096639D01*
X4120731Y-5090050D01*
X4130050Y-5080731D01*
X4136639Y-5069319D01*
X4140050Y-5056589D01*
X4140050Y-5043411D01*
X4136639Y-5030681D01*
X4130050Y-5019269D01*
X4120731Y-5009950D01*
X4114910Y-5006589D01*
X4109319Y-5003361D01*
X4102954Y-5001655D01*
X4096589Y-4999950D01*
X4083411Y-4999950D01*
X4070681Y-5003361D01*
X4059269Y-5009950D01*
X4059268Y-5009950D01*
X4049950Y-5019268D01*
X4049950Y-5019269D01*
X4043361Y-5030681D01*
X4041446Y-5037827D01*
X4039950Y-5043411D01*
X3610547Y-5043411D01*
X3610535Y-5042895D01*
X3610467Y-5040050D01*
X3609909Y-5016798D01*
X3609906Y-5016539D01*
X3609856Y-5000033D01*
X3609856Y-4999963D01*
X3609880Y-4992082D01*
X3609906Y-4983460D01*
X3609909Y-4983201D01*
X3609945Y-4981699D01*
X3610702Y-4950147D01*
X3610713Y-4949853D01*
X3610713Y-4949853D01*
X3612068Y-4921625D01*
X3614355Y-4915023D01*
X3618253Y-4911481D01*
X3619983Y-4910482D01*
X3620731Y-4910050D01*
X3630050Y-4900731D01*
X3631186Y-4898764D01*
X4104450Y-4898764D01*
X4104450Y-4911942D01*
X4105709Y-4916639D01*
X4107861Y-4924672D01*
X4110715Y-4929614D01*
X4114450Y-4936084D01*
X4123769Y-4945403D01*
X4131992Y-4950150D01*
X4135119Y-4951956D01*
X4135182Y-4951992D01*
X4147911Y-4955403D01*
X4147911Y-4955403D01*
X4161089Y-4955403D01*
X4161089Y-4955403D01*
X4173819Y-4951992D01*
X4185232Y-4945403D01*
X4194550Y-4936084D01*
X4201139Y-4924671D01*
X4204550Y-4911942D01*
X4204550Y-4898764D01*
X4201139Y-4886034D01*
X4194550Y-4874621D01*
X4185232Y-4865303D01*
X4177314Y-4860732D01*
X4173819Y-4858714D01*
X4167454Y-4857008D01*
X4161089Y-4855303D01*
X4147911Y-4855303D01*
X4135181Y-4858714D01*
X4123769Y-4865303D01*
X4123768Y-4865303D01*
X4114450Y-4874621D01*
X4114450Y-4874621D01*
X4107861Y-4886034D01*
X4105445Y-4895050D01*
X4104450Y-4898764D01*
X3631186Y-4898764D01*
X3636639Y-4889319D01*
X3640050Y-4876589D01*
X3640050Y-4863411D01*
X3636639Y-4850681D01*
X3630050Y-4839269D01*
X3624647Y-4833866D01*
X3624498Y-4833593D01*
X3624232Y-4833431D01*
X3622834Y-4830546D01*
X3621299Y-4827734D01*
X3621280Y-4827339D01*
X3621185Y-4827143D01*
X3621104Y-4823615D01*
X3621129Y-4823411D01*
X3621129Y-4823411D01*
X3749950Y-4823411D01*
X3749950Y-4836589D01*
X3750851Y-4839950D01*
X3753361Y-4849319D01*
X3755804Y-4853551D01*
X3759950Y-4860731D01*
X3769269Y-4870050D01*
X3779152Y-4875756D01*
X3780594Y-4876589D01*
X3780681Y-4876639D01*
X3793411Y-4880050D01*
X3793411Y-4880050D01*
X3806589Y-4880050D01*
X3806589Y-4880050D01*
X3819319Y-4876639D01*
X3830731Y-4870050D01*
X3840050Y-4860731D01*
X3846639Y-4849319D01*
X3850050Y-4836589D01*
X3850050Y-4823411D01*
X3846639Y-4810681D01*
X3840050Y-4799269D01*
X3830731Y-4789950D01*
X3824987Y-4786634D01*
X3819319Y-4783361D01*
X3812954Y-4781655D01*
X3806589Y-4779950D01*
X3793411Y-4779950D01*
X3780681Y-4783361D01*
X3769269Y-4789950D01*
X3769268Y-4789950D01*
X3759950Y-4799268D01*
X3759950Y-4799269D01*
X3753361Y-4810681D01*
X3750651Y-4820793D01*
X3749950Y-4823411D01*
X3621129Y-4823411D01*
X3621864Y-4817311D01*
X3621903Y-4817019D01*
X3622097Y-4815681D01*
X3626641Y-4784314D01*
X3626687Y-4784024D01*
X3627004Y-4782156D01*
X3632208Y-4751446D01*
X3632261Y-4751157D01*
X3633953Y-4742442D01*
X4181803Y-4742442D01*
X4181803Y-4755620D01*
X4185214Y-4768350D01*
X4188509Y-4774056D01*
X4191803Y-4779762D01*
X4201122Y-4789081D01*
X4212535Y-4795670D01*
X4225264Y-4799081D01*
X4225264Y-4799081D01*
X4238442Y-4799081D01*
X4238443Y-4799081D01*
X4251172Y-4795670D01*
X4262585Y-4789081D01*
X4271903Y-4779762D01*
X4278493Y-4768350D01*
X4281903Y-4755620D01*
X4281903Y-4742442D01*
X4278493Y-4729712D01*
X4278391Y-4729537D01*
X4276422Y-4726126D01*
X4271903Y-4718300D01*
X4262585Y-4708981D01*
X4254636Y-4704392D01*
X4251172Y-4702392D01*
X4242432Y-4700050D01*
X4238443Y-4698981D01*
X4225264Y-4698981D01*
X4212535Y-4702392D01*
X4201122Y-4708981D01*
X4201122Y-4708981D01*
X4191803Y-4718299D01*
X4191803Y-4718300D01*
X4185214Y-4729712D01*
X4181803Y-4742442D01*
X3633953Y-4742442D01*
X3638562Y-4718714D01*
X3638619Y-4718440D01*
X3645699Y-4686150D01*
X3645764Y-4685870D01*
X3653613Y-4653768D01*
X3653686Y-4653486D01*
X3653706Y-4653411D01*
X3979950Y-4653411D01*
X3979950Y-4666589D01*
X3983361Y-4679319D01*
X3986655Y-4685025D01*
X3989950Y-4690731D01*
X3999269Y-4700050D01*
X4010681Y-4706639D01*
X4023411Y-4710050D01*
X4023411Y-4710050D01*
X4036589Y-4710050D01*
X4036589Y-4710050D01*
X4049319Y-4706639D01*
X4060731Y-4700050D01*
X4070050Y-4690731D01*
X4076639Y-4679319D01*
X4080050Y-4666589D01*
X4080050Y-4653411D01*
X4076639Y-4640681D01*
X4070050Y-4629269D01*
X4060731Y-4619950D01*
X4052932Y-4615447D01*
X4049319Y-4613361D01*
X4041922Y-4611379D01*
X4036589Y-4609950D01*
X4023411Y-4609950D01*
X4010681Y-4613361D01*
X3999269Y-4619950D01*
X3999268Y-4619950D01*
X3989950Y-4629268D01*
X3989950Y-4629269D01*
X3983361Y-4640681D01*
X3979950Y-4653411D01*
X3653706Y-4653411D01*
X3654799Y-4649365D01*
X3655183Y-4647942D01*
X3655509Y-4646736D01*
X3659157Y-4640777D01*
X3664270Y-4637992D01*
X3669319Y-4636639D01*
X3680731Y-4630050D01*
X3690050Y-4620731D01*
X3696639Y-4609319D01*
X3700050Y-4596589D01*
X3700050Y-4583411D01*
X3696639Y-4570681D01*
X3696607Y-4570626D01*
X4349950Y-4570626D01*
X4349950Y-4583804D01*
X4353361Y-4596534D01*
X4355640Y-4600482D01*
X4359950Y-4607947D01*
X4359950Y-4607947D01*
X4361318Y-4609315D01*
X4364667Y-4615447D01*
X4364950Y-4618083D01*
X4364950Y-5254615D01*
X4366600Y-5260773D01*
X4367339Y-5263529D01*
X4367339Y-5263529D01*
X4371953Y-5271521D01*
X4371953Y-5271521D01*
X4371953Y-5271521D01*
X4671953Y-5571521D01*
X4678479Y-5578047D01*
X4678479Y-5578047D01*
X4678479Y-5578047D01*
X4686471Y-5582661D01*
X4686471Y-5582661D01*
X4686471Y-5582661D01*
X4695386Y-5585050D01*
X4753843Y-5585050D01*
X4760547Y-5587019D01*
X4765123Y-5592299D01*
X4766117Y-5599215D01*
X4765821Y-5600659D01*
X4765694Y-5601133D01*
X4765694Y-5601133D01*
X4762283Y-5613862D01*
X4762283Y-5627041D01*
X4763434Y-5631336D01*
X4765694Y-5639770D01*
X4766832Y-5641742D01*
X4772283Y-5651183D01*
X4781602Y-5660501D01*
X4793015Y-5667091D01*
X4805744Y-5670501D01*
X4805744Y-5670501D01*
X4818922Y-5670501D01*
X4818922Y-5670501D01*
X4831652Y-5667091D01*
X4843065Y-5660501D01*
X4852383Y-5651183D01*
X4858972Y-5639770D01*
X4862383Y-5627041D01*
X4862383Y-5613862D01*
X4858972Y-5601133D01*
X4858972Y-5601133D01*
X4858845Y-5600659D01*
X4859012Y-5593674D01*
X4862928Y-5587888D01*
X4869351Y-5585138D01*
X4870823Y-5585050D01*
X5296119Y-5585050D01*
X5302823Y-5587019D01*
X5307399Y-5592299D01*
X5308393Y-5599215D01*
X5305491Y-5605570D01*
X5302319Y-5608189D01*
X5299269Y-5609950D01*
X5299268Y-5609950D01*
X5289950Y-5619268D01*
X5289950Y-5619269D01*
X5283361Y-5630681D01*
X5280360Y-5641881D01*
X5279950Y-5643411D01*
X5279950Y-5656589D01*
X5281655Y-5662954D01*
X5283361Y-5669319D01*
X5285947Y-5673798D01*
X5289950Y-5680731D01*
X5299269Y-5690050D01*
X5310681Y-5696639D01*
X5323411Y-5700050D01*
X5323411Y-5700050D01*
X5336589Y-5700050D01*
X5336589Y-5700050D01*
X5349319Y-5696639D01*
X5360731Y-5690050D01*
X5370050Y-5680731D01*
X5376639Y-5669319D01*
X5380050Y-5656589D01*
X5380050Y-5643411D01*
X5376639Y-5630681D01*
X5370050Y-5619269D01*
X5360731Y-5609950D01*
X5357681Y-5608189D01*
X5352859Y-5603132D01*
X5351537Y-5596271D01*
X5354134Y-5589785D01*
X5359825Y-5585732D01*
X5363881Y-5585050D01*
X5539132Y-5585050D01*
X5545836Y-5587019D01*
X5547901Y-5588682D01*
X5549269Y-5590050D01*
X5555546Y-5593674D01*
X5560369Y-5596459D01*
X5560681Y-5596639D01*
X5573411Y-5600050D01*
X5573411Y-5600050D01*
X5586589Y-5600050D01*
X5586589Y-5600050D01*
X5599319Y-5596639D01*
X5610731Y-5590050D01*
X5620050Y-5580731D01*
X5626639Y-5569319D01*
X5630050Y-5556589D01*
X5630050Y-5543411D01*
X5626639Y-5530681D01*
X5620050Y-5519269D01*
X5610731Y-5509950D01*
X5605025Y-5506655D01*
X5599319Y-5503361D01*
X5589707Y-5500785D01*
X5586589Y-5499950D01*
X5573411Y-5499950D01*
X5560681Y-5503361D01*
X5549269Y-5509950D01*
X5549268Y-5509950D01*
X5547901Y-5511318D01*
X5541768Y-5514667D01*
X5539132Y-5514950D01*
X5198061Y-5514950D01*
X5191357Y-5512982D01*
X5186781Y-5507701D01*
X5185787Y-5500785D01*
X5188689Y-5494430D01*
X5191860Y-5491811D01*
X5191966Y-5491750D01*
X5194911Y-5490050D01*
X5204230Y-5480731D01*
X5210819Y-5469319D01*
X5214230Y-5456589D01*
X5214230Y-5443411D01*
X5210819Y-5430681D01*
X5204230Y-5419269D01*
X5194911Y-5409950D01*
X5189205Y-5406655D01*
X5183498Y-5403361D01*
X5177134Y-5401655D01*
X5170769Y-5399950D01*
X5157591Y-5399950D01*
X5144861Y-5403361D01*
X5133448Y-5409950D01*
X5133448Y-5409950D01*
X5124130Y-5419268D01*
X5124130Y-5419269D01*
X5117541Y-5430681D01*
X5114476Y-5442120D01*
X5114130Y-5443411D01*
X5114130Y-5456589D01*
X5115835Y-5462954D01*
X5117541Y-5469319D01*
X5120835Y-5475025D01*
X5124130Y-5480731D01*
X5133448Y-5490050D01*
X5136393Y-5491750D01*
X5136499Y-5491811D01*
X5141321Y-5496868D01*
X5142643Y-5503729D01*
X5140046Y-5510215D01*
X5134355Y-5514268D01*
X5130299Y-5514950D01*
X4719654Y-5514950D01*
X4712950Y-5512982D01*
X4710886Y-5511318D01*
X4618533Y-5418965D01*
X4610578Y-5411010D01*
X4943397Y-5411010D01*
X4943397Y-5424188D01*
X4946808Y-5436918D01*
X4949809Y-5442115D01*
X4953397Y-5448330D01*
X4962715Y-5457649D01*
X4974128Y-5464238D01*
X4986858Y-5467649D01*
X4986858Y-5467649D01*
X5000036Y-5467649D01*
X5000036Y-5467649D01*
X5012765Y-5464238D01*
X5024178Y-5457649D01*
X5033497Y-5448330D01*
X5040086Y-5436918D01*
X5043497Y-5424188D01*
X5043497Y-5411010D01*
X5040086Y-5398280D01*
X5033497Y-5386868D01*
X5024178Y-5377549D01*
X5018472Y-5374254D01*
X5012766Y-5370960D01*
X5006401Y-5369254D01*
X5000036Y-5367549D01*
X4986858Y-5367549D01*
X4974128Y-5370960D01*
X4962715Y-5377549D01*
X4962715Y-5377549D01*
X4953397Y-5386867D01*
X4953397Y-5386868D01*
X4946808Y-5398280D01*
X4943397Y-5411010D01*
X4610578Y-5411010D01*
X4570528Y-5370960D01*
X4448479Y-5248911D01*
X4522450Y-5248911D01*
X4522450Y-5262089D01*
X4523811Y-5267167D01*
X4525861Y-5274819D01*
X4528459Y-5279319D01*
X4532450Y-5286232D01*
X4541769Y-5295550D01*
X4553181Y-5302139D01*
X4565911Y-5305550D01*
X4565911Y-5305550D01*
X4579089Y-5305550D01*
X4579089Y-5305550D01*
X4591819Y-5302139D01*
X4603231Y-5295550D01*
X4612550Y-5286232D01*
X4619139Y-5274819D01*
X4622550Y-5262089D01*
X4622550Y-5248911D01*
X4620500Y-5241259D01*
X5102347Y-5241259D01*
X5102347Y-5254437D01*
X5102923Y-5256589D01*
X5105758Y-5267167D01*
X5108317Y-5271599D01*
X5112347Y-5278579D01*
X5121665Y-5287898D01*
X5133078Y-5294487D01*
X5145808Y-5297898D01*
X5145808Y-5297898D01*
X5158986Y-5297898D01*
X5158986Y-5297898D01*
X5171715Y-5294487D01*
X5183128Y-5287898D01*
X5192447Y-5278579D01*
X5199036Y-5267167D01*
X5201664Y-5257358D01*
X6091950Y-5257358D01*
X6091950Y-5272642D01*
X6095591Y-5286231D01*
X6095906Y-5287406D01*
X6095906Y-5287407D01*
X6098453Y-5291819D01*
X6103548Y-5300644D01*
X6114356Y-5311452D01*
X6127593Y-5319094D01*
X6142358Y-5323050D01*
X6142358Y-5323050D01*
X6157642Y-5323050D01*
X6157642Y-5323050D01*
X6172406Y-5319094D01*
X6185643Y-5311452D01*
X6196452Y-5300644D01*
X6204094Y-5287407D01*
X6208050Y-5272642D01*
X6208050Y-5257358D01*
X6204094Y-5242594D01*
X6196452Y-5229357D01*
X6185643Y-5218548D01*
X6172406Y-5210906D01*
X6157642Y-5206950D01*
X6142358Y-5206950D01*
X6127593Y-5210906D01*
X6127593Y-5210906D01*
X6114357Y-5218548D01*
X6114356Y-5218549D01*
X6103549Y-5229356D01*
X6103548Y-5229357D01*
X6095906Y-5242593D01*
X6095906Y-5242594D01*
X6091950Y-5257358D01*
X5201664Y-5257358D01*
X5202447Y-5254437D01*
X5202447Y-5241259D01*
X5199036Y-5228529D01*
X5192447Y-5217117D01*
X5183128Y-5207798D01*
X5175443Y-5203361D01*
X5171716Y-5201209D01*
X5165351Y-5199503D01*
X5158986Y-5197798D01*
X5145808Y-5197798D01*
X5133078Y-5201209D01*
X5121665Y-5207798D01*
X5121665Y-5207798D01*
X5112347Y-5217116D01*
X5112347Y-5217117D01*
X5105758Y-5228529D01*
X5103895Y-5235482D01*
X5102347Y-5241259D01*
X4620500Y-5241259D01*
X4619139Y-5236182D01*
X4612550Y-5224769D01*
X4603231Y-5215450D01*
X4595361Y-5210906D01*
X4591819Y-5208861D01*
X4584775Y-5206974D01*
X4579089Y-5205450D01*
X4565911Y-5205450D01*
X4553181Y-5208861D01*
X4541769Y-5215450D01*
X4541768Y-5215450D01*
X4532450Y-5224768D01*
X4532450Y-5224769D01*
X4525861Y-5236181D01*
X4524500Y-5241259D01*
X4522450Y-5248911D01*
X4448479Y-5248911D01*
X4438682Y-5239114D01*
X4435334Y-5232982D01*
X4435050Y-5230346D01*
X4435050Y-5183411D01*
X5629950Y-5183411D01*
X5629950Y-5196589D01*
X5633361Y-5209319D01*
X5634277Y-5210906D01*
X5639950Y-5220731D01*
X5649269Y-5230050D01*
X5660681Y-5236639D01*
X5673411Y-5240050D01*
X5673411Y-5240050D01*
X5686589Y-5240050D01*
X5686589Y-5240050D01*
X5699319Y-5236639D01*
X5710731Y-5230050D01*
X5720050Y-5220731D01*
X5726639Y-5209319D01*
X5730050Y-5196589D01*
X5730050Y-5183411D01*
X5726639Y-5170681D01*
X5720050Y-5159269D01*
X5710731Y-5149950D01*
X5704205Y-5146182D01*
X5699319Y-5143361D01*
X5692954Y-5141655D01*
X5686589Y-5139950D01*
X5673411Y-5139950D01*
X5660681Y-5143361D01*
X5649269Y-5149950D01*
X5649268Y-5149950D01*
X5639950Y-5159268D01*
X5639950Y-5159269D01*
X5633361Y-5170681D01*
X5629950Y-5183411D01*
X4435050Y-5183411D01*
X4435050Y-4744442D01*
X4565379Y-4744442D01*
X4565379Y-4757620D01*
X4568790Y-4770350D01*
X4569017Y-4770743D01*
X4575379Y-4781763D01*
X4584698Y-4791081D01*
X4596110Y-4797670D01*
X4608840Y-4801081D01*
X4608840Y-4801081D01*
X4622018Y-4801081D01*
X4622018Y-4801081D01*
X4632192Y-4798355D01*
X4639177Y-4798521D01*
X4644963Y-4802437D01*
X4646140Y-4804132D01*
X4649950Y-4810731D01*
X4659269Y-4820050D01*
X4670681Y-4826639D01*
X4683411Y-4830050D01*
X4683411Y-4830050D01*
X4696589Y-4830050D01*
X4696589Y-4830050D01*
X4704341Y-4827973D01*
X4711326Y-4828139D01*
X4717112Y-4832055D01*
X4719862Y-4838478D01*
X4719950Y-4839950D01*
X4719950Y-4903956D01*
X4720243Y-4905050D01*
X4721998Y-4911599D01*
X4722196Y-4911942D01*
X4722196Y-4911942D01*
X4725954Y-4918451D01*
X4925954Y-5118451D01*
X4931549Y-5124046D01*
X4931549Y-5124046D01*
X4931550Y-5124046D01*
X4938400Y-5128002D01*
X4938401Y-5128002D01*
X4946044Y-5130050D01*
X5104132Y-5130050D01*
X5110836Y-5132019D01*
X5112901Y-5133682D01*
X5119269Y-5140050D01*
X5130681Y-5146639D01*
X5143411Y-5150050D01*
X5143411Y-5150050D01*
X5156589Y-5150050D01*
X5156589Y-5150050D01*
X5169319Y-5146639D01*
X5180731Y-5140050D01*
X5190050Y-5130731D01*
X5196639Y-5119319D01*
X5200050Y-5106589D01*
X5200050Y-5093411D01*
X5196639Y-5080681D01*
X5190050Y-5069269D01*
X5180731Y-5059950D01*
X5174384Y-5056285D01*
X5169319Y-5053361D01*
X5158225Y-5050388D01*
X5156589Y-5049950D01*
X5143411Y-5049950D01*
X5130681Y-5053361D01*
X5119269Y-5059950D01*
X5119268Y-5059950D01*
X5112901Y-5066318D01*
X5106768Y-5069667D01*
X5104132Y-5069950D01*
X4967583Y-5069950D01*
X4960879Y-5067982D01*
X4958815Y-5066318D01*
X4783682Y-4891185D01*
X4780333Y-4885053D01*
X4780050Y-4882417D01*
X4780050Y-4794885D01*
X4814049Y-4794885D01*
X4814049Y-4808063D01*
X4817459Y-4820793D01*
X4819088Y-4823615D01*
X4824049Y-4832206D01*
X4833367Y-4841524D01*
X4844780Y-4848114D01*
X4857509Y-4851524D01*
X4857510Y-4851524D01*
X4870688Y-4851524D01*
X4870688Y-4851524D01*
X4883417Y-4848114D01*
X4894830Y-4841524D01*
X4904149Y-4832206D01*
X4910738Y-4820793D01*
X4914149Y-4808064D01*
X4914149Y-4794885D01*
X4912133Y-4787364D01*
X4960773Y-4787364D01*
X4960773Y-4800542D01*
X4961772Y-4804268D01*
X4964184Y-4813272D01*
X4966517Y-4817311D01*
X4970773Y-4824684D01*
X4980092Y-4834003D01*
X4991505Y-4840592D01*
X5004234Y-4844003D01*
X5004234Y-4844003D01*
X5013240Y-4844003D01*
X5019944Y-4845971D01*
X5022008Y-4847635D01*
X5027925Y-4853551D01*
X5033519Y-4859146D01*
X5033520Y-4859146D01*
X5033520Y-4859146D01*
X5040371Y-4863102D01*
X5040372Y-4863102D01*
X5048014Y-4865150D01*
X5055017Y-4865150D01*
X5061721Y-4867119D01*
X5063785Y-4868782D01*
X5325954Y-5130951D01*
X5331549Y-5136546D01*
X5331549Y-5136546D01*
X5331550Y-5136546D01*
X5337618Y-5140050D01*
X5338401Y-5140502D01*
X5346044Y-5142550D01*
X5366632Y-5142550D01*
X5373336Y-5144519D01*
X5375401Y-5146182D01*
X5381769Y-5152550D01*
X5393181Y-5159139D01*
X5405911Y-5162550D01*
X5405911Y-5162550D01*
X5419089Y-5162550D01*
X5419089Y-5162550D01*
X5431819Y-5159139D01*
X5443231Y-5152550D01*
X5452550Y-5143231D01*
X5459139Y-5131819D01*
X5461739Y-5122115D01*
X5854950Y-5122115D01*
X5854950Y-5137885D01*
X5858026Y-5153349D01*
X5858026Y-5153350D01*
X5864060Y-5167917D01*
X5864061Y-5167919D01*
X5872821Y-5181029D01*
X5872821Y-5181029D01*
X5883971Y-5192179D01*
X5883971Y-5192179D01*
X5897081Y-5200939D01*
X5897083Y-5200940D01*
X5910050Y-5206311D01*
X5911650Y-5206974D01*
X5926613Y-5209950D01*
X5927115Y-5210050D01*
X5927116Y-5210050D01*
X5927116Y-5210050D01*
X5942884Y-5210050D01*
X5942884Y-5210050D01*
X5958350Y-5206974D01*
X5972918Y-5200939D01*
X5986029Y-5192179D01*
X5997179Y-5181029D01*
X6005939Y-5167918D01*
X6011974Y-5153350D01*
X6015050Y-5137884D01*
X6015050Y-5122116D01*
X6015050Y-5122116D01*
X6015050Y-5122115D01*
X6013700Y-5115331D01*
X6011974Y-5106650D01*
X6009240Y-5100050D01*
X6005940Y-5092083D01*
X6005939Y-5092081D01*
X5997179Y-5078971D01*
X5997179Y-5078971D01*
X5986029Y-5067821D01*
X5986029Y-5067821D01*
X5972918Y-5059061D01*
X5972917Y-5059060D01*
X5958350Y-5053026D01*
X5958349Y-5053026D01*
X5942884Y-5049950D01*
X5942884Y-5049950D01*
X5927116Y-5049950D01*
X5927115Y-5049950D01*
X5911651Y-5053026D01*
X5911650Y-5053026D01*
X5897083Y-5059060D01*
X5897081Y-5059061D01*
X5883971Y-5067821D01*
X5883971Y-5067821D01*
X5872821Y-5078971D01*
X5872821Y-5078971D01*
X5864061Y-5092081D01*
X5864060Y-5092083D01*
X5858026Y-5106650D01*
X5858026Y-5106651D01*
X5854950Y-5122115D01*
X5461739Y-5122115D01*
X5462550Y-5119089D01*
X5462550Y-5105911D01*
X5459139Y-5093181D01*
X5453588Y-5083567D01*
X5451941Y-5076777D01*
X5454226Y-5070174D01*
X5459718Y-5065855D01*
X5461116Y-5065390D01*
X5462021Y-5065148D01*
X5473434Y-5058558D01*
X5482752Y-5049240D01*
X5489341Y-5037827D01*
X5492752Y-5025098D01*
X5492752Y-5011919D01*
X5489341Y-4999190D01*
X5482752Y-4987777D01*
X5476674Y-4981699D01*
X5473326Y-4975567D01*
X5473824Y-4968597D01*
X5478011Y-4963004D01*
X5479241Y-4962193D01*
X5480831Y-4961275D01*
X5490150Y-4951956D01*
X5496739Y-4940543D01*
X5500150Y-4927814D01*
X5500150Y-4914635D01*
X5496739Y-4901906D01*
X5490150Y-4890493D01*
X5480831Y-4881175D01*
X5472889Y-4876589D01*
X5469419Y-4874585D01*
X5458423Y-4871639D01*
X5456689Y-4871175D01*
X5443511Y-4871175D01*
X5430781Y-4874585D01*
X5419369Y-4881175D01*
X5419368Y-4881175D01*
X5410050Y-4890493D01*
X5410050Y-4890493D01*
X5403461Y-4901906D01*
X5400050Y-4914635D01*
X5400050Y-4927814D01*
X5403461Y-4940543D01*
X5405366Y-4943842D01*
X5410050Y-4951956D01*
X5410050Y-4951956D01*
X5416128Y-4958034D01*
X5419477Y-4964166D01*
X5418978Y-4971136D01*
X5415762Y-4975921D01*
X5414750Y-4976854D01*
X5411971Y-4978458D01*
X5402652Y-4987777D01*
X5402377Y-4988254D01*
X5401281Y-4989263D01*
X5399067Y-4990357D01*
X5397073Y-4991814D01*
X5395990Y-4991878D01*
X5395017Y-4992358D01*
X5392563Y-4992082D01*
X5390098Y-4992228D01*
X5388586Y-4991633D01*
X5388074Y-4991575D01*
X5387733Y-4991298D01*
X5386679Y-4990883D01*
X5383944Y-4989303D01*
X5383943Y-4989303D01*
X5371214Y-4985893D01*
X5358036Y-4985893D01*
X5345306Y-4989303D01*
X5333893Y-4995893D01*
X5333893Y-4995893D01*
X5324575Y-5005211D01*
X5324574Y-5005212D01*
X5318245Y-5016174D01*
X5313189Y-5020995D01*
X5306328Y-5022317D01*
X5299841Y-5019720D01*
X5298739Y-5018742D01*
X5116190Y-4836193D01*
X5112842Y-4830061D01*
X5113340Y-4823092D01*
X5116501Y-4818411D01*
X5574950Y-4818411D01*
X5574950Y-4831589D01*
X5576046Y-4835681D01*
X5578361Y-4844319D01*
X5581248Y-4849319D01*
X5584950Y-4855731D01*
X5594269Y-4865050D01*
X5605681Y-4871639D01*
X5618411Y-4875050D01*
X5618411Y-4875050D01*
X5631589Y-4875050D01*
X5631589Y-4875050D01*
X5644319Y-4871639D01*
X5655731Y-4865050D01*
X5665050Y-4855731D01*
X5671639Y-4844319D01*
X5675050Y-4831589D01*
X5675050Y-4818411D01*
X5671639Y-4805681D01*
X5665050Y-4794269D01*
X5655731Y-4784950D01*
X5646747Y-4779763D01*
X5644319Y-4778361D01*
X5637954Y-4776655D01*
X5631589Y-4774950D01*
X5618411Y-4774950D01*
X5605681Y-4778361D01*
X5594269Y-4784950D01*
X5594268Y-4784950D01*
X5584950Y-4794268D01*
X5584950Y-4794269D01*
X5578361Y-4805681D01*
X5575245Y-4817311D01*
X5574950Y-4818411D01*
X5116501Y-4818411D01*
X5116597Y-4818268D01*
X5117591Y-4817360D01*
X5119555Y-4816226D01*
X5128874Y-4806908D01*
X5135463Y-4795495D01*
X5138874Y-4782766D01*
X5138874Y-4769587D01*
X5135463Y-4756858D01*
X5128874Y-4745445D01*
X5119555Y-4736126D01*
X5112621Y-4732123D01*
X5108142Y-4729537D01*
X5101778Y-4727832D01*
X5095413Y-4726126D01*
X5082234Y-4726126D01*
X5069505Y-4729537D01*
X5058092Y-4736126D01*
X5058092Y-4736127D01*
X5048774Y-4745445D01*
X5048680Y-4745567D01*
X5048574Y-4745645D01*
X5048199Y-4746020D01*
X5048140Y-4745961D01*
X5043037Y-4749688D01*
X5036062Y-4750103D01*
X5032642Y-4748757D01*
X5030142Y-4747314D01*
X5030142Y-4747314D01*
X5017413Y-4743903D01*
X5004234Y-4743903D01*
X4991505Y-4747314D01*
X4980092Y-4753903D01*
X4980092Y-4753903D01*
X4970774Y-4763221D01*
X4970773Y-4763222D01*
X4964184Y-4774634D01*
X4961662Y-4784046D01*
X4960773Y-4787364D01*
X4912133Y-4787364D01*
X4910738Y-4782156D01*
X4904149Y-4770743D01*
X4894830Y-4761424D01*
X4886920Y-4756858D01*
X4883417Y-4754835D01*
X4877052Y-4753130D01*
X4870688Y-4751424D01*
X4857509Y-4751424D01*
X4844780Y-4754835D01*
X4833367Y-4761424D01*
X4833367Y-4761425D01*
X4824049Y-4770743D01*
X4824049Y-4770743D01*
X4817459Y-4782156D01*
X4814049Y-4794885D01*
X4780050Y-4794885D01*
X4780050Y-4618059D01*
X4782019Y-4611355D01*
X4783681Y-4609291D01*
X4799562Y-4593411D01*
X5474950Y-4593411D01*
X5474950Y-4606589D01*
X5478361Y-4619319D01*
X5479177Y-4620732D01*
X5484950Y-4630731D01*
X5494269Y-4640050D01*
X5505681Y-4646639D01*
X5518411Y-4650050D01*
X5518411Y-4650050D01*
X5531589Y-4650050D01*
X5531589Y-4650050D01*
X5544319Y-4646639D01*
X5555731Y-4640050D01*
X5565050Y-4630731D01*
X5571639Y-4619319D01*
X5575050Y-4606589D01*
X5575050Y-4593411D01*
X5574380Y-4590911D01*
X5624950Y-4590911D01*
X5624950Y-4604089D01*
X5625620Y-4606589D01*
X5628361Y-4616819D01*
X5630620Y-4620732D01*
X5634950Y-4628231D01*
X5644269Y-4637550D01*
X5655681Y-4644139D01*
X5668411Y-4647550D01*
X5668412Y-4647550D01*
X5669217Y-4647656D01*
X5669179Y-4647942D01*
X5674549Y-4649519D01*
X5676614Y-4651182D01*
X5711318Y-4685886D01*
X5714667Y-4692019D01*
X5714950Y-4694654D01*
X5714950Y-4905346D01*
X5712981Y-4912050D01*
X5711318Y-4914114D01*
X5679114Y-4946318D01*
X5672981Y-4949667D01*
X5670346Y-4949950D01*
X5668411Y-4949950D01*
X5655681Y-4953361D01*
X5644269Y-4959950D01*
X5644268Y-4959950D01*
X5634950Y-4969268D01*
X5634950Y-4969269D01*
X5628361Y-4980681D01*
X5624950Y-4993411D01*
X5624950Y-5006589D01*
X5628361Y-5019319D01*
X5630092Y-5022317D01*
X5634950Y-5030731D01*
X5644269Y-5040050D01*
X5655681Y-5046639D01*
X5668411Y-5050050D01*
X5668411Y-5050050D01*
X5681589Y-5050050D01*
X5681589Y-5050050D01*
X5694319Y-5046639D01*
X5705731Y-5040050D01*
X5715050Y-5030731D01*
X5721639Y-5019319D01*
X5725050Y-5006589D01*
X5725050Y-5004654D01*
X5727018Y-4997951D01*
X5728682Y-4995886D01*
X5752699Y-4971869D01*
X5778047Y-4946521D01*
X5782661Y-4938529D01*
X5783789Y-4934319D01*
X5785050Y-4929614D01*
X5785050Y-4848411D01*
X5924950Y-4848411D01*
X5924950Y-4861589D01*
X5925945Y-4865303D01*
X5928361Y-4874319D01*
X5929672Y-4876589D01*
X5934950Y-4885731D01*
X5944269Y-4895050D01*
X5955681Y-4901639D01*
X5968411Y-4905050D01*
X5968411Y-4905050D01*
X5981589Y-4905050D01*
X5981589Y-4905050D01*
X5994319Y-4901639D01*
X6005731Y-4895050D01*
X6015050Y-4885731D01*
X6021639Y-4874319D01*
X6025050Y-4861589D01*
X6025050Y-4848411D01*
X6021639Y-4835681D01*
X6015050Y-4824269D01*
X6005731Y-4814950D01*
X6000025Y-4811655D01*
X5994319Y-4808361D01*
X5984319Y-4805681D01*
X5981589Y-4804950D01*
X5968411Y-4804950D01*
X5955681Y-4808361D01*
X5944269Y-4814950D01*
X5944268Y-4814950D01*
X5934950Y-4824268D01*
X5934950Y-4824269D01*
X5928361Y-4835681D01*
X5925604Y-4845971D01*
X5924950Y-4848411D01*
X5785050Y-4848411D01*
X5785050Y-4670386D01*
X5782661Y-4661471D01*
X5782363Y-4660954D01*
X5778047Y-4653479D01*
X5766683Y-4642115D01*
X5854950Y-4642115D01*
X5854950Y-4657885D01*
X5858026Y-4673349D01*
X5858026Y-4673350D01*
X5864060Y-4687917D01*
X5864061Y-4687919D01*
X5872821Y-4701029D01*
X5872821Y-4701029D01*
X5883971Y-4712179D01*
X5883971Y-4712179D01*
X5897081Y-4720939D01*
X5897083Y-4720940D01*
X5909605Y-4726126D01*
X5911650Y-4726974D01*
X5924538Y-4729537D01*
X5927115Y-4730050D01*
X5927116Y-4730050D01*
X5927116Y-4730050D01*
X5942884Y-4730050D01*
X5942884Y-4730050D01*
X5958350Y-4726974D01*
X5972918Y-4720939D01*
X5986029Y-4712179D01*
X5997179Y-4701029D01*
X6005939Y-4687918D01*
X6011974Y-4673350D01*
X6015050Y-4657884D01*
X6015050Y-4642116D01*
X6015050Y-4642116D01*
X6015050Y-4642115D01*
X6012785Y-4630731D01*
X6011974Y-4626650D01*
X6009522Y-4620732D01*
X6005940Y-4612083D01*
X6005939Y-4612081D01*
X5997179Y-4598971D01*
X5997179Y-4598971D01*
X5986029Y-4587821D01*
X5986029Y-4587821D01*
X5972918Y-4579061D01*
X5972917Y-4579060D01*
X5958350Y-4573026D01*
X5958349Y-4573026D01*
X5942884Y-4569950D01*
X5942884Y-4569950D01*
X5927116Y-4569950D01*
X5927115Y-4569950D01*
X5911651Y-4573026D01*
X5911650Y-4573026D01*
X5897083Y-4579060D01*
X5897081Y-4579061D01*
X5883971Y-4587821D01*
X5883971Y-4587821D01*
X5872821Y-4598971D01*
X5872821Y-4598971D01*
X5864061Y-4612081D01*
X5864060Y-4612083D01*
X5858026Y-4626650D01*
X5858026Y-4626651D01*
X5854950Y-4642115D01*
X5766683Y-4642115D01*
X5728682Y-4604114D01*
X5725333Y-4597981D01*
X5725050Y-4595346D01*
X5725050Y-4590911D01*
X5725050Y-4590911D01*
X5721639Y-4578181D01*
X5715050Y-4566769D01*
X5705731Y-4557450D01*
X5697347Y-4552609D01*
X5694319Y-4550861D01*
X5686905Y-4548874D01*
X5681589Y-4547450D01*
X5668411Y-4547450D01*
X5655681Y-4550861D01*
X5644269Y-4557450D01*
X5644268Y-4557450D01*
X5634950Y-4566768D01*
X5634950Y-4566769D01*
X5628361Y-4578181D01*
X5626272Y-4585976D01*
X5624950Y-4590911D01*
X5574380Y-4590911D01*
X5571639Y-4580681D01*
X5565050Y-4569269D01*
X5555731Y-4559950D01*
X5548394Y-4555714D01*
X5544319Y-4553361D01*
X5537954Y-4551655D01*
X5531589Y-4549950D01*
X5518411Y-4549950D01*
X5505681Y-4553361D01*
X5494269Y-4559950D01*
X5494268Y-4559950D01*
X5484950Y-4569268D01*
X5484950Y-4569269D01*
X5478361Y-4580681D01*
X5474950Y-4593411D01*
X4799562Y-4593411D01*
X4925529Y-4467443D01*
X4931662Y-4464095D01*
X4938631Y-4464593D01*
X4944224Y-4468781D01*
X4946063Y-4473295D01*
X4946305Y-4473231D01*
X4946515Y-4474016D01*
X4946515Y-4474016D01*
X4947946Y-4479357D01*
X4949926Y-4486745D01*
X4951788Y-4489970D01*
X4956515Y-4498158D01*
X4965834Y-4507477D01*
X4977247Y-4514066D01*
X4989976Y-4517477D01*
X4989976Y-4517477D01*
X5003154Y-4517477D01*
X5003155Y-4517477D01*
X5015884Y-4514066D01*
X5027297Y-4507477D01*
X5036615Y-4498158D01*
X5038258Y-4495313D01*
X5043314Y-4490492D01*
X5050175Y-4489169D01*
X5052734Y-4489806D01*
X5052747Y-4489760D01*
X5053532Y-4489970D01*
X5053532Y-4489970D01*
X5066261Y-4493381D01*
X5066262Y-4493381D01*
X5079440Y-4493381D01*
X5079440Y-4493381D01*
X5092169Y-4489970D01*
X5103582Y-4483381D01*
X5112901Y-4474062D01*
X5116488Y-4467848D01*
X5121545Y-4463027D01*
X5128406Y-4461704D01*
X5130667Y-4462268D01*
X5130692Y-4462177D01*
X5131477Y-4462387D01*
X5131477Y-4462387D01*
X5144206Y-4465798D01*
X5144206Y-4465798D01*
X5157384Y-4465798D01*
X5157385Y-4465798D01*
X5170114Y-4462387D01*
X5181527Y-4455798D01*
X5190845Y-4446479D01*
X5197435Y-4435066D01*
X5200845Y-4422337D01*
X5200845Y-4409159D01*
X5199242Y-4403173D01*
X5277450Y-4403173D01*
X5277450Y-4416352D01*
X5278752Y-4421212D01*
X5280861Y-4429081D01*
X5281814Y-4430731D01*
X5287450Y-4440494D01*
X5296769Y-4449812D01*
X5308181Y-4456402D01*
X5320911Y-4459812D01*
X5320911Y-4459812D01*
X5334089Y-4459812D01*
X5334089Y-4459812D01*
X5346819Y-4456402D01*
X5358231Y-4449812D01*
X5367550Y-4440494D01*
X5374139Y-4429081D01*
X5377550Y-4416352D01*
X5377550Y-4403173D01*
X5374139Y-4390444D01*
X5367550Y-4379031D01*
X5358231Y-4369712D01*
X5351211Y-4365659D01*
X5346819Y-4363123D01*
X5336663Y-4360402D01*
X5334089Y-4359712D01*
X5320911Y-4359712D01*
X5308181Y-4363123D01*
X5296769Y-4369712D01*
X5296768Y-4369713D01*
X5287450Y-4379031D01*
X5287450Y-4379031D01*
X5280861Y-4390444D01*
X5279130Y-4396902D01*
X5277450Y-4403173D01*
X5199242Y-4403173D01*
X5197435Y-4396429D01*
X5190845Y-4385016D01*
X5181527Y-4375698D01*
X5174411Y-4371589D01*
X5170114Y-4369109D01*
X5162880Y-4367170D01*
X5157385Y-4365698D01*
X5144206Y-4365698D01*
X5131477Y-4369109D01*
X5120064Y-4375698D01*
X5120064Y-4375698D01*
X5110746Y-4385016D01*
X5110745Y-4385017D01*
X5107158Y-4391230D01*
X5102101Y-4396052D01*
X5095240Y-4397374D01*
X5092979Y-4396811D01*
X5092954Y-4396902D01*
X5092169Y-4396692D01*
X5092169Y-4396692D01*
X5079440Y-4393281D01*
X5066261Y-4393281D01*
X5053532Y-4396692D01*
X5042119Y-4403281D01*
X5042119Y-4403281D01*
X5032801Y-4412599D01*
X5032800Y-4412600D01*
X5031158Y-4415445D01*
X5029130Y-4417378D01*
X5027339Y-4419534D01*
X5026635Y-4419757D01*
X5026101Y-4420266D01*
X5023349Y-4420796D01*
X5020678Y-4421642D01*
X5019810Y-4421478D01*
X5019240Y-4421588D01*
X5017174Y-4421212D01*
X5016129Y-4420929D01*
X5015884Y-4420787D01*
X5003155Y-4417377D01*
X5003028Y-4417377D01*
X5002105Y-4417127D01*
X4999807Y-4415716D01*
X4997341Y-4414625D01*
X4996874Y-4413916D01*
X4996150Y-4413472D01*
X4994979Y-4411044D01*
X4993495Y-4408793D01*
X4993485Y-4407943D01*
X4993116Y-4407179D01*
X4993444Y-4404502D01*
X4993412Y-4401806D01*
X4993870Y-4401023D01*
X4993966Y-4400244D01*
X4995188Y-4398773D01*
X4996582Y-4396391D01*
X5019291Y-4373682D01*
X5025423Y-4370334D01*
X5028059Y-4370050D01*
X5037065Y-4370050D01*
X5037065Y-4370050D01*
X5049794Y-4366639D01*
X5061207Y-4360050D01*
X5070526Y-4350732D01*
X5077115Y-4339319D01*
X5080526Y-4326589D01*
X5080526Y-4313411D01*
X5077115Y-4300682D01*
X5070526Y-4289269D01*
X5063777Y-4282520D01*
X5100112Y-4282520D01*
X5100112Y-4295699D01*
X5103523Y-4308428D01*
X5104526Y-4310165D01*
X5104526Y-4310165D01*
X5110112Y-4319841D01*
X5110112Y-4319841D01*
X5110112Y-4319841D01*
X5119431Y-4329160D01*
X5130844Y-4335749D01*
X5143573Y-4339160D01*
X5143573Y-4339160D01*
X5156751Y-4339160D01*
X5156751Y-4339160D01*
X5169481Y-4335749D01*
X5180894Y-4329160D01*
X5190212Y-4319841D01*
X5196801Y-4308428D01*
X5200212Y-4295699D01*
X5200212Y-4282520D01*
X5196801Y-4269791D01*
X5190212Y-4258378D01*
X5180894Y-4249060D01*
X5174926Y-4245614D01*
X5169481Y-4242470D01*
X5160448Y-4240050D01*
X5156751Y-4239060D01*
X5143573Y-4239060D01*
X5130843Y-4242470D01*
X5119431Y-4249060D01*
X5119431Y-4249060D01*
X5110112Y-4258378D01*
X5110112Y-4258378D01*
X5103523Y-4269791D01*
X5102913Y-4272066D01*
X5100112Y-4282520D01*
X5063777Y-4282520D01*
X5061207Y-4279950D01*
X5055472Y-4276639D01*
X5049794Y-4273361D01*
X5043430Y-4271656D01*
X5037065Y-4269950D01*
X5023887Y-4269950D01*
X5011157Y-4273361D01*
X4999744Y-4279950D01*
X4999744Y-4279950D01*
X4990426Y-4289268D01*
X4990426Y-4289269D01*
X4983837Y-4300681D01*
X4980426Y-4313411D01*
X4980426Y-4322417D01*
X4978457Y-4329121D01*
X4976794Y-4331185D01*
X4758718Y-4549261D01*
X4752586Y-4552609D01*
X4745617Y-4552111D01*
X4740023Y-4547923D01*
X4737582Y-4541377D01*
X4737550Y-4540492D01*
X4737550Y-4539337D01*
X4737550Y-4539337D01*
X4734139Y-4526608D01*
X4727550Y-4515195D01*
X4718231Y-4505876D01*
X4712525Y-4502582D01*
X4706819Y-4499287D01*
X4700067Y-4497478D01*
X4694089Y-4495876D01*
X4680911Y-4495876D01*
X4668181Y-4499287D01*
X4656769Y-4505876D01*
X4656768Y-4505877D01*
X4647450Y-4515195D01*
X4647450Y-4515195D01*
X4640861Y-4526608D01*
X4638032Y-4537165D01*
X4637450Y-4539337D01*
X4637450Y-4552516D01*
X4639155Y-4558880D01*
X4640861Y-4565245D01*
X4641740Y-4566768D01*
X4647450Y-4576658D01*
X4656769Y-4585976D01*
X4668181Y-4592566D01*
X4680911Y-4595976D01*
X4680911Y-4595976D01*
X4694089Y-4595976D01*
X4694089Y-4595976D01*
X4704341Y-4593229D01*
X4711326Y-4593396D01*
X4717112Y-4597312D01*
X4719862Y-4603735D01*
X4719950Y-4605207D01*
X4719950Y-4720050D01*
X4717982Y-4726753D01*
X4712701Y-4731329D01*
X4705785Y-4732323D01*
X4704341Y-4732027D01*
X4703167Y-4731713D01*
X4696589Y-4729950D01*
X4683411Y-4729950D01*
X4674554Y-4732323D01*
X4673237Y-4732676D01*
X4666252Y-4732510D01*
X4660466Y-4728594D01*
X4659289Y-4726899D01*
X4658693Y-4725867D01*
X4655479Y-4720300D01*
X4646160Y-4710981D01*
X4640454Y-4707687D01*
X4634748Y-4704392D01*
X4628383Y-4702687D01*
X4622018Y-4700981D01*
X4608840Y-4700981D01*
X4596110Y-4704392D01*
X4584698Y-4710981D01*
X4584697Y-4710981D01*
X4575379Y-4720299D01*
X4575379Y-4720300D01*
X4568790Y-4731712D01*
X4565379Y-4744442D01*
X4435050Y-4744442D01*
X4435050Y-4618083D01*
X4437019Y-4611379D01*
X4438682Y-4609315D01*
X4438706Y-4609291D01*
X4440050Y-4607947D01*
X4446639Y-4596534D01*
X4450050Y-4583804D01*
X4450050Y-4570626D01*
X4446639Y-4557897D01*
X4446631Y-4557882D01*
X4445756Y-4556367D01*
X4440050Y-4546484D01*
X4430732Y-4537165D01*
X4420357Y-4531176D01*
X4419319Y-4530576D01*
X4412954Y-4528871D01*
X4406589Y-4527165D01*
X4393411Y-4527165D01*
X4380681Y-4530576D01*
X4369269Y-4537165D01*
X4369268Y-4537165D01*
X4359950Y-4546484D01*
X4359950Y-4546484D01*
X4353361Y-4557896D01*
X4349950Y-4570626D01*
X3696607Y-4570626D01*
X3690050Y-4559269D01*
X3687997Y-4557215D01*
X3687157Y-4555714D01*
X3686748Y-4553917D01*
X3685865Y-4552300D01*
X3685973Y-4550518D01*
X3685605Y-4548902D01*
X3686166Y-4547350D01*
X3686274Y-4545579D01*
X3692965Y-4526404D01*
X3693065Y-4526128D01*
X3703840Y-4497478D01*
X3940736Y-4497478D01*
X3940736Y-4510656D01*
X3944146Y-4523386D01*
X3947441Y-4529092D01*
X3950736Y-4534799D01*
X3960054Y-4544117D01*
X3969938Y-4549824D01*
X3971358Y-4550644D01*
X3971467Y-4550706D01*
X3984196Y-4554117D01*
X3984197Y-4554117D01*
X3997375Y-4554117D01*
X3997375Y-4554117D01*
X4010104Y-4550706D01*
X4021517Y-4544117D01*
X4030836Y-4534799D01*
X4037425Y-4523386D01*
X4040836Y-4510656D01*
X4040836Y-4497478D01*
X4037425Y-4484749D01*
X4030836Y-4473336D01*
X4021517Y-4464017D01*
X4014234Y-4459812D01*
X4010104Y-4457428D01*
X4003740Y-4455723D01*
X3997375Y-4454017D01*
X3984196Y-4454017D01*
X3971467Y-4457428D01*
X3960054Y-4464017D01*
X3960054Y-4464017D01*
X3950736Y-4473336D01*
X3950736Y-4473336D01*
X3944146Y-4484748D01*
X3940736Y-4497478D01*
X3703840Y-4497478D01*
X3704697Y-4495199D01*
X3704804Y-4494925D01*
X3705975Y-4492023D01*
X3707333Y-4488660D01*
X3717175Y-4464280D01*
X3717285Y-4464017D01*
X3720086Y-4457533D01*
X3724551Y-4452159D01*
X3731213Y-4450053D01*
X3731469Y-4450050D01*
X3736589Y-4450050D01*
X3736589Y-4450050D01*
X3749319Y-4446639D01*
X3760731Y-4440050D01*
X3770050Y-4430731D01*
X3776639Y-4419319D01*
X3780050Y-4406589D01*
X3780050Y-4393411D01*
X3776639Y-4380681D01*
X3770050Y-4369269D01*
X3770050Y-4369268D01*
X3769568Y-4368641D01*
X3768943Y-4367025D01*
X3767877Y-4365659D01*
X3767710Y-4363834D01*
X3767049Y-4362124D01*
X3767394Y-4360402D01*
X3767238Y-4358701D01*
X3767340Y-4358411D01*
X3934950Y-4358411D01*
X3934950Y-4371589D01*
X3935511Y-4373682D01*
X3938361Y-4384319D01*
X3938764Y-4385017D01*
X3944950Y-4395731D01*
X3954269Y-4405050D01*
X3965681Y-4411639D01*
X3978411Y-4415050D01*
X3978411Y-4415050D01*
X3991589Y-4415050D01*
X3991589Y-4415050D01*
X4004319Y-4411639D01*
X4015731Y-4405050D01*
X4016232Y-4404550D01*
X4022364Y-4401201D01*
X4029333Y-4401699D01*
X4033768Y-4404550D01*
X4039269Y-4410050D01*
X4050681Y-4416639D01*
X4063411Y-4420050D01*
X4063411Y-4420050D01*
X4076589Y-4420050D01*
X4076589Y-4420050D01*
X4089319Y-4416639D01*
X4100731Y-4410050D01*
X4110050Y-4400731D01*
X4116639Y-4389319D01*
X4120050Y-4376589D01*
X4120050Y-4363411D01*
X4116639Y-4350681D01*
X4110050Y-4339269D01*
X4100731Y-4329950D01*
X4092667Y-4325294D01*
X4089319Y-4323361D01*
X4082954Y-4321655D01*
X4076589Y-4319950D01*
X4063411Y-4319950D01*
X4050681Y-4323361D01*
X4039269Y-4329950D01*
X4039268Y-4329950D01*
X4038768Y-4330451D01*
X4032636Y-4333799D01*
X4025667Y-4333301D01*
X4021232Y-4330451D01*
X4015732Y-4324950D01*
X4015731Y-4324950D01*
X4007071Y-4319950D01*
X4004319Y-4318361D01*
X3997954Y-4316655D01*
X3991589Y-4314950D01*
X3978411Y-4314950D01*
X3965681Y-4318361D01*
X3954269Y-4324950D01*
X3954268Y-4324950D01*
X3944950Y-4334268D01*
X3944950Y-4334269D01*
X3938361Y-4345681D01*
X3937008Y-4350732D01*
X3934950Y-4358411D01*
X3767340Y-4358411D01*
X3768404Y-4355371D01*
X3774382Y-4343878D01*
X3774517Y-4343627D01*
X3790470Y-4314675D01*
X3790613Y-4314421D01*
X3807054Y-4286207D01*
X3812130Y-4281406D01*
X3817767Y-4280050D01*
X3826589Y-4280050D01*
X3826589Y-4280050D01*
X3839319Y-4276639D01*
X3847240Y-4272066D01*
X4799950Y-4272066D01*
X4799950Y-4285244D01*
X4801028Y-4289268D01*
X4803361Y-4297974D01*
X4806655Y-4303680D01*
X4809950Y-4309386D01*
X4819269Y-4318705D01*
X4830681Y-4325294D01*
X4843411Y-4328705D01*
X4843411Y-4328705D01*
X4856589Y-4328705D01*
X4856589Y-4328705D01*
X4869319Y-4325294D01*
X4880731Y-4318705D01*
X4890050Y-4309386D01*
X4896639Y-4297974D01*
X4900050Y-4285244D01*
X4900050Y-4272066D01*
X4897858Y-4263887D01*
X4898025Y-4256902D01*
X4901941Y-4251116D01*
X4906626Y-4248700D01*
X4914318Y-4246639D01*
X4925731Y-4240050D01*
X4926231Y-4239550D01*
X4932363Y-4236201D01*
X4939332Y-4236699D01*
X4943768Y-4239549D01*
X4944269Y-4240050D01*
X4955681Y-4246639D01*
X4968411Y-4250050D01*
X4968411Y-4250050D01*
X4981589Y-4250050D01*
X4981589Y-4250050D01*
X4994319Y-4246639D01*
X5005731Y-4240050D01*
X5015050Y-4230731D01*
X5021639Y-4219319D01*
X5025050Y-4206589D01*
X5025050Y-4193411D01*
X5021639Y-4180681D01*
X5015050Y-4169269D01*
X5005731Y-4159950D01*
X5000025Y-4156655D01*
X4994319Y-4153361D01*
X4987954Y-4151655D01*
X4981589Y-4149950D01*
X4968411Y-4149950D01*
X4955681Y-4153361D01*
X4950484Y-4156361D01*
X4944269Y-4159950D01*
X4944268Y-4159950D01*
X4944268Y-4159950D01*
X4943768Y-4160451D01*
X4937635Y-4163799D01*
X4930666Y-4163300D01*
X4926232Y-4160451D01*
X4925731Y-4159950D01*
X4925731Y-4159950D01*
X4920025Y-4156655D01*
X4914318Y-4153361D01*
X4907954Y-4151655D01*
X4901589Y-4149950D01*
X4888411Y-4149950D01*
X4875681Y-4153361D01*
X4864268Y-4159950D01*
X4864268Y-4159950D01*
X4854950Y-4169268D01*
X4854950Y-4169269D01*
X4848361Y-4180681D01*
X4844950Y-4193411D01*
X4844950Y-4206589D01*
X4847141Y-4214768D01*
X4846975Y-4221753D01*
X4843059Y-4227539D01*
X4838373Y-4229955D01*
X4830681Y-4232016D01*
X4830681Y-4232016D01*
X4830681Y-4232016D01*
X4819269Y-4238605D01*
X4819268Y-4238605D01*
X4809950Y-4247923D01*
X4809950Y-4247924D01*
X4803361Y-4259336D01*
X4801278Y-4267110D01*
X4799950Y-4272066D01*
X3847240Y-4272066D01*
X3850731Y-4270050D01*
X3860050Y-4260731D01*
X3866639Y-4249319D01*
X3870050Y-4236589D01*
X3870050Y-4223411D01*
X3866639Y-4210681D01*
X3865642Y-4208955D01*
X3863995Y-4202165D01*
X3866280Y-4195562D01*
X3866282Y-4195559D01*
X3881139Y-4174903D01*
X3881299Y-4174686D01*
X3901242Y-4148317D01*
X3901418Y-4148089D01*
X3911932Y-4134859D01*
X3921976Y-4122219D01*
X3922160Y-4121994D01*
X3929113Y-4113662D01*
X3929489Y-4113411D01*
X4279950Y-4113411D01*
X4279950Y-4126589D01*
X4283361Y-4139319D01*
X4285211Y-4142522D01*
X4289950Y-4150731D01*
X4299269Y-4160050D01*
X4310681Y-4166639D01*
X4323411Y-4170050D01*
X4323411Y-4170050D01*
X4336589Y-4170050D01*
X4336589Y-4170050D01*
X4349319Y-4166639D01*
X4360731Y-4160050D01*
X4370050Y-4150731D01*
X4376639Y-4139319D01*
X4380050Y-4126589D01*
X4380050Y-4113411D01*
X4376639Y-4100681D01*
X4376485Y-4100414D01*
X4373781Y-4095731D01*
X4370050Y-4089269D01*
X4360731Y-4079950D01*
X4360731Y-4079950D01*
X4360731Y-4079950D01*
X4353607Y-4075837D01*
X4353607Y-4075837D01*
X4349319Y-4073361D01*
X4342707Y-4071589D01*
X4336589Y-4069950D01*
X4323411Y-4069950D01*
X4310681Y-4073361D01*
X4299269Y-4079950D01*
X4299268Y-4079950D01*
X4289950Y-4089268D01*
X4289950Y-4089269D01*
X4283361Y-4100681D01*
X4279950Y-4113411D01*
X3929489Y-4113411D01*
X3934920Y-4109776D01*
X3941842Y-4109630D01*
X3943411Y-4110050D01*
X3943411Y-4110050D01*
X3956589Y-4110050D01*
X3956589Y-4110050D01*
X3969319Y-4106639D01*
X3980731Y-4100050D01*
X3990050Y-4090731D01*
X3996639Y-4079319D01*
X4000050Y-4066589D01*
X4000050Y-4065911D01*
X4674950Y-4065911D01*
X4674950Y-4079089D01*
X4675181Y-4079950D01*
X4678361Y-4091819D01*
X4680708Y-4095883D01*
X4684950Y-4103231D01*
X4694269Y-4112550D01*
X4705681Y-4119139D01*
X4718411Y-4122550D01*
X4718411Y-4122550D01*
X4731589Y-4122550D01*
X4731589Y-4122550D01*
X4744319Y-4119139D01*
X4755731Y-4112550D01*
X4765050Y-4103231D01*
X4771639Y-4091819D01*
X4775050Y-4079089D01*
X4775050Y-4065911D01*
X4771639Y-4053181D01*
X4765050Y-4041769D01*
X4755731Y-4032450D01*
X4750025Y-4029155D01*
X4744319Y-4025861D01*
X4737954Y-4024155D01*
X4731589Y-4022450D01*
X4718411Y-4022450D01*
X4705681Y-4025861D01*
X4694269Y-4032450D01*
X4694268Y-4032450D01*
X4684950Y-4041768D01*
X4684950Y-4041769D01*
X4678361Y-4053181D01*
X4675792Y-4062768D01*
X4674950Y-4065911D01*
X4000050Y-4065911D01*
X4000050Y-4053411D01*
X3997869Y-4045273D01*
X3997895Y-4044184D01*
X3997496Y-4043171D01*
X3997977Y-4040753D01*
X3998036Y-4038288D01*
X3998682Y-4037206D01*
X3998859Y-4036318D01*
X4000922Y-4033455D01*
X4011012Y-4022995D01*
X4011208Y-4022798D01*
X4034724Y-3999561D01*
X4034926Y-3999367D01*
X4043904Y-3990911D01*
X4050134Y-3987748D01*
X4055614Y-3987961D01*
X4063411Y-3990050D01*
X4063411Y-3990050D01*
X4076589Y-3990050D01*
X4076589Y-3990050D01*
X4089319Y-3986639D01*
X4100731Y-3980050D01*
X4110050Y-3970731D01*
X4116639Y-3959319D01*
X4120050Y-3946589D01*
X4120050Y-3933411D01*
X4120029Y-3933334D01*
X4120031Y-3933267D01*
X4119944Y-3932605D01*
X4120047Y-3932592D01*
X4120073Y-3931510D01*
X4119890Y-3930811D01*
X4649950Y-3930811D01*
X4649950Y-3943989D01*
X4650647Y-3946589D01*
X4653361Y-3956719D01*
X4656015Y-3961315D01*
X4659950Y-3968131D01*
X4669269Y-3977450D01*
X4680681Y-3984039D01*
X4693411Y-3987450D01*
X4693411Y-3987450D01*
X4706589Y-3987450D01*
X4706589Y-3987450D01*
X4719319Y-3984039D01*
X4730731Y-3977450D01*
X4740050Y-3968131D01*
X4746639Y-3956719D01*
X4750050Y-3943989D01*
X4750050Y-3930811D01*
X4746639Y-3918081D01*
X4740050Y-3906669D01*
X4730731Y-3897350D01*
X4723822Y-3893361D01*
X4719319Y-3890761D01*
X4710200Y-3888317D01*
X4706589Y-3887350D01*
X4693411Y-3887350D01*
X4680681Y-3890761D01*
X4669269Y-3897350D01*
X4669268Y-3897350D01*
X4659950Y-3906668D01*
X4659950Y-3906669D01*
X4653361Y-3918081D01*
X4651502Y-3925020D01*
X4649950Y-3930811D01*
X4119890Y-3930811D01*
X4119612Y-3929744D01*
X4119954Y-3928699D01*
X4119887Y-3928233D01*
X4120165Y-3927626D01*
X4120195Y-3926349D01*
X4121218Y-3924838D01*
X4121785Y-3923104D01*
X4122667Y-3922147D01*
X4122790Y-3921878D01*
X4123970Y-3920733D01*
X4124066Y-3920629D01*
X4124111Y-3920563D01*
X4124177Y-3920508D01*
X4124332Y-3920382D01*
X4133686Y-3912764D01*
X4134976Y-3911713D01*
X4135205Y-3911532D01*
X4161324Y-3891281D01*
X4161561Y-3891103D01*
X4163123Y-3889950D01*
X4188153Y-3871488D01*
X4188387Y-3871320D01*
X4215449Y-3852344D01*
X4215682Y-3852185D01*
X4243193Y-3833862D01*
X4243433Y-3833707D01*
X4271374Y-3816050D01*
X4271617Y-3815900D01*
X4299971Y-3798920D01*
X4300225Y-3798772D01*
X4328974Y-3782478D01*
X4329224Y-3782341D01*
X4332483Y-3780596D01*
X4339321Y-3779167D01*
X4341544Y-3779550D01*
X4343411Y-3780050D01*
X4343411Y-3780050D01*
X4356589Y-3780050D01*
X4356589Y-3780050D01*
X4369319Y-3776639D01*
X4380731Y-3770050D01*
X4390050Y-3760731D01*
X4396034Y-3750366D01*
X4397466Y-3749001D01*
X4398510Y-3747320D01*
X4400880Y-3745746D01*
X4401091Y-3745545D01*
X4401446Y-3745369D01*
X4418229Y-3737393D01*
X4418494Y-3737271D01*
X4448673Y-3723805D01*
X4448940Y-3723690D01*
X4479436Y-3710951D01*
X4479701Y-3710844D01*
X4510497Y-3698838D01*
X4510762Y-3698739D01*
X4541832Y-3687477D01*
X4542109Y-3687380D01*
X4573444Y-3676865D01*
X4573716Y-3676778D01*
X4605291Y-3667019D01*
X4605569Y-3666936D01*
X4637368Y-3657937D01*
X4637653Y-3657860D01*
X4668158Y-3650012D01*
X4675141Y-3650248D01*
X4680888Y-3654222D01*
X4683225Y-3658811D01*
X4683361Y-3659318D01*
X4686146Y-3664142D01*
X4689950Y-3670731D01*
X4699269Y-3680050D01*
X4710681Y-3686639D01*
X4723411Y-3690050D01*
X4723411Y-3690050D01*
X4736589Y-3690050D01*
X4736589Y-3690050D01*
X4749319Y-3686639D01*
X4749319Y-3686639D01*
X4749593Y-3686565D01*
X4756578Y-3686732D01*
X4762364Y-3690648D01*
X4765115Y-3697071D01*
X4764892Y-3701302D01*
X4762969Y-3709726D01*
X4762969Y-3709728D01*
X4759950Y-3736519D01*
X4759950Y-3763481D01*
X4762969Y-3790272D01*
X4762969Y-3790273D01*
X4768968Y-3816559D01*
X4768969Y-3816560D01*
X4777873Y-3842008D01*
X4789571Y-3866299D01*
X4789572Y-3866300D01*
X4803916Y-3889129D01*
X4812546Y-3899950D01*
X4819977Y-3909269D01*
X4820727Y-3910208D01*
X4839792Y-3929273D01*
X4860871Y-3946084D01*
X4883700Y-3960428D01*
X4907992Y-3972127D01*
X4923204Y-3977450D01*
X4933440Y-3981031D01*
X4933441Y-3981031D01*
X4933441Y-3981031D01*
X4933441Y-3981032D01*
X4959727Y-3987031D01*
X4986519Y-3990050D01*
X4986519Y-3990050D01*
X4986519Y-3990050D01*
X5013481Y-3990050D01*
X5013481Y-3990050D01*
X5040273Y-3987031D01*
X5066559Y-3981032D01*
X5092008Y-3972127D01*
X5116300Y-3960428D01*
X5139129Y-3946084D01*
X5153524Y-3934604D01*
X5159992Y-3931963D01*
X5166862Y-3933239D01*
X5171951Y-3938026D01*
X5171994Y-3938099D01*
X5178381Y-3949162D01*
X5178381Y-3949162D01*
X5178381Y-3949163D01*
X5187700Y-3958481D01*
X5199113Y-3965070D01*
X5211842Y-3968481D01*
X5211842Y-3968481D01*
X5225020Y-3968481D01*
X5225021Y-3968481D01*
X5237750Y-3965070D01*
X5246335Y-3960114D01*
X5248505Y-3959587D01*
X5250517Y-3958618D01*
X5251835Y-3958779D01*
X5253125Y-3958466D01*
X5255235Y-3959197D01*
X5257452Y-3959469D01*
X5258938Y-3960478D01*
X5259727Y-3960752D01*
X5260460Y-3961315D01*
X5260899Y-3961680D01*
X5269269Y-3970050D01*
X5274847Y-3973271D01*
X5275659Y-3973945D01*
X5277043Y-3976004D01*
X5278755Y-3977800D01*
X5278958Y-3978853D01*
X5279557Y-3979743D01*
X5279608Y-3982224D01*
X5280078Y-3984661D01*
X5279684Y-3985892D01*
X5279701Y-3986729D01*
X5279107Y-3987696D01*
X5278473Y-3989682D01*
X5277461Y-3991434D01*
X5277461Y-3991434D01*
X5277461Y-3991434D01*
X5277461Y-3991435D01*
X5275082Y-4000312D01*
X5274050Y-4004164D01*
X5274050Y-4004457D01*
X5273980Y-4004695D01*
X5273944Y-4004970D01*
X5273901Y-4004964D01*
X5272081Y-4011161D01*
X5266801Y-4015736D01*
X5259885Y-4016731D01*
X5258441Y-4016434D01*
X5252901Y-4014950D01*
X5252901Y-4014950D01*
X5239723Y-4014950D01*
X5226993Y-4018361D01*
X5215580Y-4024950D01*
X5215580Y-4024950D01*
X5206262Y-4034268D01*
X5206262Y-4034269D01*
X5199673Y-4045681D01*
X5196262Y-4058411D01*
X5196262Y-4071589D01*
X5199673Y-4084319D01*
X5201925Y-4088220D01*
X5206262Y-4095731D01*
X5215580Y-4105050D01*
X5224924Y-4110445D01*
X5226971Y-4111627D01*
X5226993Y-4111639D01*
X5239723Y-4115050D01*
X5239723Y-4115050D01*
X5252901Y-4115050D01*
X5252901Y-4115050D01*
X5265630Y-4111639D01*
X5266756Y-4110989D01*
X5273546Y-4109342D01*
X5280149Y-4111627D01*
X5284468Y-4117119D01*
X5285357Y-4121728D01*
X5285357Y-4134859D01*
X5288767Y-4147589D01*
X5291567Y-4152437D01*
X5295357Y-4159001D01*
X5304675Y-4168320D01*
X5314559Y-4174026D01*
X5316078Y-4174903D01*
X5316088Y-4174909D01*
X5328817Y-4178320D01*
X5328818Y-4178320D01*
X5341996Y-4178320D01*
X5341996Y-4178320D01*
X5354725Y-4174909D01*
X5366138Y-4168320D01*
X5375457Y-4159001D01*
X5375699Y-4158581D01*
X5380756Y-4153759D01*
X5387617Y-4152437D01*
X5394103Y-4155033D01*
X5397177Y-4158580D01*
X5401844Y-4166665D01*
X5411163Y-4175983D01*
X5422576Y-4182572D01*
X5435305Y-4185983D01*
X5435305Y-4185983D01*
X5448483Y-4185983D01*
X5448484Y-4185983D01*
X5461213Y-4182572D01*
X5472626Y-4175983D01*
X5481944Y-4166665D01*
X5488534Y-4155252D01*
X5491944Y-4142522D01*
X5491944Y-4129344D01*
X5488534Y-4116615D01*
X5486529Y-4113143D01*
X5779950Y-4113143D01*
X5779950Y-4126322D01*
X5780760Y-4129344D01*
X5783361Y-4139051D01*
X5785365Y-4142522D01*
X5789950Y-4150464D01*
X5799269Y-4159782D01*
X5810681Y-4166372D01*
X5823411Y-4169782D01*
X5823411Y-4169782D01*
X5836589Y-4169782D01*
X5836589Y-4169782D01*
X5849319Y-4166372D01*
X5860731Y-4159782D01*
X5870050Y-4150464D01*
X5876639Y-4139051D01*
X5880050Y-4126322D01*
X5880050Y-4113143D01*
X5876639Y-4100414D01*
X5876429Y-4100050D01*
X5875068Y-4097693D01*
X5870050Y-4089001D01*
X5860731Y-4079682D01*
X5854070Y-4075837D01*
X5849319Y-4073093D01*
X5842954Y-4071388D01*
X5836589Y-4069682D01*
X5823411Y-4069682D01*
X5810681Y-4073093D01*
X5799269Y-4079682D01*
X5799268Y-4079683D01*
X5789950Y-4089001D01*
X5789950Y-4089001D01*
X5783361Y-4100414D01*
X5780891Y-4109630D01*
X5779950Y-4113143D01*
X5486529Y-4113143D01*
X5481944Y-4105202D01*
X5472626Y-4095883D01*
X5465586Y-4091819D01*
X5461213Y-4089294D01*
X5454848Y-4087589D01*
X5448484Y-4085883D01*
X5435305Y-4085883D01*
X5422576Y-4089294D01*
X5411163Y-4095883D01*
X5411163Y-4095883D01*
X5401845Y-4105202D01*
X5401844Y-4105202D01*
X5401601Y-4105623D01*
X5396544Y-4110445D01*
X5389683Y-4111766D01*
X5383197Y-4109169D01*
X5380124Y-4105623D01*
X5377645Y-4101329D01*
X5375457Y-4097538D01*
X5366138Y-4088220D01*
X5360432Y-4084925D01*
X5354725Y-4081631D01*
X5348453Y-4079950D01*
X5347244Y-4079626D01*
X5341278Y-4075990D01*
X5338226Y-4069705D01*
X5339055Y-4062768D01*
X5343504Y-4057380D01*
X5344254Y-4056910D01*
X5345634Y-4056113D01*
X5354831Y-4050803D01*
X5364150Y-4041485D01*
X5370739Y-4030072D01*
X5374150Y-4017342D01*
X5374150Y-4004164D01*
X5370739Y-3991435D01*
X5364150Y-3980022D01*
X5354831Y-3970703D01*
X5353540Y-3969958D01*
X5350166Y-3968010D01*
X5345345Y-3962953D01*
X5344022Y-3956092D01*
X5345628Y-3951071D01*
X5346639Y-3949319D01*
X5350050Y-3936589D01*
X5350050Y-3923411D01*
X5346639Y-3910681D01*
X5340050Y-3899269D01*
X5330731Y-3889950D01*
X5324490Y-3886347D01*
X5319319Y-3883361D01*
X5312954Y-3881655D01*
X5306589Y-3879950D01*
X5293411Y-3879950D01*
X5280681Y-3883361D01*
X5272096Y-3888317D01*
X5265306Y-3889964D01*
X5258703Y-3887679D01*
X5257128Y-3886347D01*
X5249163Y-3878381D01*
X5249163Y-3878381D01*
X5243456Y-3875087D01*
X5237750Y-3871792D01*
X5233067Y-3870537D01*
X5225664Y-3868554D01*
X5219698Y-3864917D01*
X5216646Y-3858633D01*
X5217475Y-3851695D01*
X5217701Y-3851198D01*
X5222127Y-3842008D01*
X5231032Y-3816559D01*
X5237031Y-3790273D01*
X5240050Y-3763481D01*
X5240050Y-3736519D01*
X5237031Y-3709727D01*
X5231032Y-3683441D01*
X5222127Y-3657992D01*
X5216630Y-3646577D01*
X5215494Y-3639683D01*
X5218267Y-3633270D01*
X5224066Y-3629373D01*
X5229726Y-3628947D01*
X5232134Y-3629326D01*
G37*
%TD.AperFunction*%
%TD*%
M02*
