%TF.GenerationSoftware,KiCad,Pcbnew,9.0.7*%
%TF.CreationDate,2026-03-06T19:20:16+01:00*%
%TF.ProjectId,movement-tracker,6d6f7665-6d65-46e7-942d-747261636b65,rev?*%
%TF.SameCoordinates,Original*%
%TF.FileFunction,Paste,Top*%
%TF.FilePolarity,Positive*%
%FSLAX45Y45*%
G04 Gerber Fmt 4.5, Leading zero omitted, Abs format (unit mm)*
G04 Created by KiCad (PCBNEW 9.0.7) date 2026-03-06 19:20:16*
%MOMM*%
%LPD*%
G01*
G04 APERTURE LIST*
G04 Aperture macros list*
%AMRoundRect*
0 Rectangle with rounded corners*
0 $1 Rounding radius*
0 $2 $3 $4 $5 $6 $7 $8 $9 X,Y pos of 4 corners*
0 Add a 4 corners polygon primitive as box body*
4,1,4,$2,$3,$4,$5,$6,$7,$8,$9,$2,$3,0*
0 Add four circle primitives for the rounded corners*
1,1,$1+$1,$2,$3*
1,1,$1+$1,$4,$5*
1,1,$1+$1,$6,$7*
1,1,$1+$1,$8,$9*
0 Add four rect primitives between the rounded corners*
20,1,$1+$1,$2,$3,$4,$5,0*
20,1,$1+$1,$4,$5,$6,$7,0*
20,1,$1+$1,$6,$7,$8,$9,0*
20,1,$1+$1,$8,$9,$2,$3,0*%
%AMRotRect*
0 Rectangle, with rotation*
0 The origin of the aperture is its center*
0 $1 length*
0 $2 width*
0 $3 Rotation angle, in degrees counterclockwise*
0 Add horizontal line*
21,1,$1,$2,0,0,$3*%
G04 Aperture macros list end*
%ADD10RoundRect,0.200000X0.275000X-0.200000X0.275000X0.200000X-0.275000X0.200000X-0.275000X-0.200000X0*%
%ADD11RoundRect,0.150000X-0.150000X0.587500X-0.150000X-0.587500X0.150000X-0.587500X0.150000X0.587500X0*%
%ADD12RoundRect,0.150000X-0.150000X0.512500X-0.150000X-0.512500X0.150000X-0.512500X0.150000X0.512500X0*%
%ADD13RoundRect,0.150000X0.200000X-0.150000X0.200000X0.150000X-0.200000X0.150000X-0.200000X-0.150000X0*%
%ADD14RoundRect,0.062500X-0.375000X-0.062500X0.375000X-0.062500X0.375000X0.062500X-0.375000X0.062500X0*%
%ADD15RoundRect,0.062500X-0.062500X-0.375000X0.062500X-0.375000X0.062500X0.375000X-0.062500X0.375000X0*%
%ADD16RoundRect,0.150000X-0.200000X0.150000X-0.200000X-0.150000X0.200000X-0.150000X0.200000X0.150000X0*%
%ADD17RotRect,0.900000X1.000000X155.000000*%
%ADD18RotRect,1.700000X0.550000X155.000000*%
%ADD19RoundRect,0.200000X-0.275000X0.200000X-0.275000X-0.200000X0.275000X-0.200000X0.275000X0.200000X0*%
%ADD20RoundRect,0.150000X0.150000X-0.512500X0.150000X0.512500X-0.150000X0.512500X-0.150000X-0.512500X0*%
%ADD21RoundRect,0.225000X-0.225000X-0.250000X0.225000X-0.250000X0.225000X0.250000X-0.225000X0.250000X0*%
%ADD22RoundRect,0.225000X0.250000X-0.225000X0.250000X0.225000X-0.250000X0.225000X-0.250000X-0.225000X0*%
%ADD23RoundRect,0.200000X0.200000X0.275000X-0.200000X0.275000X-0.200000X-0.275000X0.200000X-0.275000X0*%
%ADD24RoundRect,0.087500X-0.087500X0.225000X-0.087500X-0.225000X0.087500X-0.225000X0.087500X0.225000X0*%
%ADD25RoundRect,0.087500X-0.225000X0.087500X-0.225000X-0.087500X0.225000X-0.087500X0.225000X0.087500X0*%
%ADD26RoundRect,0.243750X0.073003X0.512102X-0.385097X0.345367X-0.073003X-0.512102X0.385097X-0.345367X0*%
%ADD27RoundRect,0.243750X0.243750X0.456250X-0.243750X0.456250X-0.243750X-0.456250X0.243750X-0.456250X0*%
%ADD28RoundRect,0.250000X-0.850000X-0.550000X0.850000X-0.550000X0.850000X0.550000X-0.850000X0.550000X0*%
%ADD29RoundRect,0.200000X-0.310705X-0.138157X0.035705X-0.338157X0.310705X0.138157X-0.035705X0.338157X0*%
%ADD30RoundRect,0.225000X-0.250000X0.225000X-0.250000X-0.225000X0.250000X-0.225000X0.250000X0.225000X0*%
%ADD31R,1.500000X3.000000*%
%ADD32RoundRect,0.150000X-0.150000X0.825000X-0.150000X-0.825000X0.150000X-0.825000X0.150000X0.825000X0*%
%ADD33RotRect,0.600000X1.700000X245.000000*%
%ADD34RoundRect,0.150000X0.150000X0.200000X-0.150000X0.200000X-0.150000X-0.200000X0.150000X-0.200000X0*%
%ADD35RoundRect,0.200000X-0.200000X-0.275000X0.200000X-0.275000X0.200000X0.275000X-0.200000X0.275000X0*%
%ADD36RoundRect,0.225000X0.225000X0.250000X-0.225000X0.250000X-0.225000X-0.250000X0.225000X-0.250000X0*%
%ADD37RoundRect,0.243750X0.491645X-0.160820X0.406992X0.319274X-0.491645X0.160820X-0.406992X-0.319274X0*%
%ADD38R,0.850000X0.300000*%
G04 APERTURE END LIST*
D10*
%TO.C,R10*%
X4925000Y-5482500D03*
X4925000Y-5317500D03*
%TD*%
D11*
%TO.C,Q1*%
X4395000Y-5981250D03*
X4205000Y-5981250D03*
X4300000Y-6168750D03*
%TD*%
D10*
%TO.C,R2*%
X4080000Y-5332500D03*
X4080000Y-5167500D03*
%TD*%
D12*
%TO.C,U1*%
X5770000Y-5736250D03*
X5675000Y-5736250D03*
X5580000Y-5736250D03*
X5580000Y-5963750D03*
X5770000Y-5963750D03*
%TD*%
D13*
%TO.C,D6*%
X4050000Y-5915000D03*
X4050000Y-6055000D03*
%TD*%
D14*
%TO.C,U3*%
X4756250Y-4150000D03*
X4756250Y-4200000D03*
X4756250Y-4250000D03*
X4756250Y-4300000D03*
X4756250Y-4350000D03*
X4756250Y-4400000D03*
X4756250Y-4450000D03*
X4756250Y-4500000D03*
D15*
X4825000Y-4568750D03*
X4875000Y-4568750D03*
X4925000Y-4568750D03*
X4975000Y-4568750D03*
X5025000Y-4568750D03*
X5075000Y-4568750D03*
X5125000Y-4568750D03*
X5175000Y-4568750D03*
D14*
X5243750Y-4500000D03*
X5243750Y-4450000D03*
X5243750Y-4400000D03*
X5243750Y-4350000D03*
X5243750Y-4300000D03*
X5243750Y-4250000D03*
X5243750Y-4200000D03*
X5243750Y-4150000D03*
D15*
X5175000Y-4081250D03*
X5125000Y-4081250D03*
X5075000Y-4081250D03*
X5025000Y-4081250D03*
X4975000Y-4081250D03*
X4925000Y-4081250D03*
X4875000Y-4081250D03*
X4825000Y-4081250D03*
%TD*%
D16*
%TO.C,D4*%
X4440000Y-4520000D03*
X4440000Y-4380000D03*
%TD*%
D17*
%TO.C,SW1*%
X5330397Y-3795868D03*
X5398016Y-3650859D03*
X5769603Y-3824132D03*
X5701984Y-3969141D03*
D18*
X5489777Y-3939149D03*
%TD*%
D13*
%TO.C,D1*%
X5223000Y-5380000D03*
X5223000Y-5520000D03*
%TD*%
D19*
%TO.C,R6*%
X4775000Y-5317500D03*
X4775000Y-5482500D03*
%TD*%
D20*
%TO.C,U6*%
X5580000Y-4713750D03*
X5675000Y-4713750D03*
X5770000Y-4713750D03*
X5770000Y-4486250D03*
X5675000Y-4486250D03*
X5580000Y-4486250D03*
%TD*%
D21*
%TO.C,C6*%
X4362500Y-4700000D03*
X4517500Y-4700000D03*
%TD*%
D22*
%TO.C,C26*%
X4775000Y-5177500D03*
X4775000Y-5022500D03*
%TD*%
D23*
%TO.C,R4*%
X6182500Y-4310000D03*
X6017500Y-4310000D03*
%TD*%
D24*
%TO.C,U5*%
X5075000Y-4883750D03*
X5025000Y-4883750D03*
X4975000Y-4883750D03*
X4925000Y-4883750D03*
D25*
X4908750Y-4950000D03*
X4908750Y-5000000D03*
X4908750Y-5050000D03*
D24*
X4925000Y-5116250D03*
X4975000Y-5116250D03*
X5025000Y-5116250D03*
X5075000Y-5116250D03*
D25*
X5091250Y-5050000D03*
X5091250Y-5000000D03*
X5091250Y-4950000D03*
%TD*%
D26*
%TO.C,D5*%
X4638096Y-3667936D03*
X4461904Y-3732064D03*
%TD*%
D27*
%TO.C,F1*%
X5768750Y-5100000D03*
X5581250Y-5100000D03*
%TD*%
D28*
%TO.C,C1*%
X5430000Y-5400000D03*
X5730000Y-5400000D03*
%TD*%
D29*
%TO.C,R5*%
X5408553Y-4038750D03*
X5551447Y-4121250D03*
%TD*%
D30*
%TO.C,C3*%
X4590000Y-4372500D03*
X4590000Y-4527500D03*
%TD*%
D29*
%TO.C,R9*%
X5688553Y-4188750D03*
X5831447Y-4271250D03*
%TD*%
D22*
%TO.C,C8*%
X4590000Y-4227500D03*
X4590000Y-4072500D03*
%TD*%
D31*
%TO.C,J4*%
X4682500Y-5750000D03*
X4809500Y-6200000D03*
X4936500Y-5750000D03*
X5063500Y-6200000D03*
X5190500Y-5750000D03*
X5317500Y-6200000D03*
%TD*%
D32*
%TO.C,U2*%
X4615500Y-4902500D03*
X4488500Y-4902500D03*
X4361500Y-4902500D03*
X4234500Y-4902500D03*
X4234500Y-5397500D03*
X4361500Y-5397500D03*
X4488500Y-5397500D03*
X4615500Y-5397500D03*
%TD*%
D10*
%TO.C,R11*%
X5075000Y-5482500D03*
X5075000Y-5317500D03*
%TD*%
D21*
%TO.C,C10*%
X5272500Y-4725000D03*
X5427500Y-4725000D03*
%TD*%
D33*
%TO.C,J2*%
X3910249Y-4159608D03*
X4203322Y-4406607D03*
X3825726Y-4340870D03*
X4118798Y-4587869D03*
X3741202Y-4522131D03*
X4034274Y-4769131D03*
X3656678Y-4703393D03*
X3949750Y-4950392D03*
%TD*%
D34*
%TO.C,D2*%
X5230000Y-5200000D03*
X5370000Y-5200000D03*
%TD*%
D35*
%TO.C,R7*%
X4242500Y-5800000D03*
X4407500Y-5800000D03*
%TD*%
D22*
%TO.C,C23*%
X4775000Y-4877500D03*
X4775000Y-4722500D03*
%TD*%
D23*
%TO.C,R3*%
X5757500Y-4925000D03*
X5592500Y-4925000D03*
%TD*%
%TO.C,R8*%
X4407500Y-5600000D03*
X4242500Y-5600000D03*
%TD*%
D36*
%TO.C,C7*%
X5752500Y-6150000D03*
X5597500Y-6150000D03*
%TD*%
D37*
%TO.C,D3*%
X3666279Y-5372326D03*
X3633720Y-5187674D03*
%TD*%
D30*
%TO.C,C9*%
X5425000Y-4397500D03*
X5425000Y-4552500D03*
%TD*%
D21*
%TO.C,C11*%
X5952500Y-4140000D03*
X6107500Y-4140000D03*
%TD*%
D10*
%TO.C,R1*%
X4440000Y-4242500D03*
X4440000Y-4077500D03*
%TD*%
D38*
%TO.C,J1*%
X6067000Y-5165000D03*
X6067000Y-5115000D03*
X6067000Y-5065000D03*
X6067000Y-5015000D03*
X6067000Y-4965000D03*
X6067000Y-4915000D03*
X6067000Y-4865000D03*
X6067000Y-4815000D03*
X6067000Y-4765000D03*
X6067000Y-4715000D03*
X6067000Y-4665000D03*
X6067000Y-4615000D03*
X6233000Y-4615000D03*
X6233000Y-4665000D03*
X6233000Y-4715000D03*
X6233000Y-4765000D03*
X6233000Y-4815000D03*
X6233000Y-4865000D03*
X6233000Y-4915000D03*
X6233000Y-4965000D03*
X6233000Y-5015000D03*
X6233000Y-5065000D03*
X6233000Y-5115000D03*
X6233000Y-5165000D03*
%TD*%
M02*
