%TF.GenerationSoftware,KiCad,Pcbnew,9.0.7*%
%TF.CreationDate,2026-03-06T19:20:15+01:00*%
%TF.ProjectId,movement-tracker,6d6f7665-6d65-46e7-942d-747261636b65,rev?*%
%TF.SameCoordinates,Original*%
%TF.FileFunction,Copper,L1,Top*%
%TF.FilePolarity,Positive*%
%FSLAX45Y45*%
G04 Gerber Fmt 4.5, Leading zero omitted, Abs format (unit mm)*
G04 Created by KiCad (PCBNEW 9.0.7) date 2026-03-06 19:20:15*
%MOMM*%
%LPD*%
G01*
G04 APERTURE LIST*
G04 Aperture macros list*
%AMRoundRect*
0 Rectangle with rounded corners*
0 $1 Rounding radius*
0 $2 $3 $4 $5 $6 $7 $8 $9 X,Y pos of 4 corners*
0 Add a 4 corners polygon primitive as box body*
4,1,4,$2,$3,$4,$5,$6,$7,$8,$9,$2,$3,0*
0 Add four circle primitives for the rounded corners*
1,1,$1+$1,$2,$3*
1,1,$1+$1,$4,$5*
1,1,$1+$1,$6,$7*
1,1,$1+$1,$8,$9*
0 Add four rect primitives between the rounded corners*
20,1,$1+$1,$2,$3,$4,$5,0*
20,1,$1+$1,$4,$5,$6,$7,0*
20,1,$1+$1,$6,$7,$8,$9,0*
20,1,$1+$1,$8,$9,$2,$3,0*%
%AMRotRect*
0 Rectangle, with rotation*
0 The origin of the aperture is its center*
0 $1 length*
0 $2 width*
0 $3 Rotation angle, in degrees counterclockwise*
0 Add horizontal line*
21,1,$1,$2,0,0,$3*%
%AMFreePoly0*
4,1,23,0.500000,-0.750000,0.000000,-0.750000,0.000000,-0.745722,-0.065263,-0.745722,-0.191342,-0.711940,-0.304382,-0.646677,-0.396677,-0.554381,-0.461940,-0.441342,-0.495722,-0.315263,-0.495722,-0.249999,-0.500000,-0.250000,-0.500000,0.250000,-0.495722,0.250000,-0.495722,0.315263,-0.461940,0.441341,-0.396677,0.554381,-0.304381,0.646677,-0.191342,0.711940,-0.065263,0.745722,0.000000,0.745722,
0.000000,0.750000,0.500000,0.750000,0.500000,-0.750000,0.500000,-0.750000,$1*%
%AMFreePoly1*
4,1,23,0.000000,0.745722,0.065263,0.745722,0.191342,0.711940,0.304382,0.646677,0.396677,0.554381,0.461940,0.441342,0.495722,0.315263,0.495722,0.249999,0.500000,0.250000,0.500000,-0.250000,0.495722,-0.250000,0.495722,-0.315263,0.461940,-0.441341,0.396677,-0.554381,0.304381,-0.646677,0.191342,-0.711940,0.065263,-0.745722,0.000000,-0.745722,0.000000,-0.750000,-0.500000,-0.750000,
-0.500000,0.750000,0.000000,0.750000,0.000000,0.745722,0.000000,0.745722,$1*%
G04 Aperture macros list end*
%TA.AperFunction,ComponentPad*%
%ADD10C,0.700000*%
%TD*%
%TA.AperFunction,ComponentPad*%
%ADD11C,4.400000*%
%TD*%
%TA.AperFunction,SMDPad,CuDef*%
%ADD12RoundRect,0.200000X0.275000X-0.200000X0.275000X0.200000X-0.275000X0.200000X-0.275000X-0.200000X0*%
%TD*%
%TA.AperFunction,SMDPad,CuDef*%
%ADD13RoundRect,0.150000X-0.150000X0.587500X-0.150000X-0.587500X0.150000X-0.587500X0.150000X0.587500X0*%
%TD*%
%TA.AperFunction,SMDPad,CuDef*%
%ADD14RoundRect,0.150000X-0.150000X0.512500X-0.150000X-0.512500X0.150000X-0.512500X0.150000X0.512500X0*%
%TD*%
%TA.AperFunction,SMDPad,CuDef*%
%ADD15RoundRect,0.150000X0.200000X-0.150000X0.200000X0.150000X-0.200000X0.150000X-0.200000X-0.150000X0*%
%TD*%
%TA.AperFunction,SMDPad,CuDef*%
%ADD16RoundRect,0.062500X-0.375000X-0.062500X0.375000X-0.062500X0.375000X0.062500X-0.375000X0.062500X0*%
%TD*%
%TA.AperFunction,SMDPad,CuDef*%
%ADD17RoundRect,0.062500X-0.062500X-0.375000X0.062500X-0.375000X0.062500X0.375000X-0.062500X0.375000X0*%
%TD*%
%TA.AperFunction,SMDPad,CuDef*%
%ADD18RoundRect,0.150000X-0.200000X0.150000X-0.200000X-0.150000X0.200000X-0.150000X0.200000X0.150000X0*%
%TD*%
%TA.AperFunction,SMDPad,CuDef*%
%ADD19RotRect,0.900000X1.000000X155.000000*%
%TD*%
%TA.AperFunction,SMDPad,CuDef*%
%ADD20RotRect,1.700000X0.550000X155.000000*%
%TD*%
%TA.AperFunction,SMDPad,CuDef*%
%ADD21RoundRect,0.200000X-0.275000X0.200000X-0.275000X-0.200000X0.275000X-0.200000X0.275000X0.200000X0*%
%TD*%
%TA.AperFunction,SMDPad,CuDef*%
%ADD22RoundRect,0.150000X0.150000X-0.512500X0.150000X0.512500X-0.150000X0.512500X-0.150000X-0.512500X0*%
%TD*%
%TA.AperFunction,SMDPad,CuDef*%
%ADD23RoundRect,0.225000X-0.225000X-0.250000X0.225000X-0.250000X0.225000X0.250000X-0.225000X0.250000X0*%
%TD*%
%TA.AperFunction,SMDPad,CuDef*%
%ADD24RoundRect,0.225000X0.250000X-0.225000X0.250000X0.225000X-0.250000X0.225000X-0.250000X-0.225000X0*%
%TD*%
%TA.AperFunction,SMDPad,CuDef*%
%ADD25RoundRect,0.200000X0.200000X0.275000X-0.200000X0.275000X-0.200000X-0.275000X0.200000X-0.275000X0*%
%TD*%
%TA.AperFunction,SMDPad,CuDef*%
%ADD26FreePoly0,35.000000*%
%TD*%
%TA.AperFunction,SMDPad,CuDef*%
%ADD27FreePoly1,35.000000*%
%TD*%
%TA.AperFunction,SMDPad,CuDef*%
%ADD28RoundRect,0.087500X-0.087500X0.225000X-0.087500X-0.225000X0.087500X-0.225000X0.087500X0.225000X0*%
%TD*%
%TA.AperFunction,SMDPad,CuDef*%
%ADD29RoundRect,0.087500X-0.225000X0.087500X-0.225000X-0.087500X0.225000X-0.087500X0.225000X0.087500X0*%
%TD*%
%TA.AperFunction,SMDPad,CuDef*%
%ADD30RoundRect,0.243750X0.073003X0.512102X-0.385097X0.345367X-0.073003X-0.512102X0.385097X-0.345367X0*%
%TD*%
%TA.AperFunction,SMDPad,CuDef*%
%ADD31RoundRect,0.243750X0.243750X0.456250X-0.243750X0.456250X-0.243750X-0.456250X0.243750X-0.456250X0*%
%TD*%
%TA.AperFunction,SMDPad,CuDef*%
%ADD32RoundRect,0.250000X-0.850000X-0.550000X0.850000X-0.550000X0.850000X0.550000X-0.850000X0.550000X0*%
%TD*%
%TA.AperFunction,SMDPad,CuDef*%
%ADD33RoundRect,0.200000X-0.310705X-0.138157X0.035705X-0.338157X0.310705X0.138157X-0.035705X0.338157X0*%
%TD*%
%TA.AperFunction,SMDPad,CuDef*%
%ADD34RoundRect,0.225000X-0.250000X0.225000X-0.250000X-0.225000X0.250000X-0.225000X0.250000X0.225000X0*%
%TD*%
%TA.AperFunction,SMDPad,CuDef*%
%ADD35R,1.500000X3.000000*%
%TD*%
%TA.AperFunction,SMDPad,CuDef*%
%ADD36RoundRect,0.150000X-0.150000X0.825000X-0.150000X-0.825000X0.150000X-0.825000X0.150000X0.825000X0*%
%TD*%
%TA.AperFunction,SMDPad,CuDef*%
%ADD37RotRect,0.600000X1.700000X245.000000*%
%TD*%
%TA.AperFunction,SMDPad,CuDef*%
%ADD38RoundRect,0.150000X0.150000X0.200000X-0.150000X0.200000X-0.150000X-0.200000X0.150000X-0.200000X0*%
%TD*%
%TA.AperFunction,SMDPad,CuDef*%
%ADD39RoundRect,0.200000X-0.200000X-0.275000X0.200000X-0.275000X0.200000X0.275000X-0.200000X0.275000X0*%
%TD*%
%TA.AperFunction,SMDPad,CuDef*%
%ADD40RoundRect,0.225000X0.225000X0.250000X-0.225000X0.250000X-0.225000X-0.250000X0.225000X-0.250000X0*%
%TD*%
%TA.AperFunction,SMDPad,CuDef*%
%ADD41RoundRect,0.243750X0.491645X-0.160820X0.406992X0.319274X-0.491645X0.160820X-0.406992X-0.319274X0*%
%TD*%
%TA.AperFunction,SMDPad,CuDef*%
%ADD42R,0.850000X0.300000*%
%TD*%
%TA.AperFunction,ComponentPad*%
%ADD43C,1.200000*%
%TD*%
%TA.AperFunction,ViaPad*%
%ADD44C,0.600000*%
%TD*%
%TA.AperFunction,Conductor*%
%ADD45C,0.300000*%
%TD*%
%TA.AperFunction,Conductor*%
%ADD46C,0.200000*%
%TD*%
%TA.AperFunction,Conductor*%
%ADD47C,0.500000*%
%TD*%
G04 APERTURE END LIST*
D10*
%TO.P,H2,1,1*%
%TO.N,GND*%
X6247532Y-5625000D03*
X6199204Y-5741673D03*
X6199204Y-5508327D03*
X6082532Y-5790000D03*
D11*
X6082532Y-5625000D03*
D10*
X6082532Y-5460000D03*
X5965859Y-5741673D03*
X5965859Y-5508327D03*
X5917532Y-5625000D03*
%TD*%
D12*
%TO.P,R10,1*%
%TO.N,/SDA*%
X4925000Y-5482500D03*
%TO.P,R10,2*%
%TO.N,+3.3V*%
X4925000Y-5317500D03*
%TD*%
D10*
%TO.P,H1,1,1*%
%TO.N,GND*%
X5165000Y-3750000D03*
X5116673Y-3866673D03*
X5116673Y-3633327D03*
X5000000Y-3915000D03*
D11*
X5000000Y-3750000D03*
D10*
X5000000Y-3585000D03*
X4883327Y-3866673D03*
X4883327Y-3633327D03*
X4835000Y-3750000D03*
%TD*%
D13*
%TO.P,Q1,1,G*%
%TO.N,Net-(JP1-A)*%
X4395000Y-5981250D03*
%TO.P,Q1,2,S*%
%TO.N,GND*%
X4205000Y-5981250D03*
%TO.P,Q1,3,D*%
%TO.N,/~{RST}*%
X4300000Y-6168750D03*
%TD*%
D12*
%TO.P,R2,1*%
%TO.N,GND*%
X4080000Y-5332500D03*
%TO.P,R2,2*%
%TO.N,Net-(D3-K)*%
X4080000Y-5167500D03*
%TD*%
D14*
%TO.P,U1,1,IN*%
%TO.N,+5V*%
X5770000Y-5736250D03*
%TO.P,U1,2,GND*%
%TO.N,GND*%
X5675000Y-5736250D03*
%TO.P,U1,3,EN*%
%TO.N,+5V*%
X5580000Y-5736250D03*
%TO.P,U1,4,NC*%
%TO.N,unconnected-(U1-NC-Pad4)*%
X5580000Y-5963750D03*
%TO.P,U1,5,OUT*%
%TO.N,+3.3V*%
X5770000Y-5963750D03*
%TD*%
D15*
%TO.P,D6,1,K*%
%TO.N,Net-(D6-K)*%
X4050000Y-5915000D03*
%TO.P,D6,2,A*%
%TO.N,/~{RST}*%
X4050000Y-6055000D03*
%TD*%
D16*
%TO.P,U3,1,VDD*%
%TO.N,+3.3V*%
X4756250Y-4150000D03*
%TO.P,U3,2,PF0*%
%TO.N,unconnected-(U3-PF0-Pad2)*%
X4756250Y-4200000D03*
%TO.P,U3,3,PF1*%
%TO.N,unconnected-(U3-PF1-Pad3)*%
X4756250Y-4250000D03*
%TO.P,U3,4,PG10*%
%TO.N,/~{RST}*%
X4756250Y-4300000D03*
%TO.P,U3,5,PA0*%
%TO.N,/~{CS_IMU}*%
X4756250Y-4350000D03*
%TO.P,U3,6,PA1*%
%TO.N,/~{RST_PAA}*%
X4756250Y-4400000D03*
%TO.P,U3,7,PA2*%
%TO.N,/VCP_TX*%
X4756250Y-4450000D03*
%TO.P,U3,8,PA3*%
%TO.N,/VCP_RX*%
X4756250Y-4500000D03*
D17*
%TO.P,U3,9,PA4*%
%TO.N,unconnected-(U3-PA4-Pad9)*%
X4825000Y-4568750D03*
%TO.P,U3,10,PA5*%
%TO.N,/SCK*%
X4875000Y-4568750D03*
%TO.P,U3,11,PA6*%
%TO.N,/MISO*%
X4925000Y-4568750D03*
%TO.P,U3,12,PA7*%
%TO.N,/MOSI*%
X4975000Y-4568750D03*
%TO.P,U3,13,PB0*%
%TO.N,/~{INT_PAA}*%
X5025000Y-4568750D03*
%TO.P,U3,14,VSSA*%
%TO.N,GND*%
X5075000Y-4568750D03*
%TO.P,U3,15,VDDA*%
%TO.N,+3.3V*%
X5125000Y-4568750D03*
%TO.P,U3,16,VSS*%
%TO.N,GND*%
X5175000Y-4568750D03*
D16*
%TO.P,U3,17,VDD*%
%TO.N,+3.3V*%
X5243750Y-4500000D03*
%TO.P,U3,18,PA8*%
%TO.N,/SDA*%
X5243750Y-4450000D03*
%TO.P,U3,19,PA9*%
%TO.N,/SCL*%
X5243750Y-4400000D03*
%TO.P,U3,20,PA10*%
%TO.N,/~{CS_PAA}*%
X5243750Y-4350000D03*
%TO.P,U3,21,PA11*%
%TO.N,/USB_D-*%
X5243750Y-4300000D03*
%TO.P,U3,22,PA12*%
%TO.N,/USB_D+*%
X5243750Y-4250000D03*
%TO.P,U3,23,PA13*%
%TO.N,/SWDIO*%
X5243750Y-4200000D03*
%TO.P,U3,24,PA14*%
%TO.N,/SWCLK*%
X5243750Y-4150000D03*
D17*
%TO.P,U3,25,PA15*%
%TO.N,/~{INT_IMU}*%
X5175000Y-4081250D03*
%TO.P,U3,26,PB3*%
%TO.N,unconnected-(U3-PB3-Pad26)*%
X5125000Y-4081250D03*
%TO.P,U3,27,PB4*%
%TO.N,unconnected-(U3-PB4-Pad27)*%
X5075000Y-4081250D03*
%TO.P,U3,28,PB5*%
%TO.N,/CAN_RX*%
X5025000Y-4081250D03*
%TO.P,U3,29,PB6*%
%TO.N,/CAN_TX*%
X4975000Y-4081250D03*
%TO.P,U3,30,PB7*%
%TO.N,/STATUS*%
X4925000Y-4081250D03*
%TO.P,U3,31,PB8*%
%TO.N,Net-(JP5-B)*%
X4875000Y-4081250D03*
%TO.P,U3,32,VSS*%
%TO.N,GND*%
X4825000Y-4081250D03*
%TD*%
D18*
%TO.P,D4,1,K*%
%TO.N,+5V*%
X4440000Y-4520000D03*
%TO.P,D4,2,A*%
%TO.N,VSTLINK*%
X4440000Y-4380000D03*
%TD*%
D19*
%TO.P,SW1,1,1*%
%TO.N,unconnected-(SW1-Pad1)*%
X5330397Y-3795868D03*
%TO.P,SW1,2,2*%
%TO.N,unconnected-(SW1-Pad2)*%
X5398016Y-3650859D03*
%TO.P,SW1,3,3*%
%TO.N,GND*%
X5769603Y-3824132D03*
%TO.P,SW1,4,4*%
%TO.N,/~{RST}*%
X5701984Y-3969141D03*
D20*
%TO.P,SW1,SH,SH*%
%TO.N,GND*%
X5489777Y-3939149D03*
%TD*%
D15*
%TO.P,D1,1,K*%
%TO.N,+5V*%
X5223000Y-5380000D03*
%TO.P,D1,2,A*%
%TO.N,+5VL*%
X5223000Y-5520000D03*
%TD*%
D21*
%TO.P,R6,1*%
%TO.N,Net-(U2-Rs)*%
X4775000Y-5317500D03*
%TO.P,R6,2*%
%TO.N,GND*%
X4775000Y-5482500D03*
%TD*%
D22*
%TO.P,U6,1*%
%TO.N,/USB_D-*%
X5580000Y-4713750D03*
%TO.P,U6,2*%
%TO.N,GND*%
X5675000Y-4713750D03*
%TO.P,U6,3*%
%TO.N,/USB_D+*%
X5770000Y-4713750D03*
%TO.P,U6,4*%
X5770000Y-4486250D03*
%TO.P,U6,5*%
%TO.N,VBUS*%
X5675000Y-4486250D03*
%TO.P,U6,6*%
%TO.N,/USB_D-*%
X5580000Y-4486250D03*
%TD*%
D23*
%TO.P,C6,1*%
%TO.N,+5V*%
X4362500Y-4700000D03*
%TO.P,C6,2*%
%TO.N,GND*%
X4517500Y-4700000D03*
%TD*%
D24*
%TO.P,C26,1*%
%TO.N,+3.3V*%
X4775000Y-5177500D03*
%TO.P,C26,2*%
%TO.N,GND*%
X4775000Y-5022500D03*
%TD*%
D25*
%TO.P,R4,1*%
%TO.N,Net-(J1-CC2)*%
X6182500Y-4310000D03*
%TO.P,R4,2*%
%TO.N,GND*%
X6017500Y-4310000D03*
%TD*%
D26*
%TO.P,JP5,1,A*%
%TO.N,+3.3V*%
X4171755Y-3887282D03*
D27*
%TO.P,JP5,2,B*%
%TO.N,Net-(JP5-B)*%
X4278245Y-3812717D03*
%TD*%
D10*
%TO.P,H3,1,1*%
%TO.N,GND*%
X4082468Y-5625000D03*
X4034141Y-5741673D03*
X4034141Y-5508327D03*
X3917468Y-5790000D03*
D11*
X3917468Y-5625000D03*
D10*
X3917468Y-5460000D03*
X3800796Y-5741673D03*
X3800796Y-5508327D03*
X3752468Y-5625000D03*
%TD*%
D28*
%TO.P,U5,1,SDO/SA0*%
%TO.N,/MISO*%
X5075000Y-4883750D03*
%TO.P,U5,2,SDX*%
%TO.N,GND*%
X5025000Y-4883750D03*
%TO.P,U5,3,SCX*%
X4975000Y-4883750D03*
%TO.P,U5,4,INT1*%
%TO.N,/~{INT_IMU}*%
X4925000Y-4883750D03*
D29*
%TO.P,U5,5,VDDIO*%
%TO.N,+3.3V*%
X4908750Y-4950000D03*
%TO.P,U5,6,GND*%
%TO.N,GND*%
X4908750Y-5000000D03*
%TO.P,U5,7,GND*%
X4908750Y-5050000D03*
D28*
%TO.P,U5,8,VDD*%
%TO.N,+3.3V*%
X4925000Y-5116250D03*
%TO.P,U5,9,INT2*%
%TO.N,unconnected-(U5-INT2-Pad9)*%
X4975000Y-5116250D03*
%TO.P,U5,10,OCS_Aux*%
%TO.N,unconnected-(U5-OCS_Aux-Pad10)*%
X5025000Y-5116250D03*
%TO.P,U5,11,SDO_Aux*%
%TO.N,unconnected-(U5-SDO_Aux-Pad11)*%
X5075000Y-5116250D03*
D29*
%TO.P,U5,12,CS*%
%TO.N,/~{CS_IMU}*%
X5091250Y-5050000D03*
%TO.P,U5,13,SCL*%
%TO.N,/SCK*%
X5091250Y-5000000D03*
%TO.P,U5,14,SDA*%
%TO.N,/MOSI*%
X5091250Y-4950000D03*
%TD*%
D30*
%TO.P,D5,1,K*%
%TO.N,Net-(D5-K)*%
X4638096Y-3667936D03*
%TO.P,D5,2,A*%
%TO.N,/STATUS*%
X4461904Y-3732064D03*
%TD*%
D31*
%TO.P,F1,1*%
%TO.N,Net-(F1-Pad1)*%
X5768750Y-5100000D03*
%TO.P,F1,2*%
%TO.N,VBUS*%
X5581250Y-5100000D03*
%TD*%
D32*
%TO.P,C1,1*%
%TO.N,+5V*%
X5430000Y-5400000D03*
%TO.P,C1,2*%
%TO.N,GND*%
X5730000Y-5400000D03*
%TD*%
D33*
%TO.P,R5,1*%
%TO.N,Net-(D5-K)*%
X5408553Y-4038750D03*
%TO.P,R5,2*%
%TO.N,GND*%
X5551447Y-4121250D03*
%TD*%
D34*
%TO.P,C3,1*%
%TO.N,+3.3V*%
X4590000Y-4372500D03*
%TO.P,C3,2*%
%TO.N,GND*%
X4590000Y-4527500D03*
%TD*%
D33*
%TO.P,R9,1*%
%TO.N,/~{RST}*%
X5688553Y-4188750D03*
%TO.P,R9,2*%
%TO.N,+3.3V*%
X5831447Y-4271250D03*
%TD*%
D24*
%TO.P,C8,1*%
%TO.N,+3.3V*%
X4590000Y-4227500D03*
%TO.P,C8,2*%
%TO.N,GND*%
X4590000Y-4072500D03*
%TD*%
D35*
%TO.P,J4,1,Pin_1*%
%TO.N,+5VL*%
X4682500Y-5750000D03*
%TO.P,J4,2,Pin_2*%
%TO.N,unconnected-(J4-Pin_2-Pad2)*%
X4809500Y-6200000D03*
%TO.P,J4,3,Pin_3*%
%TO.N,GND*%
X4936500Y-5750000D03*
%TO.P,J4,4,Pin_4*%
%TO.N,/RST*%
X5063500Y-6200000D03*
%TO.P,J4,5,Pin_5*%
%TO.N,Net-(J4-Pin_5)*%
X5190500Y-5750000D03*
%TO.P,J4,6,Pin_6*%
%TO.N,Net-(J4-Pin_6)*%
X5317500Y-6200000D03*
%TD*%
D36*
%TO.P,U2,1,TXD*%
%TO.N,/CAN_TX*%
X4615500Y-4902500D03*
%TO.P,U2,2,VSS*%
%TO.N,GND*%
X4488500Y-4902500D03*
%TO.P,U2,3,VDD*%
%TO.N,+5V*%
X4361500Y-4902500D03*
%TO.P,U2,4,RXD*%
%TO.N,/CAN_RX*%
X4234500Y-4902500D03*
%TO.P,U2,5,Vref*%
%TO.N,unconnected-(U2-Vref-Pad5)*%
X4234500Y-5397500D03*
%TO.P,U2,6,CANL*%
%TO.N,/CANL*%
X4361500Y-5397500D03*
%TO.P,U2,7,CANH*%
%TO.N,/CANH*%
X4488500Y-5397500D03*
%TO.P,U2,8,Rs*%
%TO.N,Net-(U2-Rs)*%
X4615500Y-5397500D03*
%TD*%
D12*
%TO.P,R11,1*%
%TO.N,/SCL*%
X5075000Y-5482500D03*
%TO.P,R11,2*%
%TO.N,+3.3V*%
X5075000Y-5317500D03*
%TD*%
D23*
%TO.P,C10,1*%
%TO.N,+3.3V*%
X5272500Y-4725000D03*
%TO.P,C10,2*%
%TO.N,GND*%
X5427500Y-4725000D03*
%TD*%
D37*
%TO.P,J2,1,Pin_1*%
%TO.N,VSTLINK*%
X3910249Y-4159608D03*
%TO.P,J2,2,Pin_2*%
%TO.N,GND*%
X4203322Y-4406607D03*
%TO.P,J2,3,Pin_3*%
%TO.N,+3.3V*%
X3825726Y-4340870D03*
%TO.P,J2,4,Pin_4*%
%TO.N,/SWDIO*%
X4118798Y-4587869D03*
%TO.P,J2,5,Pin_5*%
%TO.N,/SWCLK*%
X3741202Y-4522131D03*
%TO.P,J2,6,Pin_6*%
%TO.N,/~{RST}*%
X4034274Y-4769131D03*
%TO.P,J2,7,Pin_7*%
%TO.N,/VCP_RX*%
X3656678Y-4703393D03*
%TO.P,J2,8,Pin_8*%
%TO.N,/VCP_TX*%
X3949750Y-4950392D03*
%TD*%
D38*
%TO.P,D2,1,K*%
%TO.N,+5V*%
X5230000Y-5200000D03*
%TO.P,D2,2,A*%
%TO.N,VBUS*%
X5370000Y-5200000D03*
%TD*%
D39*
%TO.P,R7,1*%
%TO.N,GND*%
X4242500Y-5800000D03*
%TO.P,R7,2*%
%TO.N,Net-(JP1-A)*%
X4407500Y-5800000D03*
%TD*%
D24*
%TO.P,C23,1*%
%TO.N,+3.3V*%
X4775000Y-4877500D03*
%TO.P,C23,2*%
%TO.N,GND*%
X4775000Y-4722500D03*
%TD*%
D25*
%TO.P,R3,1*%
%TO.N,Net-(J1-CC1)*%
X5757500Y-4925000D03*
%TO.P,R3,2*%
%TO.N,GND*%
X5592500Y-4925000D03*
%TD*%
%TO.P,R8,1*%
%TO.N,Net-(JP2-B)*%
X4407500Y-5600000D03*
%TO.P,R8,2*%
%TO.N,/CANL*%
X4242500Y-5600000D03*
%TD*%
D40*
%TO.P,C7,1*%
%TO.N,+3.3V*%
X5752500Y-6150000D03*
%TO.P,C7,2*%
%TO.N,GND*%
X5597500Y-6150000D03*
%TD*%
D41*
%TO.P,D3,1,K*%
%TO.N,Net-(D3-K)*%
X3666279Y-5372326D03*
%TO.P,D3,2,A*%
%TO.N,+3.3V*%
X3633720Y-5187674D03*
%TD*%
D34*
%TO.P,C9,1*%
%TO.N,+3.3V*%
X5425000Y-4397500D03*
%TO.P,C9,2*%
%TO.N,GND*%
X5425000Y-4552500D03*
%TD*%
D23*
%TO.P,C11,1*%
%TO.N,/~{RST}*%
X5952500Y-4140000D03*
%TO.P,C11,2*%
%TO.N,GND*%
X6107500Y-4140000D03*
%TD*%
D12*
%TO.P,R1,1*%
%TO.N,GND*%
X4440000Y-4242500D03*
%TO.P,R1,2*%
%TO.N,Net-(JP5-B)*%
X4440000Y-4077500D03*
%TD*%
D42*
%TO.P,J1,A1,GND*%
%TO.N,GND*%
X6067000Y-5165000D03*
%TO.P,J1,A2,TX1+*%
%TO.N,unconnected-(J1-TX1+-PadA2)*%
X6067000Y-5115000D03*
%TO.P,J1,A3,TX1-*%
%TO.N,unconnected-(J1-TX1--PadA3)*%
X6067000Y-5065000D03*
%TO.P,J1,A4,VBUS*%
%TO.N,Net-(F1-Pad1)*%
X6067000Y-5015000D03*
%TO.P,J1,A5,CC1*%
%TO.N,Net-(J1-CC1)*%
X6067000Y-4965000D03*
%TO.P,J1,A6,D+*%
%TO.N,/USB_D+*%
X6067000Y-4915000D03*
%TO.P,J1,A7,D-*%
%TO.N,/USB_D-*%
X6067000Y-4865000D03*
%TO.P,J1,A8,SBU1*%
%TO.N,unconnected-(J1-SBU1-PadA8)*%
X6067000Y-4815000D03*
%TO.P,J1,A9,VBUS*%
%TO.N,Net-(F1-Pad1)*%
X6067000Y-4765000D03*
%TO.P,J1,A10,RX2-*%
%TO.N,unconnected-(J1-RX2--PadA10)*%
X6067000Y-4715000D03*
%TO.P,J1,A11,RX2+*%
%TO.N,unconnected-(J1-RX2+-PadA11)*%
X6067000Y-4665000D03*
%TO.P,J1,A12,GND*%
%TO.N,GND*%
X6067000Y-4615000D03*
%TO.P,J1,B1,GND*%
X6233000Y-4615000D03*
%TO.P,J1,B2,TX2+*%
%TO.N,unconnected-(J1-TX2+-PadB2)*%
X6233000Y-4665000D03*
%TO.P,J1,B3,TX2-*%
%TO.N,unconnected-(J1-TX2--PadB3)*%
X6233000Y-4715000D03*
%TO.P,J1,B4,VBUS*%
%TO.N,Net-(F1-Pad1)*%
X6233000Y-4765000D03*
%TO.P,J1,B5,CC2*%
%TO.N,Net-(J1-CC2)*%
X6233000Y-4815000D03*
%TO.P,J1,B6,D+*%
%TO.N,/USB_D+*%
X6233000Y-4865000D03*
%TO.P,J1,B7,D-*%
%TO.N,/USB_D-*%
X6233000Y-4915000D03*
%TO.P,J1,B8,SBU2*%
%TO.N,unconnected-(J1-SBU2-PadB8)*%
X6233000Y-4965000D03*
%TO.P,J1,B9,VBUS*%
%TO.N,Net-(F1-Pad1)*%
X6233000Y-5015000D03*
%TO.P,J1,B10,RX1-*%
%TO.N,unconnected-(J1-RX1--PadB10)*%
X6233000Y-5065000D03*
%TO.P,J1,B11,RX1+*%
%TO.N,unconnected-(J1-RX1+-PadB11)*%
X6233000Y-5115000D03*
%TO.P,J1,B12,GND*%
%TO.N,GND*%
X6233000Y-5165000D03*
D43*
%TO.P,J1,S1,SHIELD*%
X5935000Y-5130000D03*
X6365000Y-5130000D03*
X5935000Y-4650000D03*
X6365000Y-4650000D03*
%TD*%
D44*
%TO.N,GND*%
X5604794Y-3814132D03*
X3950000Y-4060000D03*
X4700000Y-3937400D03*
X5450100Y-4921225D03*
X4154500Y-4905353D03*
X3800000Y-4830000D03*
X4812333Y-5620451D03*
X6178750Y-4211250D03*
X6070000Y-4050000D03*
X3820000Y-4230000D03*
X5441894Y-4135933D03*
X4170000Y-5250000D03*
X4725000Y-4072500D03*
X3730000Y-4400000D03*
X4400000Y-6270000D03*
X4572500Y-5255500D03*
X3650000Y-4590000D03*
X5680000Y-5190000D03*
X4350000Y-3730000D03*
X4530000Y-5790000D03*
X5525000Y-4600000D03*
X3740000Y-5260000D03*
X4070000Y-4370000D03*
X5010000Y-6420000D03*
X5152397Y-5247848D03*
X4940000Y-6020000D03*
X4070000Y-3940000D03*
X4690000Y-4780000D03*
X5575000Y-6275000D03*
X4330000Y-4120000D03*
X3590000Y-4870000D03*
X5330000Y-5650000D03*
X5960000Y-6050000D03*
%TO.N,/MISO*%
X5088824Y-4776176D03*
%TO.N,/MOSI*%
X5364625Y-5035943D03*
%TO.N,/SCK*%
X5010823Y-4793953D03*
X5412500Y-5112500D03*
%TO.N,+5V*%
X4400000Y-4577215D03*
X5580000Y-5550000D03*
%TO.N,/~{INT_IMU}*%
X5150162Y-4289110D03*
X4864099Y-4801474D03*
%TO.N,/~{CS_IMU}*%
X5150000Y-5100000D03*
X5030476Y-4320000D03*
%TO.N,/~{RST}*%
X4850000Y-4278655D03*
X4030000Y-4660000D03*
X4180000Y-5700000D03*
X5830000Y-4119732D03*
%TO.N,VBUS*%
X5675000Y-4597500D03*
X5675000Y-5000000D03*
%TO.N,/SDA*%
X4993447Y-5417599D03*
X5150795Y-4415748D03*
%TO.N,/SCL*%
X5327500Y-4409762D03*
X5164180Y-5450000D03*
%TO.N,/RST*%
X4934500Y-6275000D03*
%TO.N,/CANL*%
X4325000Y-5675000D03*
%TO.N,/CANH*%
X4550953Y-5627190D03*
%TO.N,/USB_D-*%
X5625000Y-4825000D03*
X5975000Y-4855000D03*
X6325000Y-4915000D03*
%TO.N,/SWDIO*%
X5335407Y-4128270D03*
X3990786Y-4504067D03*
%TO.N,/SWCLK*%
X5246312Y-4065000D03*
X3985000Y-4365000D03*
%TO.N,/VCP_RX*%
X4090000Y-5050000D03*
X4687500Y-4545926D03*
%TO.N,/CAN_RX*%
X4231853Y-4749031D03*
X4895000Y-4200000D03*
%TO.N,/CAN_TX*%
X4615429Y-4751031D03*
X4975000Y-4200000D03*
%TO.N,Net-(D6-K)*%
X4125557Y-5913578D03*
%TO.N,/~{INT_PAA}*%
X5442702Y-5018508D03*
%TO.N,+3.3V*%
X5525000Y-4375000D03*
X4612500Y-4660000D03*
X5875000Y-6050000D03*
X3900000Y-4275000D03*
X4575000Y-5050000D03*
X4170000Y-4010000D03*
X4523548Y-4304615D03*
X5000000Y-5253000D03*
X3750000Y-5050000D03*
X4575000Y-5550000D03*
X5450100Y-4834953D03*
X5905000Y-4325000D03*
X4856697Y-4881131D03*
%TO.N,/~{CS_PAA}*%
X5072851Y-4443331D03*
%TO.N,/~{RST_PAA}*%
X4996565Y-4467427D03*
%TO.N,Net-(D5-K)*%
X4730000Y-3640000D03*
X5324100Y-4010753D03*
%TO.N,Net-(JP1-A)*%
X4480000Y-5975000D03*
%TO.N,Net-(JP2-B)*%
X4492613Y-5681931D03*
%TO.N,Net-(J4-Pin_5)*%
X5245000Y-5975000D03*
%TO.N,Net-(J4-Pin_6)*%
X5325000Y-5975000D03*
%TO.N,Net-(J1-CC2)*%
X6270000Y-4500000D03*
X6325000Y-4835000D03*
%TO.N,unconnected-(U3-PB3-Pad26)*%
X5300000Y-3930000D03*
%TO.N,unconnected-(U3-PB4-Pad27)*%
X5218431Y-3918431D03*
%TD*%
D45*
%TO.N,GND*%
X4775000Y-5482500D02*
X4812333Y-5519833D01*
X5675000Y-5825000D02*
X5700000Y-5850000D01*
X5935000Y-4650000D02*
X5935000Y-4565000D01*
X4154500Y-4905353D02*
X4154500Y-4991268D01*
D46*
X4775000Y-5022500D02*
X4822500Y-5022500D01*
D47*
X5955000Y-5625000D02*
X6082532Y-5625000D01*
D45*
X4087500Y-5332500D02*
X4170000Y-5250000D01*
D46*
X4717500Y-4780000D02*
X4775000Y-4722500D01*
D45*
X4181614Y-4384900D02*
X4203322Y-4406607D01*
X4440000Y-4242500D02*
X4450000Y-4232500D01*
X4550000Y-5125000D02*
X4488500Y-5063500D01*
D46*
X5970000Y-4615000D02*
X5935000Y-4650000D01*
D45*
X5700000Y-5850000D02*
X5746232Y-5850000D01*
D46*
X5477500Y-4552500D02*
X5425000Y-4552500D01*
X5525000Y-4600000D02*
X5477500Y-4552500D01*
D45*
X6097500Y-4150000D02*
X6017500Y-4230000D01*
X5746232Y-5850000D02*
X5857532Y-5850000D01*
D46*
X4242500Y-5800000D02*
X4092468Y-5800000D01*
X4516127Y-4686374D02*
X4502500Y-4700000D01*
D45*
X4080000Y-5332500D02*
X4080000Y-5462468D01*
X5675000Y-5736250D02*
X5675000Y-5825000D01*
X4450000Y-4212500D02*
X4590000Y-4072500D01*
X4812333Y-5519833D02*
X4812333Y-5620451D01*
X6070000Y-4092500D02*
X6097500Y-4120000D01*
X4225000Y-5065232D02*
X4225000Y-5195000D01*
D46*
X6330000Y-4615000D02*
X6365000Y-4650000D01*
D45*
X4070000Y-4370000D02*
X4084900Y-4384900D01*
X3894900Y-5647568D02*
X3917468Y-5625000D01*
D46*
X4816250Y-4072500D02*
X4825000Y-4081250D01*
D45*
X6017500Y-4482500D02*
X6017500Y-4310000D01*
D46*
X5146480Y-4494900D02*
X5103520Y-4494900D01*
X5427500Y-4727500D02*
X5592500Y-4892500D01*
X5000000Y-4980000D02*
X4980000Y-4980000D01*
X4775000Y-4722500D02*
X4872500Y-4722500D01*
D45*
X4895451Y-5620451D02*
X4812333Y-5620451D01*
D46*
X4980000Y-4980000D02*
X4975000Y-4985000D01*
X5343685Y-4641185D02*
X5427500Y-4725000D01*
X4872500Y-4722500D02*
X4950723Y-4800723D01*
X5271250Y-4568750D02*
X5287500Y-4552500D01*
D45*
X5857532Y-5850000D02*
X6082532Y-5625000D01*
X5675000Y-5921232D02*
X5675000Y-6072500D01*
D46*
X4590000Y-4072500D02*
X4725000Y-4072500D01*
X4092468Y-5800000D02*
X3917468Y-5625000D01*
D45*
X4154500Y-4991268D02*
X4226732Y-5063500D01*
D46*
X4850000Y-5050000D02*
X4908750Y-5050000D01*
X5175000Y-4568750D02*
X5175000Y-4607370D01*
X5175000Y-4568750D02*
X5271250Y-4568750D01*
X4975000Y-4970185D02*
X4975000Y-4985000D01*
X4240000Y-5860000D02*
X4240000Y-5802500D01*
D45*
X4771900Y-5019400D02*
X4705600Y-5019400D01*
X4517500Y-4600000D02*
X4590000Y-4527500D01*
X5489777Y-3929149D02*
X5604794Y-3814132D01*
D46*
X4690000Y-4780000D02*
X4717500Y-4780000D01*
D45*
X5500000Y-3939372D02*
X5500000Y-4069803D01*
D46*
X4822500Y-5022500D02*
X4827500Y-5022500D01*
X6365000Y-4650000D02*
X6365000Y-4675000D01*
D45*
X4226732Y-5063500D02*
X4488500Y-5063500D01*
D46*
X5103520Y-4494900D02*
X5075000Y-4523420D01*
X4827500Y-5022500D02*
X4850000Y-5000000D01*
D45*
X4080000Y-5462468D02*
X3917468Y-5625000D01*
X4226732Y-5063500D02*
X4225000Y-5065232D01*
X4600000Y-5125000D02*
X4550000Y-5125000D01*
D46*
X5685100Y-4723850D02*
X5685100Y-4894900D01*
X4205000Y-5981250D02*
X4205000Y-5895000D01*
X5175000Y-4525000D02*
X5167600Y-4517600D01*
D45*
X4775000Y-5022500D02*
X4771900Y-5019400D01*
D46*
X6330000Y-5165000D02*
X6233000Y-5165000D01*
D47*
X5730000Y-5400000D02*
X5955000Y-5625000D01*
D45*
X4522500Y-4680000D02*
X4502500Y-4700000D01*
D46*
X5450100Y-4921225D02*
X5458738Y-4921225D01*
X4240000Y-5802500D02*
X4242500Y-5800000D01*
D45*
X4084900Y-4384900D02*
X4181614Y-4384900D01*
X4488500Y-4714000D02*
X4502500Y-4700000D01*
D46*
X5025000Y-4883750D02*
X5025000Y-4955000D01*
D45*
X4488500Y-5063500D02*
X4488500Y-4902500D01*
D46*
X6435200Y-4745200D02*
X6435200Y-5059800D01*
D45*
X6097500Y-4120000D02*
X6097500Y-4150000D01*
D46*
X5208815Y-4641185D02*
X5343685Y-4641185D01*
X5287500Y-4552500D02*
X5425000Y-4552500D01*
D45*
X5575000Y-6172500D02*
X5575000Y-6275000D01*
D46*
X4205000Y-5895000D02*
X4240000Y-5860000D01*
D45*
X4936500Y-5750000D02*
X4936500Y-5661500D01*
X5746232Y-5850000D02*
X5675000Y-5921232D01*
D46*
X5588725Y-4921225D02*
X5592500Y-4925000D01*
D45*
X6070000Y-4050000D02*
X6027500Y-4050000D01*
D46*
X5167600Y-4517600D02*
X5167600Y-4516020D01*
X6435200Y-5059800D02*
X6365000Y-5130000D01*
D45*
X5597500Y-6150000D02*
X5575000Y-6172500D01*
D46*
X5343685Y-4641185D02*
X5343685Y-4633815D01*
D45*
X5500000Y-4069803D02*
X5551447Y-4121250D01*
D46*
X5427500Y-4725000D02*
X5427500Y-4727500D01*
X4975000Y-4985000D02*
X4960000Y-5000000D01*
X6107500Y-4140000D02*
X6178750Y-4211250D01*
X5655000Y-4925000D02*
X5592500Y-4925000D01*
X5675000Y-4713750D02*
X5685100Y-4723850D01*
X5175000Y-4568750D02*
X5175000Y-4525000D01*
X6067000Y-5165000D02*
X5970000Y-5165000D01*
D45*
X3931250Y-5981250D02*
X3894900Y-5944900D01*
X4080000Y-5332500D02*
X4087500Y-5332500D01*
X4205000Y-5981250D02*
X3931250Y-5981250D01*
D46*
X4975000Y-4843124D02*
X4975000Y-4970185D01*
X6365000Y-4675000D02*
X6435200Y-4745200D01*
D45*
X4600000Y-5125000D02*
X4600000Y-5228000D01*
D46*
X6067000Y-4615000D02*
X5970000Y-4615000D01*
D45*
X5675000Y-6072500D02*
X5597500Y-6150000D01*
D46*
X6178750Y-4211250D02*
X6187500Y-4220000D01*
X5075000Y-4523420D02*
X5075000Y-4568750D01*
D45*
X4705600Y-5019400D02*
X4600000Y-5125000D01*
X5791632Y-3814132D02*
X5604794Y-3814132D01*
X4812333Y-5620451D02*
X4812333Y-5737333D01*
D46*
X5167600Y-4516020D02*
X5146480Y-4494900D01*
D45*
X3894900Y-5944900D02*
X3894900Y-5647568D01*
X6027500Y-4050000D02*
X5791632Y-3814132D01*
D46*
X5175000Y-4607370D02*
X5208815Y-4641185D01*
D45*
X4812333Y-5737333D02*
X4825000Y-5750000D01*
X5489777Y-3929149D02*
X5500000Y-3939372D01*
X4600000Y-5228000D02*
X4572500Y-5255500D01*
D46*
X6365000Y-5130000D02*
X6330000Y-5165000D01*
X5685100Y-4894900D02*
X5655000Y-4925000D01*
X5025000Y-4955000D02*
X5000000Y-4980000D01*
X5592500Y-4892500D02*
X5592500Y-4925000D01*
X5458738Y-4921225D02*
X5588725Y-4921225D01*
D45*
X4450000Y-4232500D02*
X4450000Y-4212500D01*
X6017500Y-4230000D02*
X6017500Y-4310000D01*
X4488500Y-4902500D02*
X4488500Y-4714000D01*
X4225000Y-5195000D02*
X4170000Y-5250000D01*
D46*
X6233000Y-5165000D02*
X6067000Y-5165000D01*
X4960000Y-5000000D02*
X4908750Y-5000000D01*
D45*
X4825000Y-5750000D02*
X4936500Y-5750000D01*
D46*
X4850000Y-5000000D02*
X4908750Y-5000000D01*
D45*
X4936500Y-5661500D02*
X4895451Y-5620451D01*
D46*
X5343685Y-4633815D02*
X5425000Y-4552500D01*
X4822500Y-5022500D02*
X4850000Y-5050000D01*
D45*
X4517500Y-4700000D02*
X4517500Y-4600000D01*
D46*
X4950723Y-4800723D02*
X4950723Y-4818847D01*
D45*
X5935000Y-4565000D02*
X6017500Y-4482500D01*
X6070000Y-4050000D02*
X6070000Y-4092500D01*
D46*
X4725000Y-4072500D02*
X4816250Y-4072500D01*
X4950723Y-4818847D02*
X4975000Y-4843124D01*
X5970000Y-5165000D02*
X5935000Y-5130000D01*
X6233000Y-4615000D02*
X6330000Y-4615000D01*
X6067000Y-4615000D02*
X6233000Y-4615000D01*
%TO.N,/MISO*%
X5075000Y-4790000D02*
X5088824Y-4776176D01*
X5023490Y-4730200D02*
X4925000Y-4631710D01*
X5088824Y-4776176D02*
X5088824Y-4763824D01*
X5075000Y-4883750D02*
X5075000Y-4790000D01*
X5055200Y-4730200D02*
X5023490Y-4730200D01*
X4925000Y-4631710D02*
X4925000Y-4568750D01*
X5088824Y-4763824D02*
X5055200Y-4730200D01*
%TO.N,/MOSI*%
X5100000Y-4950000D02*
X5091250Y-4950000D01*
X5040100Y-4690100D02*
X5087600Y-4690100D01*
X5087600Y-4690100D02*
X5150000Y-4752500D01*
X5364625Y-5035943D02*
X5253682Y-4925000D01*
X4975000Y-4625000D02*
X5040100Y-4690100D01*
X5253682Y-4925000D02*
X5125000Y-4925000D01*
X5150000Y-4752500D02*
X5150000Y-4925000D01*
X5125000Y-4925000D02*
X5100000Y-4950000D01*
X4975000Y-4568750D02*
X4975000Y-4625000D01*
%TO.N,/SCK*%
X5412500Y-5112500D02*
X5400000Y-5100000D01*
X4875000Y-4658130D02*
X4875000Y-4568750D01*
X5250000Y-5100000D02*
X5150000Y-5000000D01*
X5400000Y-5100000D02*
X5250000Y-5100000D01*
X5150000Y-5000000D02*
X5091250Y-5000000D01*
X5010823Y-4793953D02*
X4875000Y-4658130D01*
D45*
%TO.N,+5V*%
X5700000Y-5550000D02*
X5580000Y-5550000D01*
X4450000Y-4527215D02*
X4450000Y-4520000D01*
X5430000Y-5400000D02*
X5580000Y-5550000D01*
X4361500Y-4714000D02*
X4361500Y-4902500D01*
X4397500Y-4650000D02*
X4347500Y-4700000D01*
X5410000Y-5380000D02*
X5430000Y-5400000D01*
X4397500Y-4579715D02*
X4397500Y-4650000D01*
X4400000Y-4577215D02*
X4450000Y-4527215D01*
X5580000Y-5550000D02*
X5580000Y-5736250D01*
X4400000Y-4577215D02*
X4397500Y-4579715D01*
X5223000Y-5380000D02*
X5410000Y-5380000D01*
X4347500Y-4700000D02*
X4361500Y-4714000D01*
X5770000Y-5736250D02*
X5770000Y-5620000D01*
X5230000Y-5200000D02*
X5430000Y-5400000D01*
X5770000Y-5620000D02*
X5700000Y-5550000D01*
D46*
%TO.N,/~{INT_IMU}*%
X5175000Y-4125000D02*
X5167600Y-4132400D01*
X5150162Y-4151418D02*
X5150162Y-4289110D01*
X4916797Y-4875547D02*
X4925000Y-4883750D01*
X5175000Y-4081250D02*
X5175000Y-4125000D01*
X5167600Y-4132400D02*
X5167600Y-4133980D01*
X4864099Y-4801474D02*
X4916797Y-4854173D01*
X5167600Y-4133980D02*
X5150162Y-4151418D01*
X4916797Y-4854173D02*
X4916797Y-4875547D01*
%TO.N,/~{CS_IMU}*%
X4969847Y-4350000D02*
X4756250Y-4350000D01*
X5100000Y-5050000D02*
X5150000Y-5100000D01*
X5091250Y-5050000D02*
X5100000Y-5050000D01*
X4999847Y-4320000D02*
X4969847Y-4350000D01*
X5030476Y-4320000D02*
X4999847Y-4320000D01*
%TO.N,/~{RST}*%
X4330000Y-6030000D02*
X4300000Y-6060000D01*
X5830000Y-4119732D02*
X5701984Y-3991716D01*
X4300000Y-6060000D02*
X4300000Y-6168750D01*
X4265006Y-5700000D02*
X4330000Y-5764994D01*
X4030000Y-4758261D02*
X4035869Y-4764131D01*
X4850000Y-4278655D02*
X4828655Y-4300000D01*
X4300000Y-6168750D02*
X4218750Y-6168750D01*
X4030000Y-4660000D02*
X4030000Y-4758261D01*
X5780982Y-4168750D02*
X5708553Y-4168750D01*
X5830000Y-4119732D02*
X5780982Y-4168750D01*
X4828655Y-4300000D02*
X4756250Y-4300000D01*
X5708553Y-4168750D02*
X5688553Y-4188750D01*
X4180000Y-5700000D02*
X4265006Y-5700000D01*
X4035869Y-4764131D02*
X4029274Y-4764131D01*
X5932232Y-4119732D02*
X5952500Y-4140000D01*
X4105000Y-6055000D02*
X4050000Y-6055000D01*
X4330000Y-5764994D02*
X4330000Y-6030000D01*
X5830000Y-4119732D02*
X5932232Y-4119732D01*
X5701984Y-3991716D02*
X5701984Y-3959141D01*
X4218750Y-6168750D02*
X4105000Y-6055000D01*
D45*
%TO.N,VBUS*%
X5581250Y-5100000D02*
X5481250Y-5200000D01*
X5481250Y-5200000D02*
X5370000Y-5200000D01*
X5581250Y-5093750D02*
X5675000Y-5000000D01*
D46*
X5675000Y-4486250D02*
X5675000Y-4597500D01*
D45*
X5581250Y-5100000D02*
X5581250Y-5093750D01*
D46*
%TO.N,Net-(D3-K)*%
X3875174Y-5372326D02*
X4080000Y-5167500D01*
X3666279Y-5372326D02*
X3875174Y-5372326D01*
%TO.N,/SDA*%
X4925000Y-5482500D02*
X4928546Y-5482500D01*
X4928546Y-5482500D02*
X4993447Y-5417599D01*
X5150795Y-4415748D02*
X5155231Y-4415748D01*
X5155231Y-4415748D02*
X5189483Y-4450000D01*
X5189483Y-4450000D02*
X5243750Y-4450000D01*
%TO.N,/SCL*%
X5164180Y-5450000D02*
X5132090Y-5482090D01*
X5131680Y-5482500D02*
X5132090Y-5482090D01*
X5327500Y-4409762D02*
X5317738Y-4400000D01*
X5132090Y-5482090D02*
X5131680Y-5482500D01*
X5317738Y-4400000D02*
X5243750Y-4400000D01*
X5075000Y-5482500D02*
X5131680Y-5482500D01*
%TO.N,/RST*%
X4988500Y-6275000D02*
X5063500Y-6200000D01*
X4934500Y-6275000D02*
X4988500Y-6275000D01*
D45*
%TO.N,/CANL*%
X4361500Y-5481000D02*
X4242500Y-5600000D01*
X4250000Y-5600000D02*
X4325000Y-5675000D01*
X4242500Y-5600000D02*
X4250000Y-5600000D01*
X4361500Y-5397500D02*
X4361500Y-5481000D01*
%TO.N,/CANH*%
X4550953Y-5625953D02*
X4550953Y-5627190D01*
X4488500Y-5397500D02*
X4488500Y-5563500D01*
X4488500Y-5563500D02*
X4550953Y-5625953D01*
D46*
%TO.N,/USB_D-*%
X5600000Y-4657500D02*
X5580000Y-4677500D01*
X5580000Y-4450803D02*
X5580000Y-4486250D01*
X5580000Y-4677500D02*
X5580000Y-4713750D01*
X5597902Y-4300000D02*
X5650000Y-4352098D01*
X5650000Y-4352098D02*
X5650000Y-4380803D01*
X5580000Y-4713750D02*
X5580000Y-4780000D01*
X5243750Y-4300000D02*
X5597902Y-4300000D01*
X5580000Y-4486250D02*
X5580000Y-4522500D01*
X5580000Y-4780000D02*
X5625000Y-4825000D01*
X6233000Y-4915000D02*
X6325000Y-4915000D01*
X5580000Y-4522500D02*
X5600000Y-4542500D01*
X5600000Y-4542500D02*
X5600000Y-4657500D01*
X5650000Y-4380803D02*
X5580000Y-4450803D01*
X5985000Y-4865000D02*
X5975000Y-4855000D01*
X6067000Y-4865000D02*
X5985000Y-4865000D01*
%TO.N,/USB_D+*%
X5750000Y-4542500D02*
X5750000Y-4657500D01*
X6179500Y-4865000D02*
X6233000Y-4865000D01*
X5770000Y-4522500D02*
X5750000Y-4542500D01*
X6000000Y-4915000D02*
X6067000Y-4915000D01*
X5750000Y-4657500D02*
X5770000Y-4677500D01*
X5770000Y-4805000D02*
X5880100Y-4915100D01*
X6129500Y-4915000D02*
X6179500Y-4865000D01*
X5999997Y-4914997D02*
X6000000Y-4915000D01*
X5770000Y-4713750D02*
X5770000Y-4805000D01*
X5620000Y-4250000D02*
X5700000Y-4330000D01*
X5999894Y-4915100D02*
X5999997Y-4914997D01*
X6067000Y-4915000D02*
X6129500Y-4915000D01*
X5700000Y-4330000D02*
X5700000Y-4375000D01*
X5880100Y-4915100D02*
X5999894Y-4915100D01*
X5700000Y-4375000D02*
X5770000Y-4445000D01*
X5770000Y-4445000D02*
X5770000Y-4486250D01*
X5243750Y-4250000D02*
X5620000Y-4250000D01*
X5770000Y-4677500D02*
X5770000Y-4713750D01*
X5770000Y-4486250D02*
X5770000Y-4522500D01*
%TO.N,/SWDIO*%
X4069587Y-4582869D02*
X4113798Y-4582869D01*
X5335407Y-4174593D02*
X5310000Y-4200000D01*
X3990786Y-4504067D02*
X4069587Y-4582869D01*
X5310000Y-4200000D02*
X5243750Y-4200000D01*
X5335407Y-4128270D02*
X5335407Y-4174593D01*
%TO.N,/SWCLK*%
X3985000Y-4365000D02*
X3827869Y-4522131D01*
X5243750Y-4150000D02*
X5243750Y-4067562D01*
X5243750Y-4067562D02*
X5246312Y-4065000D01*
X3741202Y-4522131D02*
X3736202Y-4517131D01*
X3827869Y-4522131D02*
X3741202Y-4522131D01*
%TO.N,/VCP_RX*%
X4744074Y-4545926D02*
X4687500Y-4545926D01*
X3710000Y-4860000D02*
X3710000Y-4756714D01*
X4756250Y-4500000D02*
X4756250Y-4533750D01*
X3900000Y-5050000D02*
X3710000Y-4860000D01*
X3710000Y-4756714D02*
X3651678Y-4698393D01*
X4756250Y-4533750D02*
X4744074Y-4545926D01*
X4090000Y-5050000D02*
X3900000Y-5050000D01*
%TO.N,/VCP_TX*%
X4290000Y-4500000D02*
X4340000Y-4450000D01*
X4340000Y-4450000D02*
X4756250Y-4450000D01*
X4130000Y-4500000D02*
X4290000Y-4500000D01*
X3980000Y-4430000D02*
X4060000Y-4430000D01*
X3910000Y-4910641D02*
X3910000Y-4500000D01*
X4060000Y-4430000D02*
X4130000Y-4500000D01*
X3944750Y-4945392D02*
X3910000Y-4910641D01*
X3910000Y-4500000D02*
X3980000Y-4430000D01*
%TO.N,/STATUS*%
X4720790Y-3825000D02*
X4575000Y-3825000D01*
X4925000Y-4081250D02*
X4925000Y-4029210D01*
X4925000Y-4081250D02*
X4925000Y-4035920D01*
X4575000Y-3825000D02*
X4482065Y-3732064D01*
X4482065Y-3732064D02*
X4461904Y-3732064D01*
X4925000Y-4029210D02*
X4720790Y-3825000D01*
%TO.N,/CAN_RX*%
X4946863Y-4260000D02*
X5000000Y-4260000D01*
X4231853Y-4749031D02*
X4234500Y-4751678D01*
X5025000Y-4140006D02*
X5025000Y-4081250D01*
X5000000Y-4260000D02*
X5035100Y-4224900D01*
X4895000Y-4208137D02*
X4946863Y-4260000D01*
X5035100Y-4224900D02*
X5035100Y-4150106D01*
X5035100Y-4150106D02*
X5025000Y-4140006D01*
X4234500Y-4751678D02*
X4234500Y-4902500D01*
X4895000Y-4200000D02*
X4895000Y-4208137D01*
%TO.N,/CAN_TX*%
X4609371Y-4757089D02*
X4609371Y-4896371D01*
X4615500Y-4867500D02*
X4615500Y-4902500D01*
X4973427Y-4198427D02*
X4973427Y-4176714D01*
X4975000Y-4200000D02*
X4973427Y-4198427D01*
X4609371Y-4896371D02*
X4615500Y-4902500D01*
X4973427Y-4176714D02*
X4975000Y-4175141D01*
X4975000Y-4175141D02*
X4975000Y-4081250D01*
X4615429Y-4751031D02*
X4609371Y-4757089D01*
%TO.N,Net-(U2-Rs)*%
X4615500Y-5397500D02*
X4695000Y-5397500D01*
X4695000Y-5397500D02*
X4775000Y-5317500D01*
%TO.N,Net-(D6-K)*%
X4124135Y-5915000D02*
X4050000Y-5915000D01*
X4125557Y-5913578D02*
X4124135Y-5915000D01*
%TO.N,/~{INT_PAA}*%
X5104210Y-4650000D02*
X5056710Y-4650000D01*
X5371108Y-4946914D02*
X5371108Y-4946119D01*
X5197400Y-4743190D02*
X5104210Y-4650000D01*
X5025000Y-4618290D02*
X5025000Y-4568750D01*
X5371108Y-4946119D02*
X5197400Y-4772411D01*
X5028520Y-4621810D02*
X5028520Y-4621480D01*
X5442702Y-5018508D02*
X5371108Y-4946914D01*
X5056710Y-4650000D02*
X5028520Y-4621810D01*
X5197400Y-4772411D02*
X5197400Y-4743190D01*
X5028355Y-4621645D02*
X5025000Y-4618290D01*
X5028520Y-4621480D02*
X5028355Y-4621645D01*
%TO.N,+3.3V*%
X5382453Y-4834953D02*
X5272500Y-4725000D01*
D45*
X4170000Y-4010000D02*
X4171755Y-4008245D01*
D46*
X5325000Y-4500000D02*
X5243750Y-4500000D01*
D45*
X4171755Y-4008245D02*
X4171755Y-3887282D01*
D46*
X4775000Y-5177500D02*
X4822500Y-5225000D01*
X5425000Y-4397500D02*
X5425000Y-4400000D01*
X4777500Y-4877500D02*
X4850000Y-4950000D01*
X5851250Y-4271250D02*
X5831447Y-4271250D01*
X4775000Y-5177500D02*
X4775000Y-5175000D01*
X5125000Y-4568750D02*
X5125000Y-4614080D01*
X5425000Y-4400000D02*
X5325000Y-4500000D01*
X4580000Y-4300000D02*
X4528163Y-4300000D01*
X4590000Y-4290000D02*
X4580000Y-4300000D01*
X5447500Y-4375000D02*
X5525000Y-4375000D01*
X5235920Y-4725000D02*
X5272500Y-4725000D01*
D45*
X5875000Y-6050000D02*
X5775000Y-6150000D01*
D46*
X4590000Y-4227500D02*
X4590000Y-4290000D01*
D45*
X5770000Y-6132500D02*
X5752500Y-6150000D01*
X3633720Y-5166280D02*
X3633720Y-5187674D01*
D46*
X4775000Y-5175000D02*
X4833750Y-5116250D01*
X4775000Y-4877500D02*
X4853066Y-4877500D01*
X4667500Y-4150000D02*
X4590000Y-4227500D01*
X4850000Y-4950000D02*
X4908750Y-4950000D01*
X4580000Y-4300000D02*
X4590000Y-4310000D01*
D45*
X5770000Y-5963750D02*
X5770000Y-6132500D01*
X5775000Y-6150000D02*
X5752500Y-6150000D01*
X3839131Y-4335869D02*
X3900000Y-4275000D01*
D46*
X5425000Y-4397500D02*
X5447500Y-4375000D01*
X5000000Y-5317500D02*
X5075000Y-5317500D01*
X5000000Y-5317500D02*
X5000000Y-5253000D01*
X4853066Y-4877500D02*
X4856697Y-4881131D01*
X4756250Y-4150000D02*
X4667500Y-4150000D01*
X4833750Y-5116250D02*
X4925000Y-5116250D01*
D45*
X3750000Y-5050000D02*
X3633720Y-5166280D01*
X3820726Y-4335869D02*
X3839131Y-4335869D01*
D46*
X5450100Y-4834953D02*
X5382453Y-4834953D01*
X4590000Y-4310000D02*
X4590000Y-4372500D01*
X5125000Y-4614080D02*
X5235920Y-4725000D01*
X4528163Y-4300000D02*
X4523548Y-4304615D01*
X4822500Y-5225000D02*
X4972000Y-5225000D01*
X4972000Y-5225000D02*
X5000000Y-5253000D01*
X4775000Y-4877500D02*
X4777500Y-4877500D01*
X4925000Y-5317500D02*
X5000000Y-5317500D01*
X5905000Y-4325000D02*
X5851250Y-4271250D01*
%TO.N,/~{CS_PAA}*%
X5128961Y-4350000D02*
X5243750Y-4350000D01*
X5072851Y-4406110D02*
X5128961Y-4350000D01*
X5072851Y-4443331D02*
X5072851Y-4406110D01*
%TO.N,/~{RST_PAA}*%
X4996565Y-4467427D02*
X4929139Y-4400000D01*
X4929139Y-4400000D02*
X4756250Y-4400000D01*
%TO.N,Net-(D5-K)*%
X5324100Y-4010753D02*
X5324853Y-4010000D01*
X4666032Y-3640000D02*
X4638096Y-3667935D01*
X5379803Y-4010000D02*
X5408553Y-4038750D01*
X5324853Y-4010000D02*
X5379803Y-4010000D01*
X4730000Y-3640000D02*
X4666032Y-3640000D01*
%TO.N,Net-(JP1-A)*%
X4480000Y-5975000D02*
X4401250Y-5975000D01*
X4395000Y-5981250D02*
X4395000Y-5812500D01*
X4401250Y-5975000D02*
X4395000Y-5981250D01*
X4395000Y-5812500D02*
X4407500Y-5800000D01*
%TO.N,Net-(JP2-B)*%
X4410682Y-5600000D02*
X4407500Y-5600000D01*
X4492613Y-5681931D02*
X4410682Y-5600000D01*
D45*
%TO.N,+5VL*%
X5075000Y-5579800D02*
X5075000Y-5906700D01*
X5075000Y-5906700D02*
X5031700Y-5950000D01*
X5089900Y-5564900D02*
X5075000Y-5579800D01*
X5178100Y-5564900D02*
X5089900Y-5564900D01*
X4807500Y-5950000D02*
X4682500Y-5825000D01*
X5031700Y-5950000D02*
X4807500Y-5950000D01*
X4682500Y-5825000D02*
X4682500Y-5750000D01*
X5223000Y-5520000D02*
X5178100Y-5564900D01*
D46*
%TO.N,Net-(J4-Pin_5)*%
X5245000Y-5975000D02*
X5245000Y-5804500D01*
X5245000Y-5804500D02*
X5190500Y-5750000D01*
%TO.N,Net-(J4-Pin_6)*%
X5325000Y-5975000D02*
X5325000Y-6192500D01*
X5325000Y-6192500D02*
X5317500Y-6200000D01*
%TO.N,Net-(JP5-B)*%
X4440000Y-3974473D02*
X4440000Y-4087500D01*
X4530100Y-3997400D02*
X4836480Y-3997400D01*
X4440000Y-4087500D02*
X4530100Y-3997400D01*
X4836480Y-3997400D02*
X4875000Y-4035920D01*
X4278245Y-3812717D02*
X4440000Y-3974473D01*
X4875000Y-4035920D02*
X4875000Y-4081250D01*
%TO.N,Net-(J1-CC1)*%
X5825000Y-4925000D02*
X5757500Y-4925000D01*
X5865000Y-4965000D02*
X5825000Y-4925000D01*
X6067000Y-4965000D02*
X5865000Y-4965000D01*
%TO.N,Net-(J1-CC2)*%
X6270000Y-4395000D02*
X6185000Y-4310000D01*
X6270000Y-4500000D02*
X6270000Y-4395000D01*
X6305000Y-4815000D02*
X6233000Y-4815000D01*
X6185000Y-4310000D02*
X6182500Y-4310000D01*
X6325000Y-4835000D02*
X6305000Y-4815000D01*
%TO.N,unconnected-(U3-PB3-Pad26)*%
X5170820Y-3990100D02*
X5125000Y-4035920D01*
X5293933Y-3956067D02*
X5259900Y-3990100D01*
X5125000Y-4035920D02*
X5125000Y-4081250D01*
X5259900Y-3990100D02*
X5170820Y-3990100D01*
X5293933Y-3936067D02*
X5293933Y-3956067D01*
X5300000Y-3930000D02*
X5293933Y-3936067D01*
%TO.N,unconnected-(U3-PB4-Pad27)*%
X5154210Y-3950000D02*
X5200000Y-3950000D01*
X5218431Y-3931569D02*
X5218431Y-3918431D01*
X5075000Y-4081250D02*
X5075000Y-4029210D01*
X5200000Y-3950000D02*
X5218431Y-3931569D01*
X5075000Y-4029210D02*
X5154210Y-3950000D01*
D45*
%TO.N,Net-(F1-Pad1)*%
X6067000Y-4765000D02*
X6233000Y-4765000D01*
X6390100Y-4808034D02*
X6390100Y-4974900D01*
X5853750Y-5015000D02*
X5768750Y-5100000D01*
X6350000Y-5015000D02*
X6233000Y-5015000D01*
X6067000Y-5015000D02*
X6233000Y-5015000D01*
X6347066Y-4765000D02*
X6390100Y-4808034D01*
X6067000Y-5015000D02*
X5853750Y-5015000D01*
X6233000Y-4765000D02*
X6347066Y-4765000D01*
X6390100Y-4974900D02*
X6350000Y-5015000D01*
%TO.N,VSTLINK*%
X4450000Y-4380000D02*
X4340000Y-4380000D01*
X4340000Y-4380000D02*
X4250000Y-4290000D01*
X4250000Y-4290000D02*
X4040642Y-4290000D01*
X4040642Y-4290000D02*
X3910249Y-4159608D01*
%TD*%
%TA.AperFunction,Conductor*%
%TO.N,GND*%
G36*
X5691326Y-5049479D02*
G01*
X5697112Y-5053395D01*
X5699862Y-5059818D01*
X5699950Y-5061290D01*
X5699950Y-5150977D01*
X5700231Y-5153977D01*
X5700231Y-5153978D01*
X5704654Y-5166618D01*
X5704654Y-5166618D01*
X5712607Y-5177393D01*
X5723382Y-5185345D01*
X5723382Y-5185346D01*
X5736022Y-5189768D01*
X5736022Y-5189768D01*
X5736023Y-5189769D01*
X5737523Y-5189909D01*
X5739023Y-5190050D01*
X5739024Y-5190050D01*
X5798477Y-5190050D01*
X5799810Y-5189925D01*
X5801477Y-5189769D01*
X5801478Y-5189768D01*
X5801478Y-5189768D01*
X5808584Y-5187282D01*
X5814118Y-5185346D01*
X5814118Y-5185345D01*
X5814118Y-5185345D01*
X5820970Y-5180288D01*
X5827533Y-5177891D01*
X5834350Y-5179422D01*
X5839257Y-5184396D01*
X5839382Y-5184635D01*
X5840919Y-5187652D01*
X5851097Y-5201660D01*
X5863340Y-5213903D01*
X5877347Y-5224080D01*
X5892774Y-5231941D01*
X5909241Y-5237291D01*
X5909241Y-5237291D01*
X5910000Y-5237412D01*
X5910000Y-5237411D01*
X5910000Y-5154498D01*
X5913509Y-5158007D01*
X5921490Y-5162615D01*
X5930392Y-5165000D01*
X5939608Y-5165000D01*
X5948509Y-5162615D01*
X5956490Y-5158007D01*
X5960000Y-5154498D01*
X5960000Y-5237412D01*
X5960758Y-5237291D01*
X5977226Y-5231941D01*
X5990736Y-5225057D01*
X5997603Y-5223767D01*
X6000699Y-5224487D01*
X6013762Y-5229360D01*
X6013763Y-5229360D01*
X6019715Y-5230000D01*
X6019717Y-5230000D01*
X6052000Y-5230000D01*
X6082000Y-5230000D01*
X6083120Y-5230000D01*
X6089824Y-5231969D01*
X6094400Y-5237249D01*
X6095394Y-5244165D01*
X6095098Y-5245608D01*
X6091950Y-5257358D01*
X6091950Y-5272642D01*
X6095906Y-5287407D01*
X6103548Y-5300644D01*
X6114356Y-5311452D01*
X6127593Y-5319094D01*
X6142358Y-5323050D01*
X6142358Y-5323050D01*
X6157642Y-5323050D01*
X6157642Y-5323050D01*
X6172406Y-5319094D01*
X6185643Y-5311452D01*
X6196452Y-5300644D01*
X6204094Y-5287407D01*
X6208050Y-5272642D01*
X6208050Y-5257358D01*
X6204902Y-5245609D01*
X6205068Y-5238624D01*
X6208984Y-5232838D01*
X6215407Y-5230088D01*
X6216879Y-5230000D01*
X6218000Y-5230000D01*
X6218000Y-5180000D01*
X6082000Y-5180000D01*
X6082000Y-5230000D01*
X6052000Y-5230000D01*
X6052000Y-5177400D01*
X6052255Y-5176531D01*
X6052126Y-5175635D01*
X6053224Y-5173231D01*
X6053968Y-5170696D01*
X6054652Y-5170103D01*
X6055029Y-5169280D01*
X6057252Y-5167851D01*
X6059249Y-5166121D01*
X6060300Y-5165892D01*
X6060906Y-5165502D01*
X6064400Y-5165000D01*
X6067000Y-5165000D01*
X6067000Y-5162450D01*
X6068968Y-5155746D01*
X6074249Y-5151171D01*
X6079400Y-5150050D01*
X6111574Y-5150050D01*
X6112592Y-5150000D01*
X6187408Y-5150000D01*
X6188426Y-5150050D01*
X6220600Y-5150050D01*
X6221468Y-5150305D01*
X6222365Y-5150176D01*
X6224769Y-5151274D01*
X6227304Y-5152019D01*
X6227897Y-5152703D01*
X6228720Y-5153079D01*
X6230149Y-5155302D01*
X6231879Y-5157299D01*
X6232108Y-5158350D01*
X6232498Y-5158957D01*
X6233000Y-5162450D01*
X6233000Y-5165000D01*
X6235600Y-5165000D01*
X6242304Y-5166969D01*
X6246879Y-5172249D01*
X6248000Y-5177400D01*
X6248000Y-5230000D01*
X6280283Y-5230000D01*
X6280284Y-5230000D01*
X6286237Y-5229360D01*
X6286238Y-5229360D01*
X6299301Y-5224487D01*
X6306270Y-5223989D01*
X6309264Y-5225057D01*
X6322774Y-5231941D01*
X6339241Y-5237291D01*
X6339241Y-5237291D01*
X6340000Y-5237412D01*
X6340000Y-5237411D01*
X6340000Y-5154498D01*
X6343509Y-5158007D01*
X6351490Y-5162615D01*
X6360392Y-5165000D01*
X6369608Y-5165000D01*
X6378509Y-5162615D01*
X6386490Y-5158007D01*
X6390000Y-5154498D01*
X6390000Y-5237412D01*
X6390758Y-5237291D01*
X6407225Y-5231941D01*
X6422652Y-5224080D01*
X6431905Y-5217358D01*
X6438486Y-5215010D01*
X6445291Y-5216593D01*
X6450160Y-5221603D01*
X6451548Y-5228451D01*
X6451441Y-5229330D01*
X6445386Y-5267556D01*
X6445268Y-5268195D01*
X6429403Y-5342834D01*
X6429251Y-5343466D01*
X6409501Y-5417175D01*
X6409316Y-5417798D01*
X6385736Y-5490370D01*
X6385520Y-5490982D01*
X6358173Y-5562222D01*
X6357925Y-5562822D01*
X6326887Y-5632533D01*
X6326608Y-5633119D01*
X6291964Y-5701111D01*
X6291654Y-5701681D01*
X6253501Y-5767766D01*
X6253161Y-5768319D01*
X6211601Y-5832316D01*
X6211233Y-5832851D01*
X6166381Y-5894585D01*
X6165986Y-5895101D01*
X6117963Y-5954404D01*
X6117541Y-5954898D01*
X6066481Y-6011606D01*
X6066034Y-6012077D01*
X6012077Y-6066034D01*
X6011606Y-6066481D01*
X5954898Y-6117541D01*
X5954404Y-6117963D01*
X5895101Y-6165986D01*
X5894585Y-6166381D01*
X5832851Y-6211233D01*
X5832316Y-6211601D01*
X5832316Y-6211601D01*
X5828966Y-6213777D01*
X5822272Y-6215777D01*
X5815558Y-6213840D01*
X5810958Y-6208582D01*
X5809931Y-6201671D01*
X5811164Y-6197748D01*
X5815972Y-6188313D01*
X5815972Y-6188312D01*
X5817550Y-6178349D01*
X5817550Y-6162154D01*
X5819518Y-6155450D01*
X5821182Y-6153386D01*
X5870886Y-6103682D01*
X5877019Y-6100333D01*
X5879654Y-6100050D01*
X5881589Y-6100050D01*
X5881589Y-6100050D01*
X5894319Y-6096639D01*
X5905731Y-6090050D01*
X5915050Y-6080731D01*
X5921639Y-6069319D01*
X5925050Y-6056589D01*
X5925050Y-6043411D01*
X5921639Y-6030681D01*
X5915050Y-6019269D01*
X5905731Y-6009950D01*
X5898790Y-6005943D01*
X5894319Y-6003361D01*
X5887954Y-6001655D01*
X5881589Y-5999950D01*
X5868411Y-5999950D01*
X5855681Y-6003361D01*
X5844269Y-6009950D01*
X5844268Y-6009950D01*
X5841218Y-6013000D01*
X5835086Y-6016349D01*
X5828117Y-6015851D01*
X5822523Y-6011663D01*
X5820082Y-6005117D01*
X5820050Y-6004232D01*
X5820050Y-5909174D01*
X5819057Y-5902361D01*
X5818869Y-5901975D01*
X5813920Y-5891852D01*
X5813920Y-5891851D01*
X5813920Y-5891851D01*
X5805648Y-5883580D01*
X5795139Y-5878443D01*
X5788326Y-5877450D01*
X5788326Y-5877450D01*
X5751674Y-5877450D01*
X5751674Y-5877450D01*
X5744861Y-5878443D01*
X5734351Y-5883580D01*
X5726080Y-5891851D01*
X5720943Y-5902361D01*
X5719950Y-5909174D01*
X5719950Y-6018326D01*
X5720943Y-6025139D01*
X5723652Y-6030681D01*
X5726080Y-6035648D01*
X5731318Y-6040886D01*
X5732789Y-6043579D01*
X5734448Y-6046161D01*
X5734537Y-6046781D01*
X5734667Y-6047018D01*
X5734950Y-6049654D01*
X5734950Y-6070545D01*
X5732981Y-6077249D01*
X5727701Y-6081824D01*
X5724490Y-6082792D01*
X5716688Y-6084028D01*
X5704678Y-6090147D01*
X5702782Y-6092043D01*
X5696650Y-6095391D01*
X5689681Y-6094892D01*
X5684088Y-6090705D01*
X5683461Y-6089784D01*
X5677257Y-6079727D01*
X5665273Y-6067743D01*
X5665273Y-6067742D01*
X5650849Y-6058846D01*
X5650848Y-6058845D01*
X5634760Y-6053514D01*
X5634760Y-6053514D01*
X5633805Y-6053417D01*
X5627336Y-6050777D01*
X5623322Y-6045059D01*
X5623035Y-6038077D01*
X5623926Y-6035635D01*
X5629057Y-6025139D01*
X5630050Y-6018326D01*
X5630050Y-5909174D01*
X5629853Y-5907823D01*
X5629057Y-5902361D01*
X5628869Y-5901975D01*
X5623920Y-5891852D01*
X5623920Y-5891851D01*
X5623920Y-5891851D01*
X5615648Y-5883580D01*
X5605139Y-5878443D01*
X5598326Y-5877450D01*
X5598326Y-5877450D01*
X5561674Y-5877450D01*
X5561674Y-5877450D01*
X5554861Y-5878443D01*
X5544351Y-5883580D01*
X5536080Y-5891851D01*
X5530943Y-5902361D01*
X5529950Y-5909174D01*
X5529950Y-6018326D01*
X5530943Y-6025139D01*
X5530943Y-6025139D01*
X5536074Y-6035635D01*
X5536080Y-6035648D01*
X5542418Y-6041986D01*
X5545766Y-6048118D01*
X5545268Y-6055087D01*
X5541081Y-6060681D01*
X5540159Y-6061308D01*
X5529727Y-6067743D01*
X5517743Y-6079727D01*
X5517742Y-6079727D01*
X5508846Y-6094151D01*
X5508845Y-6094152D01*
X5503514Y-6110239D01*
X5502500Y-6120168D01*
X5502500Y-6125000D01*
X5585100Y-6125000D01*
X5591804Y-6126968D01*
X5596379Y-6132249D01*
X5597500Y-6137400D01*
X5597500Y-6150000D01*
X5610100Y-6150000D01*
X5616804Y-6151968D01*
X5621379Y-6157249D01*
X5622500Y-6162400D01*
X5622500Y-6247500D01*
X5624831Y-6247500D01*
X5624832Y-6247500D01*
X5634761Y-6246485D01*
X5650848Y-6241155D01*
X5650849Y-6241154D01*
X5665273Y-6232257D01*
X5665273Y-6232257D01*
X5677257Y-6220273D01*
X5683461Y-6210216D01*
X5688655Y-6205543D01*
X5695552Y-6204421D01*
X5701960Y-6207206D01*
X5702783Y-6207957D01*
X5704677Y-6209852D01*
X5704678Y-6209853D01*
X5704678Y-6209853D01*
X5716687Y-6215972D01*
X5716688Y-6215972D01*
X5716688Y-6215972D01*
X5726651Y-6217550D01*
X5726651Y-6217550D01*
X5778349Y-6217550D01*
X5779989Y-6217290D01*
X5780946Y-6217414D01*
X5781870Y-6217137D01*
X5784355Y-6217854D01*
X5786919Y-6218185D01*
X5787657Y-6218806D01*
X5788584Y-6219074D01*
X5790286Y-6221020D01*
X5792264Y-6222685D01*
X5792549Y-6223606D01*
X5793184Y-6224333D01*
X5793564Y-6226890D01*
X5794328Y-6229360D01*
X5794070Y-6230289D01*
X5794212Y-6231244D01*
X5793149Y-6233601D01*
X5792456Y-6236091D01*
X5791659Y-6236903D01*
X5791339Y-6237613D01*
X5788683Y-6239937D01*
X5768319Y-6253161D01*
X5767766Y-6253501D01*
X5701681Y-6291654D01*
X5701111Y-6291964D01*
X5633119Y-6326608D01*
X5632533Y-6326887D01*
X5562822Y-6357925D01*
X5562222Y-6358173D01*
X5490982Y-6385520D01*
X5490370Y-6385736D01*
X5417798Y-6409316D01*
X5417175Y-6409501D01*
X5343466Y-6429251D01*
X5342834Y-6429403D01*
X5268195Y-6445268D01*
X5267556Y-6445386D01*
X5192189Y-6457323D01*
X5191545Y-6457408D01*
X5115653Y-6465385D01*
X5115006Y-6465436D01*
X5038803Y-6469429D01*
X5038154Y-6469446D01*
X4961846Y-6469446D01*
X4961197Y-6469429D01*
X4884994Y-6465436D01*
X4884347Y-6465385D01*
X4808455Y-6457408D01*
X4807811Y-6457323D01*
X4732444Y-6445386D01*
X4731805Y-6445268D01*
X4657166Y-6429403D01*
X4656534Y-6429251D01*
X4582825Y-6409501D01*
X4582202Y-6409316D01*
X4509630Y-6385736D01*
X4509018Y-6385520D01*
X4437778Y-6358173D01*
X4437178Y-6357925D01*
X4367467Y-6326887D01*
X4366881Y-6326608D01*
X4363824Y-6325050D01*
X4345083Y-6315501D01*
X4298889Y-6291964D01*
X4298319Y-6291654D01*
X4287986Y-6285689D01*
X4283164Y-6280632D01*
X4281842Y-6273771D01*
X4284439Y-6267285D01*
X4290130Y-6263232D01*
X4294186Y-6262550D01*
X4318326Y-6262550D01*
X4320597Y-6262219D01*
X4325139Y-6261557D01*
X4335648Y-6256420D01*
X4343920Y-6248148D01*
X4349057Y-6237639D01*
X4350050Y-6230826D01*
X4350050Y-6106674D01*
X4349057Y-6099861D01*
X4343920Y-6089352D01*
X4343920Y-6089351D01*
X4343920Y-6089351D01*
X4337301Y-6082732D01*
X4336867Y-6081938D01*
X4336142Y-6081395D01*
X4335219Y-6078919D01*
X4333952Y-6076600D01*
X4334017Y-6075697D01*
X4333700Y-6074849D01*
X4334262Y-6072267D01*
X4334451Y-6069631D01*
X4335032Y-6068726D01*
X4335186Y-6068022D01*
X4337301Y-6065196D01*
X4337696Y-6064801D01*
X4343829Y-6061452D01*
X4350798Y-6061951D01*
X4355233Y-6064801D01*
X4359351Y-6068920D01*
X4359352Y-6068920D01*
X4359352Y-6068920D01*
X4369861Y-6074057D01*
X4373267Y-6074554D01*
X4376674Y-6075050D01*
X4376674Y-6075050D01*
X4413326Y-6075050D01*
X4415597Y-6074719D01*
X4420139Y-6074057D01*
X4430648Y-6068920D01*
X4438920Y-6060648D01*
X4444057Y-6050139D01*
X4444365Y-6048025D01*
X4714450Y-6048025D01*
X4714450Y-6351975D01*
X4715613Y-6357823D01*
X4715613Y-6357823D01*
X4720045Y-6364455D01*
X4726677Y-6368887D01*
X4726677Y-6368887D01*
X4732525Y-6370050D01*
X4732525Y-6370050D01*
X4732525Y-6370050D01*
X4886475Y-6370050D01*
X4886475Y-6370050D01*
X4887957Y-6369755D01*
X4892323Y-6368887D01*
X4892323Y-6368887D01*
X4892323Y-6368887D01*
X4898955Y-6364455D01*
X4903387Y-6357823D01*
X4903387Y-6357823D01*
X4903387Y-6357823D01*
X4904550Y-6351975D01*
X4904550Y-6351975D01*
X4904550Y-6334950D01*
X4906519Y-6328246D01*
X4911799Y-6323671D01*
X4918715Y-6322677D01*
X4920158Y-6322973D01*
X4927911Y-6325050D01*
X4927911Y-6325050D01*
X4941089Y-6325050D01*
X4941089Y-6325050D01*
X4952841Y-6321901D01*
X4959826Y-6322067D01*
X4965612Y-6325984D01*
X4968362Y-6332407D01*
X4968450Y-6333879D01*
X4968450Y-6351975D01*
X4969613Y-6357823D01*
X4969613Y-6357823D01*
X4974045Y-6364455D01*
X4980677Y-6368887D01*
X4980677Y-6368887D01*
X4986525Y-6370050D01*
X4986525Y-6370050D01*
X4986525Y-6370050D01*
X5140475Y-6370050D01*
X5140475Y-6370050D01*
X5141957Y-6369755D01*
X5146323Y-6368887D01*
X5146323Y-6368887D01*
X5146323Y-6368887D01*
X5152955Y-6364455D01*
X5157387Y-6357823D01*
X5157387Y-6357823D01*
X5157387Y-6357823D01*
X5158550Y-6351975D01*
X5158550Y-6351975D01*
X5158550Y-6048025D01*
X5158550Y-6048025D01*
X5157387Y-6042177D01*
X5157387Y-6042177D01*
X5152955Y-6035545D01*
X5146323Y-6031113D01*
X5146323Y-6031113D01*
X5140475Y-6029950D01*
X5140475Y-6029950D01*
X4986525Y-6029950D01*
X4986525Y-6029950D01*
X4980677Y-6031113D01*
X4980677Y-6031113D01*
X4974045Y-6035545D01*
X4969613Y-6042177D01*
X4969613Y-6042177D01*
X4968450Y-6048025D01*
X4968450Y-6216121D01*
X4966482Y-6222825D01*
X4961201Y-6227401D01*
X4954285Y-6228395D01*
X4952841Y-6228099D01*
X4947624Y-6226701D01*
X4941089Y-6224950D01*
X4927911Y-6224950D01*
X4927911Y-6224950D01*
X4920159Y-6227027D01*
X4913174Y-6226861D01*
X4907388Y-6222944D01*
X4904638Y-6216521D01*
X4904550Y-6215049D01*
X4904550Y-6048025D01*
X4904550Y-6048025D01*
X4903387Y-6042177D01*
X4903387Y-6042177D01*
X4898955Y-6035545D01*
X4892323Y-6031113D01*
X4892323Y-6031113D01*
X4886475Y-6029950D01*
X4886475Y-6029950D01*
X4732525Y-6029950D01*
X4732525Y-6029950D01*
X4726677Y-6031113D01*
X4726677Y-6031113D01*
X4720045Y-6035545D01*
X4715613Y-6042177D01*
X4715613Y-6042177D01*
X4714450Y-6048025D01*
X4444365Y-6048025D01*
X4445050Y-6043326D01*
X4445050Y-6033401D01*
X4445057Y-6033193D01*
X4446091Y-6030065D01*
X4447019Y-6026907D01*
X4447182Y-6026765D01*
X4447250Y-6026559D01*
X4449812Y-6024486D01*
X4452299Y-6022331D01*
X4452513Y-6022300D01*
X4452682Y-6022164D01*
X4455956Y-6021805D01*
X4459215Y-6021337D01*
X4459569Y-6021410D01*
X4459627Y-6021403D01*
X4459689Y-6021434D01*
X4460659Y-6021633D01*
X4460681Y-6021639D01*
X4460681Y-6021639D01*
X4473411Y-6025050D01*
X4473411Y-6025050D01*
X4486589Y-6025050D01*
X4486589Y-6025050D01*
X4499319Y-6021639D01*
X4510731Y-6015050D01*
X4520050Y-6005731D01*
X4526639Y-5994319D01*
X4530050Y-5981589D01*
X4530050Y-5968411D01*
X4526639Y-5955681D01*
X4525902Y-5954404D01*
X4523733Y-5950648D01*
X4520050Y-5944269D01*
X4510731Y-5934950D01*
X4504717Y-5931478D01*
X4499319Y-5928361D01*
X4491441Y-5926250D01*
X4486589Y-5924950D01*
X4473411Y-5924950D01*
X4460395Y-5928438D01*
X4453410Y-5928271D01*
X4447624Y-5924355D01*
X4444915Y-5918248D01*
X4444057Y-5912361D01*
X4438920Y-5901852D01*
X4438920Y-5901851D01*
X4438920Y-5901851D01*
X4430648Y-5893580D01*
X4430245Y-5893292D01*
X4429875Y-5892820D01*
X4429330Y-5892571D01*
X4427743Y-5890103D01*
X4425932Y-5887794D01*
X4425793Y-5887068D01*
X4425552Y-5886694D01*
X4425050Y-5883200D01*
X4425050Y-5879028D01*
X4427019Y-5872324D01*
X4432299Y-5867748D01*
X4435510Y-5866780D01*
X4440030Y-5866065D01*
X4451334Y-5860305D01*
X4460305Y-5851334D01*
X4466065Y-5840030D01*
X4466065Y-5840030D01*
X4466065Y-5840030D01*
X4467243Y-5832589D01*
X4467550Y-5830652D01*
X4467550Y-5769348D01*
X4466065Y-5759970D01*
X4460305Y-5748666D01*
X4460305Y-5748665D01*
X4459731Y-5747876D01*
X4460001Y-5747679D01*
X4457474Y-5743051D01*
X4457973Y-5736082D01*
X4462160Y-5730489D01*
X4468706Y-5728047D01*
X4472800Y-5728438D01*
X4473294Y-5728570D01*
X4473295Y-5728570D01*
X4486024Y-5731981D01*
X4486024Y-5731981D01*
X4499202Y-5731981D01*
X4499202Y-5731981D01*
X4511932Y-5728570D01*
X4523345Y-5721981D01*
X4532663Y-5712663D01*
X4539252Y-5701250D01*
X4542663Y-5688520D01*
X4542663Y-5688520D01*
X4542729Y-5688022D01*
X4545555Y-5681632D01*
X4551388Y-5677785D01*
X4552380Y-5677525D01*
X4553686Y-5677240D01*
X4557542Y-5677240D01*
X4570271Y-5673830D01*
X4570847Y-5673497D01*
X4572407Y-5673157D01*
X4574833Y-5673329D01*
X4577251Y-5673069D01*
X4578256Y-5673572D01*
X4579377Y-5673651D01*
X4581324Y-5675107D01*
X4583499Y-5676196D01*
X4584073Y-5677162D01*
X4584973Y-5677835D01*
X4585824Y-5680113D01*
X4587065Y-5682205D01*
X4587298Y-5684058D01*
X4587418Y-5684380D01*
X4587367Y-5684613D01*
X4587450Y-5685272D01*
X4587450Y-5901975D01*
X4588613Y-5907823D01*
X4588613Y-5907823D01*
X4593045Y-5914455D01*
X4599677Y-5918887D01*
X4599677Y-5918887D01*
X4605525Y-5920050D01*
X4605525Y-5920050D01*
X4605525Y-5920050D01*
X4722846Y-5920050D01*
X4729550Y-5922018D01*
X4731614Y-5923682D01*
X4785979Y-5978047D01*
X4792114Y-5981589D01*
X4792114Y-5981589D01*
X4793971Y-5982661D01*
X4793971Y-5982661D01*
X4793971Y-5982661D01*
X4802886Y-5985050D01*
X4802886Y-5985050D01*
X5036314Y-5985050D01*
X5036314Y-5985050D01*
X5045229Y-5982661D01*
X5047086Y-5981589D01*
X5053221Y-5978047D01*
X5103047Y-5928221D01*
X5104185Y-5926250D01*
X5109242Y-5921428D01*
X5114924Y-5920050D01*
X5199232Y-5920050D01*
X5205936Y-5922018D01*
X5210512Y-5927299D01*
X5211506Y-5934215D01*
X5208603Y-5940570D01*
X5208000Y-5941218D01*
X5204950Y-5944268D01*
X5204950Y-5944269D01*
X5198361Y-5955681D01*
X5196116Y-5964057D01*
X5194950Y-5968411D01*
X5194950Y-5981589D01*
X5195237Y-5982661D01*
X5198361Y-5994319D01*
X5201461Y-5999688D01*
X5204950Y-6005731D01*
X5214268Y-6015050D01*
X5219713Y-6018194D01*
X5222626Y-6019875D01*
X5227448Y-6024932D01*
X5228770Y-6031793D01*
X5226736Y-6037503D01*
X5223613Y-6042177D01*
X5223613Y-6042177D01*
X5222450Y-6048025D01*
X5222450Y-6351975D01*
X5223613Y-6357823D01*
X5223613Y-6357823D01*
X5228045Y-6364455D01*
X5234677Y-6368887D01*
X5234677Y-6368887D01*
X5240525Y-6370050D01*
X5240525Y-6370050D01*
X5240525Y-6370050D01*
X5394475Y-6370050D01*
X5394475Y-6370050D01*
X5395957Y-6369755D01*
X5400323Y-6368887D01*
X5400323Y-6368887D01*
X5400323Y-6368887D01*
X5406955Y-6364455D01*
X5411387Y-6357823D01*
X5411387Y-6357823D01*
X5411387Y-6357823D01*
X5412550Y-6351975D01*
X5412550Y-6351975D01*
X5412550Y-6179832D01*
X5502500Y-6179832D01*
X5503514Y-6189761D01*
X5508845Y-6205848D01*
X5508846Y-6205849D01*
X5517742Y-6220273D01*
X5517743Y-6220273D01*
X5529727Y-6232257D01*
X5529727Y-6232257D01*
X5544151Y-6241154D01*
X5544152Y-6241155D01*
X5560239Y-6246485D01*
X5570168Y-6247500D01*
X5572500Y-6247500D01*
X5572500Y-6175000D01*
X5502500Y-6175000D01*
X5502500Y-6179832D01*
X5412550Y-6179832D01*
X5412550Y-6048025D01*
X5412550Y-6048025D01*
X5411387Y-6042177D01*
X5411387Y-6042177D01*
X5406955Y-6035545D01*
X5400323Y-6031113D01*
X5400323Y-6031113D01*
X5394475Y-6029950D01*
X5394475Y-6029950D01*
X5370768Y-6029950D01*
X5364064Y-6027981D01*
X5359488Y-6022701D01*
X5358494Y-6015785D01*
X5361396Y-6009430D01*
X5362000Y-6008782D01*
X5365050Y-6005731D01*
X5371639Y-5994319D01*
X5375050Y-5981589D01*
X5375050Y-5968411D01*
X5371639Y-5955681D01*
X5370902Y-5954404D01*
X5368733Y-5950648D01*
X5365050Y-5944269D01*
X5355731Y-5934950D01*
X5349717Y-5931478D01*
X5344319Y-5928361D01*
X5336441Y-5926250D01*
X5331589Y-5924950D01*
X5318411Y-5924950D01*
X5305681Y-5928361D01*
X5305681Y-5928361D01*
X5305681Y-5928361D01*
X5305681Y-5928361D01*
X5293650Y-5935307D01*
X5293060Y-5935450D01*
X5292601Y-5935848D01*
X5289704Y-5936264D01*
X5286860Y-5936955D01*
X5286286Y-5936756D01*
X5285685Y-5936842D01*
X5283023Y-5935627D01*
X5280257Y-5934669D01*
X5279882Y-5934192D01*
X5279329Y-5933940D01*
X5277747Y-5931478D01*
X5275938Y-5929177D01*
X5275796Y-5928442D01*
X5275552Y-5928062D01*
X5275050Y-5924569D01*
X5275050Y-5924361D01*
X5277018Y-5917657D01*
X5279204Y-5915431D01*
X5279092Y-5915319D01*
X5279955Y-5914455D01*
X5281355Y-5912361D01*
X5284387Y-5907823D01*
X5284387Y-5907823D01*
X5284387Y-5907823D01*
X5285550Y-5901975D01*
X5285550Y-5901975D01*
X5285550Y-5598025D01*
X5285550Y-5598025D01*
X5284387Y-5592177D01*
X5284387Y-5592177D01*
X5279955Y-5585545D01*
X5273323Y-5581113D01*
X5272195Y-5580646D01*
X5272274Y-5580454D01*
X5267474Y-5577942D01*
X5264017Y-5571871D01*
X5264391Y-5564894D01*
X5267317Y-5560251D01*
X5271920Y-5555649D01*
X5271920Y-5555648D01*
X5277057Y-5545139D01*
X5278050Y-5538326D01*
X5278050Y-5501674D01*
X5277057Y-5494861D01*
X5271920Y-5484352D01*
X5271920Y-5484352D01*
X5271920Y-5484351D01*
X5263649Y-5476080D01*
X5253139Y-5470943D01*
X5246326Y-5469950D01*
X5246326Y-5469950D01*
X5226610Y-5469950D01*
X5225742Y-5469695D01*
X5224846Y-5469824D01*
X5222441Y-5468726D01*
X5219906Y-5467982D01*
X5219314Y-5467297D01*
X5218490Y-5466921D01*
X5217061Y-5464698D01*
X5215331Y-5462701D01*
X5215102Y-5461650D01*
X5214713Y-5461044D01*
X5214570Y-5459203D01*
X5214210Y-5457550D01*
X5214210Y-5456662D01*
X5214230Y-5456589D01*
X5214230Y-5443411D01*
X5214210Y-5443338D01*
X5214210Y-5442450D01*
X5214975Y-5439846D01*
X5215393Y-5437165D01*
X5215945Y-5436544D01*
X5216179Y-5435746D01*
X5218229Y-5433969D01*
X5220031Y-5431940D01*
X5220840Y-5431707D01*
X5221459Y-5431171D01*
X5223961Y-5430811D01*
X5226610Y-5430050D01*
X5246326Y-5430050D01*
X5248763Y-5429695D01*
X5253139Y-5429057D01*
X5263648Y-5423920D01*
X5266022Y-5421546D01*
X5268886Y-5418682D01*
X5271579Y-5417211D01*
X5274161Y-5415552D01*
X5274781Y-5415463D01*
X5275019Y-5415333D01*
X5277655Y-5415050D01*
X5287550Y-5415050D01*
X5294254Y-5417018D01*
X5298829Y-5422299D01*
X5299950Y-5427450D01*
X5299950Y-5460427D01*
X5300235Y-5463470D01*
X5300235Y-5463470D01*
X5304721Y-5476288D01*
X5304721Y-5476288D01*
X5312785Y-5487215D01*
X5323712Y-5495279D01*
X5325309Y-5495838D01*
X5336530Y-5499765D01*
X5339573Y-5500050D01*
X5339573Y-5500050D01*
X5475346Y-5500050D01*
X5482050Y-5502019D01*
X5484114Y-5503682D01*
X5526318Y-5545886D01*
X5529667Y-5552019D01*
X5529950Y-5554654D01*
X5529950Y-5556589D01*
X5530515Y-5558698D01*
X5533361Y-5569319D01*
X5534182Y-5570740D01*
X5539950Y-5580731D01*
X5539950Y-5580732D01*
X5541318Y-5582100D01*
X5544667Y-5588232D01*
X5544950Y-5590868D01*
X5544950Y-5650346D01*
X5542982Y-5657049D01*
X5541318Y-5659114D01*
X5536080Y-5664351D01*
X5530943Y-5674861D01*
X5529950Y-5681674D01*
X5529950Y-5790826D01*
X5530943Y-5797639D01*
X5536080Y-5808148D01*
X5544351Y-5816420D01*
X5544352Y-5816420D01*
X5544352Y-5816420D01*
X5554861Y-5821557D01*
X5558267Y-5822054D01*
X5561674Y-5822550D01*
X5598197Y-5822550D01*
X5604901Y-5824518D01*
X5607995Y-5827350D01*
X5608232Y-5827656D01*
X5619844Y-5839268D01*
X5619845Y-5839268D01*
X5633980Y-5847628D01*
X5649751Y-5852210D01*
X5649751Y-5852210D01*
X5650000Y-5852229D01*
X5650000Y-5852229D01*
X5650000Y-5620270D01*
X5649750Y-5620290D01*
X5633981Y-5624872D01*
X5633980Y-5624872D01*
X5633762Y-5625001D01*
X5633569Y-5625050D01*
X5633265Y-5625181D01*
X5633243Y-5625132D01*
X5626990Y-5626719D01*
X5620363Y-5624503D01*
X5615987Y-5619056D01*
X5615050Y-5614328D01*
X5615050Y-5597450D01*
X5617018Y-5590746D01*
X5622299Y-5586171D01*
X5627450Y-5585050D01*
X5680346Y-5585050D01*
X5683290Y-5585914D01*
X5686288Y-5586567D01*
X5686790Y-5586942D01*
X5687049Y-5587019D01*
X5689114Y-5588682D01*
X5701638Y-5601207D01*
X5704987Y-5607339D01*
X5704489Y-5614308D01*
X5701286Y-5619082D01*
X5700000Y-5620270D01*
X5700000Y-5852229D01*
X5700000Y-5852229D01*
X5700249Y-5852210D01*
X5716020Y-5847628D01*
X5730155Y-5839268D01*
X5730156Y-5839268D01*
X5741768Y-5827656D01*
X5742005Y-5827350D01*
X5742252Y-5827172D01*
X5742320Y-5827104D01*
X5742331Y-5827115D01*
X5747669Y-5823259D01*
X5751803Y-5822550D01*
X5788326Y-5822550D01*
X5790597Y-5822219D01*
X5795139Y-5821557D01*
X5805648Y-5816420D01*
X5813920Y-5808148D01*
X5819057Y-5797639D01*
X5820050Y-5790826D01*
X5820050Y-5681674D01*
X5820038Y-5681589D01*
X5819057Y-5674861D01*
X5818921Y-5674582D01*
X5813920Y-5664352D01*
X5813920Y-5664351D01*
X5813920Y-5664351D01*
X5808682Y-5659114D01*
X5805333Y-5652981D01*
X5805050Y-5650346D01*
X5805050Y-5615386D01*
X5805050Y-5615386D01*
X5802661Y-5606471D01*
X5801484Y-5604431D01*
X5798047Y-5598479D01*
X5750736Y-5551168D01*
X5747388Y-5545036D01*
X5747886Y-5538067D01*
X5752073Y-5532473D01*
X5758620Y-5530032D01*
X5759504Y-5530000D01*
X5819997Y-5530000D01*
X5819999Y-5530000D01*
X5830270Y-5528951D01*
X5846912Y-5523436D01*
X5846912Y-5523436D01*
X5861834Y-5514232D01*
X5874231Y-5501835D01*
X5883436Y-5486912D01*
X5883436Y-5486912D01*
X5888950Y-5470270D01*
X5888951Y-5470269D01*
X5890000Y-5459999D01*
X5890000Y-5459997D01*
X5890000Y-5425000D01*
X5742400Y-5425000D01*
X5735696Y-5423032D01*
X5731121Y-5417751D01*
X5730000Y-5412600D01*
X5730000Y-5400000D01*
X5717400Y-5400000D01*
X5710696Y-5398032D01*
X5706121Y-5392751D01*
X5705000Y-5387600D01*
X5705000Y-5375000D01*
X5755000Y-5375000D01*
X5890000Y-5375000D01*
X5890000Y-5340003D01*
X5890000Y-5340001D01*
X5888950Y-5329730D01*
X5883436Y-5313088D01*
X5883436Y-5313088D01*
X5874231Y-5298165D01*
X5861834Y-5285768D01*
X5846912Y-5276564D01*
X5846912Y-5276564D01*
X5830270Y-5271049D01*
X5830269Y-5271049D01*
X5819999Y-5270000D01*
X5755000Y-5270000D01*
X5755000Y-5375000D01*
X5705000Y-5375000D01*
X5705000Y-5270000D01*
X5640003Y-5270000D01*
X5640001Y-5270000D01*
X5629730Y-5271049D01*
X5613088Y-5276564D01*
X5613087Y-5276564D01*
X5598165Y-5285768D01*
X5585768Y-5298165D01*
X5576564Y-5313088D01*
X5576564Y-5313088D01*
X5575070Y-5317597D01*
X5571093Y-5323342D01*
X5564641Y-5326024D01*
X5557763Y-5324792D01*
X5553322Y-5321060D01*
X5547215Y-5312785D01*
X5543648Y-5310153D01*
X5536288Y-5304721D01*
X5536288Y-5304721D01*
X5523470Y-5300235D01*
X5520427Y-5299950D01*
X5520427Y-5299950D01*
X5384654Y-5299950D01*
X5377951Y-5297982D01*
X5375886Y-5296318D01*
X5355786Y-5276218D01*
X5352438Y-5270086D01*
X5352936Y-5263117D01*
X5357123Y-5257523D01*
X5363670Y-5255082D01*
X5364554Y-5255050D01*
X5388326Y-5255050D01*
X5390597Y-5254719D01*
X5395139Y-5254057D01*
X5405648Y-5248920D01*
X5413920Y-5240648D01*
X5413920Y-5240648D01*
X5414208Y-5240245D01*
X5419705Y-5235933D01*
X5424300Y-5235050D01*
X5485864Y-5235050D01*
X5485864Y-5235050D01*
X5494779Y-5232661D01*
X5494907Y-5232587D01*
X5494910Y-5232587D01*
X5494909Y-5232586D01*
X5502771Y-5228047D01*
X5537597Y-5193221D01*
X5543729Y-5189873D01*
X5547755Y-5189875D01*
X5547771Y-5189698D01*
X5551523Y-5190050D01*
X5551524Y-5190050D01*
X5610977Y-5190050D01*
X5612310Y-5189925D01*
X5613977Y-5189769D01*
X5613978Y-5189768D01*
X5613978Y-5189768D01*
X5621084Y-5187282D01*
X5626618Y-5185346D01*
X5637393Y-5177393D01*
X5645345Y-5166618D01*
X5647962Y-5159139D01*
X5649768Y-5153978D01*
X5649768Y-5153978D01*
X5649769Y-5153977D01*
X5650022Y-5151274D01*
X5650050Y-5150977D01*
X5650050Y-5079654D01*
X5650914Y-5076710D01*
X5651567Y-5073712D01*
X5651942Y-5073210D01*
X5652018Y-5072951D01*
X5653682Y-5070886D01*
X5670886Y-5053682D01*
X5677019Y-5050333D01*
X5679654Y-5050050D01*
X5681589Y-5050050D01*
X5681589Y-5050050D01*
X5684341Y-5049313D01*
X5691326Y-5049479D01*
G37*
%TD.AperFunction*%
%TA.AperFunction,Conductor*%
G36*
X4068468Y-5307755D02*
G01*
X4069365Y-5307626D01*
X4071769Y-5308724D01*
X4074304Y-5309469D01*
X4074897Y-5310153D01*
X4075720Y-5310529D01*
X4077149Y-5312752D01*
X4078879Y-5314749D01*
X4079108Y-5315800D01*
X4079498Y-5316407D01*
X4080000Y-5319900D01*
X4080000Y-5332500D01*
X4092600Y-5332500D01*
X4099304Y-5334469D01*
X4103879Y-5339749D01*
X4105000Y-5344900D01*
X4105000Y-5422500D01*
X4113158Y-5422500D01*
X4120210Y-5421859D01*
X4120211Y-5421859D01*
X4136440Y-5416802D01*
X4150988Y-5408007D01*
X4150988Y-5408007D01*
X4163282Y-5395713D01*
X4169414Y-5392365D01*
X4176383Y-5392863D01*
X4181977Y-5397050D01*
X4184418Y-5403597D01*
X4184450Y-5404481D01*
X4184450Y-5483326D01*
X4185443Y-5490139D01*
X4190580Y-5500649D01*
X4198852Y-5508920D01*
X4207264Y-5513032D01*
X4212422Y-5517745D01*
X4214213Y-5524498D01*
X4212069Y-5531148D01*
X4207447Y-5535221D01*
X4198666Y-5539695D01*
X4198665Y-5539695D01*
X4189695Y-5548665D01*
X4189695Y-5548666D01*
X4189695Y-5548666D01*
X4188821Y-5550382D01*
X4183935Y-5559970D01*
X4182450Y-5569348D01*
X4182450Y-5630652D01*
X4183268Y-5635818D01*
X4182373Y-5642747D01*
X4177873Y-5648092D01*
X4174131Y-5649497D01*
X4174196Y-5649740D01*
X4173411Y-5649950D01*
X4173411Y-5649950D01*
X4170631Y-5650695D01*
X4160681Y-5653361D01*
X4149269Y-5659950D01*
X4149268Y-5659950D01*
X4139950Y-5669268D01*
X4139950Y-5669269D01*
X4133361Y-5680681D01*
X4129950Y-5693411D01*
X4129950Y-5706589D01*
X4133361Y-5719319D01*
X4136552Y-5724846D01*
X4139950Y-5730731D01*
X4149269Y-5740050D01*
X4149269Y-5740050D01*
X4149913Y-5740545D01*
X4149817Y-5740670D01*
X4153996Y-5745051D01*
X4155318Y-5751912D01*
X4154813Y-5754423D01*
X4153141Y-5759790D01*
X4152500Y-5766843D01*
X4152500Y-5775000D01*
X4230100Y-5775000D01*
X4236804Y-5776968D01*
X4241379Y-5782249D01*
X4242500Y-5787400D01*
X4242500Y-5812600D01*
X4240532Y-5819304D01*
X4235251Y-5823879D01*
X4230100Y-5825000D01*
X4152500Y-5825000D01*
X4152500Y-5833158D01*
X4153141Y-5840210D01*
X4153141Y-5840211D01*
X4156284Y-5850297D01*
X4156399Y-5857283D01*
X4152719Y-5863223D01*
X4146412Y-5866229D01*
X4141236Y-5865964D01*
X4132146Y-5863528D01*
X4118968Y-5863528D01*
X4106239Y-5866939D01*
X4106238Y-5866939D01*
X4106238Y-5866939D01*
X4106238Y-5866939D01*
X4100923Y-5870008D01*
X4094132Y-5871655D01*
X4089277Y-5870410D01*
X4080139Y-5865943D01*
X4073326Y-5864950D01*
X4073326Y-5864950D01*
X4026674Y-5864950D01*
X4026674Y-5864950D01*
X4019861Y-5865943D01*
X4009351Y-5871080D01*
X4001080Y-5879351D01*
X3995943Y-5889861D01*
X3994950Y-5896674D01*
X3994950Y-5933326D01*
X3995943Y-5940139D01*
X4001080Y-5950648D01*
X4009351Y-5958920D01*
X4009351Y-5958920D01*
X4009352Y-5958920D01*
X4019861Y-5964057D01*
X4023267Y-5964554D01*
X4026674Y-5965050D01*
X4026674Y-5965050D01*
X4073326Y-5965050D01*
X4075597Y-5964719D01*
X4080139Y-5964057D01*
X4090648Y-5958920D01*
X4090648Y-5958920D01*
X4091571Y-5958468D01*
X4091707Y-5958746D01*
X4096715Y-5957004D01*
X4103508Y-5958641D01*
X4103525Y-5958651D01*
X4106238Y-5960217D01*
X4106238Y-5960217D01*
X4106239Y-5960217D01*
X4118968Y-5963628D01*
X4118968Y-5963628D01*
X4132146Y-5963628D01*
X4132146Y-5963628D01*
X4144876Y-5960217D01*
X4147785Y-5958538D01*
X4148870Y-5957911D01*
X4155070Y-5956250D01*
X4192600Y-5956250D01*
X4199304Y-5958218D01*
X4203879Y-5963499D01*
X4205000Y-5968650D01*
X4205000Y-5993850D01*
X4203032Y-6000554D01*
X4197751Y-6005129D01*
X4192600Y-6006250D01*
X4125000Y-6006250D01*
X4125000Y-6013089D01*
X4124465Y-6014910D01*
X4124429Y-6016808D01*
X4123501Y-6018194D01*
X4123031Y-6019793D01*
X4121597Y-6021036D01*
X4120540Y-6022613D01*
X4119011Y-6023277D01*
X4117751Y-6024368D01*
X4115872Y-6024638D01*
X4114130Y-6025394D01*
X4111758Y-6025230D01*
X4110835Y-6025363D01*
X4110602Y-6025327D01*
X4109989Y-6025227D01*
X4108956Y-6024950D01*
X4108294Y-6024950D01*
X4107301Y-6024788D01*
X4105022Y-6023694D01*
X4102596Y-6022981D01*
X4101639Y-6022070D01*
X4101002Y-6021765D01*
X4100554Y-6021037D01*
X4099208Y-6019755D01*
X4098919Y-6019351D01*
X4090648Y-6011080D01*
X4080139Y-6005943D01*
X4073326Y-6004950D01*
X4073326Y-6004950D01*
X4026674Y-6004950D01*
X4026674Y-6004950D01*
X4019861Y-6005943D01*
X4009351Y-6011080D01*
X4001080Y-6019351D01*
X3995943Y-6029861D01*
X3994950Y-6036674D01*
X3994950Y-6043125D01*
X3992981Y-6049829D01*
X3987701Y-6054404D01*
X3980785Y-6055398D01*
X3974430Y-6052496D01*
X3973782Y-6051893D01*
X3933966Y-6012077D01*
X3933519Y-6011606D01*
X3933046Y-6011080D01*
X3922788Y-5999688D01*
X3882459Y-5954898D01*
X3882037Y-5954404D01*
X3839893Y-5902361D01*
X3834014Y-5895100D01*
X3833619Y-5894585D01*
X3832888Y-5893580D01*
X3788765Y-5832850D01*
X3788400Y-5832318D01*
X3746837Y-5768317D01*
X3746500Y-5767768D01*
X3708345Y-5701681D01*
X3708036Y-5701111D01*
X3673391Y-5633117D01*
X3673113Y-5632535D01*
X3642075Y-5562822D01*
X3641827Y-5562222D01*
X3614480Y-5490981D01*
X3614264Y-5490370D01*
X3614164Y-5490064D01*
X3605812Y-5464360D01*
X3605613Y-5457376D01*
X3609221Y-5451393D01*
X3615491Y-5448310D01*
X3619606Y-5448291D01*
X3625020Y-5449176D01*
X3628024Y-5448932D01*
X3628025Y-5448932D01*
X3628026Y-5448932D01*
X3663756Y-5442632D01*
X3728428Y-5431229D01*
X3731335Y-5430430D01*
X3743015Y-5423879D01*
X3752246Y-5414177D01*
X3754691Y-5409257D01*
X3759438Y-5404129D01*
X3765795Y-5402376D01*
X3879130Y-5402376D01*
X3879130Y-5402376D01*
X3886773Y-5400328D01*
X3893625Y-5396372D01*
X3899220Y-5390777D01*
X3931839Y-5358158D01*
X3982500Y-5358158D01*
X3983141Y-5365210D01*
X3983141Y-5365211D01*
X3988198Y-5381440D01*
X3996993Y-5395988D01*
X4009012Y-5408007D01*
X4023560Y-5416802D01*
X4023560Y-5416802D01*
X4039789Y-5421859D01*
X4039789Y-5421859D01*
X4046842Y-5422500D01*
X4055000Y-5422500D01*
X4055000Y-5422500D01*
X4055000Y-5357500D01*
X3982500Y-5357500D01*
X3982500Y-5358158D01*
X3931839Y-5358158D01*
X3978865Y-5311132D01*
X3984997Y-5307783D01*
X3987633Y-5307500D01*
X4067600Y-5307500D01*
X4068468Y-5307755D01*
G37*
%TD.AperFunction*%
%TA.AperFunction,Conductor*%
G36*
X4794304Y-5484469D02*
G01*
X4798879Y-5489749D01*
X4800000Y-5494900D01*
X4800000Y-5572500D01*
X4800533Y-5572500D01*
X4807237Y-5574468D01*
X4811812Y-5579749D01*
X4812807Y-5586665D01*
X4812151Y-5589234D01*
X4812140Y-5589262D01*
X4812140Y-5589263D01*
X4811500Y-5595215D01*
X4811500Y-5725000D01*
X4924100Y-5725000D01*
X4930804Y-5726968D01*
X4935379Y-5732249D01*
X4936500Y-5737400D01*
X4936500Y-5762600D01*
X4934532Y-5769304D01*
X4929251Y-5773879D01*
X4924100Y-5775000D01*
X4811500Y-5775000D01*
X4811500Y-5874496D01*
X4810876Y-5876620D01*
X4810718Y-5878829D01*
X4809911Y-5879907D01*
X4809532Y-5881199D01*
X4807858Y-5882649D01*
X4806531Y-5884422D01*
X4805269Y-5884893D01*
X4804251Y-5885775D01*
X4802059Y-5886090D01*
X4799985Y-5886864D01*
X4798669Y-5886578D01*
X4797335Y-5886769D01*
X4795321Y-5885849D01*
X4793157Y-5885379D01*
X4791385Y-5884052D01*
X4790980Y-5883867D01*
X4790332Y-5883264D01*
X4781182Y-5874114D01*
X4777833Y-5867981D01*
X4777550Y-5865346D01*
X4777550Y-5598025D01*
X4777550Y-5598025D01*
X4776387Y-5592177D01*
X4776387Y-5592177D01*
X4771955Y-5585545D01*
X4765323Y-5581113D01*
X4759981Y-5580051D01*
X4753790Y-5576812D01*
X4750332Y-5570740D01*
X4750000Y-5567889D01*
X4750000Y-5494900D01*
X4751969Y-5488196D01*
X4757249Y-5483621D01*
X4762400Y-5482500D01*
X4787600Y-5482500D01*
X4794304Y-5484469D01*
G37*
%TD.AperFunction*%
%TA.AperFunction,Conductor*%
G36*
X4380467Y-4482019D02*
G01*
X4385042Y-4487299D01*
X4386037Y-4494215D01*
X4386034Y-4494238D01*
X4385943Y-4494861D01*
X4385943Y-4494861D01*
X4384950Y-4501674D01*
X4384950Y-4501675D01*
X4384950Y-4520952D01*
X4382982Y-4527656D01*
X4378750Y-4531691D01*
X4369269Y-4537165D01*
X4369268Y-4537165D01*
X4359950Y-4546484D01*
X4359950Y-4546484D01*
X4353361Y-4557896D01*
X4351392Y-4565245D01*
X4349950Y-4570626D01*
X4349950Y-4583804D01*
X4350532Y-4585976D01*
X4353361Y-4596534D01*
X4355964Y-4601042D01*
X4359950Y-4607947D01*
X4359950Y-4607947D01*
X4360357Y-4608650D01*
X4360221Y-4608729D01*
X4360712Y-4609997D01*
X4361948Y-4611920D01*
X4362239Y-4613947D01*
X4362407Y-4614381D01*
X4362450Y-4615414D01*
X4362450Y-4620050D01*
X4360482Y-4626754D01*
X4355201Y-4631329D01*
X4350050Y-4632450D01*
X4336651Y-4632450D01*
X4326688Y-4634028D01*
X4326687Y-4634028D01*
X4326687Y-4634028D01*
X4323711Y-4635545D01*
X4314678Y-4640147D01*
X4314677Y-4640148D01*
X4305148Y-4649677D01*
X4305147Y-4649678D01*
X4299028Y-4661688D01*
X4297450Y-4671651D01*
X4297450Y-4716270D01*
X4295482Y-4722974D01*
X4290201Y-4727550D01*
X4283285Y-4728544D01*
X4276930Y-4725642D01*
X4274311Y-4722470D01*
X4273844Y-4721660D01*
X4271903Y-4718300D01*
X4262585Y-4708981D01*
X4255922Y-4705134D01*
X4251172Y-4702392D01*
X4242432Y-4700050D01*
X4238443Y-4698981D01*
X4225264Y-4698981D01*
X4212535Y-4702392D01*
X4201122Y-4708981D01*
X4201122Y-4708981D01*
X4191803Y-4718299D01*
X4191803Y-4718300D01*
X4185214Y-4729712D01*
X4182910Y-4738313D01*
X4181803Y-4742442D01*
X4181803Y-4755620D01*
X4182937Y-4759852D01*
X4185214Y-4768350D01*
X4187316Y-4771990D01*
X4191803Y-4779762D01*
X4191803Y-4779763D01*
X4192218Y-4780177D01*
X4195567Y-4786310D01*
X4195068Y-4793279D01*
X4192218Y-4797713D01*
X4190580Y-4799351D01*
X4185443Y-4809861D01*
X4184450Y-4816674D01*
X4184450Y-4988326D01*
X4185443Y-4995139D01*
X4190580Y-5005649D01*
X4198851Y-5013920D01*
X4198852Y-5013920D01*
X4198852Y-5013920D01*
X4209361Y-5019057D01*
X4212767Y-5019554D01*
X4216174Y-5020050D01*
X4216174Y-5020050D01*
X4252826Y-5020050D01*
X4255097Y-5019719D01*
X4259639Y-5019057D01*
X4270148Y-5013920D01*
X4278420Y-5005648D01*
X4283557Y-4995139D01*
X4284550Y-4988326D01*
X4284550Y-4816674D01*
X4284507Y-4816380D01*
X4283557Y-4809861D01*
X4283557Y-4809861D01*
X4278420Y-4799352D01*
X4278420Y-4799352D01*
X4278420Y-4799351D01*
X4273846Y-4794778D01*
X4270498Y-4788646D01*
X4270996Y-4781677D01*
X4271876Y-4779810D01*
X4271903Y-4779763D01*
X4271903Y-4779762D01*
X4278493Y-4768350D01*
X4281903Y-4755620D01*
X4281903Y-4755619D01*
X4282009Y-4754814D01*
X4282342Y-4754858D01*
X4283872Y-4749649D01*
X4289152Y-4745074D01*
X4296068Y-4744079D01*
X4302424Y-4746982D01*
X4304476Y-4749604D01*
X4304574Y-4749533D01*
X4305148Y-4750323D01*
X4314677Y-4759852D01*
X4314678Y-4759853D01*
X4314678Y-4759853D01*
X4319679Y-4762401D01*
X4320786Y-4763446D01*
X4322170Y-4764078D01*
X4323274Y-4765796D01*
X4324759Y-4767199D01*
X4325183Y-4768767D01*
X4325948Y-4769956D01*
X4326450Y-4773450D01*
X4326450Y-4785346D01*
X4324482Y-4792050D01*
X4322818Y-4794114D01*
X4317580Y-4799351D01*
X4312443Y-4809861D01*
X4311450Y-4816674D01*
X4311450Y-4988326D01*
X4312443Y-4995139D01*
X4317580Y-5005649D01*
X4325851Y-5013920D01*
X4325852Y-5013920D01*
X4325852Y-5013920D01*
X4336361Y-5019057D01*
X4339767Y-5019554D01*
X4343174Y-5020050D01*
X4343174Y-5020050D01*
X4379826Y-5020050D01*
X4382097Y-5019719D01*
X4386639Y-5019057D01*
X4397148Y-5013920D01*
X4397149Y-5013920D01*
X4397985Y-5013323D01*
X4398064Y-5013434D01*
X4403248Y-5010603D01*
X4410217Y-5011101D01*
X4415811Y-5015288D01*
X4416558Y-5016407D01*
X4421731Y-5025155D01*
X4421732Y-5025156D01*
X4433344Y-5036768D01*
X4433345Y-5036769D01*
X4447480Y-5045128D01*
X4463251Y-5049710D01*
X4463251Y-5049710D01*
X4463500Y-5049730D01*
X4463500Y-5049730D01*
X4463500Y-4914900D01*
X4465469Y-4908196D01*
X4470749Y-4903621D01*
X4475900Y-4902500D01*
X4501100Y-4902500D01*
X4507804Y-4904469D01*
X4512379Y-4909749D01*
X4513500Y-4914900D01*
X4513500Y-5049730D01*
X4513851Y-5050054D01*
X4519470Y-5051234D01*
X4524446Y-5056140D01*
X4525583Y-5058950D01*
X4526018Y-5060574D01*
X4528361Y-5069319D01*
X4534950Y-5080731D01*
X4544269Y-5090050D01*
X4555681Y-5096639D01*
X4568411Y-5100050D01*
X4568411Y-5100050D01*
X4581589Y-5100050D01*
X4581589Y-5100050D01*
X4594319Y-5096639D01*
X4605731Y-5090050D01*
X4615050Y-5080731D01*
X4621639Y-5069319D01*
X4625050Y-5056589D01*
X4625050Y-5043411D01*
X4622960Y-5035611D01*
X4623126Y-5028626D01*
X4627043Y-5022840D01*
X4633383Y-5020125D01*
X4633382Y-5020115D01*
X4633419Y-5020109D01*
X4633465Y-5020090D01*
X4633726Y-5020065D01*
X4633826Y-5020050D01*
X4633826Y-5020050D01*
X4640639Y-5019057D01*
X4651148Y-5013920D01*
X4659420Y-5005648D01*
X4660404Y-5003635D01*
X4665117Y-4998476D01*
X4671870Y-4996685D01*
X4674399Y-4997500D01*
X4762600Y-4997500D01*
X4769304Y-4999469D01*
X4773879Y-5004749D01*
X4775000Y-5009900D01*
X4775000Y-5035100D01*
X4773032Y-5041804D01*
X4767751Y-5046379D01*
X4762600Y-5047500D01*
X4677500Y-5047500D01*
X4677500Y-5049832D01*
X4678514Y-5059761D01*
X4683845Y-5075848D01*
X4683846Y-5075849D01*
X4692742Y-5090273D01*
X4692743Y-5090273D01*
X4704727Y-5102257D01*
X4714784Y-5108461D01*
X4719456Y-5113655D01*
X4720579Y-5120552D01*
X4717794Y-5126960D01*
X4717043Y-5127783D01*
X4715147Y-5129678D01*
X4709028Y-5141688D01*
X4707450Y-5151651D01*
X4707450Y-5203349D01*
X4709028Y-5213312D01*
X4709028Y-5213312D01*
X4709028Y-5213313D01*
X4714722Y-5224487D01*
X4715147Y-5225322D01*
X4715148Y-5225323D01*
X4724677Y-5234852D01*
X4724678Y-5234853D01*
X4724678Y-5234853D01*
X4731773Y-5238468D01*
X4736852Y-5243265D01*
X4738532Y-5250047D01*
X4736278Y-5256661D01*
X4731773Y-5260564D01*
X4723666Y-5264695D01*
X4723666Y-5264695D01*
X4723665Y-5264695D01*
X4714695Y-5273665D01*
X4714695Y-5273666D01*
X4708935Y-5284970D01*
X4707450Y-5294348D01*
X4707450Y-5337417D01*
X4706586Y-5340361D01*
X4705933Y-5343359D01*
X4705558Y-5343861D01*
X4705482Y-5344120D01*
X4703818Y-5346185D01*
X4686718Y-5363285D01*
X4680586Y-5366633D01*
X4673617Y-5366135D01*
X4668023Y-5361948D01*
X4665582Y-5355401D01*
X4665550Y-5354517D01*
X4665550Y-5311674D01*
X4664557Y-5304861D01*
X4664557Y-5304861D01*
X4659420Y-5294352D01*
X4659420Y-5294352D01*
X4659420Y-5294351D01*
X4651149Y-5286080D01*
X4640639Y-5280943D01*
X4633826Y-5279950D01*
X4633826Y-5279950D01*
X4597174Y-5279950D01*
X4597174Y-5279950D01*
X4590361Y-5280943D01*
X4579851Y-5286080D01*
X4571580Y-5294351D01*
X4566443Y-5304861D01*
X4565529Y-5311132D01*
X4565450Y-5311674D01*
X4565450Y-5483326D01*
X4566160Y-5488196D01*
X4566303Y-5489178D01*
X4565853Y-5492343D01*
X4565563Y-5495527D01*
X4565366Y-5495779D01*
X4565321Y-5496095D01*
X4563232Y-5498516D01*
X4561266Y-5501036D01*
X4560910Y-5501205D01*
X4560756Y-5501384D01*
X4558136Y-5502667D01*
X4557693Y-5502822D01*
X4555681Y-5503361D01*
X4554947Y-5503785D01*
X4553853Y-5504169D01*
X4551473Y-5504292D01*
X4549157Y-5504853D01*
X4548047Y-5504469D01*
X4546875Y-5504530D01*
X4544806Y-5503347D01*
X4542555Y-5502567D01*
X4541829Y-5501644D01*
X4540810Y-5501061D01*
X4539709Y-5498948D01*
X4538236Y-5497074D01*
X4538090Y-5495838D01*
X4537583Y-5494864D01*
X4537753Y-5492998D01*
X4537479Y-5490680D01*
X4537557Y-5490140D01*
X4537557Y-5490139D01*
X4538550Y-5483326D01*
X4538550Y-5311674D01*
X4537557Y-5304861D01*
X4532420Y-5294352D01*
X4532420Y-5294352D01*
X4532420Y-5294351D01*
X4524149Y-5286080D01*
X4513639Y-5280943D01*
X4506826Y-5279950D01*
X4506826Y-5279950D01*
X4470174Y-5279950D01*
X4470174Y-5279950D01*
X4463361Y-5280943D01*
X4452851Y-5286080D01*
X4444580Y-5294351D01*
X4439443Y-5304861D01*
X4438450Y-5311674D01*
X4438450Y-5483326D01*
X4439443Y-5490139D01*
X4439443Y-5490139D01*
X4444580Y-5500648D01*
X4449818Y-5505886D01*
X4451289Y-5508579D01*
X4452948Y-5511161D01*
X4453037Y-5511781D01*
X4453167Y-5512018D01*
X4453450Y-5514654D01*
X4453450Y-5521542D01*
X4451482Y-5528246D01*
X4446201Y-5532822D01*
X4439285Y-5533816D01*
X4439110Y-5533790D01*
X4430652Y-5532450D01*
X4402614Y-5532450D01*
X4395910Y-5530482D01*
X4391335Y-5525201D01*
X4390341Y-5518285D01*
X4393243Y-5511930D01*
X4396336Y-5509550D01*
X4396312Y-5509517D01*
X4397148Y-5508920D01*
X4405420Y-5500649D01*
X4405420Y-5500648D01*
X4410557Y-5490139D01*
X4411550Y-5483326D01*
X4411550Y-5311674D01*
X4410557Y-5304861D01*
X4405420Y-5294352D01*
X4405420Y-5294352D01*
X4405420Y-5294351D01*
X4397149Y-5286080D01*
X4386639Y-5280943D01*
X4379826Y-5279950D01*
X4379826Y-5279950D01*
X4343174Y-5279950D01*
X4343174Y-5279950D01*
X4336361Y-5280943D01*
X4325851Y-5286080D01*
X4317580Y-5294351D01*
X4312443Y-5304861D01*
X4311450Y-5311674D01*
X4311450Y-5476346D01*
X4310586Y-5479290D01*
X4309933Y-5482288D01*
X4309558Y-5482790D01*
X4309482Y-5483049D01*
X4307818Y-5485114D01*
X4305718Y-5487214D01*
X4299586Y-5490562D01*
X4292617Y-5490064D01*
X4287023Y-5485877D01*
X4284582Y-5479330D01*
X4284550Y-5478446D01*
X4284550Y-5311674D01*
X4283557Y-5304861D01*
X4283557Y-5304861D01*
X4278420Y-5294352D01*
X4278420Y-5294352D01*
X4278420Y-5294351D01*
X4270149Y-5286080D01*
X4259639Y-5280943D01*
X4252826Y-5279950D01*
X4252826Y-5279950D01*
X4216174Y-5279950D01*
X4216174Y-5279950D01*
X4209361Y-5280943D01*
X4198852Y-5286080D01*
X4193331Y-5291601D01*
X4187199Y-5294949D01*
X4180230Y-5294451D01*
X4174636Y-5290263D01*
X4172724Y-5286521D01*
X4171802Y-5283560D01*
X4163007Y-5269012D01*
X4150988Y-5256993D01*
X4136439Y-5248198D01*
X4136440Y-5248198D01*
X4128379Y-5245686D01*
X4122564Y-5241813D01*
X4119767Y-5235410D01*
X4120875Y-5228512D01*
X4125537Y-5223307D01*
X4126437Y-5222800D01*
X4131334Y-5220305D01*
X4140305Y-5211334D01*
X4146065Y-5200030D01*
X4146065Y-5200030D01*
X4146065Y-5200030D01*
X4147550Y-5190652D01*
X4147550Y-5190652D01*
X4147550Y-5144348D01*
X4146065Y-5134970D01*
X4140305Y-5123666D01*
X4140305Y-5123665D01*
X4140304Y-5123665D01*
X4131335Y-5114695D01*
X4131334Y-5114695D01*
X4123172Y-5110536D01*
X4118092Y-5105739D01*
X4116413Y-5098956D01*
X4118666Y-5092343D01*
X4120239Y-5090707D01*
X4120157Y-5090625D01*
X4124581Y-5086200D01*
X4130050Y-5080731D01*
X4136639Y-5069319D01*
X4140050Y-5056589D01*
X4140050Y-5043411D01*
X4136639Y-5030681D01*
X4136251Y-5030008D01*
X4134293Y-5026619D01*
X4130050Y-5019269D01*
X4120731Y-5009950D01*
X4111723Y-5004749D01*
X4109319Y-5003361D01*
X4098574Y-5000482D01*
X4096589Y-4999950D01*
X4083411Y-4999950D01*
X4070681Y-5003361D01*
X4070681Y-5003361D01*
X4070681Y-5003361D01*
X4070681Y-5003361D01*
X4064070Y-5007178D01*
X4057280Y-5008825D01*
X4050677Y-5006540D01*
X4046358Y-5001048D01*
X4045694Y-4994092D01*
X4046632Y-4991199D01*
X4046694Y-4991065D01*
X4056180Y-4970722D01*
X4058471Y-4965810D01*
X4058471Y-4965810D01*
X4058471Y-4965809D01*
X4059889Y-4960017D01*
X4058675Y-4952134D01*
X4054537Y-4945314D01*
X4049728Y-4941789D01*
X4047538Y-4940767D01*
X3947209Y-4893983D01*
X3941966Y-4889366D01*
X3940050Y-4882745D01*
X3940050Y-4799881D01*
X3942018Y-4793177D01*
X3947299Y-4788602D01*
X3954215Y-4787607D01*
X3957690Y-4788643D01*
X4091947Y-4851248D01*
X4091948Y-4851248D01*
X4091948Y-4851248D01*
X4097740Y-4852666D01*
X4105624Y-4851452D01*
X4112443Y-4847314D01*
X4115969Y-4842506D01*
X4138110Y-4795023D01*
X4142995Y-4784548D01*
X4142995Y-4784548D01*
X4142995Y-4784548D01*
X4144412Y-4778756D01*
X4143199Y-4770872D01*
X4139061Y-4764053D01*
X4134252Y-4760527D01*
X4123730Y-4755620D01*
X4067209Y-4729264D01*
X4065908Y-4728118D01*
X4064330Y-4727397D01*
X4063340Y-4725857D01*
X4061966Y-4724647D01*
X4061477Y-4722959D01*
X4060552Y-4721520D01*
X4060050Y-4718026D01*
X4060050Y-4705868D01*
X4062018Y-4699164D01*
X4063682Y-4697100D01*
X4065993Y-4694789D01*
X4070050Y-4690731D01*
X4076639Y-4679319D01*
X4080050Y-4666589D01*
X4080050Y-4653411D01*
X4078240Y-4646657D01*
X4078407Y-4639672D01*
X4082323Y-4633886D01*
X4088746Y-4631136D01*
X4095458Y-4632210D01*
X4176471Y-4669987D01*
X4176471Y-4669987D01*
X4176472Y-4669987D01*
X4182264Y-4671404D01*
X4190147Y-4670191D01*
X4196967Y-4666053D01*
X4200492Y-4661244D01*
X4222579Y-4613879D01*
X4227518Y-4603287D01*
X4227518Y-4603287D01*
X4227519Y-4603286D01*
X4228936Y-4597494D01*
X4227723Y-4589611D01*
X4223585Y-4582791D01*
X4218776Y-4579265D01*
X4217343Y-4578597D01*
X4163925Y-4553688D01*
X4158682Y-4549071D01*
X4156766Y-4542352D01*
X4158788Y-4535664D01*
X4164104Y-4531130D01*
X4169166Y-4530050D01*
X4293956Y-4530050D01*
X4293956Y-4530050D01*
X4301599Y-4528002D01*
X4308451Y-4524046D01*
X4314046Y-4518451D01*
X4348815Y-4483682D01*
X4351508Y-4482212D01*
X4354090Y-4480552D01*
X4354710Y-4480463D01*
X4354948Y-4480333D01*
X4357583Y-4480050D01*
X4373763Y-4480050D01*
X4380467Y-4482019D01*
G37*
%TD.AperFunction*%
%TA.AperFunction,Conductor*%
G36*
X5127559Y-5144836D02*
G01*
X5130681Y-5146639D01*
X5130681Y-5146639D01*
X5130681Y-5146639D01*
X5143411Y-5150050D01*
X5143411Y-5150050D01*
X5156589Y-5150050D01*
X5156589Y-5150050D01*
X5169319Y-5146639D01*
X5169319Y-5146639D01*
X5169444Y-5146605D01*
X5176429Y-5146772D01*
X5182215Y-5150688D01*
X5184966Y-5157111D01*
X5183807Y-5164001D01*
X5183794Y-5164029D01*
X5180943Y-5169861D01*
X5180943Y-5169861D01*
X5179950Y-5176674D01*
X5179950Y-5223326D01*
X5180943Y-5230139D01*
X5186080Y-5240649D01*
X5194351Y-5248920D01*
X5194352Y-5248920D01*
X5194352Y-5248920D01*
X5204861Y-5254057D01*
X5208267Y-5254554D01*
X5211674Y-5255050D01*
X5211674Y-5255050D01*
X5230346Y-5255050D01*
X5237050Y-5257019D01*
X5239114Y-5258682D01*
X5299062Y-5318630D01*
X5299856Y-5320085D01*
X5301053Y-5321234D01*
X5301496Y-5323089D01*
X5302410Y-5324762D01*
X5302305Y-5326473D01*
X5302677Y-5328030D01*
X5301998Y-5331493D01*
X5300195Y-5336645D01*
X5296123Y-5342323D01*
X5289628Y-5344898D01*
X5288491Y-5344950D01*
X5277654Y-5344950D01*
X5270950Y-5342981D01*
X5268886Y-5341318D01*
X5263649Y-5336080D01*
X5253139Y-5330943D01*
X5246326Y-5329950D01*
X5246326Y-5329950D01*
X5199674Y-5329950D01*
X5199674Y-5329950D01*
X5192861Y-5330943D01*
X5182351Y-5336080D01*
X5174080Y-5344351D01*
X5168943Y-5354861D01*
X5167950Y-5361674D01*
X5167950Y-5387712D01*
X5165982Y-5394416D01*
X5160701Y-5398991D01*
X5158355Y-5399665D01*
X5158376Y-5399740D01*
X5157591Y-5399950D01*
X5157591Y-5399950D01*
X5152758Y-5401245D01*
X5144861Y-5403361D01*
X5133448Y-5409950D01*
X5133448Y-5409950D01*
X5123555Y-5419843D01*
X5123362Y-5419651D01*
X5118796Y-5422983D01*
X5112664Y-5423561D01*
X5105652Y-5422450D01*
X5055877Y-5422450D01*
X5049174Y-5420482D01*
X5044598Y-5415201D01*
X5044042Y-5413749D01*
X5043497Y-5412005D01*
X5043497Y-5411010D01*
X5040086Y-5398280D01*
X5038169Y-5394961D01*
X5037760Y-5393649D01*
X5037722Y-5391474D01*
X5037209Y-5389360D01*
X5037662Y-5388049D01*
X5037638Y-5386663D01*
X5038782Y-5384813D01*
X5039494Y-5382757D01*
X5040584Y-5381900D01*
X5041313Y-5380721D01*
X5043276Y-5379783D01*
X5044986Y-5378438D01*
X5046837Y-5378081D01*
X5047618Y-5377709D01*
X5048315Y-5377797D01*
X5049594Y-5377550D01*
X5105652Y-5377550D01*
X5115030Y-5376065D01*
X5126334Y-5370305D01*
X5135305Y-5361334D01*
X5141065Y-5350030D01*
X5141065Y-5350030D01*
X5141065Y-5350030D01*
X5142550Y-5340652D01*
X5142550Y-5340652D01*
X5142550Y-5294348D01*
X5141065Y-5284970D01*
X5135305Y-5273666D01*
X5135305Y-5273665D01*
X5135305Y-5273665D01*
X5126335Y-5264695D01*
X5126334Y-5264695D01*
X5126334Y-5264695D01*
X5116092Y-5259477D01*
X5115030Y-5258935D01*
X5105652Y-5257450D01*
X5105652Y-5257450D01*
X5062378Y-5257450D01*
X5055674Y-5255482D01*
X5051098Y-5250201D01*
X5050084Y-5246669D01*
X5050050Y-5246412D01*
X5050050Y-5246411D01*
X5046639Y-5233682D01*
X5040050Y-5222269D01*
X5030731Y-5212950D01*
X5025025Y-5209656D01*
X5019319Y-5206361D01*
X5010932Y-5204114D01*
X5006589Y-5202950D01*
X4997231Y-5202950D01*
X4995211Y-5202357D01*
X4993109Y-5202245D01*
X4991031Y-5201289D01*
X4983599Y-5196998D01*
X4983599Y-5196998D01*
X4980564Y-5196185D01*
X4975956Y-5194950D01*
X4975956Y-5194950D01*
X4854950Y-5194950D01*
X4848246Y-5192982D01*
X4843671Y-5187701D01*
X4842550Y-5182550D01*
X4842550Y-5158700D01*
X4844519Y-5151996D01*
X4849799Y-5147421D01*
X4854950Y-5146300D01*
X4880021Y-5146300D01*
X4886725Y-5148269D01*
X4891301Y-5153549D01*
X4891362Y-5153684D01*
X4892079Y-5155308D01*
X4899692Y-5162922D01*
X4909542Y-5167271D01*
X4911950Y-5167550D01*
X4938050Y-5167550D01*
X4940458Y-5167271D01*
X4944991Y-5165269D01*
X4951919Y-5164362D01*
X4955009Y-5165269D01*
X4959542Y-5167271D01*
X4961950Y-5167550D01*
X4988050Y-5167550D01*
X4990458Y-5167271D01*
X4994991Y-5165269D01*
X4996139Y-5165119D01*
X4997145Y-5164545D01*
X4999541Y-5164673D01*
X5001919Y-5164362D01*
X5003743Y-5164897D01*
X5004122Y-5164918D01*
X5004336Y-5165071D01*
X5005009Y-5165269D01*
X5009542Y-5167271D01*
X5011950Y-5167550D01*
X5038050Y-5167550D01*
X5040458Y-5167271D01*
X5044991Y-5165269D01*
X5051919Y-5164362D01*
X5055009Y-5165269D01*
X5059542Y-5167271D01*
X5061950Y-5167550D01*
X5088050Y-5167550D01*
X5090458Y-5167271D01*
X5096630Y-5164545D01*
X5100307Y-5162922D01*
X5100307Y-5162922D01*
X5100308Y-5162922D01*
X5107922Y-5155308D01*
X5110015Y-5150566D01*
X5114524Y-5145229D01*
X5121202Y-5143176D01*
X5127559Y-5144836D01*
G37*
%TD.AperFunction*%
%TA.AperFunction,Conductor*%
G36*
X3571906Y-4719135D02*
G01*
X3572867Y-4719535D01*
X3672791Y-4766130D01*
X3678034Y-4770747D01*
X3679950Y-4777368D01*
X3679950Y-4863956D01*
X3680727Y-4866854D01*
X3681998Y-4871599D01*
X3681998Y-4871600D01*
X3685126Y-4877017D01*
X3685126Y-4877017D01*
X3685126Y-4877017D01*
X3685954Y-4878451D01*
X3783837Y-4976334D01*
X3881549Y-5074046D01*
X3888401Y-5078002D01*
X3896044Y-5080050D01*
X4044132Y-5080050D01*
X4047076Y-5080914D01*
X4050075Y-5081567D01*
X4050577Y-5081942D01*
X4050836Y-5082019D01*
X4052900Y-5083682D01*
X4055725Y-5086506D01*
X4059073Y-5092638D01*
X4058575Y-5099608D01*
X4054388Y-5105201D01*
X4048896Y-5107522D01*
X4039970Y-5108935D01*
X4034430Y-5111758D01*
X4028666Y-5114695D01*
X4028666Y-5114695D01*
X4028665Y-5114695D01*
X4019695Y-5123665D01*
X4019695Y-5123666D01*
X4013935Y-5134970D01*
X4012450Y-5144348D01*
X4012450Y-5187417D01*
X4010481Y-5194120D01*
X4008818Y-5196185D01*
X3866359Y-5338644D01*
X3860227Y-5341992D01*
X3857591Y-5342276D01*
X3762825Y-5342276D01*
X3756121Y-5340307D01*
X3751545Y-5335027D01*
X3750613Y-5332029D01*
X3750208Y-5329730D01*
X3749799Y-5327414D01*
X3749001Y-5324507D01*
X3742450Y-5312827D01*
X3732748Y-5303597D01*
X3720755Y-5297636D01*
X3720755Y-5297636D01*
X3707539Y-5295475D01*
X3704533Y-5295719D01*
X3604131Y-5313423D01*
X3601224Y-5314221D01*
X3597327Y-5316407D01*
X3589544Y-5320772D01*
X3589543Y-5320772D01*
X3589543Y-5320772D01*
X3586444Y-5324030D01*
X3580397Y-5327530D01*
X3573418Y-5327206D01*
X3567722Y-5323159D01*
X3565331Y-5318061D01*
X3565233Y-5317597D01*
X3555787Y-5273159D01*
X3556319Y-5266192D01*
X3560532Y-5260619D01*
X3567090Y-5258208D01*
X3573435Y-5259476D01*
X3579245Y-5262364D01*
X3592461Y-5264525D01*
X3595465Y-5264281D01*
X3595466Y-5264281D01*
X3595467Y-5264281D01*
X3631197Y-5257981D01*
X3695869Y-5246577D01*
X3698776Y-5245779D01*
X3710456Y-5239228D01*
X3719687Y-5229525D01*
X3725647Y-5217533D01*
X3725801Y-5216593D01*
X3727808Y-5204317D01*
X3727792Y-5204114D01*
X3727564Y-5201312D01*
X3727560Y-5201289D01*
X3717241Y-5142763D01*
X3717240Y-5142763D01*
X3716902Y-5141529D01*
X3717024Y-5134544D01*
X3720090Y-5129478D01*
X3745886Y-5103682D01*
X3752019Y-5100333D01*
X3754654Y-5100050D01*
X3756589Y-5100050D01*
X3756589Y-5100050D01*
X3769319Y-5096639D01*
X3780731Y-5090050D01*
X3790050Y-5080731D01*
X3796639Y-5069319D01*
X3800050Y-5056589D01*
X3800050Y-5043411D01*
X3796639Y-5030681D01*
X3796251Y-5030008D01*
X3794293Y-5026619D01*
X3790050Y-5019269D01*
X3780731Y-5009950D01*
X3771723Y-5004749D01*
X3769319Y-5003361D01*
X3758574Y-5000482D01*
X3756589Y-4999950D01*
X3743411Y-4999950D01*
X3730681Y-5003361D01*
X3719269Y-5009950D01*
X3719268Y-5009950D01*
X3709950Y-5019268D01*
X3709950Y-5019269D01*
X3703361Y-5030681D01*
X3699950Y-5043411D01*
X3699950Y-5045346D01*
X3697981Y-5052049D01*
X3696318Y-5054114D01*
X3635147Y-5115284D01*
X3629015Y-5118633D01*
X3628532Y-5118728D01*
X3571572Y-5128771D01*
X3568665Y-5129570D01*
X3564299Y-5132019D01*
X3556985Y-5136121D01*
X3556984Y-5136121D01*
X3556984Y-5136121D01*
X3556251Y-5136691D01*
X3556096Y-5136492D01*
X3555787Y-5136671D01*
X3554605Y-5137935D01*
X3552826Y-5138385D01*
X3551238Y-5139303D01*
X3549509Y-5139223D01*
X3547831Y-5139647D01*
X3546092Y-5139063D01*
X3544259Y-5138978D01*
X3542848Y-5137975D01*
X3541207Y-5137425D01*
X3540059Y-5135994D01*
X3538564Y-5134931D01*
X3537902Y-5133304D01*
X3536836Y-5131974D01*
X3535971Y-5128553D01*
X3534615Y-5115650D01*
X3534564Y-5115009D01*
X3530571Y-5038803D01*
X3530554Y-5038154D01*
X3530554Y-4961846D01*
X3530571Y-4961197D01*
X3530636Y-4959950D01*
X3534564Y-4884991D01*
X3534615Y-4884350D01*
X3542592Y-4808452D01*
X3542676Y-4807814D01*
X3554614Y-4732441D01*
X3554731Y-4731808D01*
X3555499Y-4728195D01*
X3558818Y-4722047D01*
X3564935Y-4718670D01*
X3571906Y-4719135D01*
G37*
%TD.AperFunction*%
%TA.AperFunction,Conductor*%
G36*
X5299121Y-4794519D02*
G01*
X5301185Y-4796182D01*
X5358407Y-4853404D01*
X5364002Y-4858999D01*
X5364002Y-4858999D01*
X5364002Y-4858999D01*
X5368488Y-4861589D01*
X5370854Y-4862955D01*
X5378497Y-4865003D01*
X5404232Y-4865003D01*
X5410936Y-4866971D01*
X5413001Y-4868635D01*
X5419369Y-4875003D01*
X5430781Y-4881592D01*
X5443511Y-4885003D01*
X5443511Y-4885003D01*
X5456689Y-4885003D01*
X5456689Y-4885003D01*
X5469419Y-4881592D01*
X5480831Y-4875003D01*
X5482206Y-4873628D01*
X5488338Y-4870280D01*
X5495307Y-4870778D01*
X5500901Y-4874965D01*
X5503342Y-4881511D01*
X5503178Y-4884134D01*
X5503200Y-4884136D01*
X5502500Y-4891843D01*
X5502500Y-4900000D01*
X5580100Y-4900000D01*
X5586804Y-4901969D01*
X5591379Y-4907249D01*
X5592500Y-4912400D01*
X5592500Y-4937600D01*
X5590532Y-4944304D01*
X5585251Y-4948879D01*
X5580100Y-4950000D01*
X5502500Y-4950000D01*
X5502500Y-4958158D01*
X5503141Y-4965210D01*
X5503141Y-4965211D01*
X5508198Y-4981440D01*
X5516993Y-4995988D01*
X5525591Y-5004586D01*
X5528940Y-5010719D01*
X5528441Y-5017688D01*
X5525592Y-5022122D01*
X5525107Y-5022607D01*
X5517155Y-5033382D01*
X5517154Y-5033382D01*
X5512957Y-5045376D01*
X5512732Y-5046022D01*
X5512731Y-5046023D01*
X5512450Y-5049023D01*
X5512450Y-5114096D01*
X5510482Y-5120800D01*
X5508818Y-5122864D01*
X5470364Y-5161318D01*
X5467671Y-5162788D01*
X5465089Y-5164448D01*
X5464469Y-5164537D01*
X5464231Y-5164667D01*
X5461596Y-5164950D01*
X5460768Y-5164950D01*
X5454064Y-5162982D01*
X5449488Y-5157701D01*
X5448494Y-5150785D01*
X5451396Y-5144430D01*
X5452000Y-5143782D01*
X5452272Y-5143510D01*
X5452550Y-5143231D01*
X5459139Y-5131819D01*
X5462550Y-5119089D01*
X5462550Y-5105911D01*
X5459139Y-5093181D01*
X5458699Y-5092419D01*
X5456291Y-5088248D01*
X5453588Y-5083567D01*
X5451941Y-5076777D01*
X5454226Y-5070174D01*
X5459718Y-5065855D01*
X5461116Y-5065390D01*
X5462021Y-5065148D01*
X5473434Y-5058558D01*
X5482752Y-5049240D01*
X5489341Y-5037827D01*
X5492752Y-5025098D01*
X5492752Y-5011919D01*
X5489341Y-4999190D01*
X5482752Y-4987777D01*
X5473434Y-4978458D01*
X5467444Y-4975000D01*
X5462021Y-4971869D01*
X5452315Y-4969269D01*
X5449291Y-4968458D01*
X5440286Y-4968458D01*
X5433582Y-4966490D01*
X5431517Y-4964827D01*
X5397395Y-4930704D01*
X5395424Y-4928135D01*
X5395154Y-4927668D01*
X5395154Y-4927668D01*
X5281204Y-4813718D01*
X5280143Y-4811774D01*
X5278693Y-4810101D01*
X5278501Y-4808768D01*
X5277856Y-4807586D01*
X5278014Y-4805377D01*
X5277699Y-4803185D01*
X5278258Y-4801960D01*
X5278354Y-4800617D01*
X5279681Y-4798844D01*
X5280601Y-4796830D01*
X5281734Y-4796101D01*
X5282541Y-4795023D01*
X5284616Y-4794250D01*
X5286479Y-4793052D01*
X5288671Y-4792737D01*
X5289088Y-4792582D01*
X5289972Y-4792550D01*
X5292417Y-4792550D01*
X5299121Y-4794519D01*
G37*
%TD.AperFunction*%
%TA.AperFunction,Conductor*%
G36*
X5031754Y-4885719D02*
G01*
X5036330Y-4890999D01*
X5037450Y-4896150D01*
X5037450Y-4910551D01*
X5037729Y-4912958D01*
X5037729Y-4912958D01*
X5041443Y-4921370D01*
X5041648Y-4922341D01*
X5041998Y-4922885D01*
X5042500Y-4926378D01*
X5042500Y-4926784D01*
X5041444Y-4931792D01*
X5040229Y-4934542D01*
X5040229Y-4934542D01*
X5039950Y-4936949D01*
X5039950Y-4963050D01*
X5039950Y-4963050D01*
X5040229Y-4965458D01*
X5042231Y-4969991D01*
X5043138Y-4976919D01*
X5042231Y-4980008D01*
X5040229Y-4984542D01*
X5039950Y-4986949D01*
X5039950Y-5013050D01*
X5039950Y-5013050D01*
X5040229Y-5015458D01*
X5042231Y-5019991D01*
X5043138Y-5026919D01*
X5042231Y-5030008D01*
X5040229Y-5034542D01*
X5039950Y-5036949D01*
X5039950Y-5052550D01*
X5037982Y-5059254D01*
X5032701Y-5063829D01*
X5027550Y-5064950D01*
X5011950Y-5064950D01*
X5011949Y-5064950D01*
X5009542Y-5065229D01*
X5009542Y-5065229D01*
X5005009Y-5067231D01*
X4998081Y-5068138D01*
X4994991Y-5067231D01*
X4993672Y-5066648D01*
X4990458Y-5065229D01*
X4988051Y-5064950D01*
X4961950Y-5064950D01*
X4961949Y-5064950D01*
X4959542Y-5065229D01*
X4956792Y-5066444D01*
X4955821Y-5066648D01*
X4955277Y-5066998D01*
X4951784Y-5067500D01*
X4948217Y-5067500D01*
X4943208Y-5066444D01*
X4940458Y-5065229D01*
X4938051Y-5064950D01*
X4921150Y-5064950D01*
X4920281Y-5064695D01*
X4919385Y-5064824D01*
X4916981Y-5063726D01*
X4914446Y-5062982D01*
X4913853Y-5062297D01*
X4913030Y-5061921D01*
X4911601Y-5059698D01*
X4909871Y-5057701D01*
X4909642Y-5056650D01*
X4909252Y-5056044D01*
X4908750Y-5052550D01*
X4908750Y-5044900D01*
X4910719Y-5038196D01*
X4915999Y-5033621D01*
X4921150Y-5032500D01*
X4989355Y-5032500D01*
X4989355Y-5032500D01*
X4988581Y-5026619D01*
X4988581Y-5023381D01*
X4989355Y-5017500D01*
X4921150Y-5017500D01*
X4920281Y-5017245D01*
X4919385Y-5017374D01*
X4916981Y-5016276D01*
X4914446Y-5015532D01*
X4913853Y-5014847D01*
X4913030Y-5014471D01*
X4911601Y-5012248D01*
X4909871Y-5010251D01*
X4909642Y-5009200D01*
X4909252Y-5008594D01*
X4908750Y-5005100D01*
X4908750Y-4999950D01*
X4910719Y-4993246D01*
X4915999Y-4988671D01*
X4921150Y-4987550D01*
X4935550Y-4987550D01*
X4937958Y-4987271D01*
X4941079Y-4985893D01*
X4946370Y-4983557D01*
X4951378Y-4982500D01*
X4989355Y-4982500D01*
X4989355Y-4982500D01*
X4988713Y-4977626D01*
X4989790Y-4970722D01*
X4994428Y-4965497D01*
X5001155Y-4963608D01*
X5002626Y-4963713D01*
X5007500Y-4964355D01*
X5007500Y-4964355D01*
X5007500Y-4896150D01*
X5007755Y-4895281D01*
X5007626Y-4894385D01*
X5008724Y-4891981D01*
X5009469Y-4889446D01*
X5010153Y-4888853D01*
X5010529Y-4888030D01*
X5012752Y-4886601D01*
X5014749Y-4884871D01*
X5015800Y-4884642D01*
X5016407Y-4884252D01*
X5019900Y-4883750D01*
X5025050Y-4883750D01*
X5031754Y-4885719D01*
G37*
%TD.AperFunction*%
%TA.AperFunction,Conductor*%
G36*
X6441709Y-4739195D02*
G01*
X6446578Y-4744206D01*
X6447859Y-4748053D01*
X6457323Y-4807811D01*
X6457408Y-4808455D01*
X6465385Y-4884347D01*
X6465436Y-4884994D01*
X6469429Y-4961197D01*
X6469446Y-4961846D01*
X6469446Y-5038154D01*
X6469429Y-5038803D01*
X6468892Y-5049058D01*
X6466575Y-5055650D01*
X6461062Y-5059943D01*
X6454104Y-5060574D01*
X6447909Y-5057343D01*
X6447741Y-5057177D01*
X6436660Y-5046097D01*
X6422652Y-5035920D01*
X6408708Y-5028815D01*
X6403629Y-5024017D01*
X6401949Y-5017235D01*
X6404203Y-5010622D01*
X6405568Y-5009000D01*
X6418147Y-4996421D01*
X6422761Y-4988429D01*
X6424237Y-4982922D01*
X6425150Y-4979514D01*
X6425150Y-4803420D01*
X6422761Y-4794506D01*
X6421417Y-4792177D01*
X6418147Y-4786513D01*
X6403624Y-4771990D01*
X6400276Y-4765858D01*
X6400774Y-4758889D01*
X6404961Y-4753296D01*
X6406829Y-4752237D01*
X6406791Y-4752162D01*
X6422652Y-4744080D01*
X6428323Y-4739961D01*
X6434903Y-4737613D01*
X6441709Y-4739195D01*
G37*
%TD.AperFunction*%
%TA.AperFunction,Conductor*%
G36*
X4679333Y-4768775D02*
G01*
X4683386Y-4774466D01*
X4683439Y-4774621D01*
X4683845Y-4775848D01*
X4683846Y-4775849D01*
X4692742Y-4790273D01*
X4692743Y-4790273D01*
X4704727Y-4802257D01*
X4714784Y-4808461D01*
X4719456Y-4813655D01*
X4720579Y-4820552D01*
X4717794Y-4826960D01*
X4717043Y-4827783D01*
X4715147Y-4829678D01*
X4709028Y-4841688D01*
X4707450Y-4851651D01*
X4707450Y-4903349D01*
X4709028Y-4913312D01*
X4709028Y-4913312D01*
X4709028Y-4913313D01*
X4714221Y-4923503D01*
X4715510Y-4930370D01*
X4712883Y-4936844D01*
X4709682Y-4939686D01*
X4704727Y-4942742D01*
X4704727Y-4942743D01*
X4692743Y-4954727D01*
X4688504Y-4961599D01*
X4683309Y-4966271D01*
X4676413Y-4967394D01*
X4670005Y-4964609D01*
X4666119Y-4958802D01*
X4665550Y-4955089D01*
X4665550Y-4816674D01*
X4664557Y-4809861D01*
X4664557Y-4809861D01*
X4659420Y-4799352D01*
X4659420Y-4799352D01*
X4659420Y-4799351D01*
X4657211Y-4797143D01*
X4655877Y-4794699D01*
X4654261Y-4792431D01*
X4654225Y-4791675D01*
X4653863Y-4791011D01*
X4654061Y-4788233D01*
X4653929Y-4785452D01*
X4654332Y-4784444D01*
X4654361Y-4784042D01*
X4655241Y-4782175D01*
X4655868Y-4781089D01*
X4660930Y-4772322D01*
X4665986Y-4767500D01*
X4672847Y-4766178D01*
X4679333Y-4768775D01*
G37*
%TD.AperFunction*%
%TA.AperFunction,Conductor*%
G36*
X3627173Y-4515736D02*
G01*
X3632303Y-4520431D01*
X3636415Y-4527208D01*
X3636415Y-4527208D01*
X3636415Y-4527209D01*
X3641224Y-4530735D01*
X3695430Y-4556011D01*
X3798875Y-4604249D01*
X3798876Y-4604249D01*
X3798876Y-4604249D01*
X3804668Y-4605666D01*
X3812551Y-4604453D01*
X3819371Y-4600315D01*
X3822897Y-4595506D01*
X3844607Y-4548947D01*
X3844900Y-4548529D01*
X3844962Y-4548245D01*
X3847076Y-4545422D01*
X3847077Y-4545421D01*
X3851915Y-4540582D01*
X3858782Y-4533715D01*
X3864914Y-4530367D01*
X3871883Y-4530865D01*
X3877477Y-4535052D01*
X3879918Y-4541599D01*
X3879950Y-4542483D01*
X3879950Y-4860151D01*
X3877981Y-4866854D01*
X3873983Y-4870751D01*
X3871582Y-4872208D01*
X3871582Y-4872208D01*
X3868056Y-4877017D01*
X3844202Y-4928171D01*
X3839585Y-4933415D01*
X3832866Y-4935330D01*
X3826178Y-4933309D01*
X3824196Y-4931699D01*
X3743682Y-4851185D01*
X3740333Y-4845053D01*
X3740050Y-4842417D01*
X3740050Y-4775920D01*
X3741212Y-4770680D01*
X3742298Y-4768350D01*
X3746710Y-4758889D01*
X3765399Y-4718810D01*
X3765399Y-4718810D01*
X3765399Y-4718810D01*
X3766817Y-4713018D01*
X3765603Y-4705134D01*
X3761465Y-4698315D01*
X3756656Y-4694789D01*
X3756656Y-4694789D01*
X3599005Y-4621275D01*
X3599005Y-4621275D01*
X3599005Y-4621275D01*
X3593664Y-4619968D01*
X3592763Y-4619446D01*
X3591730Y-4619322D01*
X3589793Y-4617723D01*
X3587620Y-4616462D01*
X3587145Y-4615536D01*
X3586342Y-4614874D01*
X3585577Y-4612481D01*
X3584431Y-4610246D01*
X3584475Y-4609033D01*
X3584215Y-4608218D01*
X3584634Y-4604714D01*
X3590500Y-4582822D01*
X3590683Y-4582204D01*
X3609909Y-4523032D01*
X3613852Y-4517265D01*
X3620288Y-4514545D01*
X3627173Y-4515736D01*
G37*
%TD.AperFunction*%
%TA.AperFunction,Conductor*%
G36*
X5694304Y-4715719D02*
G01*
X5698879Y-4720999D01*
X5700000Y-4726150D01*
X5700000Y-4829730D01*
X5700000Y-4829730D01*
X5700249Y-4829710D01*
X5716020Y-4825128D01*
X5728271Y-4817883D01*
X5729211Y-4817644D01*
X5729974Y-4817045D01*
X5732542Y-4816799D01*
X5735043Y-4816165D01*
X5735963Y-4816472D01*
X5736929Y-4816380D01*
X5739223Y-4817562D01*
X5741669Y-4818381D01*
X5742442Y-4819222D01*
X5743139Y-4819581D01*
X5745321Y-4822355D01*
X5745897Y-4823352D01*
X5745897Y-4823354D01*
X5745898Y-4823354D01*
X5745954Y-4823451D01*
X5758785Y-4836282D01*
X5762133Y-4842414D01*
X5761635Y-4849383D01*
X5757448Y-4854977D01*
X5750901Y-4857418D01*
X5750017Y-4857450D01*
X5734348Y-4857450D01*
X5726252Y-4858732D01*
X5724970Y-4858935D01*
X5713666Y-4864695D01*
X5713666Y-4864695D01*
X5713665Y-4864695D01*
X5704695Y-4873665D01*
X5704695Y-4873666D01*
X5702200Y-4878561D01*
X5701203Y-4879618D01*
X5700614Y-4880947D01*
X5698851Y-4882107D01*
X5697403Y-4883641D01*
X5695992Y-4883990D01*
X5694779Y-4884790D01*
X5692669Y-4884813D01*
X5690621Y-4885320D01*
X5689245Y-4884852D01*
X5687792Y-4884868D01*
X5686004Y-4883747D01*
X5684007Y-4883066D01*
X5682995Y-4881861D01*
X5681872Y-4881157D01*
X5680780Y-4879221D01*
X5679931Y-4878209D01*
X5670183Y-4857482D01*
X5669742Y-4854643D01*
X5669009Y-4851864D01*
X5669204Y-4851174D01*
X5669111Y-4850578D01*
X5669833Y-4848950D01*
X5670666Y-4846005D01*
X5671639Y-4844319D01*
X5675050Y-4831589D01*
X5675050Y-4818411D01*
X5671639Y-4805681D01*
X5665050Y-4794269D01*
X5655731Y-4784950D01*
X5655731Y-4784950D01*
X5655731Y-4784950D01*
X5655087Y-4784455D01*
X5655258Y-4784233D01*
X5651377Y-4780162D01*
X5650000Y-4774482D01*
X5650000Y-4726150D01*
X5651968Y-4719446D01*
X5657249Y-4714871D01*
X5662400Y-4713750D01*
X5687600Y-4713750D01*
X5694304Y-4715719D01*
G37*
%TD.AperFunction*%
%TA.AperFunction,Conductor*%
G36*
X5960000Y-4757412D02*
G01*
X5960758Y-4757291D01*
X5977226Y-4751941D01*
X5986420Y-4747256D01*
X5993287Y-4745966D01*
X5999761Y-4748594D01*
X6003787Y-4754304D01*
X6004450Y-4758304D01*
X6004450Y-4781975D01*
X6004486Y-4782156D01*
X6005565Y-4787581D01*
X6005565Y-4788415D01*
X6005754Y-4788895D01*
X6005565Y-4792419D01*
X6004568Y-4797430D01*
X6001330Y-4803621D01*
X5995258Y-4807079D01*
X5989197Y-4806989D01*
X5981589Y-4804950D01*
X5981589Y-4804950D01*
X5968411Y-4804950D01*
X5955681Y-4808361D01*
X5944269Y-4814950D01*
X5944268Y-4814950D01*
X5934950Y-4824268D01*
X5934950Y-4824269D01*
X5928361Y-4835681D01*
X5926556Y-4842417D01*
X5924950Y-4848411D01*
X5924950Y-4861589D01*
X5926361Y-4866854D01*
X5927054Y-4869441D01*
X5926994Y-4871940D01*
X5927350Y-4874415D01*
X5926912Y-4875373D01*
X5926887Y-4876426D01*
X5925486Y-4878496D01*
X5924448Y-4880770D01*
X5923561Y-4881340D01*
X5922971Y-4882212D01*
X5920673Y-4883196D01*
X5918570Y-4884548D01*
X5916984Y-4884776D01*
X5916548Y-4884962D01*
X5915076Y-4885050D01*
X5897683Y-4885050D01*
X5890979Y-4883082D01*
X5888915Y-4881418D01*
X5812301Y-4804804D01*
X5808952Y-4798671D01*
X5809451Y-4791702D01*
X5812301Y-4787267D01*
X5813055Y-4786513D01*
X5813920Y-4785648D01*
X5819057Y-4775139D01*
X5820050Y-4768326D01*
X5820050Y-4717091D01*
X5822018Y-4710387D01*
X5827299Y-4705812D01*
X5834215Y-4704818D01*
X5840570Y-4707720D01*
X5842482Y-4709803D01*
X5851097Y-4721660D01*
X5863340Y-4733903D01*
X5877347Y-4744080D01*
X5892774Y-4751941D01*
X5909241Y-4757291D01*
X5909241Y-4757291D01*
X5910000Y-4757412D01*
X5910000Y-4757411D01*
X5910000Y-4674498D01*
X5913509Y-4678007D01*
X5921490Y-4682615D01*
X5930392Y-4685000D01*
X5939608Y-4685000D01*
X5948509Y-4682615D01*
X5956490Y-4678007D01*
X5960000Y-4674498D01*
X5960000Y-4757412D01*
G37*
%TD.AperFunction*%
%TA.AperFunction,Conductor*%
G36*
X5532648Y-4781089D02*
G01*
X5535843Y-4785163D01*
X5536080Y-4785648D01*
X5544351Y-4793920D01*
X5544352Y-4793920D01*
X5544352Y-4793920D01*
X5554861Y-4799057D01*
X5554861Y-4799057D01*
X5555726Y-4799480D01*
X5555642Y-4799651D01*
X5556667Y-4799874D01*
X5559493Y-4801990D01*
X5564997Y-4807494D01*
X5568346Y-4813626D01*
X5567847Y-4820596D01*
X5563660Y-4826189D01*
X5559918Y-4828101D01*
X5543560Y-4833198D01*
X5529012Y-4841993D01*
X5529012Y-4841993D01*
X5521318Y-4849687D01*
X5515186Y-4853035D01*
X5508217Y-4852537D01*
X5502623Y-4848350D01*
X5500182Y-4841803D01*
X5500150Y-4840919D01*
X5500150Y-4828364D01*
X5500150Y-4828364D01*
X5496739Y-4815634D01*
X5496739Y-4815634D01*
X5496529Y-4814849D01*
X5496859Y-4814761D01*
X5496279Y-4809386D01*
X5499405Y-4803137D01*
X5499715Y-4802815D01*
X5507257Y-4795273D01*
X5514149Y-4784100D01*
X5519344Y-4779427D01*
X5526240Y-4778305D01*
X5532648Y-4781089D01*
G37*
%TD.AperFunction*%
%TA.AperFunction,Conductor*%
G36*
X4784383Y-4558365D02*
G01*
X4789977Y-4562552D01*
X4792418Y-4569098D01*
X4792450Y-4569983D01*
X4792450Y-4608840D01*
X4793779Y-4615520D01*
X4793976Y-4616512D01*
X4797910Y-4622400D01*
X4799998Y-4629067D01*
X4800000Y-4629289D01*
X4800000Y-4697500D01*
X4866737Y-4697500D01*
X4873441Y-4699469D01*
X4875505Y-4701132D01*
X4957142Y-4782768D01*
X4958612Y-4785461D01*
X4960271Y-4788043D01*
X4960360Y-4788663D01*
X4960490Y-4788900D01*
X4960773Y-4791536D01*
X4960773Y-4791855D01*
X4958805Y-4798559D01*
X4953525Y-4803135D01*
X4951583Y-4803833D01*
X4950913Y-4804012D01*
X4936622Y-4809932D01*
X4936621Y-4809932D01*
X4934097Y-4811869D01*
X4927580Y-4814388D01*
X4920736Y-4812984D01*
X4915737Y-4808103D01*
X4914149Y-4802031D01*
X4914149Y-4794885D01*
X4914149Y-4794885D01*
X4910738Y-4782156D01*
X4904149Y-4770743D01*
X4894830Y-4761424D01*
X4887672Y-4757291D01*
X4883417Y-4754835D01*
X4881690Y-4754372D01*
X4876224Y-4751040D01*
X4876132Y-4751132D01*
X4875753Y-4750753D01*
X4875725Y-4750736D01*
X4875714Y-4750714D01*
X4872500Y-4747500D01*
X4675813Y-4747500D01*
X4669109Y-4745532D01*
X4664534Y-4740251D01*
X4663836Y-4738309D01*
X4663649Y-4737613D01*
X4662068Y-4731713D01*
X4655479Y-4720300D01*
X4647998Y-4712819D01*
X4647883Y-4712607D01*
X4647676Y-4712484D01*
X4646217Y-4709556D01*
X4644650Y-4706687D01*
X4644667Y-4706446D01*
X4644559Y-4706230D01*
X4644915Y-4702980D01*
X4645148Y-4699718D01*
X4645301Y-4699450D01*
X4645319Y-4699285D01*
X4645835Y-4698514D01*
X4647126Y-4696253D01*
X4647536Y-4695745D01*
X4652550Y-4690731D01*
X4654940Y-4686592D01*
X4655551Y-4685836D01*
X4657657Y-4684380D01*
X4659510Y-4682613D01*
X4660483Y-4682425D01*
X4661298Y-4681862D01*
X4663856Y-4681775D01*
X4666371Y-4681290D01*
X4667290Y-4681659D01*
X4668281Y-4681625D01*
X4670480Y-4682935D01*
X4672857Y-4683887D01*
X4673432Y-4684694D01*
X4674283Y-4685201D01*
X4675425Y-4687493D01*
X4676910Y-4689579D01*
X4677046Y-4690746D01*
X4677399Y-4691455D01*
X4677268Y-4692655D01*
X4677528Y-4694893D01*
X4677500Y-4695166D01*
X4677500Y-4695169D01*
X4677500Y-4697500D01*
X4750000Y-4697500D01*
X4750000Y-4627500D01*
X4750000Y-4627500D01*
X4745169Y-4627500D01*
X4745168Y-4627500D01*
X4735239Y-4628514D01*
X4719152Y-4633845D01*
X4719151Y-4633846D01*
X4704727Y-4642742D01*
X4704727Y-4642743D01*
X4692743Y-4654727D01*
X4685504Y-4666463D01*
X4680309Y-4671135D01*
X4673413Y-4672257D01*
X4667004Y-4669473D01*
X4663119Y-4663666D01*
X4662550Y-4659953D01*
X4662550Y-4653411D01*
X4662550Y-4653411D01*
X4659139Y-4640681D01*
X4652550Y-4629269D01*
X4652549Y-4629268D01*
X4652055Y-4628624D01*
X4652291Y-4628443D01*
X4649623Y-4623558D01*
X4650121Y-4616589D01*
X4653737Y-4611450D01*
X4669235Y-4598357D01*
X4671973Y-4597148D01*
X4674601Y-4595713D01*
X4675191Y-4595727D01*
X4675627Y-4595534D01*
X4677154Y-4595774D01*
X4680447Y-4595852D01*
X4680911Y-4595976D01*
X4680911Y-4595976D01*
X4694089Y-4595976D01*
X4694089Y-4595976D01*
X4706819Y-4592566D01*
X4718231Y-4585976D01*
X4724600Y-4579608D01*
X4730732Y-4576260D01*
X4733368Y-4575976D01*
X4748030Y-4575976D01*
X4748030Y-4575976D01*
X4755673Y-4573928D01*
X4762525Y-4569972D01*
X4768120Y-4564377D01*
X4771282Y-4561215D01*
X4777414Y-4557867D01*
X4784383Y-4558365D01*
G37*
%TD.AperFunction*%
%TA.AperFunction,Conductor*%
G36*
X5419304Y-4529469D02*
G01*
X5423879Y-4534749D01*
X5425000Y-4539900D01*
X5425000Y-4552500D01*
X5437600Y-4552500D01*
X5444304Y-4554469D01*
X5448879Y-4559749D01*
X5450000Y-4564900D01*
X5450000Y-4615441D01*
X5452217Y-4619500D01*
X5452500Y-4622136D01*
X5452500Y-4712600D01*
X5450532Y-4719304D01*
X5445251Y-4723879D01*
X5440100Y-4725000D01*
X5414900Y-4725000D01*
X5408196Y-4723032D01*
X5403621Y-4717751D01*
X5402500Y-4712600D01*
X5402500Y-4659559D01*
X5400283Y-4655500D01*
X5400000Y-4652864D01*
X5400000Y-4577500D01*
X5327500Y-4577500D01*
X5327500Y-4579832D01*
X5328514Y-4589761D01*
X5333845Y-4605848D01*
X5333846Y-4605849D01*
X5342742Y-4620273D01*
X5342743Y-4620273D01*
X5353701Y-4631232D01*
X5353730Y-4631285D01*
X5353783Y-4631314D01*
X5355404Y-4634350D01*
X5357050Y-4637364D01*
X5357046Y-4637424D01*
X5357074Y-4637477D01*
X5356796Y-4640907D01*
X5356551Y-4644333D01*
X5356514Y-4644402D01*
X5356511Y-4644441D01*
X5356385Y-4644635D01*
X5354790Y-4647523D01*
X5340842Y-4665798D01*
X5338503Y-4667515D01*
X5336344Y-4669457D01*
X5335720Y-4669558D01*
X5335210Y-4669932D01*
X5332313Y-4670112D01*
X5329448Y-4670579D01*
X5328868Y-4670327D01*
X5328237Y-4670366D01*
X5325702Y-4668951D01*
X5323040Y-4667794D01*
X5322217Y-4667042D01*
X5320323Y-4665148D01*
X5320322Y-4665147D01*
X5320322Y-4665147D01*
X5308313Y-4659028D01*
X5308312Y-4659028D01*
X5308312Y-4659028D01*
X5298349Y-4657450D01*
X5298349Y-4657450D01*
X5246651Y-4657450D01*
X5246651Y-4657450D01*
X5238888Y-4658679D01*
X5231959Y-4657784D01*
X5226614Y-4653284D01*
X5224550Y-4646609D01*
X5226422Y-4639878D01*
X5227111Y-4638883D01*
X5230384Y-4634618D01*
X5236052Y-4620934D01*
X5236052Y-4620934D01*
X5237500Y-4609938D01*
X5237500Y-4609936D01*
X5237500Y-4581250D01*
X5169950Y-4581250D01*
X5169081Y-4580995D01*
X5168185Y-4581124D01*
X5165781Y-4580026D01*
X5163246Y-4579282D01*
X5162653Y-4578597D01*
X5161830Y-4578221D01*
X5160401Y-4575998D01*
X5158671Y-4574001D01*
X5158442Y-4572950D01*
X5158052Y-4572344D01*
X5157550Y-4568850D01*
X5157550Y-4568650D01*
X5159518Y-4561946D01*
X5164799Y-4557371D01*
X5169950Y-4556250D01*
X5237500Y-4556250D01*
X5237500Y-4544950D01*
X5239469Y-4538246D01*
X5244749Y-4533671D01*
X5249900Y-4532550D01*
X5283840Y-4532550D01*
X5291512Y-4531024D01*
X5291512Y-4531024D01*
X5291585Y-4530994D01*
X5296330Y-4530050D01*
X5328956Y-4530050D01*
X5328956Y-4530050D01*
X5336599Y-4528002D01*
X5336599Y-4528002D01*
X5336896Y-4527923D01*
X5340105Y-4527500D01*
X5412600Y-4527500D01*
X5419304Y-4529469D01*
G37*
%TD.AperFunction*%
%TA.AperFunction,Conductor*%
G36*
X5536608Y-4562239D02*
G01*
X5536664Y-4562231D01*
X5536797Y-4562291D01*
X5539898Y-4563156D01*
X5542025Y-4564093D01*
X5544352Y-4566420D01*
X5554861Y-4571557D01*
X5561006Y-4572453D01*
X5562548Y-4573132D01*
X5567890Y-4577636D01*
X5569949Y-4584312D01*
X5569950Y-4584480D01*
X5569950Y-4615520D01*
X5567982Y-4622224D01*
X5562701Y-4626799D01*
X5559338Y-4627790D01*
X5554861Y-4628443D01*
X5544351Y-4633580D01*
X5536080Y-4641851D01*
X5530943Y-4652361D01*
X5530658Y-4653281D01*
X5530325Y-4653178D01*
X5528138Y-4657939D01*
X5522251Y-4661702D01*
X5515264Y-4661686D01*
X5509625Y-4658154D01*
X5498406Y-4645857D01*
X5496994Y-4642963D01*
X5495450Y-4640136D01*
X5495471Y-4639842D01*
X5495342Y-4639578D01*
X5495719Y-4636379D01*
X5495949Y-4633167D01*
X5496130Y-4632884D01*
X5496159Y-4632639D01*
X5496746Y-4631926D01*
X5498799Y-4628732D01*
X5507257Y-4620273D01*
X5507258Y-4620273D01*
X5516154Y-4605849D01*
X5516155Y-4605848D01*
X5521486Y-4589761D01*
X5522500Y-4579832D01*
X5522500Y-4574505D01*
X5523462Y-4571228D01*
X5524379Y-4567942D01*
X5524444Y-4567884D01*
X5524468Y-4567801D01*
X5527049Y-4565564D01*
X5529597Y-4563296D01*
X5529683Y-4563282D01*
X5529749Y-4563225D01*
X5533126Y-4562739D01*
X5536498Y-4562208D01*
X5536608Y-4562239D01*
G37*
%TD.AperFunction*%
%TA.AperFunction,Conductor*%
G36*
X5789163Y-4200769D02*
G01*
X5793738Y-4206049D01*
X5794733Y-4212965D01*
X5793198Y-4217400D01*
X5785344Y-4231002D01*
X5764117Y-4267770D01*
X5760713Y-4276635D01*
X5760049Y-4289304D01*
X5763333Y-4301558D01*
X5763333Y-4301559D01*
X5770243Y-4312198D01*
X5777622Y-4318174D01*
X5807365Y-4335346D01*
X5817709Y-4341318D01*
X5817722Y-4341326D01*
X5826587Y-4344729D01*
X5838054Y-4345330D01*
X5839256Y-4345393D01*
X5839256Y-4345393D01*
X5839256Y-4345393D01*
X5847148Y-4343278D01*
X5854132Y-4343445D01*
X5859919Y-4347361D01*
X5861096Y-4349056D01*
X5861337Y-4349473D01*
X5864950Y-4355731D01*
X5874269Y-4365050D01*
X5883370Y-4370305D01*
X5884552Y-4370987D01*
X5885681Y-4371639D01*
X5898411Y-4375050D01*
X5898411Y-4375050D01*
X5911589Y-4375050D01*
X5911589Y-4375050D01*
X5924319Y-4371639D01*
X5924319Y-4371639D01*
X5925104Y-4371429D01*
X5925155Y-4371620D01*
X5931036Y-4370987D01*
X5937284Y-4374115D01*
X5939446Y-4376775D01*
X5941992Y-4380987D01*
X5941993Y-4380988D01*
X5954012Y-4393007D01*
X5968560Y-4401802D01*
X5968560Y-4401802D01*
X5984789Y-4406859D01*
X5984789Y-4406859D01*
X5991841Y-4407500D01*
X5991843Y-4407500D01*
X5992500Y-4407500D01*
X5992500Y-4407500D01*
X5992500Y-4322400D01*
X5994468Y-4315696D01*
X5999749Y-4311121D01*
X6004900Y-4310000D01*
X6030100Y-4310000D01*
X6036804Y-4311969D01*
X6041379Y-4317249D01*
X6042500Y-4322400D01*
X6042500Y-4407500D01*
X6043158Y-4407500D01*
X6050210Y-4406859D01*
X6050211Y-4406859D01*
X6066440Y-4401802D01*
X6080988Y-4393007D01*
X6093007Y-4380988D01*
X6101802Y-4366440D01*
X6104313Y-4358379D01*
X6108187Y-4352564D01*
X6114590Y-4349767D01*
X6121488Y-4350875D01*
X6126693Y-4355537D01*
X6127200Y-4356438D01*
X6129695Y-4361334D01*
X6129695Y-4361334D01*
X6129695Y-4361335D01*
X6138665Y-4370305D01*
X6138665Y-4370305D01*
X6138666Y-4370305D01*
X6149970Y-4376065D01*
X6149970Y-4376065D01*
X6159347Y-4377550D01*
X6159348Y-4377550D01*
X6204917Y-4377550D01*
X6211620Y-4379518D01*
X6213685Y-4381182D01*
X6236318Y-4403815D01*
X6239667Y-4409948D01*
X6239950Y-4412583D01*
X6239950Y-4454132D01*
X6237981Y-4460836D01*
X6236318Y-4462900D01*
X6229950Y-4469269D01*
X6224126Y-4479357D01*
X6223361Y-4480681D01*
X6222951Y-4482212D01*
X6222821Y-4482694D01*
X6219185Y-4488660D01*
X6212900Y-4491713D01*
X6205963Y-4490884D01*
X6200575Y-4486435D01*
X6200105Y-4485685D01*
X6199336Y-4484352D01*
X6196452Y-4479357D01*
X6185643Y-4468548D01*
X6174972Y-4462387D01*
X6172407Y-4460906D01*
X6172407Y-4460906D01*
X6172406Y-4460906D01*
X6157642Y-4456950D01*
X6142358Y-4456950D01*
X6127593Y-4460906D01*
X6127593Y-4460906D01*
X6114357Y-4468548D01*
X6114356Y-4468549D01*
X6103549Y-4479356D01*
X6103548Y-4479357D01*
X6095906Y-4492593D01*
X6095906Y-4492594D01*
X6091950Y-4507358D01*
X6091950Y-4522642D01*
X6095098Y-4534391D01*
X6094932Y-4541376D01*
X6091015Y-4547162D01*
X6084593Y-4549912D01*
X6083120Y-4550000D01*
X6082000Y-4550000D01*
X6082000Y-4600000D01*
X6218000Y-4600000D01*
X6218000Y-4548718D01*
X6218300Y-4547697D01*
X6218175Y-4546640D01*
X6219267Y-4544402D01*
X6219968Y-4542014D01*
X6220772Y-4541317D01*
X6221239Y-4540361D01*
X6223367Y-4539068D01*
X6225249Y-4537438D01*
X6226302Y-4537287D01*
X6227211Y-4536735D01*
X6229700Y-4536798D01*
X6232165Y-4536444D01*
X6233132Y-4536886D01*
X6234196Y-4536913D01*
X6237368Y-4538461D01*
X6238338Y-4539120D01*
X6239269Y-4540050D01*
X6242193Y-4541739D01*
X6242568Y-4541993D01*
X6244511Y-4544355D01*
X6246622Y-4546568D01*
X6246710Y-4547028D01*
X6247007Y-4547389D01*
X6248000Y-4552250D01*
X6248000Y-4602600D01*
X6246031Y-4609304D01*
X6240751Y-4613879D01*
X6235600Y-4615000D01*
X6233000Y-4615000D01*
X6233000Y-4617550D01*
X6231031Y-4624254D01*
X6225751Y-4628829D01*
X6220600Y-4629950D01*
X6188426Y-4629950D01*
X6187408Y-4630000D01*
X6112592Y-4630000D01*
X6111574Y-4629950D01*
X6111475Y-4629950D01*
X6079400Y-4629950D01*
X6078531Y-4629695D01*
X6077635Y-4629824D01*
X6075231Y-4628726D01*
X6072696Y-4627982D01*
X6072103Y-4627297D01*
X6071280Y-4626921D01*
X6069851Y-4624698D01*
X6068121Y-4622701D01*
X6067892Y-4621650D01*
X6067502Y-4621044D01*
X6067000Y-4617550D01*
X6067000Y-4615000D01*
X6064400Y-4615000D01*
X6057696Y-4613032D01*
X6053121Y-4607751D01*
X6052000Y-4602600D01*
X6052000Y-4550000D01*
X6019715Y-4550000D01*
X6013763Y-4550640D01*
X6013762Y-4550640D01*
X6000698Y-4555513D01*
X5993729Y-4556011D01*
X5990736Y-4554943D01*
X5977226Y-4548059D01*
X5960759Y-4542709D01*
X5960758Y-4542709D01*
X5960000Y-4542588D01*
X5960000Y-4625503D01*
X5956490Y-4621993D01*
X5948509Y-4617385D01*
X5939608Y-4615000D01*
X5930392Y-4615000D01*
X5921490Y-4617385D01*
X5913509Y-4621993D01*
X5910000Y-4625503D01*
X5910000Y-4542588D01*
X5910000Y-4542588D01*
X5909242Y-4542709D01*
X5909241Y-4542709D01*
X5892774Y-4548059D01*
X5877347Y-4555920D01*
X5863340Y-4566097D01*
X5851097Y-4578340D01*
X5840919Y-4592348D01*
X5833059Y-4607774D01*
X5827708Y-4624242D01*
X5827222Y-4627311D01*
X5824230Y-4633624D01*
X5818298Y-4637317D01*
X5811312Y-4637217D01*
X5810007Y-4636732D01*
X5807862Y-4635794D01*
X5805648Y-4633580D01*
X5795139Y-4628443D01*
X5789011Y-4627550D01*
X5787481Y-4626881D01*
X5786031Y-4625665D01*
X5784312Y-4624876D01*
X5783410Y-4623466D01*
X5782128Y-4622391D01*
X5781566Y-4620585D01*
X5780546Y-4618991D01*
X5780101Y-4615880D01*
X5780052Y-4615720D01*
X5780069Y-4615656D01*
X5780050Y-4615520D01*
X5780050Y-4584480D01*
X5782018Y-4577776D01*
X5787299Y-4573201D01*
X5790662Y-4572210D01*
X5795139Y-4571557D01*
X5805648Y-4566420D01*
X5813920Y-4558148D01*
X5819057Y-4547639D01*
X5820050Y-4540826D01*
X5820050Y-4431674D01*
X5819057Y-4424861D01*
X5813920Y-4414352D01*
X5813920Y-4414352D01*
X5813920Y-4414351D01*
X5805648Y-4406080D01*
X5805390Y-4405954D01*
X5795139Y-4400943D01*
X5795139Y-4400943D01*
X5788326Y-4399950D01*
X5788326Y-4399950D01*
X5772583Y-4399950D01*
X5765879Y-4397982D01*
X5763815Y-4396318D01*
X5733682Y-4366185D01*
X5730333Y-4360053D01*
X5730050Y-4357417D01*
X5730050Y-4326044D01*
X5730022Y-4325938D01*
X5728002Y-4318401D01*
X5727775Y-4318007D01*
X5724046Y-4311550D01*
X5724046Y-4311549D01*
X5695009Y-4282512D01*
X5691660Y-4276379D01*
X5692158Y-4269410D01*
X5696346Y-4263817D01*
X5700567Y-4261766D01*
X5708616Y-4259609D01*
X5719256Y-4252700D01*
X5725232Y-4245320D01*
X5748511Y-4205000D01*
X5749379Y-4204172D01*
X5749878Y-4203080D01*
X5751861Y-4201805D01*
X5753567Y-4200179D01*
X5754893Y-4199857D01*
X5755756Y-4199302D01*
X5759249Y-4198800D01*
X5782459Y-4198800D01*
X5789163Y-4200769D01*
G37*
%TD.AperFunction*%
%TA.AperFunction,Conductor*%
G36*
X6216743Y-4178749D02*
G01*
X6221607Y-4183091D01*
X6237512Y-4207583D01*
X6252829Y-4231168D01*
X6253161Y-4231681D01*
X6253500Y-4232233D01*
X6261056Y-4245320D01*
X6291654Y-4298319D01*
X6291964Y-4298889D01*
X6322511Y-4358840D01*
X6325418Y-4364546D01*
X6326608Y-4366881D01*
X6326887Y-4367467D01*
X6357925Y-4437178D01*
X6358173Y-4437778D01*
X6385520Y-4509018D01*
X6385736Y-4509630D01*
X6392485Y-4530399D01*
X6392684Y-4537384D01*
X6390000Y-4541835D01*
X6390000Y-4625503D01*
X6386490Y-4621993D01*
X6378509Y-4617385D01*
X6369608Y-4615000D01*
X6360392Y-4615000D01*
X6351490Y-4617385D01*
X6343509Y-4621993D01*
X6340000Y-4625503D01*
X6340000Y-4542588D01*
X6340000Y-4542588D01*
X6339242Y-4542709D01*
X6339241Y-4542709D01*
X6325520Y-4547167D01*
X6318535Y-4547367D01*
X6312552Y-4543759D01*
X6309469Y-4537489D01*
X6310266Y-4530547D01*
X6310948Y-4529175D01*
X6316639Y-4519319D01*
X6320050Y-4506589D01*
X6320050Y-4493411D01*
X6316639Y-4480681D01*
X6310050Y-4469269D01*
X6303682Y-4462900D01*
X6300333Y-4456768D01*
X6300050Y-4454132D01*
X6300050Y-4391044D01*
X6300050Y-4391044D01*
X6298859Y-4386599D01*
X6298002Y-4383401D01*
X6294046Y-4376549D01*
X6246182Y-4328685D01*
X6242833Y-4322552D01*
X6242550Y-4319917D01*
X6242550Y-4279348D01*
X6242252Y-4277467D01*
X6241065Y-4269970D01*
X6235305Y-4258666D01*
X6235305Y-4258665D01*
X6235304Y-4258665D01*
X6226335Y-4249695D01*
X6226334Y-4249695D01*
X6226334Y-4249695D01*
X6217748Y-4245320D01*
X6215030Y-4243935D01*
X6205652Y-4242450D01*
X6185017Y-4242450D01*
X6178313Y-4240482D01*
X6173737Y-4235201D01*
X6172743Y-4228285D01*
X6175645Y-4221930D01*
X6176248Y-4221282D01*
X6187258Y-4210273D01*
X6196154Y-4195849D01*
X6196155Y-4195848D01*
X6199437Y-4185944D01*
X6203414Y-4180199D01*
X6209865Y-4177517D01*
X6216743Y-4178749D01*
G37*
%TD.AperFunction*%
%TA.AperFunction,Conductor*%
G36*
X3710749Y-4324765D02*
G01*
X3715094Y-4330236D01*
X3715860Y-4333013D01*
X3716801Y-4339128D01*
X3716801Y-4339128D01*
X3717579Y-4340410D01*
X3720939Y-4345947D01*
X3725748Y-4349473D01*
X3814897Y-4391044D01*
X3868111Y-4415858D01*
X3873355Y-4420475D01*
X3875270Y-4427195D01*
X3873248Y-4433883D01*
X3871638Y-4435864D01*
X3819054Y-4488449D01*
X3816361Y-4489919D01*
X3813779Y-4491579D01*
X3813159Y-4491668D01*
X3812921Y-4491798D01*
X3810286Y-4492081D01*
X3797937Y-4492081D01*
X3792697Y-4490919D01*
X3683529Y-4440013D01*
X3683528Y-4440013D01*
X3682695Y-4439809D01*
X3677736Y-4438596D01*
X3677736Y-4438596D01*
X3669853Y-4439809D01*
X3669852Y-4439809D01*
X3664066Y-4443320D01*
X3657314Y-4445115D01*
X3650663Y-4442974D01*
X3646225Y-4437578D01*
X3645410Y-4430639D01*
X3646306Y-4427676D01*
X3673114Y-4367464D01*
X3673390Y-4366884D01*
X3692556Y-4329270D01*
X3697353Y-4324191D01*
X3704135Y-4322511D01*
X3710749Y-4324765D01*
G37*
%TD.AperFunction*%
%TA.AperFunction,Conductor*%
G36*
X4090068Y-4326212D02*
G01*
X4202649Y-4378709D01*
X4207893Y-4383326D01*
X4209808Y-4390046D01*
X4208647Y-4395188D01*
X4197996Y-4418027D01*
X4193379Y-4423271D01*
X4186660Y-4425186D01*
X4181518Y-4424025D01*
X4070404Y-4372212D01*
X4066270Y-4381077D01*
X4064334Y-4386745D01*
X4064192Y-4388533D01*
X4064046Y-4388912D01*
X4064104Y-4389315D01*
X4062810Y-4392149D01*
X4061698Y-4395060D01*
X4061371Y-4395301D01*
X4061202Y-4395670D01*
X4058580Y-4397355D01*
X4056071Y-4399202D01*
X4055568Y-4399291D01*
X4055324Y-4399448D01*
X4051831Y-4399950D01*
X4043611Y-4399950D01*
X4036907Y-4397982D01*
X4032331Y-4392701D01*
X4031337Y-4385785D01*
X4031633Y-4384341D01*
X4031639Y-4384319D01*
X4031639Y-4384319D01*
X4035050Y-4371589D01*
X4035050Y-4358411D01*
X4031639Y-4345681D01*
X4030466Y-4343650D01*
X4028819Y-4336860D01*
X4031104Y-4330257D01*
X4036596Y-4325938D01*
X4041205Y-4325050D01*
X4045256Y-4325050D01*
X4084827Y-4325050D01*
X4090068Y-4326212D01*
G37*
%TD.AperFunction*%
%TA.AperFunction,Conductor*%
G36*
X4080332Y-3863236D02*
G01*
X4085457Y-3867985D01*
X4087161Y-3873257D01*
X4087708Y-3879510D01*
X4087708Y-3879510D01*
X4087708Y-3879510D01*
X4087816Y-3879996D01*
X4088869Y-3884748D01*
X4093372Y-3897119D01*
X4095848Y-3901877D01*
X4095849Y-3901877D01*
X4099624Y-3907269D01*
X4128303Y-3948227D01*
X4128303Y-3948227D01*
X4132079Y-3953619D01*
X4133844Y-3955546D01*
X4134198Y-3956014D01*
X4135234Y-3958755D01*
X4136525Y-3961384D01*
X4136611Y-3962396D01*
X4136669Y-3962549D01*
X4136637Y-3962699D01*
X4136705Y-3963490D01*
X4136705Y-3967377D01*
X4134737Y-3974081D01*
X4133073Y-3976145D01*
X4129950Y-3979268D01*
X4129950Y-3979269D01*
X4123361Y-3990681D01*
X4120780Y-4000312D01*
X4119950Y-4003411D01*
X4119950Y-4016589D01*
X4121346Y-4021799D01*
X4123361Y-4029319D01*
X4126203Y-4034241D01*
X4129950Y-4040731D01*
X4139269Y-4050050D01*
X4150681Y-4056639D01*
X4163411Y-4060050D01*
X4163411Y-4060050D01*
X4176589Y-4060050D01*
X4176589Y-4060050D01*
X4189319Y-4056639D01*
X4200731Y-4050050D01*
X4210050Y-4040731D01*
X4216639Y-4029319D01*
X4220050Y-4016589D01*
X4220050Y-4003411D01*
X4216639Y-3990681D01*
X4214683Y-3987293D01*
X4214550Y-3986746D01*
X4214178Y-3986322D01*
X4213736Y-3983388D01*
X4213036Y-3980503D01*
X4213220Y-3979971D01*
X4213136Y-3979413D01*
X4214350Y-3976705D01*
X4215321Y-3973901D01*
X4215825Y-3973417D01*
X4215995Y-3973038D01*
X4217304Y-3971997D01*
X4218646Y-3970708D01*
X4219155Y-3970376D01*
X4221168Y-3969328D01*
X4226560Y-3965552D01*
X4267518Y-3936874D01*
X4270968Y-3933829D01*
X4273391Y-3929508D01*
X4278387Y-3924624D01*
X4282315Y-3923779D01*
X4282243Y-3923339D01*
X4283621Y-3923113D01*
X4283621Y-3923113D01*
X4292093Y-3919666D01*
X4313333Y-3904793D01*
X4319953Y-3902561D01*
X4326730Y-3904262D01*
X4329213Y-3906183D01*
X4406318Y-3983288D01*
X4407788Y-3985980D01*
X4409448Y-3988562D01*
X4409537Y-3989182D01*
X4409667Y-3989420D01*
X4409950Y-3992056D01*
X4409950Y-4006764D01*
X4407982Y-4013468D01*
X4402701Y-4018043D01*
X4400884Y-4018591D01*
X4400898Y-4018634D01*
X4399970Y-4018935D01*
X4397586Y-4020150D01*
X4388666Y-4024695D01*
X4388666Y-4024695D01*
X4388665Y-4024695D01*
X4379695Y-4033665D01*
X4379695Y-4033666D01*
X4379695Y-4033666D01*
X4379169Y-4034699D01*
X4373935Y-4044970D01*
X4372450Y-4054347D01*
X4372450Y-4100652D01*
X4373329Y-4106200D01*
X4373935Y-4110030D01*
X4379695Y-4121334D01*
X4379695Y-4121334D01*
X4379695Y-4121335D01*
X4388665Y-4130304D01*
X4388665Y-4130305D01*
X4388666Y-4130305D01*
X4393561Y-4132799D01*
X4398641Y-4137597D01*
X4400320Y-4144379D01*
X4398067Y-4150992D01*
X4392595Y-4155337D01*
X4391621Y-4155686D01*
X4383560Y-4158198D01*
X4369012Y-4166993D01*
X4356993Y-4179012D01*
X4348198Y-4193560D01*
X4343141Y-4209789D01*
X4342500Y-4216843D01*
X4342500Y-4217500D01*
X4427600Y-4217500D01*
X4434304Y-4219469D01*
X4438879Y-4224749D01*
X4440000Y-4229900D01*
X4440000Y-4255100D01*
X4438032Y-4261804D01*
X4432751Y-4266379D01*
X4427600Y-4267500D01*
X4342500Y-4267500D01*
X4342500Y-4268158D01*
X4343141Y-4275210D01*
X4343141Y-4275211D01*
X4348198Y-4291440D01*
X4356993Y-4305988D01*
X4369012Y-4318007D01*
X4375515Y-4321938D01*
X4380234Y-4327091D01*
X4381418Y-4333977D01*
X4378691Y-4340410D01*
X4372919Y-4344347D01*
X4369100Y-4344950D01*
X4359654Y-4344950D01*
X4352951Y-4342982D01*
X4350886Y-4341318D01*
X4271521Y-4261953D01*
X4271521Y-4261953D01*
X4263529Y-4257339D01*
X4263513Y-4257334D01*
X4262495Y-4257062D01*
X4262495Y-4257062D01*
X4257344Y-4255681D01*
X4254614Y-4254950D01*
X4254614Y-4254950D01*
X4060296Y-4254950D01*
X4053592Y-4252982D01*
X4051528Y-4251318D01*
X4011201Y-4210991D01*
X4007853Y-4204859D01*
X4008351Y-4197890D01*
X4008731Y-4196983D01*
X4008949Y-4196515D01*
X4017327Y-4178550D01*
X4018970Y-4175026D01*
X4018970Y-4175025D01*
X4018970Y-4175025D01*
X4020388Y-4169233D01*
X4019174Y-4161349D01*
X4015036Y-4154530D01*
X4010227Y-4151004D01*
X4010202Y-4150992D01*
X3869598Y-4085428D01*
X3864354Y-4080810D01*
X3862439Y-4074091D01*
X3864460Y-4067403D01*
X3865201Y-4066387D01*
X3882038Y-4045595D01*
X3882459Y-4045102D01*
X3933521Y-3988392D01*
X3933964Y-3987925D01*
X3987925Y-3933964D01*
X3988392Y-3933521D01*
X4045103Y-3882458D01*
X4045596Y-3882037D01*
X4067005Y-3864701D01*
X4073453Y-3862012D01*
X4080332Y-3863236D01*
G37*
%TD.AperFunction*%
%TA.AperFunction,Conductor*%
G36*
X3805806Y-4164937D02*
G01*
X3809211Y-4167434D01*
X3810272Y-4168212D01*
X3887008Y-4203994D01*
X3892252Y-4208611D01*
X3894167Y-4215331D01*
X3892145Y-4222019D01*
X3886829Y-4226552D01*
X3884977Y-4227210D01*
X3880681Y-4228361D01*
X3880681Y-4228361D01*
X3880681Y-4228361D01*
X3869269Y-4234950D01*
X3869268Y-4234950D01*
X3859950Y-4244268D01*
X3859950Y-4244269D01*
X3853361Y-4255681D01*
X3849950Y-4268411D01*
X3849950Y-4270346D01*
X3849085Y-4273289D01*
X3848433Y-4276288D01*
X3848058Y-4276790D01*
X3847981Y-4277050D01*
X3846318Y-4279114D01*
X3841454Y-4283977D01*
X3835322Y-4287326D01*
X3828353Y-4286827D01*
X3827446Y-4286447D01*
X3768053Y-4258752D01*
X3768052Y-4258752D01*
X3766231Y-4258306D01*
X3762260Y-4257334D01*
X3762260Y-4257334D01*
X3762260Y-4257334D01*
X3754608Y-4258512D01*
X3753069Y-4258306D01*
X3751543Y-4258600D01*
X3749676Y-4257853D01*
X3747683Y-4257586D01*
X3746499Y-4256581D01*
X3745057Y-4256004D01*
X3743890Y-4254365D01*
X3742357Y-4253064D01*
X3741905Y-4251578D01*
X3741004Y-4250312D01*
X3740908Y-4248303D01*
X3740322Y-4246379D01*
X3740741Y-4244787D01*
X3740671Y-4243333D01*
X3741983Y-4240057D01*
X3746502Y-4232230D01*
X3746836Y-4231684D01*
X3788074Y-4168183D01*
X3793376Y-4163633D01*
X3800297Y-4162672D01*
X3805806Y-4164937D01*
G37*
%TD.AperFunction*%
%TA.AperFunction,Conductor*%
G36*
X6126804Y-4141968D02*
G01*
X6131379Y-4147249D01*
X6132500Y-4152400D01*
X6132500Y-4237500D01*
X6132912Y-4237912D01*
X6136261Y-4244045D01*
X6135762Y-4251014D01*
X6134253Y-4253861D01*
X6133649Y-4254711D01*
X6129695Y-4258666D01*
X6126788Y-4264371D01*
X6126261Y-4265113D01*
X6124203Y-4266735D01*
X6122403Y-4268641D01*
X6121503Y-4268864D01*
X6120774Y-4269438D01*
X6118165Y-4269690D01*
X6115621Y-4270320D01*
X6114743Y-4270021D01*
X6113820Y-4270110D01*
X6111488Y-4268912D01*
X6109007Y-4268066D01*
X6108431Y-4267340D01*
X6107606Y-4266916D01*
X6106292Y-4264647D01*
X6104662Y-4262595D01*
X6104313Y-4261621D01*
X6101802Y-4253560D01*
X6099952Y-4250500D01*
X6094900Y-4250500D01*
X6088196Y-4248532D01*
X6083621Y-4243251D01*
X6082500Y-4238100D01*
X6082500Y-4152400D01*
X6084468Y-4145696D01*
X6089749Y-4141121D01*
X6094900Y-4140000D01*
X6120100Y-4140000D01*
X6126804Y-4141968D01*
G37*
%TD.AperFunction*%
%TA.AperFunction,Conductor*%
G36*
X5442116Y-4105250D02*
G01*
X5444396Y-4105430D01*
X5445409Y-4106200D01*
X5446632Y-4106553D01*
X5448138Y-4108274D01*
X5449959Y-4109658D01*
X5450395Y-4110854D01*
X5451233Y-4111811D01*
X5451569Y-4114074D01*
X5452352Y-4116222D01*
X5452191Y-4118262D01*
X5452260Y-4118722D01*
X5452075Y-4119741D01*
X5450220Y-4127977D01*
X5450562Y-4144973D01*
X5450562Y-4144973D01*
X5454962Y-4161393D01*
X5463163Y-4176283D01*
X5474689Y-4188777D01*
X5474690Y-4188777D01*
X5480476Y-4192858D01*
X5487323Y-4196811D01*
X5492145Y-4201868D01*
X5493467Y-4208729D01*
X5490870Y-4215215D01*
X5485179Y-4219268D01*
X5481123Y-4219950D01*
X5362483Y-4219950D01*
X5355779Y-4217982D01*
X5351204Y-4212701D01*
X5350210Y-4205785D01*
X5353112Y-4199430D01*
X5353715Y-4198782D01*
X5356117Y-4196380D01*
X5359453Y-4193044D01*
X5363409Y-4186192D01*
X5365457Y-4178550D01*
X5365457Y-4174137D01*
X5367425Y-4167434D01*
X5369089Y-4165369D01*
X5372008Y-4162450D01*
X5375457Y-4159001D01*
X5382046Y-4147588D01*
X5385457Y-4134859D01*
X5385457Y-4123271D01*
X5387425Y-4116567D01*
X5392706Y-4111991D01*
X5399621Y-4110997D01*
X5402300Y-4111694D01*
X5403693Y-4112229D01*
X5415698Y-4112858D01*
X5416362Y-4112893D01*
X5416362Y-4112893D01*
X5416362Y-4112893D01*
X5428616Y-4109609D01*
X5433224Y-4106617D01*
X5435416Y-4105962D01*
X5437431Y-4104881D01*
X5438699Y-4104981D01*
X5439919Y-4104616D01*
X5442116Y-4105250D01*
G37*
%TD.AperFunction*%
%TA.AperFunction,Conductor*%
G36*
X5622618Y-4007224D02*
G01*
X5624973Y-4009224D01*
X5624997Y-4009250D01*
X5624997Y-4009250D01*
X5624997Y-4009250D01*
X5628910Y-4012119D01*
X5629806Y-4012776D01*
X5714952Y-4052480D01*
X5714952Y-4052480D01*
X5714953Y-4052481D01*
X5718599Y-4053373D01*
X5724420Y-4056649D01*
X5776318Y-4108548D01*
X5777788Y-4111240D01*
X5779448Y-4113822D01*
X5779537Y-4114442D01*
X5779667Y-4114680D01*
X5779950Y-4117316D01*
X5779950Y-4122149D01*
X5777981Y-4128853D01*
X5776318Y-4130917D01*
X5772167Y-4135068D01*
X5766035Y-4138417D01*
X5763399Y-4138700D01*
X5740286Y-4138700D01*
X5734086Y-4137039D01*
X5730673Y-4135068D01*
X5725700Y-4132197D01*
X5702278Y-4118674D01*
X5697845Y-4116973D01*
X5693413Y-4115271D01*
X5692782Y-4115238D01*
X5680744Y-4114607D01*
X5668115Y-4117991D01*
X5661130Y-4117825D01*
X5655344Y-4113909D01*
X5652593Y-4107486D01*
X5652508Y-4106263D01*
X5652332Y-4097527D01*
X5652332Y-4097527D01*
X5647933Y-4081107D01*
X5639731Y-4066217D01*
X5628205Y-4053723D01*
X5628204Y-4053723D01*
X5622417Y-4049641D01*
X5621848Y-4049312D01*
X5621847Y-4049312D01*
X5579298Y-4123011D01*
X5574241Y-4127833D01*
X5567380Y-4129155D01*
X5562359Y-4127550D01*
X5540535Y-4114950D01*
X5535714Y-4109893D01*
X5534391Y-4103032D01*
X5535996Y-4098011D01*
X5578846Y-4023793D01*
X5583903Y-4018971D01*
X5590764Y-4017649D01*
X5595785Y-4019254D01*
X5600192Y-4021799D01*
X5600192Y-4021799D01*
X5604593Y-4012362D01*
X5609210Y-4007118D01*
X5615930Y-4005202D01*
X5622618Y-4007224D01*
G37*
%TD.AperFunction*%
%TA.AperFunction,Conductor*%
G36*
X4609304Y-4029418D02*
G01*
X4613879Y-4034699D01*
X4615000Y-4039850D01*
X4615000Y-4047500D01*
X4687500Y-4047500D01*
X4687500Y-4045169D01*
X4687500Y-4045168D01*
X4687085Y-4041110D01*
X4688362Y-4034241D01*
X4693150Y-4029152D01*
X4699421Y-4027450D01*
X4750100Y-4027450D01*
X4756804Y-4029418D01*
X4761379Y-4034699D01*
X4762500Y-4039850D01*
X4762500Y-4068750D01*
X4812600Y-4068750D01*
X4813469Y-4069005D01*
X4814365Y-4068876D01*
X4816769Y-4069974D01*
X4819304Y-4070718D01*
X4819897Y-4071402D01*
X4820720Y-4071779D01*
X4822149Y-4074002D01*
X4823879Y-4075999D01*
X4824108Y-4077050D01*
X4824498Y-4077656D01*
X4825000Y-4081150D01*
X4825000Y-4081250D01*
X4825100Y-4081250D01*
X4831804Y-4083218D01*
X4836379Y-4088499D01*
X4837500Y-4093650D01*
X4837500Y-4121010D01*
X4836546Y-4124259D01*
X4835649Y-4127528D01*
X4835564Y-4127605D01*
X4835532Y-4127714D01*
X4832973Y-4129931D01*
X4830450Y-4132197D01*
X4830337Y-4132215D01*
X4830251Y-4132290D01*
X4826896Y-4132772D01*
X4823553Y-4133314D01*
X4823449Y-4133268D01*
X4823335Y-4133284D01*
X4820252Y-4131876D01*
X4817147Y-4130524D01*
X4817047Y-4130412D01*
X4816980Y-4130382D01*
X4814789Y-4127898D01*
X4814589Y-4127599D01*
X4812502Y-4120931D01*
X4812500Y-4120711D01*
X4812500Y-4093750D01*
X4762500Y-4093750D01*
X4762500Y-4105050D01*
X4760532Y-4111754D01*
X4755251Y-4116329D01*
X4750100Y-4117450D01*
X4716160Y-4117450D01*
X4712078Y-4118262D01*
X4708488Y-4118976D01*
X4708488Y-4118976D01*
X4708488Y-4118976D01*
X4708415Y-4119006D01*
X4707598Y-4119169D01*
X4707164Y-4119448D01*
X4703670Y-4119950D01*
X4699176Y-4119950D01*
X4692472Y-4117981D01*
X4687897Y-4112701D01*
X4686840Y-4106290D01*
X4687500Y-4099832D01*
X4687500Y-4099831D01*
X4687500Y-4097500D01*
X4602400Y-4097500D01*
X4595696Y-4095531D01*
X4591121Y-4090251D01*
X4590000Y-4085100D01*
X4590000Y-4072500D01*
X4577400Y-4072500D01*
X4576531Y-4072245D01*
X4575635Y-4072374D01*
X4573231Y-4071276D01*
X4570696Y-4070531D01*
X4570103Y-4069847D01*
X4569280Y-4069471D01*
X4567851Y-4067248D01*
X4566121Y-4065251D01*
X4565892Y-4064200D01*
X4565502Y-4063593D01*
X4565000Y-4060100D01*
X4565000Y-4039850D01*
X4566969Y-4033146D01*
X4572249Y-4028571D01*
X4577400Y-4027450D01*
X4602600Y-4027450D01*
X4609304Y-4029418D01*
G37*
%TD.AperFunction*%
%TA.AperFunction,Conductor*%
G36*
X5496864Y-3616738D02*
G01*
X5562222Y-3641827D01*
X5562822Y-3642075D01*
X5632535Y-3673113D01*
X5633117Y-3673391D01*
X5690452Y-3702605D01*
X5701111Y-3708036D01*
X5701680Y-3708345D01*
X5706004Y-3710841D01*
X5706122Y-3710909D01*
X5710943Y-3715966D01*
X5712265Y-3722827D01*
X5710011Y-3728457D01*
X5710153Y-3728543D01*
X5706655Y-3734333D01*
X5660351Y-3833632D01*
X5660351Y-3833633D01*
X5658924Y-3837811D01*
X5749400Y-3804881D01*
X5756373Y-3804438D01*
X5762478Y-3807835D01*
X5765293Y-3812292D01*
X5769602Y-3824132D01*
X5781442Y-3819823D01*
X5788415Y-3819379D01*
X5794521Y-3822776D01*
X5797336Y-3827234D01*
X5830266Y-3917710D01*
X5832550Y-3913930D01*
X5832550Y-3913929D01*
X5869864Y-3833910D01*
X5871239Y-3832348D01*
X5872210Y-3830508D01*
X5873501Y-3829779D01*
X5874481Y-3828666D01*
X5876482Y-3828095D01*
X5878294Y-3827072D01*
X5879774Y-3827157D01*
X5881201Y-3826750D01*
X5883192Y-3827352D01*
X5885269Y-3827471D01*
X5887528Y-3828663D01*
X5887889Y-3828772D01*
X5888390Y-3829118D01*
X5892836Y-3832348D01*
X5894585Y-3833619D01*
X5895101Y-3834014D01*
X5954404Y-3882037D01*
X5954898Y-3882459D01*
X6011606Y-3933519D01*
X6012077Y-3933966D01*
X6066034Y-3987923D01*
X6066481Y-3988394D01*
X6096562Y-4021803D01*
X6099585Y-4028102D01*
X6098723Y-4035035D01*
X6094249Y-4040402D01*
X6087583Y-4042498D01*
X6087347Y-4042500D01*
X6080169Y-4042500D01*
X6080168Y-4042500D01*
X6070239Y-4043514D01*
X6054152Y-4048845D01*
X6054151Y-4048846D01*
X6039727Y-4057742D01*
X6039727Y-4057743D01*
X6027743Y-4069727D01*
X6021539Y-4079784D01*
X6016344Y-4084456D01*
X6009448Y-4085579D01*
X6003040Y-4082794D01*
X6002217Y-4082042D01*
X6000322Y-4080148D01*
X6000322Y-4080147D01*
X6000322Y-4080147D01*
X5988313Y-4074028D01*
X5988312Y-4074028D01*
X5988312Y-4074028D01*
X5978349Y-4072450D01*
X5978349Y-4072450D01*
X5926651Y-4072450D01*
X5926651Y-4072450D01*
X5916688Y-4074028D01*
X5904678Y-4080147D01*
X5903194Y-4081631D01*
X5898774Y-4086051D01*
X5896081Y-4087521D01*
X5893500Y-4089180D01*
X5892880Y-4089269D01*
X5892642Y-4089399D01*
X5890006Y-4089682D01*
X5875868Y-4089682D01*
X5869164Y-4087714D01*
X5867099Y-4086051D01*
X5860732Y-4079683D01*
X5860731Y-4079682D01*
X5851047Y-4074091D01*
X5849319Y-4073093D01*
X5839758Y-4070531D01*
X5836589Y-4069682D01*
X5827583Y-4069682D01*
X5820879Y-4067714D01*
X5818815Y-4066051D01*
X5763408Y-4010643D01*
X5760059Y-4004511D01*
X5760558Y-3997542D01*
X5760938Y-3996635D01*
X5763180Y-3991826D01*
X5775873Y-3964607D01*
X5782904Y-3949528D01*
X5782904Y-3949528D01*
X5782904Y-3949528D01*
X5784322Y-3943736D01*
X5784322Y-3943735D01*
X5784375Y-3942515D01*
X5784733Y-3942531D01*
X5785098Y-3939801D01*
X5754661Y-3856175D01*
X5754661Y-3856175D01*
X5671045Y-3886608D01*
X5670031Y-3888430D01*
X5669417Y-3888908D01*
X5669420Y-3888911D01*
X5668520Y-3889736D01*
X5664993Y-3894545D01*
X5647717Y-3931595D01*
X5643100Y-3936839D01*
X5636380Y-3938754D01*
X5629692Y-3936732D01*
X5625549Y-3932210D01*
X5619113Y-3920198D01*
X5618012Y-3919079D01*
X5509980Y-3958400D01*
X5503007Y-3958843D01*
X5496901Y-3955446D01*
X5494086Y-3950989D01*
X5489777Y-3939149D01*
X5477937Y-3943458D01*
X5470964Y-3943901D01*
X5464858Y-3940504D01*
X5462044Y-3936047D01*
X5431378Y-3851795D01*
X5431125Y-3851099D01*
X5484334Y-3851099D01*
X5504719Y-3907106D01*
X5560726Y-3886721D01*
X5484334Y-3851099D01*
X5431125Y-3851099D01*
X5422723Y-3828015D01*
X5422723Y-3828014D01*
X5421159Y-3827890D01*
X5407820Y-3830681D01*
X5400855Y-3830128D01*
X5395295Y-3825896D01*
X5392905Y-3819331D01*
X5394042Y-3813304D01*
X5411318Y-3776255D01*
X5411318Y-3776255D01*
X5411318Y-3776254D01*
X5412736Y-3770462D01*
X5411522Y-3762578D01*
X5407384Y-3755759D01*
X5406751Y-3754715D01*
X5407061Y-3754527D01*
X5404911Y-3750147D01*
X5405713Y-3743206D01*
X5410141Y-3737801D01*
X5415606Y-3736030D01*
X5415571Y-3735801D01*
X5416778Y-3735615D01*
X5416778Y-3735615D01*
X5424661Y-3734402D01*
X5431480Y-3730264D01*
X5435006Y-3725455D01*
X5474553Y-3640648D01*
X5478937Y-3631245D01*
X5478937Y-3631245D01*
X5478937Y-3631245D01*
X5480355Y-3625453D01*
X5480354Y-3625452D01*
X5480375Y-3625367D01*
X5483881Y-3619323D01*
X5490097Y-3616134D01*
X5496864Y-3616738D01*
G37*
%TD.AperFunction*%
%TA.AperFunction,Conductor*%
G36*
X5038803Y-3530571D02*
G01*
X5115009Y-3534564D01*
X5115650Y-3534615D01*
X5191547Y-3542592D01*
X5192187Y-3542676D01*
X5255791Y-3552750D01*
X5267556Y-3554614D01*
X5268195Y-3554732D01*
X5287894Y-3558919D01*
X5342836Y-3570597D01*
X5343466Y-3570749D01*
X5347087Y-3571719D01*
X5353053Y-3575356D01*
X5356106Y-3581640D01*
X5355277Y-3588578D01*
X5355116Y-3588937D01*
X5317096Y-3670472D01*
X5317096Y-3670472D01*
X5315678Y-3676264D01*
X5315678Y-3676264D01*
X5316892Y-3684148D01*
X5321663Y-3692011D01*
X5321353Y-3692199D01*
X5323502Y-3696579D01*
X5322700Y-3703520D01*
X5318273Y-3708926D01*
X5312808Y-3710696D01*
X5312843Y-3710925D01*
X5303753Y-3712325D01*
X5296934Y-3716463D01*
X5296934Y-3716463D01*
X5296934Y-3716463D01*
X5293408Y-3721271D01*
X5293407Y-3721272D01*
X5249477Y-3815481D01*
X5249477Y-3815482D01*
X5248059Y-3821274D01*
X5248059Y-3821274D01*
X5249273Y-3829157D01*
X5253410Y-3835976D01*
X5253411Y-3835976D01*
X5253411Y-3835976D01*
X5257485Y-3838964D01*
X5258220Y-3839503D01*
X5295271Y-3856780D01*
X5300515Y-3861397D01*
X5302430Y-3868117D01*
X5300409Y-3874805D01*
X5295092Y-3879338D01*
X5293240Y-3879996D01*
X5280681Y-3883361D01*
X5280681Y-3883361D01*
X5280681Y-3883361D01*
X5272096Y-3888317D01*
X5265306Y-3889964D01*
X5258703Y-3887679D01*
X5257128Y-3886347D01*
X5249163Y-3878381D01*
X5249163Y-3878381D01*
X5240287Y-3873257D01*
X5237750Y-3871792D01*
X5231385Y-3870087D01*
X5225021Y-3868381D01*
X5211842Y-3868381D01*
X5199113Y-3871792D01*
X5187700Y-3878381D01*
X5187700Y-3878381D01*
X5178382Y-3887700D01*
X5178381Y-3887700D01*
X5171792Y-3899112D01*
X5171750Y-3899269D01*
X5168671Y-3910759D01*
X5165035Y-3916725D01*
X5158750Y-3919778D01*
X5156694Y-3919950D01*
X5150254Y-3919950D01*
X5147197Y-3920769D01*
X5142611Y-3921998D01*
X5142611Y-3921998D01*
X5138332Y-3924468D01*
X5135759Y-3925954D01*
X5135759Y-3925954D01*
X5050954Y-4010759D01*
X5050954Y-4010760D01*
X5050169Y-4012119D01*
X5045112Y-4016941D01*
X5038251Y-4018263D01*
X5037011Y-4018081D01*
X5033840Y-4017450D01*
X5016160Y-4017450D01*
X5008488Y-4018976D01*
X5006889Y-4020045D01*
X5000221Y-4022132D01*
X4993483Y-4020284D01*
X4993111Y-4020045D01*
X4991512Y-4018976D01*
X4983840Y-4017450D01*
X4966160Y-4017450D01*
X4966160Y-4017450D01*
X4962989Y-4018081D01*
X4956030Y-4017458D01*
X4950512Y-4013171D01*
X4949831Y-4012119D01*
X4949046Y-4010760D01*
X4949046Y-4010759D01*
X4943451Y-4005164D01*
X4739241Y-3800954D01*
X4739241Y-3800954D01*
X4739240Y-3800953D01*
X4732389Y-3796998D01*
X4732389Y-3796998D01*
X4729841Y-3796315D01*
X4724746Y-3794950D01*
X4724746Y-3794950D01*
X4592583Y-3794950D01*
X4585879Y-3792981D01*
X4583815Y-3791318D01*
X4543105Y-3750607D01*
X4540221Y-3746081D01*
X4509120Y-3660631D01*
X4507829Y-3657907D01*
X4499349Y-3647542D01*
X4491360Y-3642240D01*
X4490589Y-3641324D01*
X4489533Y-3640760D01*
X4488382Y-3638699D01*
X4486863Y-3636893D01*
X4486710Y-3635705D01*
X4486126Y-3634660D01*
X4486272Y-3632304D01*
X4485971Y-3629963D01*
X4486484Y-3628881D01*
X4486558Y-3627686D01*
X4487955Y-3625783D01*
X4488967Y-3623651D01*
X4490087Y-3622877D01*
X4490692Y-3622053D01*
X4493773Y-3620332D01*
X4509020Y-3614479D01*
X4509627Y-3614264D01*
X4541754Y-3603826D01*
X4548738Y-3603626D01*
X4554721Y-3607234D01*
X4557804Y-3613504D01*
X4557479Y-3619126D01*
X4555081Y-3627257D01*
X4555248Y-3640648D01*
X4555248Y-3640648D01*
X4556011Y-3643565D01*
X4590880Y-3739369D01*
X4591699Y-3741097D01*
X4592171Y-3742092D01*
X4600651Y-3752458D01*
X4611809Y-3759863D01*
X4624654Y-3763651D01*
X4624655Y-3763651D01*
X4624655Y-3763651D01*
X4632094Y-3763558D01*
X4638045Y-3763484D01*
X4640961Y-3762722D01*
X4696829Y-3742388D01*
X4699553Y-3741097D01*
X4709918Y-3732617D01*
X4709918Y-3732617D01*
X4709918Y-3732617D01*
X4716711Y-3722382D01*
X4717323Y-3721459D01*
X4721111Y-3708614D01*
X4721036Y-3702604D01*
X4722921Y-3695877D01*
X4728144Y-3691236D01*
X4733435Y-3690050D01*
X4736589Y-3690050D01*
X4736589Y-3690050D01*
X4749319Y-3686639D01*
X4760731Y-3680050D01*
X4770050Y-3670731D01*
X4776639Y-3659319D01*
X4780050Y-3646589D01*
X4780050Y-3633411D01*
X4776639Y-3620681D01*
X4770050Y-3609269D01*
X4760731Y-3599950D01*
X4753450Y-3595746D01*
X4749319Y-3593361D01*
X4738951Y-3590583D01*
X4736589Y-3589950D01*
X4723411Y-3589950D01*
X4710681Y-3593361D01*
X4705240Y-3596502D01*
X4701239Y-3598812D01*
X4694450Y-3600459D01*
X4687847Y-3598174D01*
X4685298Y-3595746D01*
X4684433Y-3594647D01*
X4684021Y-3593779D01*
X4676700Y-3584829D01*
X4676629Y-3584739D01*
X4675368Y-3581598D01*
X4674051Y-3578483D01*
X4674072Y-3578365D01*
X4674027Y-3578254D01*
X4674665Y-3574931D01*
X4675241Y-3571598D01*
X4675322Y-3571510D01*
X4675344Y-3571393D01*
X4677676Y-3568943D01*
X4679964Y-3566449D01*
X4680103Y-3566394D01*
X4680162Y-3566332D01*
X4680417Y-3566270D01*
X4683792Y-3564937D01*
X4731806Y-3554732D01*
X4732444Y-3554614D01*
X4807814Y-3542676D01*
X4808452Y-3542592D01*
X4884350Y-3534615D01*
X4884991Y-3534564D01*
X4961197Y-3530571D01*
X4961846Y-3530554D01*
X5038154Y-3530554D01*
X5038803Y-3530571D01*
G37*
%TD.AperFunction*%
%TA.AperFunction,Conductor*%
G36*
X4374925Y-3677429D02*
G01*
X4378951Y-3683140D01*
X4379250Y-3690120D01*
X4379107Y-3690646D01*
X4378889Y-3691386D01*
X4379056Y-3704777D01*
X4379056Y-3704777D01*
X4379818Y-3707694D01*
X4414688Y-3803497D01*
X4415134Y-3804438D01*
X4415979Y-3806221D01*
X4424458Y-3816587D01*
X4435617Y-3823992D01*
X4448462Y-3827780D01*
X4448462Y-3827780D01*
X4448462Y-3827780D01*
X4455901Y-3827687D01*
X4461853Y-3827613D01*
X4464769Y-3826851D01*
X4508362Y-3810984D01*
X4515335Y-3810541D01*
X4521371Y-3813868D01*
X4550954Y-3843451D01*
X4556549Y-3849046D01*
X4556549Y-3849046D01*
X4556550Y-3849046D01*
X4560249Y-3851182D01*
X4563401Y-3853002D01*
X4571044Y-3855050D01*
X4578956Y-3855050D01*
X4703207Y-3855050D01*
X4709910Y-3857018D01*
X4711975Y-3858682D01*
X4799475Y-3946182D01*
X4802823Y-3952314D01*
X4802325Y-3959283D01*
X4798138Y-3964877D01*
X4791591Y-3967318D01*
X4790707Y-3967350D01*
X4526144Y-3967350D01*
X4524126Y-3967891D01*
X4518501Y-3969398D01*
X4518501Y-3969398D01*
X4512818Y-3972679D01*
X4511649Y-3973354D01*
X4511649Y-3973354D01*
X4491218Y-3993785D01*
X4485086Y-3997133D01*
X4478117Y-3996635D01*
X4472523Y-3992448D01*
X4470082Y-3985901D01*
X4470050Y-3985017D01*
X4470050Y-3970517D01*
X4470050Y-3970516D01*
X4469732Y-3969328D01*
X4468002Y-3962874D01*
X4464046Y-3956021D01*
X4365339Y-3857315D01*
X4361991Y-3851182D01*
X4361896Y-3846393D01*
X4362414Y-3843451D01*
X4363206Y-3838964D01*
X4363440Y-3833605D01*
X4362292Y-3820490D01*
X4361131Y-3815252D01*
X4356628Y-3802881D01*
X4356628Y-3802881D01*
X4356628Y-3802880D01*
X4355258Y-3800249D01*
X4354151Y-3798123D01*
X4347695Y-3788902D01*
X4347695Y-3788902D01*
X4321697Y-3751773D01*
X4321697Y-3751773D01*
X4317922Y-3746381D01*
X4317921Y-3746381D01*
X4314297Y-3742425D01*
X4304212Y-3733963D01*
X4299688Y-3731081D01*
X4299688Y-3731081D01*
X4299687Y-3731081D01*
X4298734Y-3730636D01*
X4297870Y-3729875D01*
X4296782Y-3729499D01*
X4295295Y-3727608D01*
X4293490Y-3726019D01*
X4293175Y-3724912D01*
X4292463Y-3724006D01*
X4292234Y-3721612D01*
X4291575Y-3719300D01*
X4291908Y-3718197D01*
X4291799Y-3717051D01*
X4292901Y-3714914D01*
X4293597Y-3712612D01*
X4294555Y-3711705D01*
X4295001Y-3710841D01*
X4297775Y-3708660D01*
X4298321Y-3708344D01*
X4298888Y-3708036D01*
X4361584Y-3676091D01*
X4368451Y-3674801D01*
X4374925Y-3677429D01*
G37*
%TD.AperFunction*%
%TD*%
M02*
